<svg xmlns="http://www.w3.org/2000/svg" xmlns:xlink="http://www.w3.org/1999/xlink" width="703.742" height="641" viewBox="0 0 703.742 641">
  <defs>
    <clipPath id="clip-path">
      <path id="Rectangle_729" data-name="Rectangle 729" d="M0,10.841,579.976,0V574.108L0,640.684Z" fill="#ffcb0c"/>
    </clipPath>
  </defs>
  <g id="Group_127" data-name="Group 127" transform="translate(-1106 -1292.588)">
    <g id="Rectangle_bg" transform="translate(1193.728 1292.588)">
      <path id="Rectangle_725" data-name="Rectangle 725" d="M0,66.539,552,0V271.5L0,338.04Z" transform="translate(34.272 302.96)" fill="#ffcb0c"/>
    </g>
    <g id="BoywithApp_img" transform="translate(1106 1333.49)">
      <g id="Group_4" data-name="Group 4" transform="translate(0 2.044)" opacity="0.1">
        <g id="Group_3" data-name="Group 3" opacity="0.1">
          <path id="Path_553" data-name="Path 553" d="M286.8,1.367H2.723A2.732,2.732,0,0,0,0,4.092V411.048a2.732,2.732,0,0,0,2.723,2.725H286.8a2.733,2.733,0,0,0,2.724-2.725V4.092A2.733,2.733,0,0,0,286.8,1.367Z" transform="translate(0 -1.367)" fill="#ffcb0c" opacity="0.1"/>
        </g>
      </g>
      <path id="Path_554" data-name="Path 554" d="M286.8,0H2.723A2.732,2.732,0,0,0,0,2.725v24.16H289.527V2.725A2.733,2.733,0,0,0,286.8,0Z" fill="#ffdd71"/>
      <path id="Path_555" data-name="Path 555" d="M267.512,136.971H12.233v76.34H267.512Z" transform="translate(6.06 67.847)" fill="#ffcb0c"/>
      <g id="Group_6" data-name="Group 6" transform="translate(37.608 227.683)" opacity="0.42">
        <g id="Group_5" data-name="Group 5" opacity="0.42">
          <path id="Path_556" data-name="Path 556" d="M84.226,152.262H25.15v39.92H84.226Z" transform="translate(-25.15 -152.262)" fill="#ffe8e3" opacity="0.42"/>
        </g>
      </g>
      <path id="Path_557" data-name="Path 557" d="M87.346,178.973H23.48v4.042H87.346Z" transform="translate(11.631 88.652)" fill="#ea5e3d"/>
      <path id="Path_558" data-name="Path 558" d="M60.17,159.445H27.988v21.186H60.17Z" transform="translate(13.863 78.979)" fill="#ff7b57"/>
      <path id="Path_559" data-name="Path 559" d="M56.312,161.389H30.234v15.395H56.312Z" transform="translate(14.976 79.942)" fill="#fff"/>
      <path id="Path_560" data-name="Path 560" d="M67.665,158.974H51.847v29.475H67.665Z" transform="translate(25.682 78.746)" fill="#ff7b57"/>
      <path id="Path_561" data-name="Path 561" d="M62.146,160.963H55.292v12.761h6.854Z" transform="translate(27.388 79.731)" fill="#fff"/>
      <path id="Path_562" data-name="Path 562" d="M90.008,141.982H23.283v12.4H90.008Z" transform="translate(11.533 70.329)" fill="#ea5e3d"/>
      <path id="Path_563" data-name="Path 563" d="M20.854,158.97a1.318,1.318,0,0,0,1.316,1.317h3.858a1.318,1.318,0,0,0,1.316-1.317v-8.7H20.854Z" transform="translate(10.33 74.436)" fill="#dd4528"/>
      <path id="Path_564" data-name="Path 564" d="M25.15,158.97a1.318,1.318,0,0,0,1.316,1.317h3.858a1.318,1.318,0,0,0,1.316-1.317v-8.7H25.15Z" transform="translate(12.458 74.436)" fill="#fff"/>
      <path id="Path_565" data-name="Path 565" d="M29.445,158.97a1.318,1.318,0,0,0,1.316,1.317H34.62a1.318,1.318,0,0,0,1.316-1.317v-8.7H29.445Z" transform="translate(14.585 74.436)" fill="#dd4528"/>
      <path id="Path_566" data-name="Path 566" d="M33.755,158.97a1.318,1.318,0,0,0,1.316,1.317H38.93a1.318,1.318,0,0,0,1.316-1.317v-8.7H33.755Z" transform="translate(16.72 74.436)" fill="#fff"/>
      <path id="Path_567" data-name="Path 567" d="M38.051,158.97a1.318,1.318,0,0,0,1.316,1.317h3.858a1.318,1.318,0,0,0,1.316-1.317v-8.7H38.051Z" transform="translate(18.848 74.436)" fill="#dd4528"/>
      <path id="Path_568" data-name="Path 568" d="M42.346,158.97a1.318,1.318,0,0,0,1.316,1.317h3.858a1.318,1.318,0,0,0,1.316-1.317v-8.7H42.346Z" transform="translate(20.976 74.436)" fill="#fff"/>
      <path id="Path_569" data-name="Path 569" d="M46.656,158.97a1.318,1.318,0,0,0,1.316,1.317h3.858a1.318,1.318,0,0,0,1.316-1.317v-8.7H46.656Z" transform="translate(23.111 74.436)" fill="#dd4528"/>
      <path id="Path_570" data-name="Path 570" d="M50.952,158.97a1.318,1.318,0,0,0,1.316,1.317h3.858a1.318,1.318,0,0,0,1.316-1.317v-8.7H50.952Z" transform="translate(25.238 74.436)" fill="#fff"/>
      <path id="Path_571" data-name="Path 571" d="M55.247,158.97a1.318,1.318,0,0,0,1.316,1.317h3.858a1.318,1.318,0,0,0,1.316-1.317v-8.7H55.247Z" transform="translate(27.366 74.436)" fill="#dd4528"/>
      <path id="Path_572" data-name="Path 572" d="M59.542,158.97a1.318,1.318,0,0,0,1.316,1.317h3.858a1.318,1.318,0,0,0,1.316-1.317v-8.7H59.542Z" transform="translate(29.493 74.436)" fill="#fff"/>
      <path id="Path_573" data-name="Path 573" d="M63.853,158.97a1.318,1.318,0,0,0,1.316,1.317h3.858a1.318,1.318,0,0,0,1.316-1.317v-8.7H63.853Z" transform="translate(31.629 74.436)" fill="#dd4528"/>
      <path id="Path_574" data-name="Path 574" d="M131.855,161.389H80.881v5.745h50.974Z" transform="translate(40.064 79.942)" fill="#fff"/>
      <path id="Path_575" data-name="Path 575" d="M175.628,169.193h-94.6a.455.455,0,0,0,0,.909h94.6a.455.455,0,0,0,0-.909Z" transform="translate(39.913 83.808)" fill="#fff"/>
      <path id="Path_576" data-name="Path 576" d="M175.628,173.461h-94.6a.454.454,0,1,0,0,.908h94.6a.454.454,0,0,0,0-.908Z" transform="translate(39.913 85.922)" fill="#fff"/>
      <path id="Path_577" data-name="Path 577" d="M175.628,177.728h-94.6a.454.454,0,1,0,0,.908h94.6a.454.454,0,0,0,0-.908Z" transform="translate(39.913 88.035)" fill="#fff"/>
      <path id="Path_578" data-name="Path 578" d="M90.482,146.568l-2.269-4.586-2.27,4.586-5.061.727,3.677,3.565L83.7,155.9l4.516-2.384,4.516,2.384-.862-5.041,3.677-3.565Z" transform="translate(40.064 70.329)" fill="#fff"/>
      <path id="Path_579" data-name="Path 579" d="M104.089,146.568l-2.247-4.586-2.27,4.586-5.061.727,3.654,3.565L97.3,155.9l4.539-2.384,4.517,2.384-.863-5.041,3.655-3.565Z" transform="translate(46.815 70.329)" fill="#fff"/>
      <path id="Path_580" data-name="Path 580" d="M117.725,146.568l-2.27-4.586-2.268,4.586-5.062.727,3.677,3.565-.863,5.041,4.516-2.384,4.54,2.384-.885-5.041,3.677-3.565Z" transform="translate(53.558 70.329)" fill="#fff"/>
      <path id="Path_581" data-name="Path 581" d="M131.333,146.568l-2.247-4.586-2.27,4.586-5.06.727,3.653,3.565-.861,5.041,4.538-2.384L133.6,155.9l-.863-5.041,3.653-3.565Z" transform="translate(60.31 70.329)" fill="#fff"/>
      <path id="Path_582" data-name="Path 582" d="M142.691,141.982l-2.246,4.586-5.062.727,3.655,3.565-.863,5.041,4.516-2.384,4.54,2.384-.863-5.041,3.655-3.565-5.062-.727Z" transform="translate(67.06 70.329)" fill="#fff"/>
      <g id="Group_9" data-name="Group 9" transform="translate(40.602 131.792)" opacity="0.42">
        <g id="Group_8" data-name="Group 8" opacity="0.42">
          <g id="Group_7" data-name="Group 7" opacity="0.42">
            <path id="Path_583" data-name="Path 583" d="M236.7,88.135H27.152v62.672H236.7Z" transform="translate(-27.152 -88.135)" fill="#ffcb0c" opacity="0.42"/>
          </g>
        </g>
      </g>
      <g id="Group_11" data-name="Group 11" transform="translate(56.466 150.57)" opacity="0.42">
        <g id="Group_10" data-name="Group 10" opacity="0.42">
          <path id="Path_584" data-name="Path 584" d="M86.262,100.693h-48.5V133.46h48.5Z" transform="translate(-37.761 -100.693)" fill="#ffe8e3" opacity="0.42"/>
        </g>
      </g>
      <path id="Path_585" data-name="Path 585" d="M88.822,122.606H36.4v3.315H88.822Z" transform="translate(18.028 60.731)" fill="#ea5e3d"/>
      <path id="Path_586" data-name="Path 586" d="M66.5,106.57H40.083v17.394H66.5Z" transform="translate(19.855 52.788)" fill="#ff7b57"/>
      <path id="Path_587" data-name="Path 587" d="M63.353,108.165h-21.4v12.624h21.4Z" transform="translate(20.78 53.578)" fill="#fff"/>
      <path id="Path_588" data-name="Path 588" d="M72.66,106.19H59.678v24.184H72.66Z" transform="translate(29.561 52.6)" fill="#ff7b57"/>
      <path id="Path_589" data-name="Path 589" d="M68.129,107.831H62.5v10.49h5.628Z" transform="translate(30.959 53.413)" fill="#fff"/>
      <path id="Path_590" data-name="Path 590" d="M90.993,92.235H36.229v10.173H90.993Z" transform="translate(17.946 45.688)" fill="#ea5e3d"/>
      <path id="Path_591" data-name="Path 591" d="M34.24,106.032a1.259,1.259,0,0,0,1.248,1.249h2.837a1.259,1.259,0,0,0,1.248-1.249V99.038H34.24Z" transform="translate(16.96 49.057)" fill="#dd4528"/>
      <path id="Path_592" data-name="Path 592" d="M37.761,106.032a1.259,1.259,0,0,0,1.248,1.249h2.837a1.259,1.259,0,0,0,1.248-1.249V99.038H37.761Z" transform="translate(18.705 49.057)" fill="#fff"/>
      <path id="Path_593" data-name="Path 593" d="M41.3,106.032a1.259,1.259,0,0,0,1.248,1.249h2.837a1.259,1.259,0,0,0,1.248-1.249V99.038H41.3Z" transform="translate(20.456 49.057)" fill="#dd4528"/>
      <path id="Path_594" data-name="Path 594" d="M44.819,106.032a1.259,1.259,0,0,0,1.248,1.249H48.9a1.259,1.259,0,0,0,1.248-1.249V99.038H44.819Z" transform="translate(22.2 49.057)" fill="#fff"/>
      <path id="Path_595" data-name="Path 595" d="M48.355,106.032A1.259,1.259,0,0,0,49.6,107.28h2.837a1.259,1.259,0,0,0,1.248-1.249V99.038H48.355Z" transform="translate(23.952 49.057)" fill="#dd4528"/>
      <path id="Path_596" data-name="Path 596" d="M51.892,106.032a1.259,1.259,0,0,0,1.248,1.249h2.837a1.259,1.259,0,0,0,1.248-1.249V99.038H51.892Z" transform="translate(25.704 49.057)" fill="#fff"/>
      <path id="Path_597" data-name="Path 597" d="M55.413,106.032a1.259,1.259,0,0,0,1.248,1.249H59.5a1.259,1.259,0,0,0,1.248-1.249V99.038H55.413Z" transform="translate(27.448 49.057)" fill="#dd4528"/>
      <path id="Path_598" data-name="Path 598" d="M58.949,106.032A1.259,1.259,0,0,0,60.2,107.28h2.837a1.259,1.259,0,0,0,1.248-1.249V99.038H58.949Z" transform="translate(29.2 49.057)" fill="#fff"/>
      <path id="Path_599" data-name="Path 599" d="M62.47,106.032a1.259,1.259,0,0,0,1.248,1.249h2.837a1.259,1.259,0,0,0,1.248-1.249V99.038H62.47Z" transform="translate(30.944 49.057)" fill="#dd4528"/>
      <path id="Path_600" data-name="Path 600" d="M66.007,106.032a1.259,1.259,0,0,0,1.248,1.249h2.837a1.259,1.259,0,0,0,1.248-1.249V99.038H66.007Z" transform="translate(32.696 49.057)" fill="#fff"/>
      <path id="Path_601" data-name="Path 601" d="M69.528,106.032a1.259,1.259,0,0,0,1.248,1.249h2.837a1.259,1.259,0,0,0,1.248-1.249V99.038H69.528Z" transform="translate(34.44 49.057)" fill="#dd4528"/>
      <path id="Path_602" data-name="Path 602" d="M125.372,108.165H83.521v4.722h41.851Z" transform="translate(41.371 53.578)" fill="#fff"/>
      <path id="Path_603" data-name="Path 603" d="M161.314,114.527H83.672a.455.455,0,0,0,0,.909h77.642a.455.455,0,0,0,0-.909Z" transform="translate(41.221 56.73)" fill="#fff"/>
      <path id="Path_604" data-name="Path 604" d="M161.314,118.035H83.672a.455.455,0,0,0,0,.909h77.642a.455.455,0,0,0,0-.909Z" transform="translate(41.221 58.467)" fill="#fff"/>
      <path id="Path_605" data-name="Path 605" d="M161.314,121.543H83.672a.454.454,0,0,0,0,.908h77.642a.454.454,0,0,0,0-.908Z" transform="translate(41.221 60.205)" fill="#fff"/>
      <path id="Path_606" data-name="Path 606" d="M91.374,96l-1.838-3.769L87.675,96l-4.153.613,3,2.929-.7,4.133,3.722-1.953,3.7,1.953-.7-4.133,3-2.929Z" transform="translate(41.371 45.688)" fill="#fff"/>
      <path id="Path_607" data-name="Path 607" d="M102.568,96l-1.861-3.769L98.846,96l-4.153.613,3.018,2.929-.7,4.133,3.7-1.953,3.723,1.953-.7-4.133,3-2.929Z" transform="translate(46.905 45.688)" fill="#fff"/>
      <path id="Path_608" data-name="Path 608" d="M113.754,96l-1.862-3.769L110.031,96l-4.153.613,3.019,2.929-.727,4.133,3.722-1.953,3.722,1.953-.727-4.133,3.019-2.929Z" transform="translate(52.445 45.688)" fill="#fff"/>
      <path id="Path_609" data-name="Path 609" d="M237.065,194.963H27.517v62.673H237.065Z" transform="translate(13.63 96.573)" fill="#ffdd71"/>
      <g id="Group_13" data-name="Group 13" transform="translate(57.011 310.316)" opacity="0.42">
        <g id="Group_12" data-name="Group 12" opacity="0.42">
          <path id="Path_610" data-name="Path 610" d="M86.626,207.522h-48.5v32.766h48.5Z" transform="translate(-38.126 -207.522)" fill="#ffe8e3" opacity="0.42"/>
        </g>
      </g>
      <path id="Path_611" data-name="Path 611" d="M89.187,229.434H36.76v3.315H89.187Z" transform="translate(18.209 113.647)" fill="#ea5e3d"/>
      <path id="Path_612" data-name="Path 612" d="M66.866,213.4H40.448v17.394H66.866Z" transform="translate(20.036 105.704)" fill="#ff7b57"/>
      <path id="Path_613" data-name="Path 613" d="M63.7,214.993H42.3v12.625H63.7Z" transform="translate(20.953 106.494)" fill="#fff"/>
      <path id="Path_614" data-name="Path 614" d="M73.025,213.019H60.043V237.2H73.025Z" transform="translate(29.742 105.516)" fill="#ff7b57"/>
      <path id="Path_615" data-name="Path 615" d="M68.494,214.659H62.865v10.49h5.628Z" transform="translate(31.14 106.329)" fill="#fff"/>
      <path id="Path_616" data-name="Path 616" d="M91.358,199.063H36.594v10.173H91.358Z" transform="translate(18.126 98.604)" fill="#ea5e3d"/>
      <path id="Path_617" data-name="Path 617" d="M34.6,212.861a1.26,1.26,0,0,0,1.248,1.249H38.69a1.26,1.26,0,0,0,1.248-1.249v-6.994H34.6Z" transform="translate(17.141 101.974)" fill="#dd4528"/>
      <path id="Path_618" data-name="Path 618" d="M38.126,212.861a1.26,1.26,0,0,0,1.248,1.249h2.837a1.26,1.26,0,0,0,1.248-1.249v-6.994H38.126Z" transform="translate(18.885 101.974)" fill="#fff"/>
      <path id="Path_619" data-name="Path 619" d="M41.663,212.861a1.26,1.26,0,0,0,1.248,1.249h2.837A1.26,1.26,0,0,0,47,212.861v-6.994H41.663Z" transform="translate(20.637 101.974)" fill="#dd4528"/>
      <path id="Path_620" data-name="Path 620" d="M45.184,212.861a1.26,1.26,0,0,0,1.248,1.249h2.837a1.26,1.26,0,0,0,1.248-1.249v-6.994H45.184Z" transform="translate(22.381 101.974)" fill="#fff"/>
      <path id="Path_621" data-name="Path 621" d="M48.72,212.861a1.26,1.26,0,0,0,1.248,1.249h2.837a1.26,1.26,0,0,0,1.248-1.249v-6.994H48.72Z" transform="translate(24.133 101.974)" fill="#dd4528"/>
      <path id="Path_622" data-name="Path 622" d="M52.241,212.861a1.26,1.26,0,0,0,1.248,1.249h2.837a1.26,1.26,0,0,0,1.248-1.249v-6.994H52.241Z" transform="translate(25.877 101.974)" fill="#fff"/>
      <path id="Path_623" data-name="Path 623" d="M55.778,212.861a1.26,1.26,0,0,0,1.248,1.249h2.837a1.26,1.26,0,0,0,1.248-1.249v-6.994H55.778Z" transform="translate(27.629 101.974)" fill="#dd4528"/>
      <path id="Path_624" data-name="Path 624" d="M59.3,212.861a1.26,1.26,0,0,0,1.248,1.249h2.837a1.26,1.26,0,0,0,1.248-1.249v-6.994H59.3Z" transform="translate(29.373 101.974)" fill="#fff"/>
      <path id="Path_625" data-name="Path 625" d="M62.835,212.861a1.26,1.26,0,0,0,1.248,1.249H66.92a1.26,1.26,0,0,0,1.248-1.249v-6.994H62.835Z" transform="translate(31.125 101.974)" fill="#dd4528"/>
      <path id="Path_626" data-name="Path 626" d="M66.356,212.861a1.26,1.26,0,0,0,1.248,1.249h2.837a1.26,1.26,0,0,0,1.248-1.249v-6.994H66.356Z" transform="translate(32.869 101.974)" fill="#fff"/>
      <path id="Path_627" data-name="Path 627" d="M69.893,212.861a1.26,1.26,0,0,0,1.248,1.249h2.837a1.26,1.26,0,0,0,1.248-1.249v-6.994H69.893Z" transform="translate(34.62 101.974)" fill="#dd4528"/>
      <path id="Path_628" data-name="Path 628" d="M125.722,214.993H83.872v4.722h41.851Z" transform="translate(41.545 106.494)" fill="#fff"/>
      <path id="Path_629" data-name="Path 629" d="M161.664,221.355H84.022a.455.455,0,0,0,0,.909h77.642a.455.455,0,0,0,0-.909Z" transform="translate(41.394 109.646)" fill="#fff"/>
      <path id="Path_630" data-name="Path 630" d="M161.664,224.863H84.022a.455.455,0,0,0,0,.909h77.642a.455.455,0,0,0,0-.909Z" transform="translate(41.394 111.383)" fill="#fff"/>
      <path id="Path_631" data-name="Path 631" d="M161.664,228.371H84.022a.455.455,0,0,0,0,.909h77.642a.455.455,0,0,0,0-.909Z" transform="translate(41.394 113.121)" fill="#fff"/>
      <path id="Path_632" data-name="Path 632" d="M91.747,202.833l-1.861-3.77-1.861,3.77-4.153.613,3.018,2.929-.7,4.133,3.7-1.953,3.722,1.953-.7-4.133,3-2.929Z" transform="translate(41.545 98.604)" fill="#fff"/>
      <path id="Path_1987" data-name="Path 1987" d="M91.747,202.833l-1.861-3.77-1.861,3.77-4.153.613,3.018,2.929-.7,4.133,3.7-1.953,3.722,1.953-.7-4.133,3-2.929Z" transform="translate(74.997 98.604)" fill="#fff"/>
      <path id="Path_633" data-name="Path 633" d="M102.933,202.833l-1.861-3.77-1.861,3.77-4.153.613,3.018,2.929-.726,4.133,3.722-1.953,3.722,1.953-.725-4.133,3.018-2.929Z" transform="translate(47.085 98.604)" fill="#fff"/>
      <path id="Path_1986" data-name="Path 1986" d="M102.933,202.833l-1.861-3.77-1.861,3.77-4.153.613,3.018,2.929-.726,4.133,3.722-1.953,3.722,1.953-.725-4.133,3.018-2.929Z" transform="translate(80.537 98.604)" fill="#fff"/>
      <path id="Path_634" data-name="Path 634" d="M236.7,40.074H27.152v62.672H236.7Z" transform="translate(13.45 19.85)" fill="#ffdd71"/>
      <g id="Group_15" data-name="Group 15" transform="translate(56.466 78.702)" opacity="0.42">
        <g id="Group_14" data-name="Group 14" opacity="0.42">
          <path id="Path_635" data-name="Path 635" d="M86.262,52.632h-48.5V85.4h48.5Z" transform="translate(-37.761 -52.632)" fill="#ffe8e3" opacity="0.42"/>
        </g>
      </g>
      <path id="Path_636" data-name="Path 636" d="M88.822,74.544H36.4V77.86H88.822Z" transform="translate(18.028 36.925)" fill="#ea5e3d"/>
      <path id="Path_637" data-name="Path 637" d="M66.5,58.524H40.083V75.918H66.5Z" transform="translate(19.855 28.989)" fill="#ff7b57"/>
      <path id="Path_638" data-name="Path 638" d="M63.353,60.118h-21.4V72.743h21.4Z" transform="translate(20.78 29.779)" fill="#fff"/>
      <path id="Path_639" data-name="Path 639" d="M72.66,58.129H59.678V82.312H72.66Z" transform="translate(29.561 28.793)" fill="#ff7b57"/>
      <path id="Path_640" data-name="Path 640" d="M68.129,59.769H62.5V70.26h5.628Z" transform="translate(30.959 29.606)" fill="#fff"/>
      <path id="Path_641" data-name="Path 641" d="M90.993,44.189H36.229V54.362H90.993Z" transform="translate(17.946 21.889)" fill="#ea5e3d"/>
      <path id="Path_642" data-name="Path 642" d="M34.24,57.986a1.26,1.26,0,0,0,1.248,1.249h2.837a1.26,1.26,0,0,0,1.248-1.249V50.992H34.24Z" transform="translate(16.96 25.258)" fill="#dd4528"/>
      <path id="Path_643" data-name="Path 643" d="M37.761,57.986a1.26,1.26,0,0,0,1.248,1.249h2.837a1.26,1.26,0,0,0,1.248-1.249V50.992H37.761Z" transform="translate(18.705 25.258)" fill="#fff"/>
      <path id="Path_644" data-name="Path 644" d="M41.3,57.986a1.26,1.26,0,0,0,1.248,1.249h2.837a1.26,1.26,0,0,0,1.248-1.249V50.992H41.3Z" transform="translate(20.456 25.258)" fill="#dd4528"/>
      <path id="Path_645" data-name="Path 645" d="M44.819,57.986a1.26,1.26,0,0,0,1.248,1.249H48.9a1.26,1.26,0,0,0,1.248-1.249V50.992H44.819Z" transform="translate(22.2 25.258)" fill="#fff"/>
      <path id="Path_646" data-name="Path 646" d="M48.355,57.986A1.26,1.26,0,0,0,49.6,59.234h2.837a1.26,1.26,0,0,0,1.248-1.249V50.992H48.355Z" transform="translate(23.952 25.258)" fill="#dd4528"/>
      <path id="Path_647" data-name="Path 647" d="M51.892,57.986a1.26,1.26,0,0,0,1.248,1.249h2.837a1.26,1.26,0,0,0,1.248-1.249V50.992H51.892Z" transform="translate(25.704 25.258)" fill="#fff"/>
      <path id="Path_648" data-name="Path 648" d="M55.413,57.986a1.26,1.26,0,0,0,1.248,1.249H59.5a1.26,1.26,0,0,0,1.248-1.249V50.992H55.413Z" transform="translate(27.448 25.258)" fill="#dd4528"/>
      <path id="Path_649" data-name="Path 649" d="M58.949,57.986A1.26,1.26,0,0,0,60.2,59.234h2.837a1.26,1.26,0,0,0,1.248-1.249V50.992H58.949Z" transform="translate(29.2 25.258)" fill="#fff"/>
      <path id="Path_650" data-name="Path 650" d="M62.47,57.986a1.26,1.26,0,0,0,1.248,1.249h2.837A1.26,1.26,0,0,0,67.8,57.986V50.992H62.47Z" transform="translate(30.944 25.258)" fill="#dd4528"/>
      <path id="Path_651" data-name="Path 651" d="M66.007,57.986a1.26,1.26,0,0,0,1.248,1.249h2.837a1.26,1.26,0,0,0,1.248-1.249V50.992H66.007Z" transform="translate(32.696 25.258)" fill="#fff"/>
      <path id="Path_652" data-name="Path 652" d="M69.528,57.986a1.26,1.26,0,0,0,1.248,1.249h2.837a1.26,1.26,0,0,0,1.248-1.249V50.992H69.528Z" transform="translate(34.44 25.258)" fill="#dd4528"/>
      <path id="Path_653" data-name="Path 653" d="M125.372,60.118H83.521v4.723h41.851Z" transform="translate(41.371 29.779)" fill="#fff"/>
      <path id="Path_654" data-name="Path 654" d="M161.314,66.481H83.672a.454.454,0,0,0,0,.908h77.642a.454.454,0,0,0,0-.908Z" transform="translate(41.221 32.931)" fill="#fff"/>
      <path id="Path_655" data-name="Path 655" d="M161.314,69.974H83.672a.454.454,0,0,0,0,.908h77.642a.454.454,0,0,0,0-.908Z" transform="translate(41.221 34.661)" fill="#fff"/>
      <path id="Path_656" data-name="Path 656" d="M161.314,73.481H83.672a.454.454,0,0,0,0,.908h77.642a.454.454,0,0,0,0-.908Z" transform="translate(41.221 36.398)" fill="#fff"/>
      <path id="Path_657" data-name="Path 657" d="M91.374,47.958l-1.838-3.769-1.861,3.769-4.153.59,3,2.929-.7,4.155,3.722-1.975,3.7,1.975-.7-4.155,3-2.929Z" transform="translate(41.371 21.889)" fill="#fff"/>
      <path id="Path_1983" data-name="Path 1983" d="M91.374,47.958l-1.838-3.769-1.861,3.769-4.153.59,3,2.929-.7,4.155,3.722-1.975,3.7,1.975-.7-4.155,3-2.929Z" transform="translate(56.294 21.888)" fill="#fff"/>
      <path id="Path_1984" data-name="Path 1984" d="M91.374,47.958l-1.838-3.769-1.861,3.769-4.153.59,3,2.929-.7,4.155,3.722-1.975,3.7,1.975-.7-4.155,3-2.929Z" transform="translate(71.216 21.888)" fill="#fff"/>
      <path id="Path_1985" data-name="Path 1985" d="M91.374,47.958l-1.838-3.769-1.861,3.769-4.153.59,3,2.929-.7,4.155,3.722-1.975,3.7,1.975-.7-4.155,3-2.929Z" transform="translate(86.139 21.889)" fill="#fff"/>
      <path id="Path_658" data-name="Path 658" d="M15.867,15.3a6.2,6.2,0,1,0-8.762,0A6.2,6.2,0,0,0,15.867,15.3Z" transform="translate(2.621 2.338)" fill="#fff"/>
      <path id="Path_659" data-name="Path 659" d="M24.723,16.954a6.2,6.2,0,1,0-7.454-4.608A6.2,6.2,0,0,0,24.723,16.954Z" transform="translate(8.471 2.338)" fill="#fff"/>
      <path id="Path_660" data-name="Path 660" d="M36.141,17.121a6.2,6.2,0,1,0-6.2-6.2A6.2,6.2,0,0,0,36.141,17.121Z" transform="translate(14.833 2.339)" fill="#fff"/>
      <path id="Path_661" data-name="Path 661" d="M242.161,188.466c-15.75,9.877-19.155,63.737-18.656,114.9.341,35.582,2.587,69.87,3.882,87.1.544,7.29.93,11.537.93,11.537l13.527,39.851,5.492,16.168.339,1.044c-.045-.318-.09-.658-.136-1.044,13.868,0,26.3.067,37.539.112,8.1.024,93.233-1.543,121.67-11.194,6.264-2.134,12.778-4.655,19.837-7.652,12.709-5.382,25.827-13.829,38.536-24.57,2.792-70.846-.431-209.859-16.818-226.252C427.924,168.052,273.481,168.778,242.161,188.466Z" transform="translate(110.688 85.905)" fill="#ffcb64"/>
      <g id="Group_18" data-name="Group 18" transform="translate(323.638 267.246)" opacity="0.61">
        <g id="Group_17" data-name="Group 17" opacity="0.61">
          <g id="Group_16" data-name="Group 16" opacity="0.61">
            <path id="Path_662" data-name="Path 662" d="M393.639,251.081a75.471,75.471,0,0,1,5.584-26.432c1-2.452,2.156-4.972,1.907-7.607-.432-4.722-5.062-7.788-9.214-10.059A423.631,423.631,0,0,0,342.12,183.8c-8.692-3.382-18.088-6.517-27.166-4.383-13.027,3.065-21.084,15.715-31.8,23.752-17.793,13.352-44.392,14.828-56.9,33.22-6.672,9.809-7.626,22.367-7.082,34.219l14.412-40.827c-1.18,11.332-5.787,21.981-8.67,33.017-2.9,11.012-12.3,22.411-6.786,32.4,6.2,11.218,11.439,37.421,23.149,42.6,30.073,13.306,74.873,9.536,105.9,20.435,7.966,2.793,16.386,5.268,24.737,3.975,13.821-2.135,24.353-14.556,28.12-28.021s2.02-27.839-.613-41.576C396.748,278.806,393.253,265.069,393.639,251.081Z" transform="translate(-216.431 -178.72)" fill="#f4b23d" opacity="0.61"/>
          </g>
        </g>
      </g>
      <path id="Path_663" data-name="Path 663" d="M420.524,208.666c-4.652-12.715-12.64-25.567-25.509-29.792L384.031,173.9c-17.975.818-32.5,16.462-37.97,33.606s-3.9,35.65-2.52,53.611c2.27,29.633,3.836,59.311,4.357,89.013.455,26.84.091,53.905,5.539,80.179,1.338,6.448,3.154,13.1,7.557,18.007,4.266,4.769,10.463,7.333,16.613,9.083,8.851,2.52,18.429,3.632,27.212.863,10.666-3.362,18.973-12.217,23.807-22.321s6.536-21.391,7.375-32.562c2.566-34.491-2.768-69.052-4.516-103.59C429.921,269.113,431.078,237.527,420.524,208.666Z" transform="translate(169.514 86.14)" fill="#f4b23d"/>
      <path id="Path_664" data-name="Path 664" d="M292.213,263.174c-.41-.363-.84-.682-1.293-1.021-25.738-18.461-109.212,13.466-164.52,30.019C98.892,300.391,89.632,331,87.362,360.111c13.436,14.986,31.888,28.474,57.465,38.533a232.281,232.281,0,0,0,38.447,11.24c23.421,4.86,51.064,7.471,83.7,7.152,15.206-.158,29.074-.2,41.783-.2.158-4.292.363-9.809.5-16.168.341-14.011.5-32.154-.045-50.705C308.1,312.426,303.969,273.233,292.213,263.174Z" transform="translate(43.274 127.093)" fill="#ffda88"/>
      <path id="Path_665" data-name="Path 665" d="M313.86,321.832s-11.438-.8-28.12-1.7c-2.564-.136-5.22-.272-8.01-.408-4.562-.227-9.4-.455-14.412-.682-40.557-1.771-92.461-2.816-103.243,2.793-9.781,5.086-10.1,33.016-8.307,57.835,23.423,4.858,51.066,7.471,83.7,7.152,15.206-.158,29.072-.2,41.783-.2h5.992l.339,1.045c-.045-.318-.09-.658-.136-1.045,13.868,0,26.3.069,37.539.114Z" transform="translate(74.756 157.333)" fill="#f4b23d"/>
      <path id="Path_666" data-name="Path 666" d="M320.959,97.915a.023.023,0,0,0,.024.023Z" transform="translate(158.983 48.501)" fill="#b6cdd3"/>
      <path id="Path_667" data-name="Path 667" d="M326.661,44.191c-23.149,16.349-28.845,48.162-12.709,71.028A50.452,50.452,0,0,0,329,129.252v-.023l.022.023-.022-.023-1.385,12.08,10.122-7.925.022.024a51.465,51.465,0,0,0,47.366-6.381C408.276,110.677,413.971,78.865,397.835,56S349.811,27.842,326.661,44.191Z" transform="translate(150.966 17.186)" fill="#b6cdd3"/>
      <path id="Path_668" data-name="Path 668" d="M328.651,39.742C305.5,56.091,299.8,87.9,315.941,110.77A50.469,50.469,0,0,0,330.988,124.8v-.023l.022.023-.022-.023L329.6,136.86l10.122-7.925.022.023a51.461,51.461,0,0,0,47.366-6.381c23.149-16.349,28.847-48.162,12.709-71.028S351.823,23.393,328.651,39.742Z" transform="translate(151.951 14.982)" fill="#ffe8e1"/>
      <path id="Path_669" data-name="Path 669" d="M322.963,93.465a.023.023,0,0,0,.024.023Z" transform="translate(159.976 46.297)" fill="#ffe8e1"/>
      <path id="Path_670" data-name="Path 670" d="M321.369,78.582l4.9,18.461,47.456-15.622-3.11-27.68Z" transform="translate(159.186 26.62)" fill="#ff7b57"/>
      <path id="Path_671" data-name="Path 671" d="M324.315,79.4l-2.02,1.272,1.5,5.631L372.088,67.8l-.861-7.743Z" transform="translate(159.645 29.749)" fill="#ff7b57"/>
      <path id="Path_672" data-name="Path 672" d="M321.369,83.246,370.618,58.4l-19.9-14.078Z" transform="translate(159.186 21.956)" fill="#ff7b57"/>
      <path id="Path_673" data-name="Path 673" d="M324.131,79.4l4.9,18.461L376.513,82.24l-3.131-27.68Z" transform="translate(160.554 27.026)" fill="#ffc844"/>
      <path id="Path_674" data-name="Path 674" d="M327.1,80.2,325.057,81.5l1.5,5.631,48.319-18.506-.885-7.743Z" transform="translate(161.013 30.155)" fill="#fff"/>
      <path id="Path_675" data-name="Path 675" d="M324.131,84.073l49.25-24.842-19.9-14.1Z" transform="translate(160.554 22.355)" fill="#c92040"/>
      <path id="Path_676" data-name="Path 676" d="M167.447,325.684s8.375,18.87,0,33.766c-4.652,8.265-16.386,15.145-23.761,21.367q6.366,1.635,13.14,3.043c6.9,1.431,14.117,2.68,21.7,3.723l2.5.341c2.382-1.5,4.721-3.088,6.967-4.677a70.085,70.085,0,0,0,20.268-21.708c.749-1.317,1.111-2.089,1.111-2.089l-11.007-51.341C198.336,308.109,187.329,326.774,167.447,325.684Z" transform="translate(71.173 152.618)" fill="#fff"/>
      <path id="Path_677" data-name="Path 677" d="M197.285,311.694c-.816,7.039-6.242,12.556-12.392,15.486-7.535,3.587-16.25,3.587-24.42,3.61a.341.341,0,0,0,0,.682c12.142-.046,26.372-.568,34.2-11.4a17.6,17.6,0,0,0,3.29-8.378C198.012,311.262,197.33,311.262,197.285,311.694Z" transform="translate(79.328 154.234)" fill="#7bc4bd"/>
      <path id="Path_678" data-name="Path 678" d="M200.559,318.723a28.979,28.979,0,0,1-14.934,14.76c-7.83,3.52-16.749,3.747-25.056,2.111-.431-.09-.613.568-.181.659,12.414,2.452,26.236.453,35.336-9.015a27.028,27.028,0,0,0,5.424-8.175C201.308,318.656,200.717,318.315,200.559,318.723Z" transform="translate(79.324 157.784)" fill="#7bc4bd"/>
      <path id="Path_679" data-name="Path 679" d="M180.51,338.388l-13.527,34.2c13.186,1.748,29.935,3.248,45.322,3.725l9.783-16.986-25.374-12.784Z" transform="translate(82.713 167.617)" fill="#ff8a65"/>
      <path id="Path_680" data-name="Path 680" d="M194.169,255.9c-14.14,6.291-20.948,60.765-20.948,60.765l20.948,19.913L177.42,379.542s3.133,4.724,16.749,15.713,36.654,10.469,36.654,10.469l5.243-12.58s4.335-2.611,6.354-15.191l13.027-4.2s5.243,3.133,23.037,3.656,103.15-2.089,106.283-26.2,4.743-51.341,4.743-51.341L272.2,295.139C272.2,295.185,208.309,249.612,194.169,255.9Z" transform="translate(85.803 126.462)" fill="#7bc4bd"/>
      <path id="Path_681" data-name="Path 681" d="M198.579,245.563c-5.356-.954-11.052-1.273-16.067.84-9.714,4.042-13.845,15.553-15.161,26-1.271,10.218-.863,20.549-1.566,30.835-.5,7.154-1.5,14.533.861,21.3s9.442,12.556,16.341,10.6l14.026,8.334c6.763-9.854,19.2-14.01,30.979-15.916s24.081-2.249,34.974-7.154c5.334-2.406,10.167-5.812,15.5-8.242,12.347-5.631,27.756-6.222,36.654-16.462q-38.5-15.329-75.576-33.925C226.359,255.167,213.082,248.173,198.579,245.563Z" transform="translate(81.801 121.271)" fill="#479e93"/>
      <path id="Path_682" data-name="Path 682" d="M393.32,280.621a4.357,4.357,0,0,0-2.725-1.181c-2.11.022-3.336,2.339-3.972,4.359-3.586,11.49-3.131,23.912-6.626,35.425a23.524,23.524,0,0,1-4.154,8.4c-2.859,3.406-7.08,5.337-11.143,7.176a188.7,188.7,0,0,1-21.153,8.47c-8.579,2.656-17.475,4.042-26.349,5.427q-15.863,2.485-31.728,4.95c-3.608.568-7.716,1-10.53-1.34-5.22-4.336-2.384-15.167-8.761-17.53a26.471,26.471,0,0,1-3.336,17.1,22.663,22.663,0,0,0-3.086-16.667,29.671,29.671,0,0,0-.341,18.665c-3.972-1.066-8.079-2.134-12.165-1.59s-8.171,3.112-9.237,7.085c-.522,2-.25,4.133-.658,6.176-.794,3.975-4.2,7.062-8.012,8.4s-8.011,1.157-12.006.522c-11.982-1.953-33.249-12.012-41.259-21.14L167.454,367c4.154,11.831,13.594,21.368,24.693,27.2s23.762,8.175,36.29,8.516c14.615.386,30.979-2.907,39.309-14.941a9.287,9.287,0,0,1,2.36-2.7c1.793-1.136,4.13-.613,6.219-.182,15.456,3.339,31.592.727,46.752-3.723s29.754-10.719,44.983-14.919c7.513-2.067,15.5-3.815,21.425-8.9,6.627-5.678,9.464-14.6,10.985-23.185a110.6,110.6,0,0,0-.046-38.465C399.426,290.089,397.745,284.185,393.32,280.621Z" transform="translate(82.946 138.417)" fill="#479e93"/>
      <path id="Path_683" data-name="Path 683" d="M265.505,155.443l-5.584-2.633-6.877,35.876s-44.1,86.9-31.184,101.206,29.255-2.838,29.255-2.838l1-8.084s16.863-82.994,19.994-101.387C275.286,159.191,265.505,155.443,265.505,155.443Z" transform="translate(108.723 75.693)" fill="#e54f2c"/>
      <path id="Path_684" data-name="Path 684" d="M315.457,178.979s-33.066-7.107-44.6,4.4-26.077,47.845-26.077,47.845l-2.2,50.637s3.836,5.585,12.574,3.5c-9.555,30-8.6,36.468-14.185,41.123a14.468,14.468,0,0,1-1.543,1.135c-7.332,4.882,0,12.921,0,12.921s25.056,4.018,43.28,9.785c16.024,5.065,84.473-7.674,84.473-7.674s1.113-6.677,2.587-16.713c3.11-21.162,7.785-57.221,6.832-76.886C375.238,220.032,365.479,167.738,315.457,178.979Z" transform="translate(116.984 87.58)" fill="#c92040"/>
      <path id="Path_685" data-name="Path 685" d="M313.041,165.079l-58.327,7.311L231.7,231.2l8.374,53.884L252.4,297.234s4.38-1.612,8.443-24.615,14.094-58.629,21.856-68.03,11.982-11.013,11.982-11.013,9.6,25.75,25.851,17.166c16.227-8.583,18.928,2.271,18.928,2.271l-53.88,31.221s-.953,29.724,10.713,36.785c11.665,7.085,39.854.319,75.712-25.59,16.977-12.262,5.584-67.372,5.584-67.372Z" transform="translate(114.77 81.77)" fill="#fff"/>
      <path id="Path_686" data-name="Path 686" d="M287.134,288.225c37.606-12.079,38.786-40.418,38.786-40.418C311.668,283.412,249.505,300.306,287.134,288.225Z" transform="translate(136.321 122.749)" fill="#961534"/>
      <path id="Path_687" data-name="Path 687" d="M301.145,281.134c22.331-8.764,21.97-25.977,21.97-25.977C315.829,277.3,278.812,289.9,301.145,281.134Z" transform="translate(145.664 126.389)" fill="#961534"/>
      <path id="Path_688" data-name="Path 688" d="M338.122,119.95s-7.943-22-32.183-13.262-36.9,25.569-23.58,36.536,38.106,46.6,38.106,46.6l17.657,3.5s24.92-4.541,28.414-25.841C370.031,146.131,366.264,123.787,338.122,119.95Z" transform="translate(137.191 51.83)" fill="#923132"/>
      <path id="Path_689" data-name="Path 689" d="M340.2,132.815c-2.587-1-5.947-.635-7.6,1.612a15.783,15.783,0,0,0-20.857-12.148,8.944,8.944,0,0,0-6.6-6.994,2.949,2.949,0,0,0-1.657-.022c-.932.341-1.385,1.34-1.839,2.2a15.99,15.99,0,0,1-23.285,5.745l-2.973,11.99a57.5,57.5,0,0,1,12.006,8.311,18.938,18.938,0,0,1,4.63,5.608c1.974,4,1.476,8.7,2,13.125,1.247,10.719,8.532,19.824,16.885,26.613a50.663,50.663,0,0,0,15.682,9.06c3.382,1.113,7.127,1.726,10.509.591,2.859-.954,5.2-3.043,7.285-5.222,4.924-5.11,9.237-12.194,7.148-18.983-1.588-5.11-6.65-9.628-5.219-14.783.975-3.5,4.743-5.654,5.854-9.105,1.476-4.564-2.132-9.083-5.468-12.534C344.807,135.88,342.786,133.838,340.2,132.815Z" transform="translate(136.407 57.039)" fill="#7c1c21"/>
      <path id="Path_690" data-name="Path 690" d="M318.046,107.664l-2.111,5.471q1.261,5.621,2.52,11.24a4.813,4.813,0,0,0,1.089,2.475,4.413,4.413,0,0,0,3,.863,52.328,52.328,0,0,0,5.673-.114,18.453,18.453,0,0,1,6.219.114c3.722.976,9.759,2.816,11.937,6.017,1.884-3.246-2.5-5.859-4.13-9.219C337.768,115.384,327.964,109.889,318.046,107.664Z" transform="translate(156.495 53.33)" fill="#7c1c21"/>
      <path id="Path_691" data-name="Path 691" d="M330.909,172.043c.227-.408,10.713-18.823,1.385-16.052-9.418,2.792-8.374-.7-8.374-6.632-7.127-2.792-6.56-14.351-6.333-16.939-.317,2.68-2,14.624-7.285,9.969-5.923-5.246-10.463-4.2-10.463-4.2a18.856,18.856,0,0,1-2.723-12.284c-1.18,4.156-3.7,10.2-7.058,6.7-5.4-5.654-5.584-8.061-5.584-8.356-.067.885-1.543,20.5-7.671,32.447-6.286,12.217,4.357,40.1,11.326,39.4,0,2.111-1.112,3.451-1.476,5.222a31.656,31.656,0,0,1-1.044,3.7,25.405,25.405,0,0,1-2.859,5.836s-3.5,17.122,15.706,14.669,26.189-14.328,26.189-14.328l-4.538-4.019,1.385-16.235s19.9-.341,17.452-11.535C336.539,168.342,331.047,171.953,330.909,172.043Z" transform="translate(136.164 61.544)" fill="#ff8a65"/>
      <path id="Path_692" data-name="Path 692" d="M321.991,135.129c-2.451-2.5-4.13-5.676-6.786-7.948-3.608-3.065-8.534-3.973-13.232-4.586q-8.373-1.09-16.817-1.409c-2.564-.09-5.379-.045-7.354,1.59a6.2,6.2,0,0,0-1.521,6.971,7.833,7.833,0,0,0,5.811,4.452l-.114-4.541a9.182,9.182,0,0,0,13.322,6.63c.591,1.657.544,3.565,1.59,4.972a8.144,8.144,0,0,0,2.5,1.975q6.673,3.883,13.322,7.767a2.5,2.5,0,0,0,1.407.477c1.634-.16,1.362-2.862,2.656-3.906,1.793.25,2.656,2.361,2.7,4.178s-.339,3.7.386,5.359c1.362,3.133,5.742,3.451,9.033,2.5,1.135-.319,2.451-.7,3.381.022a2.533,2.533,0,0,1,.591,2.725,14.33,14.33,0,0,1-1.385,2.612,9.6,9.6,0,0,0-.522,7.857c3.7-5.11,7.535-10.627,7.694-16.917a16.011,16.011,0,0,0-3.972-10.946C331.161,140.966,325.758,138.968,321.991,135.129Z" transform="translate(136.619 60.015)" fill="#e54f2c"/>
      <path id="Path_693" data-name="Path 693" d="M316.457,160.476a1.733,1.733,0,0,0-.954.09c-1.474.41-5.923,3.157-7.353,3.725a8.646,8.646,0,0,0,1.5,2.68,3.047,3.047,0,0,0,2.723,1.09,1.888,1.888,0,0,0,1.521-2.249c-.158-.477-.544-.976-.272-1.407.272-.455.93-.3,1.452-.272a2.268,2.268,0,0,0,2.27-2.5A1.309,1.309,0,0,0,316.457,160.476Z" transform="translate(152.638 79.471)" fill="#e54f2c"/>
      <path id="Path_694" data-name="Path 694" d="M302.708,140.161a21.453,21.453,0,0,0-5.561.2.45.45,0,0,0,.16.885c.09-.022,10.1-1.77,11.529,3.861a.437.437,0,0,0,.431.339.207.207,0,0,0,.114-.022.438.438,0,0,0,.317-.544C309.017,142.182,306.588,140.547,302.708,140.161Z" transform="translate(147.005 69.38)"/>
      <path id="Path_695" data-name="Path 695" d="M287.045,131.807a7.644,7.644,0,0,0-5.243,3.451.444.444,0,0,0,.091.635.438.438,0,0,0,.272.091.475.475,0,0,0,.363-.182,6.756,6.756,0,0,1,4.607-3.065,7.113,7.113,0,0,1,4.857,1.567.451.451,0,0,0,.589-.682A7.554,7.554,0,0,0,287.045,131.807Z" transform="translate(139.54 65.268)"/>
      <path id="Path_696" data-name="Path 696" d="M292.551,153.746c-3.5-.341-9.261-3.837-9.261-3.837C280.34,155.835,296.045,154.087,292.551,153.746Z" transform="translate(140.14 74.256)" fill="#e54f2c"/>
      <path id="Path_697" data-name="Path 697" d="M296.217,162.778c-8.4.386-11.96-1.2-13.458-2.588a2.8,2.8,0,0,1-1.066-1.839.454.454,0,1,0-.908,0,3.749,3.749,0,0,0,1.293,2.452c2.451,2.339,7.353,2.952,11.732,2.952q1.261,0,2.452-.067a.455.455,0,0,0-.046-.909Z" transform="translate(139.084 78.212)" fill="#e54f2c"/>
      <path id="Path_698" data-name="Path 698" d="M286.527,142.558c.314-2.122-.428-3.99-1.654-4.171s-2.478,1.391-2.792,3.511.426,3.988,1.654,4.171S286.213,144.679,286.527,142.558Z" transform="translate(139.69 68.542)"/>
      <path id="Path_699" data-name="Path 699" d="M302.076,144.751c-1.317-.522-3.11.863-4.04,3.134s-.613,4.519.7,5.063c1.316.522,3.109-.863,4.039-3.133S303.392,145.273,302.076,144.751Z" transform="translate(147.364 71.646)"/>
      <path id="Path_700" data-name="Path 700" d="M302.417,169.531c-.658-.091-1.157-.522-2,.069-6.15,4.359-15.842,3.679-15.842,4.156.045,1.793-1.044,3.315-1.453,5.154a.332.332,0,0,1-.045.136,31.845,31.845,0,0,1-1.021,3.632,1.114,1.114,0,0,0,.477,0,48.2,48.2,0,0,0,14.116-4.541,15.952,15.952,0,0,0,4.743-3.269,7.455,7.455,0,0,0,2-4.133A1.142,1.142,0,0,0,302.417,169.531Z" transform="translate(139.715 83.858)" fill="#e54f2c"/>
      <path id="Path_701" data-name="Path 701" d="M217.218,268.446S178.181,233,153.557,243.2c-24.6,10.2-12.574,51.114-4.2,66.8s20.425,48.751,20.425,48.751,17.771,1.09,30.889-17.575l-3.131-23.843S222.234,293.968,217.218,268.446Z" transform="translate(68.815 119.551)" fill="#ff8a65"/>
      <path id="Path_702" data-name="Path 702" d="M194.918,254.6A103.63,103.63,0,0,0,152,241a133.5,133.5,0,0,1,38.764,79.951l3.2,4.292c8.851-6.448,16.363-15.1,19.972-25.454s2.928-22.435-3.176-31.519C206.855,262.436,201,258.144,194.918,254.6Z" transform="translate(75.291 119.377)" fill="#e54f2c"/>
      <path id="Path_703" data-name="Path 703" d="M231.511,139.026,229.7,165.435l25.874,27.157,5.923-14.805.363-32.971-24.806-8.923Z" transform="translate(113.777 67.313)" fill="#1d5275"/>
      <path id="Path_704" data-name="Path 704" d="M233.512,132.066l-5.47,7.243,28.483,11.513v49.547l10.849-17.008-2.11-44.051Z" transform="translate(112.958 65.417)" fill="#0f384f"/>
      <path id="Path_705" data-name="Path 705" d="M228.763,169.952s-.114-.09-.3-.226A2.589,2.589,0,0,1,228.763,169.952Z" transform="translate(113.168 84.072)" fill="#ff8a65"/>
      <path id="Path_706" data-name="Path 706" d="M293.258,246.261s-2.609,1.226-19.2,11.876c1.226-10.469-13.436-61.128-10.3-71.6s-.069-22.3-.069-22.3l-4.652,4.655a83.108,83.108,0,0,0-7.332-9.424c-4.016-4.36-12.914-3.656-18.315-3.837s-6.286,1.929-6.286,6.312c0,4.405-.341,2.771-1.18,6.086-.818,3.246-.908,5.154,4.016,8.7a1.036,1.036,0,0,1,.295.227,1.516,1.516,0,0,1-.295-.227c-.658-.386-2.224-.932-3.7,1.612-1.929,3.315,5.765,2.974,9.078,9.946,3.314,6.994,6.174,6.289,6.174,6.289s3.608,34.221,2.565,55.882,8.374,32.471,11.869,38.761,20.585,6.291,50.272-4.541C312.8,259.522,293.258,246.261,293.258,246.261Z" transform="translate(111.698 77.088)" fill="#ff8a65"/>
      <path id="Path_707" data-name="Path 707" d="M228.893,169.742c-.431-.046-.431.636,0,.68a13.038,13.038,0,0,1,8.465,4.474c.3.339.772-.16.477-.477A13.691,13.691,0,0,0,228.893,169.742Z" transform="translate(113.219 84.078)" fill="#e54f2c"/>
      <path id="Path_708" data-name="Path 708" d="M240.471,167.428a31.111,31.111,0,0,0-14.23-.794c-.431.067-.25.727.181.658a30.17,30.17,0,0,1,13.868.8A.342.342,0,0,0,240.471,167.428Z" transform="translate(111.944 82.304)" fill="#e54f2c"/>
      <path id="Path_709" data-name="Path 709" d="M235.493,161.428a13.764,13.764,0,0,0-8.6-.227.342.342,0,0,0,.181.659,13.108,13.108,0,0,1,8.238.227C235.72,162.246,235.9,161.588,235.493,161.428Z" transform="translate(112.271 79.562)" fill="#e54f2c"/>
      <path id="Path_710" data-name="Path 710" d="M312.271,158.117c.265-1.787-3.532-3.83-8.479-4.562s-9.172.121-9.437,1.908,3.532,3.828,8.479,4.561S312.006,159.9,312.271,158.117Z" transform="translate(145.799 75.932)" fill="#e54f2c"/>
      <path id="Path_711" data-name="Path 711" d="M343.168,283.056c-8.215,1.021-16.159,3.679-23.943,6.472-5.311,1.929-10.757,3.951-16.408,3.746-5.425-.2-10.532-2.475-15.706-4.133-15.184-4.836-32.3-4.655-46.14-12.057a14.474,14.474,0,0,1-1.543,1.135c-7.332,4.882,0,12.921,0,12.921s25.056,4.019,43.28,9.787c16.024,5.063,84.473-7.676,84.473-7.676s1.113-6.677,2.587-16.712a37.548,37.548,0,0,1-9.736,4.381C354.561,282.42,348.8,282.351,343.168,283.056Z" transform="translate(116.983 136.98)" fill="#e8eff1"/>
      <path id="Path_712" data-name="Path 712" d="M387.115,286.073c-17.476-16.031-79.411,9.468-120.2,22.593-13,4.178-20.4,15.782-24.4,29.633-7.172,24.728-3.632,56.632-2.27,66.463,13.868,0,26.3.069,37.539.114,8.1.022,15.614.069,22.581.069,0,0,70.652-1.589,99.089-11.263C400.232,360.847,399.937,297.835,387.115,286.073Z" transform="translate(117.974 139.163)" fill="#ffda88"/>
      <g id="Group_20" data-name="Group 20" transform="translate(328.222 392.697)" opacity="0.61">
        <g id="Group_19" data-name="Group 19" opacity="0.61">
          <path id="Path_713" data-name="Path 713" d="M236.041,311.615,219.5,392.294l59.259,48.82,23.58-14.578s15.706-24.432,0-74.866c-7.24-23.275,28.3-5.54,51.9-24.138,23.58-18.6,20.835.25,37.448-18.551,16.613-18.825-6.672-46.367-6.672-46.367Z" transform="translate(-219.497 -262.614)" fill="#f4b23d" opacity="0.61"/>
        </g>
      </g>
      <path id="Path_714" data-name="Path 714" d="M353.544,330.485l8.988,31.677A147.48,147.48,0,0,0,393.966,343.2q3.4-2.622,6.74-5.449,5-4.224,9.919-8.9Z" transform="translate(175.124 162.892)" fill="#ff7b57"/>
      <path id="Path_715" data-name="Path 715" d="M352.467,332.439a9.5,9.5,0,0,0,1.612,5.154c4.721,7.4,19.314,12.785,36.607,12.785,1.293,0,2.565-.024,3.813-.091q3.4-2.622,6.741-5.451,5-4.224,9.917-8.9c4.2-4,8.331-8.22,12.347-12.672-6.672-5.244-18.883-8.764-32.841-8.764C369.58,314.5,352.467,322.516,352.467,332.439Z" transform="translate(174.59 155.784)" fill="#ffe8e1"/>
      <path id="Path_716" data-name="Path 716" d="M388.908,338.789l11.507-22.162C393.606,322.691,390.112,328.822,388.908,338.789Z" transform="translate(192.641 156.837)" fill="#a6c55a"/>
      <path id="Path_717" data-name="Path 717" d="M396.6,317.838c1.113-1,2.315-2,3.631-3,.3-.227.591-.455.885-.658a17.513,17.513,0,0,0-3.9,2.5Z" transform="translate(196.453 155.627)" fill="#a6c55a"/>
      <path id="Path_718" data-name="Path 718" d="M467.588,335.3a31.282,31.282,0,0,0,4.54-.544C470.607,334.962,469.109,335.145,467.588,335.3Z" transform="translate(231.614 165.819)" fill="#a6c55a"/>
      <path id="Path_719" data-name="Path 719" d="M467.218,332.971c-10.938-9.105-21.584-19.777-35.45-23.025a39.978,39.978,0,0,0-32.16,6.813c7.421-3.5,16.773-1.772,24.148,2.566,8.761,5.154,15.706,12.92,24.353,18.257a70.819,70.819,0,0,0,21.56,8.356,99.775,99.775,0,0,0,31.57,2.134C488.916,348.571,476.954,341.078,467.218,332.971Z" transform="translate(197.941 153.051)" fill="#a6c55a"/>
      <path id="Path_720" data-name="Path 720" d="M284.246,335.3c-1.521-.136-3.019-.341-4.54-.546A31.289,31.289,0,0,0,284.246,335.3Z" transform="translate(138.549 165.818)" fill="#a6c55a"/>
      <path id="Path_721" data-name="Path 721" d="M385.256,317.422a39.956,39.956,0,0,0-33.022-7.495c-13.866,3.248-24.51,13.92-35.45,23.025-9.759,8.13-21.7,15.6-34.043,15.1a99.126,99.126,0,0,0,31.57-2.135,70.819,70.819,0,0,0,21.56-8.356c8.625-5.337,15.592-13.1,24.353-18.257s18.792-7.107,26.577-.568l15.046,30.61C400.44,337.768,394.495,324.575,385.256,317.422Z" transform="translate(140.053 153.045)" fill="#a6c55a"/>
      <path id="Path_722" data-name="Path 722" d="M414.433,283.54a167.462,167.462,0,0,0-25.419,57.585,156.945,156.945,0,0,0-2.882,17.484c-.046.432.636.432.68,0a160.376,160.376,0,0,1,18.974-59.7q4.255-7.732,9.237-15.055C415.273,283.54,414.682,283.2,414.433,283.54Z" transform="translate(191.265 140.378)" fill="#7c7624"/>
      <path id="Path_723" data-name="Path 723" d="M431.961,267.2c-3.45-.591-6.991-.114-10.463.363-4.266.591-8.715,1.249-12.256,3.747-3.064,2.156-5.083,5.494-6.717,8.878-4.9,10.242-4.585,23.706-6.378,34.9a371.6,371.6,0,0,1,32.023-22c3.722-2.292,7.6-4.586,10.3-8.037s3.994-8.4,1.974-12.284C438.838,269.629,435.411,267.79,431.961,267.2Z" transform="translate(196.227 132.218)" fill="#7c7624"/>
      <path id="Path_724" data-name="Path 724" d="M454.8,275.185c-9.374-8.628-33.7-10.15-45.89-6.448l1.883.408c7.149,2.838,10.236,9.083,14.956,15.169,5.811,7.471,14.753,12.079,24.035,13.987,9.261,1.907,18.883,1.316,28.233-.16C467.921,293.828,462.883,282.611,454.8,275.185Z" transform="translate(202.55 132.179)" fill="#a6c55a"/>
      <path id="Path_725" data-name="Path 725" d="M385.64,272.143a108.189,108.189,0,0,0-1.7-12.67c-1.657-7.925-5.062-16.281-12.755-20.051-.386-.181-.727.386-.341.591,7.059,3.475,10.4,10.944,12.12,18.234A94.086,94.086,0,0,1,384.8,270.6q.785,8.037,1.181,16.1c1.066,21.3.226,42.622-1.293,63.875-.863,12.035-1.929,24.047-3,36.059-.045.432.636.432.682,0,1.951-21.775,3.9-43.574,4.538-65.442.317-10.9.317-21.822-.159-32.721Q386.378,280.3,385.64,272.143Z" transform="translate(183.608 118.577)" fill="#7c7624"/>
      <path id="Path_726" data-name="Path 726" d="M407.823,230.388c-6.422-6.062-15.614-7.924-23.58-11.761a49.889,49.889,0,0,1-17.182-13.67c-4.4-5.5-7.738-12.034-13.344-16.326-1.385,7.2-.477,14.623.567,21.889,3.178,22.1,7.626,43.984,12.755,65.714,1.543,6.563,3.269,13.329,7.49,18.575,4.2,5.268,14.138,16.19,20.357,13.624,10.008-13.76,20.29-30.313,21.651-47.277C417.4,250.167,415.835,237.973,407.823,230.388Z" transform="translate(174.861 93.436)" fill="#a6c55a"/>
      <path id="Path_727" data-name="Path 727" d="M369.147,304.655a67.969,67.969,0,0,0-4.948-14.941,32.846,32.846,0,0,0-11.462-13.125c-.363-.25-.7.339-.339.589a31.968,31.968,0,0,1,10.644,11.762,61.841,61.841,0,0,1,5.22,14.9c1.316,5.5,2.518,11.036,3.539,16.6a132.469,132.469,0,0,1,1.929,21.186c.138,7.879-.181,15.782-.522,23.661-.022.432.659.432.682,0,.613-14.282,1.225-28.7-1.068-42.871C371.87,316.462,370.508,310.536,369.147,304.655Z" transform="translate(174.479 136.975)" fill="#7c7624"/>
      <path id="Path_728" data-name="Path 728" d="M356.561,256.609c-16.136,1.59-27.484,17.03-42.918,22.026,6.65,2.566,13.322,5.154,19.36,8.947,8.419,5.268,15.387,12.761,24.238,17.28s21.017,5.154,27.529-2.339l.41-1.09c2.043-11.1,2.473-23.366-3.677-32.835A27.234,27.234,0,0,0,356.561,256.609Z" transform="translate(155.359 127.049)" fill="#a6c55a"/>
      <path id="Path_729" data-name="Path 729" d="M267.94,52.571c-23.649,0-42.827,19.437-42.827,43.393s19.178,43.393,42.827,43.393a42.045,42.045,0,0,0,17-3.565h.045a.022.022,0,0,0-.022.022l7.671,6.835-.544-10.853h.045a43.539,43.539,0,0,0,18.656-35.832C310.767,72.009,291.589,52.571,267.94,52.571Z" transform="translate(111.508 26.041)" fill="#b6cdd3"/>
      <path id="Path_730" data-name="Path 730" d="M266.786,48.107c-23.649,0-42.826,19.437-42.826,43.393s19.178,43.393,42.826,43.393a42.045,42.045,0,0,0,17-3.565h.045a.022.022,0,0,0-.022.022l7.671,6.835-.544-10.855h.045A43.536,43.536,0,0,0,309.635,91.5C309.613,67.521,290.458,48.107,266.786,48.107Z" transform="translate(110.936 23.829)" fill="#ffe8e1"/>
      <path id="Path_731" data-name="Path 731" d="M247.954,72.094c-10.985,8.2-13.685,23.139-6.061,33.357,7.626,10.241,22.719,11.9,33.681,3.7,10.985-8.2,13.685-23.138,6.059-33.357C274.031,65.554,258.938,63.9,247.954,72.094Zm16.272,26.068c-4.471,3.338-10.621,2.657-13.73-1.5-3.11-4.178-2-10.264,2.473-13.6s10.621-2.657,13.73,1.5S268.7,94.824,264.226,98.162Z" transform="translate(117.673 33.131)" fill="#ff7b57"/>
      <path id="Path_732" data-name="Path 732" d="M245.662,69.771c-10.985,8.2-13.685,23.138-6.061,33.357,7.626,10.241,22.719,11.9,33.681,3.7,10.985-8.2,13.685-23.138,6.059-33.357C271.715,63.231,256.622,61.573,245.662,69.771Zm16.25,26.09c-4.471,3.338-10.621,2.657-13.732-1.5-3.109-4.178-2-10.264,2.475-13.6s10.621-2.657,13.73,1.5C267.493,86.438,266.382,92.523,261.911,95.861Z" transform="translate(116.538 31.98)" fill="#ff7b57"/>
      <path id="Path_733" data-name="Path 733" d="M277.054,81.326a10.575,10.575,0,0,1,.431-2.044c.885-3.792-.93-7.879-3.925-10.377a19.121,19.121,0,0,0-10.8-3.928,27.208,27.208,0,0,0-16.591,3.906A22.245,22.245,0,0,0,236.292,82.6,32.7,32.7,0,0,0,236.27,96.9a16.964,16.964,0,0,0,3.2,5.631l-1.249-1a15.882,15.882,0,0,0,1.5,1.272,6.166,6.166,0,0,0,2.428,1.862l-1.385-1.113a18.249,18.249,0,0,0,17.454,1.385,10.012,10.012,0,0,0,16.272-8.447,5.825,5.825,0,0,0,5.015-4.019,8.685,8.685,0,0,0-.68-6.63C278.075,84.369,276.985,82.938,277.054,81.326ZM264.956,92.5a9.809,9.809,0,1,1-4.175-13.6A10.064,10.064,0,0,1,264.956,92.5Z" transform="translate(116.647 32.141)" fill="#ff7b57"/>
      <path id="Path_734" data-name="Path 734" d="M247.954,69.112c-10.985,8.2-13.685,23.139-6.061,33.357,7.626,10.241,22.719,11.9,33.681,3.7,10.985-8.2,13.685-23.139,6.059-33.357C274.031,62.6,258.938,60.937,247.954,69.112ZM264.226,95.2c-4.471,3.338-10.621,2.657-13.73-1.5s-2-10.264,2.473-13.6,10.621-2.657,13.73,1.5C269.809,85.779,268.7,91.865,264.226,95.2Z" transform="translate(117.673 31.662)" fill="#ffc844"/>
      <path id="Path_735" data-name="Path 735" d="M245.662,66.789c-10.985,8.2-13.685,23.138-6.061,33.357,7.626,10.241,22.719,11.9,33.681,3.7,10.985-8.2,13.685-23.139,6.059-33.357S256.622,58.614,245.662,66.789Zm16.25,26.09c-4.471,3.338-10.621,2.657-13.732-1.5-3.109-4.178-2-10.264,2.475-13.6s10.621-2.657,13.73,1.5C267.493,83.456,266.382,89.541,261.911,92.879Z" transform="translate(116.538 30.511)" fill="#ffda88"/>
      <path id="Path_736" data-name="Path 736" d="M277.054,78.35a10.577,10.577,0,0,1,.431-2.044c.885-3.792-.93-7.879-3.925-10.377A19.12,19.12,0,0,0,262.755,62a27.208,27.208,0,0,0-16.591,3.906,22.245,22.245,0,0,0-9.872,13.715,32.7,32.7,0,0,0-.022,14.305,16.961,16.961,0,0,0,3.2,5.631l-1.249-1a15.927,15.927,0,0,0,1.5,1.272,6.167,6.167,0,0,0,2.428,1.862l-1.385-1.113a18.249,18.249,0,0,0,17.454,1.385,10.012,10.012,0,0,0,16.272-8.447A5.825,5.825,0,0,0,279.5,89.5a8.685,8.685,0,0,0-.68-6.63C278.075,81.392,276.985,79.985,277.054,78.35Zm-12.1,11.195a9.809,9.809,0,1,1-4.175-13.6A10.065,10.065,0,0,1,264.956,89.544Z" transform="translate(116.647 30.667)" fill="#611212"/>
      <path id="Path_737" data-name="Path 737" d="M439.031,80.956c-34.589-3.974-65.795,20.482-69.722,54.657a61.712,61.712,0,0,0,2.316,25.159l.022-.022v.045c0-.022,0-.022-.022-.045l-11.145,9.923,15.752,1.021v.045a63.186,63.186,0,0,0,48.591,32.9c34.587,3.973,65.793-20.482,69.72-54.656C498.448,115.856,473.618,84.93,439.031,80.956Z" transform="translate(178.56 39.891)" fill="#b6cdd3"/>
      <path id="Path_738" data-name="Path 738" d="M443.113,80.379c-34.587-3.974-65.793,20.482-69.72,54.655a61.692,61.692,0,0,0,2.315,25.161l.022-.022v.045c0-.022,0-.022-.022-.045l-11.143,9.922,15.75,1.023v.045a63.192,63.192,0,0,0,48.591,32.9c34.589,3.973,65.795-20.482,69.72-54.656S477.679,84.352,443.113,80.379Z" transform="translate(180.582 39.605)" fill="#ffe8e1"/>
      <path id="Path_739" data-name="Path 739" d="M439.215,105.613l-46.163,16.326,19.86,43.212c2.043,4.45,6.2,7.266,10.439,7.085a44.873,44.873,0,0,0,23.99-8.266l.68-.5c3.563-2.52,5.062-7.538,3.7-12.42Z" transform="translate(194.694 52.314)" fill="#ff7b57"/>
      <path id="Path_740" data-name="Path 740" d="M419.174,123.478c12.739-4.5,21.723-11.961,20.064-16.655s-13.329-4.848-26.068-.342-21.723,11.961-20.064,16.655S406.435,127.984,419.174,123.478Z" transform="translate(194.622 51.119)" fill="#ff7b57"/>
      <path id="Path_741" data-name="Path 741" d="M434.446,119.371,401.9,130.884l12.392,25.886a7.084,7.084,0,0,0,7.013,4.019,36.805,36.805,0,0,0,16.93-5.859l.5-.317a7.094,7.094,0,0,0,2.973-7.744Z" transform="translate(199.077 59.129)" fill="#ff7b57"/>
      <path id="Path_742" data-name="Path 742" d="M420,130.907c8.993-3.181,15.474-8.049,14.476-10.874s-9.1-2.539-18.092.641-15.474,8.048-14.475,10.874S411,134.087,420,130.907Z" transform="translate(199.029 58.494)" fill="#ff7b57"/>
      <path id="Path_743" data-name="Path 743" d="M408.169,94.831a1.462,1.462,0,0,0-1.839-.886l-5.673,2a1.462,1.462,0,0,0-.885,1.839l8.624,24.388a1.463,1.463,0,0,0,1.839.885l5.673-2a1.462,1.462,0,0,0,.885-1.839Z" transform="translate(197.984 46.497)" fill="#ff7b57"/>
      <path id="Path_744" data-name="Path 744" d="M405.243,100.228c2.316-.819,3.723-2.815,3.143-4.459s-2.928-2.312-5.244-1.493-3.723,2.815-3.143,4.459S402.929,101.047,405.243,100.228Z" transform="translate(198.07 46.525)" fill="#ff7b57"/>
      <path id="Path_745" data-name="Path 745" d="M405.536,121.125a3.741,3.741,0,1,0,4.2,2.428A3.43,3.43,0,0,0,405.536,121.125Z" transform="translate(199.891 59.918)" fill="#ff7b57"/>
      <path id="Path_746" data-name="Path 746" d="M412.229,123.706a3.473,3.473,0,0,0-1.747,4.541,3.438,3.438,0,0,0,4.2,2.43,3.475,3.475,0,0,0,1.748-4.541A3.429,3.429,0,0,0,412.229,123.706Z" transform="translate(203.206 61.197)" fill="#ff7b57"/>
      <path id="Path_747" data-name="Path 747" d="M411.865,135.232a3.474,3.474,0,0,0-1.748,4.541,3.439,3.439,0,0,0,4.2,2.43,3.474,3.474,0,0,0,1.748-4.541A3.439,3.439,0,0,0,411.865,135.232Z" transform="translate(203.026 66.906)" fill="#ff7b57"/>
      <path id="Path_748" data-name="Path 748" d="M421,136.978a3.474,3.474,0,0,0-1.748,4.541,3.439,3.439,0,0,0,4.2,2.43,3.474,3.474,0,0,0,1.748-4.541A3.439,3.439,0,0,0,421,136.978Z" transform="translate(207.552 67.771)" fill="#ff7b57"/>
      <path id="Path_749" data-name="Path 749" d="M420.394,126.971a3.473,3.473,0,0,0-1.747,4.541,3.438,3.438,0,0,0,4.2,2.43,3.474,3.474,0,0,0,1.748-4.541A3.439,3.439,0,0,0,420.394,126.971Z" transform="translate(207.251 62.814)" fill="#ff7b57"/>
      <path id="Path_750" data-name="Path 750" d="M407.13,128.14a3.475,3.475,0,0,0-1.748,4.541,3.439,3.439,0,0,0,4.2,2.43,3.474,3.474,0,0,0,1.748-4.541A3.44,3.44,0,0,0,407.13,128.14Z" transform="translate(200.68 63.393)" fill="#ff7b57"/>
      <path id="Path_751" data-name="Path 751" d="M416.843,118.874a3.474,3.474,0,0,0-1.748,4.541,3.439,3.439,0,0,0,4.2,2.43,3.741,3.741,0,0,0-2.451-6.971Z" transform="translate(205.492 58.808)" fill="#ff7b57"/>
      <path id="Path_752" data-name="Path 752" d="M440.3,105.628l-42.986,15.191,18.5,40.238c1.906,4.156,5.787,6.766,9.714,6.584a41.913,41.913,0,0,0,22.355-7.7l.636-.455c3.314-2.361,4.721-7.016,3.45-11.557Z" transform="translate(196.806 52.322)" fill="#ffda88"/>
      <path id="Path_753" data-name="Path 753" d="M421.634,122.243c11.865-4.194,20.233-11.133,18.693-15.495s-12.408-4.5-24.274-.3-20.233,11.133-18.692,15.5S409.77,126.439,421.634,122.243Z" transform="translate(196.738 51.21)" fill="#ffc844"/>
      <path id="Path_754" data-name="Path 754" d="M435.879,118.445l-30.321,10.717,11.529,24.115A6.592,6.592,0,0,0,423.623,157a34.264,34.264,0,0,0,15.75-5.449l.455-.3a6.6,6.6,0,0,0,2.769-7.219Z" transform="translate(200.888 58.67)" fill="#c96c57"/>
      <path id="Path_755" data-name="Path 755" d="M422.418,129.191c8.378-2.962,14.417-7.5,13.485-10.138s-8.479-2.372-16.857.591-14.417,7.5-13.485,10.138S414.04,132.153,422.418,129.191Z" transform="translate(200.843 58.072)" fill="#e5998c"/>
      <path id="Path_756" data-name="Path 756" d="M411.426,95.666a1.461,1.461,0,0,0-1.838-.886l-5.107,1.794a1.462,1.462,0,0,0-.885,1.839l7.966,22.525a1.461,1.461,0,0,0,1.838.885l5.107-1.793a1.462,1.462,0,0,0,.885-1.839Z" transform="translate(199.879 46.911)" fill="#fff"/>
      <path id="Path_757" data-name="Path 757" d="M406.737,95.044c-2.156.772-3.472,2.634-2.928,4.155.544,1.544,2.723,2.157,4.9,1.408,2.156-.772,3.472-2.634,2.928-4.155C411.072,94.908,408.893,94.294,406.737,95.044Z" transform="translate(199.961 46.921)" fill="#c4b8b5"/>
      <path id="Path_758" data-name="Path 758" d="M408.946,120.055a3.489,3.489,0,1,0,3.9,2.271A3.221,3.221,0,0,0,408.946,120.055Z" transform="translate(201.654 59.399)" fill="#611212"/>
      <path id="Path_759" data-name="Path 759" d="M417.451,128.982a3.5,3.5,0,1,0-3.91-2.277A3.222,3.222,0,0,0,417.451,128.982Z" transform="translate(204.728 60.594)" fill="#611212"/>
      <path id="Path_760" data-name="Path 760" d="M414.835,133.19a3.49,3.49,0,1,0,3.9,2.271A3.223,3.223,0,0,0,414.835,133.19Z" transform="translate(204.571 65.906)" fill="#611212"/>
      <path id="Path_761" data-name="Path 761" d="M423.349,134.832a3.489,3.489,0,1,0,3.9,2.271A3.222,3.222,0,0,0,423.349,134.832Z" transform="translate(208.789 66.715)" fill="#611212"/>
      <path id="Path_762" data-name="Path 762" d="M422.772,125.508a3.489,3.489,0,1,0,3.9,2.271A3.222,3.222,0,0,0,422.772,125.508Z" transform="translate(208.503 62.097)" fill="#611212"/>
      <path id="Path_763" data-name="Path 763" d="M410.418,126.6a3.489,3.489,0,1,0,3.9,2.271A3.222,3.222,0,0,0,410.418,126.6Z" transform="translate(202.384 62.637)" fill="#611212"/>
      <path id="Path_764" data-name="Path 764" d="M419.464,117.978a3.489,3.489,0,1,0,3.9,2.27A3.221,3.221,0,0,0,419.464,117.978Z" transform="translate(206.864 58.366)" fill="#611212"/>
    </g>
  </g>
</svg>
