<svg xmlns="http://www.w3.org/2000/svg" xmlns:xlink="http://www.w3.org/1999/xlink" width="1551" height="942" viewBox="0 0 1551 942">
  <defs>
    <linearGradient id="linear-gradient" x1="0.466" y1="1" x2="0.466" gradientUnits="objectBoundingBox">
      <stop offset="0" stop-color="#f8b948" stop-opacity="0"/>
      <stop offset="1" stop-color="#ffcb0c"/>
    </linearGradient>
    <clipPath id="clip-path">
      <rect id="Rectangle_8" data-name="Rectangle 8" width="52.614" height="52.614" fill="#2b2b2b"/>
    </clipPath>
    <clipPath id="clip-path-2">
      <rect id="Rectangle_9" data-name="Rectangle 9" width="57.486" height="57.486" fill="#2b2b2b"/>
    </clipPath>
    <clipPath id="clip-path-3">
      <rect id="Rectangle_10" data-name="Rectangle 10" width="54.563" height="54.563" fill="#2b2b2b"/>
    </clipPath>
  </defs>
  <g id="Group_127" data-name="Group 127" transform="translate(-185 -2949)">
    <g id="Group_1999" data-name="Group 1999" transform="translate(254 2186)">
      <rect id="Bg-Section" width="1270" height="768" rx="30" transform="translate(212 937)" opacity="0.15" fill="url(#linear-gradient)"/>
      <path id="Rectangle_Path" d="M0,61.413,535,0V250.587L0,312Z" transform="translate(-69 763)" fill="#ffcb0c"/>
      <text id="Why_choose_us" data-name="Why choose us" transform="translate(199 872)" fill="#2b2b2b" font-size="32" font-family="SegoeUI-Bold, Segoe UI" font-weight="700"><tspan x="0" y="35">Why Choose Us</tspan></text>
    </g>
    <g id="Group_24" data-name="Group 24" transform="translate(487 3265)">
      <path id="Path_765" data-name="Path 765" d="M111.322,51.228v2.336H100.068v-15h10.954V40.9h-8.167v3.9H110.1v2.294h-7.245v4.137Zm9.928,2.336L118.312,49.6l-2.958,3.966H112.4l4.459-5.809-4.266-5.638h2.98l2.808,3.751,2.808-3.751h2.894l-4.287,5.595,4.48,5.852Zm11.345-11.575a6.016,6.016,0,0,1,2.98.729,5.243,5.243,0,0,1,2.079,2.058,6.131,6.131,0,0,1,.75,3.065,6.252,6.252,0,0,1-.75,3.087,5.243,5.243,0,0,1-2.079,2.058,6.016,6.016,0,0,1-2.98.729,4.621,4.621,0,0,1-3.665-1.543v5.552h-2.679V42.118H128.8v1.5a4.158,4.158,0,0,1,1.629-1.222A5.613,5.613,0,0,1,132.594,41.989Zm-.3,9.432a3.2,3.2,0,0,0,2.422-.986,3.969,3.969,0,0,0,0-5.187,3.2,3.2,0,0,0-2.422-.986,3.382,3.382,0,0,0-1.736.45,3.1,3.1,0,0,0-1.222,1.243,4.177,4.177,0,0,0,0,3.773,3.252,3.252,0,0,0,1.222,1.265A3.515,3.515,0,0,0,132.294,51.421Zm12.876-9.432a5.507,5.507,0,0,1,3.858,1.222,4.626,4.626,0,0,1,1.35,3.644v6.709H147.85V52.171a3.173,3.173,0,0,1-1.415,1.158A6.25,6.25,0,0,1,142,53.285a3.663,3.663,0,0,1-1.5-1.222,3.2,3.2,0,0,1-.514-1.779,3.013,3.013,0,0,1,1.136-2.465,5.7,5.7,0,0,1,3.623-.943H147.7V46.7a2.327,2.327,0,0,0-.729-1.843,3.064,3.064,0,0,0-2.122-.643,6.262,6.262,0,0,0-1.908.3,4.679,4.679,0,0,0-1.565.836l-1.05-1.951a6.507,6.507,0,0,1,2.165-1.05A9.637,9.637,0,0,1,145.17,41.989Zm-.364,9.775a3.464,3.464,0,0,0,1.779-.45,2.544,2.544,0,0,0,1.115-1.329V48.655h-2.765q-2.315,0-2.315,1.522a1.366,1.366,0,0,0,.579,1.158A2.654,2.654,0,0,0,144.806,51.764Zm15.508-9.775a4.784,4.784,0,0,1,3.473,1.265A4.991,4.991,0,0,1,165.093,47v6.559h-2.679V47.348a3.173,3.173,0,0,0-.707-2.251,2.6,2.6,0,0,0-2.015-.772,3.072,3.072,0,0,0-2.336.9,3.505,3.505,0,0,0-.857,2.551v5.788h-2.679V42.118h2.551V43.6a4.18,4.18,0,0,1,1.672-1.2A6.013,6.013,0,0,1,160.313,41.989Zm19.495-4.33V53.564h-2.572V52.085a4.138,4.138,0,0,1-1.651,1.222,5.46,5.46,0,0,1-2.144.407,6.09,6.09,0,0,1-2.98-.729,5.272,5.272,0,0,1-2.058-2.058,6.242,6.242,0,0,1-.75-3.087,6.121,6.121,0,0,1,.75-3.065,5.272,5.272,0,0,1,2.058-2.058,6.09,6.09,0,0,1,2.98-.729,5.445,5.445,0,0,1,2.079.386,4.187,4.187,0,0,1,1.608,1.158V37.659Zm-6.045,13.762a3.514,3.514,0,0,0,1.736-.429,3.252,3.252,0,0,0,1.222-1.265,4.177,4.177,0,0,0,0-3.773,3.1,3.1,0,0,0-1.222-1.243,3.574,3.574,0,0,0-3.473,0,3.1,3.1,0,0,0-1.222,1.243,4.177,4.177,0,0,0,0,3.773,3.252,3.252,0,0,0,1.222,1.265A3.514,3.514,0,0,0,173.763,51.421Zm26.191-9.3L194.6,54.486a5.672,5.672,0,0,1-1.822,2.615,4.319,4.319,0,0,1-2.594.772,5.325,5.325,0,0,1-1.693-.279,3.746,3.746,0,0,1-1.372-.772l1.072-1.972a2.951,2.951,0,0,0,.9.579,2.87,2.87,0,0,0,1.072.214,1.781,1.781,0,0,0,1.158-.364,3.149,3.149,0,0,0,.857-1.222l.193-.45-4.994-11.489h2.787l3.6,8.467,3.623-8.467Zm6.506,11.6a6.494,6.494,0,0,1-3.13-.75,5.56,5.56,0,0,1-2.186-2.079,6.025,6.025,0,0,1-.772-3.044,5.908,5.908,0,0,1,.772-3.022,5.56,5.56,0,0,1,2.186-2.079,6.947,6.947,0,0,1,6.281,0,5.42,5.42,0,0,1,2.165,2.079,5.789,5.789,0,0,1,.793,3.022,5.9,5.9,0,0,1-.793,3.044,5.42,5.42,0,0,1-2.165,2.079A6.544,6.544,0,0,1,206.46,53.714Zm0-2.294a3.274,3.274,0,0,0,2.444-.986,3.969,3.969,0,0,0,0-5.187,3.521,3.521,0,0,0-4.887,0,4.038,4.038,0,0,0,0,5.187A3.274,3.274,0,0,0,206.46,51.421Zm19.753-9.3V53.564h-2.551V52.107a4.366,4.366,0,0,1-1.608,1.2,5.288,5.288,0,0,1-2.079.407,5.041,5.041,0,0,1-3.623-1.265,5.1,5.1,0,0,1-1.308-3.794V42.118h2.679v6.173a3.4,3.4,0,0,0,.686,2.315,2.607,2.607,0,0,0,1.993.75,2.987,2.987,0,0,0,2.272-.879,3.584,3.584,0,0,0,.857-2.572V42.118Zm6.059,1.672q1.158-1.8,4.073-1.8V44.54a3.4,3.4,0,0,0-.622-.064,3.214,3.214,0,0,0-2.444.922,3.6,3.6,0,0,0-.879,2.615v5.552h-2.679V42.118h2.551Zm18.719-1.8a6.013,6.013,0,0,1,2.98.729,5.231,5.231,0,0,1,2.079,2.058,6.121,6.121,0,0,1,.75,3.065,6.241,6.241,0,0,1-.75,3.087,5.231,5.231,0,0,1-2.079,2.058,6.013,6.013,0,0,1-2.98.729,5.62,5.62,0,0,1-2.165-.407,4.165,4.165,0,0,1-1.629-1.222v1.479h-2.551V37.659h2.679v5.852a4.534,4.534,0,0,1,1.608-1.136A5.388,5.388,0,0,1,250.991,41.989Zm-.3,9.432a3.2,3.2,0,0,0,2.422-.986,3.969,3.969,0,0,0,0-5.187,3.2,3.2,0,0,0-2.422-.986,3.382,3.382,0,0,0-1.736.45,3.1,3.1,0,0,0-1.222,1.243,4.177,4.177,0,0,0,0,3.773,3.252,3.252,0,0,0,1.222,1.265A3.514,3.514,0,0,0,250.691,51.421Zm19.732-9.3V53.564h-2.551V52.107a4.366,4.366,0,0,1-1.608,1.2,5.288,5.288,0,0,1-2.079.407,5.041,5.041,0,0,1-3.623-1.265,5.1,5.1,0,0,1-1.308-3.794V42.118h2.679v6.173a3.4,3.4,0,0,0,.686,2.315,2.607,2.607,0,0,0,1.993.75,2.987,2.987,0,0,0,2.272-.879,3.584,3.584,0,0,0,.857-2.572V42.118Zm7.045,11.6a10.25,10.25,0,0,1-2.722-.364,6.856,6.856,0,0,1-2.122-.922l1.029-2.036a6.864,6.864,0,0,0,1.843.836,8.075,8.075,0,0,0,2.144.3q2.4,0,2.4-1.265a.847.847,0,0,0-.622-.836,10.259,10.259,0,0,0-1.951-.45,16.318,16.318,0,0,1-2.315-.493,3.67,3.67,0,0,1-1.543-.965,2.792,2.792,0,0,1-.643-1.951,3.029,3.029,0,0,1,1.35-2.594A6.2,6.2,0,0,1,278,41.989a10.218,10.218,0,0,1,2.358.279,6.415,6.415,0,0,1,1.929.707l-1.029,2.036a6.345,6.345,0,0,0-3.28-.857,3.607,3.607,0,0,0-1.8.364,1.033,1.033,0,0,0-.6.922.95.95,0,0,0,.643.922,11.431,11.431,0,0,0,2.036.493,15.61,15.61,0,0,1,2.251.493,3.446,3.446,0,0,1,1.5.943,2.6,2.6,0,0,1,.643,1.886,2.986,2.986,0,0,1-1.393,2.572A6.568,6.568,0,0,1,277.469,53.714Zm7.495-11.6h2.679V53.564h-2.679Zm1.35-1.886a1.747,1.747,0,0,1-1.222-.45,1.541,1.541,0,0,1-.493-1.158,1.474,1.474,0,0,1,.493-1.136,1.7,1.7,0,0,1,1.222-.472,1.743,1.743,0,0,1,1.222.45,1.382,1.382,0,0,1,.493,1.093,1.631,1.631,0,0,1-.493,1.2A1.651,1.651,0,0,1,286.314,40.231Zm11.341,1.758a4.784,4.784,0,0,1,3.473,1.265A4.991,4.991,0,0,1,302.435,47v6.559h-2.679V47.348a3.173,3.173,0,0,0-.707-2.251,2.6,2.6,0,0,0-2.015-.772,3.072,3.072,0,0,0-2.336.9,3.505,3.505,0,0,0-.857,2.551v5.788H291.16V42.118h2.551V43.6a4.18,4.18,0,0,1,1.672-1.2A6.013,6.013,0,0,1,297.655,41.989ZM316.7,47.905q0,.279-.043.793h-8.981a3.167,3.167,0,0,0,1.222,2.015,4.129,4.129,0,0,0,2.487.729,4.173,4.173,0,0,0,3.108-1.243l1.436,1.651a4.843,4.843,0,0,1-1.951,1.393,7.73,7.73,0,0,1-5.98-.279,5.492,5.492,0,0,1-2.229-2.079,6.383,6.383,0,0,1-.021-6.045,5.451,5.451,0,0,1,2.122-2.1,6.16,6.16,0,0,1,3.044-.75,5.88,5.88,0,0,1,2.98.75,5.065,5.065,0,0,1,2.058,2.079A6.175,6.175,0,0,1,316.7,47.905Zm-5.788-3.773a3.245,3.245,0,0,0-2.186.772,3.174,3.174,0,0,0-1.072,2.015h6.495A3.163,3.163,0,0,0,313.1,44.9,3.2,3.2,0,0,0,310.912,44.133Zm11.9,9.582a10.255,10.255,0,0,1-2.722-.364,6.856,6.856,0,0,1-2.122-.922l1.029-2.036a6.863,6.863,0,0,0,1.843.836,8.081,8.081,0,0,0,2.144.3q2.4,0,2.4-1.265a.845.845,0,0,0-.622-.836,10.239,10.239,0,0,0-1.951-.45,16.318,16.318,0,0,1-2.315-.493,3.67,3.67,0,0,1-1.543-.965,2.792,2.792,0,0,1-.643-1.951,3.029,3.029,0,0,1,1.35-2.594,6.2,6.2,0,0,1,3.687-.986,10.212,10.212,0,0,1,2.358.279,6.414,6.414,0,0,1,1.929.707L326.6,45.011a6.344,6.344,0,0,0-3.28-.857,3.612,3.612,0,0,0-1.8.364,1.035,1.035,0,0,0-.6.922.95.95,0,0,0,.643.922,11.453,11.453,0,0,0,2.036.493,15.61,15.61,0,0,1,2.251.493,3.44,3.44,0,0,1,1.5.943A2.6,2.6,0,0,1,328,50.177,2.983,2.983,0,0,1,326.6,52.75,6.568,6.568,0,0,1,322.81,53.714Zm11.031,0a10.255,10.255,0,0,1-2.722-.364A6.856,6.856,0,0,1,329,52.428l1.029-2.036a6.864,6.864,0,0,0,1.843.836,8.081,8.081,0,0,0,2.144.3q2.4,0,2.4-1.265a.845.845,0,0,0-.622-.836,10.239,10.239,0,0,0-1.951-.45,16.318,16.318,0,0,1-2.315-.493,3.67,3.67,0,0,1-1.543-.965,2.792,2.792,0,0,1-.643-1.951,3.029,3.029,0,0,1,1.35-2.594,6.2,6.2,0,0,1,3.687-.986,10.212,10.212,0,0,1,2.358.279,6.415,6.415,0,0,1,1.929.707l-1.029,2.036a6.344,6.344,0,0,0-3.28-.857,3.612,3.612,0,0,0-1.8.364,1.035,1.035,0,0,0-.6.922.95.95,0,0,0,.643.922,11.453,11.453,0,0,0,2.036.493,15.61,15.61,0,0,1,2.251.493,3.44,3.44,0,0,1,1.5.943,2.6,2.6,0,0,1,.643,1.886,2.983,2.983,0,0,1-1.393,2.572A6.568,6.568,0,0,1,333.841,53.714Z" transform="translate(-2.568 -0.95)" fill="#2b2b2b"/>
      <path id="Path_766" data-name="Path 766" d="M554.068,32.559h2.787V45.206H564.7v2.358H554.068Zm17.615,15.155a6.494,6.494,0,0,1-3.13-.75,5.56,5.56,0,0,1-2.186-2.079,6.025,6.025,0,0,1-.772-3.044,5.908,5.908,0,0,1,.772-3.022,5.56,5.56,0,0,1,2.186-2.079,6.947,6.947,0,0,1,6.281,0A5.421,5.421,0,0,1,577,38.819a5.789,5.789,0,0,1,.793,3.022A5.9,5.9,0,0,1,577,44.885a5.421,5.421,0,0,1-2.165,2.079A6.543,6.543,0,0,1,571.683,47.714Zm0-2.294a3.274,3.274,0,0,0,2.444-.986,3.969,3.969,0,0,0,0-5.187,3.521,3.521,0,0,0-4.887,0,4.038,4.038,0,0,0,0,5.187A3.274,3.274,0,0,0,571.683,45.421Zm26.213-9.3-4.223,11.447H591.1l-2.958-7.888-3,7.888h-2.572l-4.2-11.447H580.9l3.022,8.446,3.151-8.446h2.251l3.087,8.488,3.108-8.488Zm18.656,3.644a3.937,3.937,0,0,1,1.972,1.372,3.745,3.745,0,0,1,.729,2.358,3.5,3.5,0,0,1-1.5,3.022,7.6,7.6,0,0,1-4.373,1.05h-7.46v-15h7.031a6.852,6.852,0,0,1,4.094,1.05,3.314,3.314,0,0,1,1.436,2.851,3.758,3.758,0,0,1-.514,1.972A3.522,3.522,0,0,1,616.551,39.762Zm-7.845-5.016v4.137h3.944a4.02,4.02,0,0,0,2.229-.514,1.751,1.751,0,0,0,.793-1.543,1.718,1.718,0,0,0-.793-1.543,3.892,3.892,0,0,0-2.229-.536Zm4.5,10.632q3.236,0,3.237-2.165t-3.237-2.165h-4.5v4.33Zm19.843-9.26V47.564H630.5V46.107a4.366,4.366,0,0,1-1.608,1.2,5.288,5.288,0,0,1-2.079.407,5.039,5.039,0,0,1-3.623-1.265,5.093,5.093,0,0,1-1.307-3.794V36.118h2.679v6.173a3.4,3.4,0,0,0,.686,2.315,2.608,2.608,0,0,0,1.994.75,2.987,2.987,0,0,0,2.272-.879,3.584,3.584,0,0,0,.857-2.572V36.118Zm7.045,11.6a10.244,10.244,0,0,1-2.722-.364,6.835,6.835,0,0,1-2.122-.922l1.029-2.036a6.85,6.85,0,0,0,1.843.836,8.075,8.075,0,0,0,2.144.3q2.4,0,2.4-1.265a.847.847,0,0,0-.622-.836,10.257,10.257,0,0,0-1.951-.45,16.316,16.316,0,0,1-2.315-.493,3.658,3.658,0,0,1-1.543-.965,2.792,2.792,0,0,1-.643-1.951,3.029,3.029,0,0,1,1.35-2.594,6.193,6.193,0,0,1,3.687-.986,10.223,10.223,0,0,1,2.358.279,6.434,6.434,0,0,1,1.929.707l-1.029,2.036a6.349,6.349,0,0,0-3.28-.857,3.607,3.607,0,0,0-1.8.364,1.033,1.033,0,0,0-.6.922.95.95,0,0,0,.643.922,11.408,11.408,0,0,0,2.036.493,15.672,15.672,0,0,1,2.251.493,3.452,3.452,0,0,1,1.5.943,2.6,2.6,0,0,1,.643,1.886,2.986,2.986,0,0,1-1.393,2.572A6.572,6.572,0,0,1,640.1,47.714Zm7.495-11.6h2.679V47.564h-2.679Zm1.35-1.886a1.743,1.743,0,0,1-1.222-.45,1.541,1.541,0,0,1-.493-1.158,1.473,1.473,0,0,1,.493-1.136,1.7,1.7,0,0,1,1.222-.472,1.743,1.743,0,0,1,1.222.45,1.385,1.385,0,0,1,.493,1.093,1.635,1.635,0,0,1-.493,1.2A1.654,1.654,0,0,1,648.941,34.231Zm11.34,1.758a4.781,4.781,0,0,1,3.473,1.265A4.987,4.987,0,0,1,665.062,41v6.559h-2.679V41.348a3.173,3.173,0,0,0-.707-2.251,2.6,2.6,0,0,0-2.015-.772,3.074,3.074,0,0,0-2.336.9,3.51,3.51,0,0,0-.857,2.551v5.788h-2.679V36.118h2.551V37.6a4.193,4.193,0,0,1,1.672-1.2A6.02,6.02,0,0,1,660.282,35.989Zm19.044,5.916c0,.186-.014.45-.043.793H670.3a3.176,3.176,0,0,0,1.222,2.015,4.549,4.549,0,0,0,5.595-.514l1.436,1.651a4.837,4.837,0,0,1-1.951,1.393,7.73,7.73,0,0,1-5.981-.279,5.5,5.5,0,0,1-2.229-2.079,6.383,6.383,0,0,1-.021-6.045,5.452,5.452,0,0,1,2.122-2.1,6.162,6.162,0,0,1,3.044-.75,5.878,5.878,0,0,1,2.98.75,5.054,5.054,0,0,1,2.058,2.079A6.165,6.165,0,0,1,679.326,41.905Zm-5.788-3.773a3.245,3.245,0,0,0-2.186.772,3.179,3.179,0,0,0-1.072,2.015h6.495a3.154,3.154,0,0,0-1.05-2.015A3.193,3.193,0,0,0,673.538,38.133Zm11.9,9.582a10.249,10.249,0,0,1-2.722-.364,6.857,6.857,0,0,1-2.122-.922l1.029-2.036a6.863,6.863,0,0,0,1.843.836,8.075,8.075,0,0,0,2.144.3q2.4,0,2.4-1.265a.847.847,0,0,0-.622-.836,10.259,10.259,0,0,0-1.951-.45,16.319,16.319,0,0,1-2.315-.493,3.67,3.67,0,0,1-1.543-.965,2.792,2.792,0,0,1-.643-1.951,3.029,3.029,0,0,1,1.351-2.594,6.2,6.2,0,0,1,3.687-.986,10.218,10.218,0,0,1,2.358.279,6.414,6.414,0,0,1,1.929.707l-1.029,2.036a6.345,6.345,0,0,0-3.28-.857,3.607,3.607,0,0,0-1.8.364,1.033,1.033,0,0,0-.6.922.95.95,0,0,0,.643.922,11.431,11.431,0,0,0,2.036.493,15.609,15.609,0,0,1,2.251.493,3.445,3.445,0,0,1,1.5.943,2.6,2.6,0,0,1,.643,1.886,2.986,2.986,0,0,1-1.393,2.572A6.569,6.569,0,0,1,685.437,47.714Zm11.031,0a10.25,10.25,0,0,1-2.722-.364,6.856,6.856,0,0,1-2.122-.922l1.029-2.036a6.863,6.863,0,0,0,1.844.836,8.075,8.075,0,0,0,2.144.3q2.4,0,2.4-1.265a.847.847,0,0,0-.622-.836,10.259,10.259,0,0,0-1.951-.45,16.316,16.316,0,0,1-2.315-.493,3.67,3.67,0,0,1-1.543-.965,2.792,2.792,0,0,1-.643-1.951,3.029,3.029,0,0,1,1.35-2.594A6.2,6.2,0,0,1,697,35.989a10.219,10.219,0,0,1,2.358.279,6.414,6.414,0,0,1,1.929.707l-1.029,2.036a6.344,6.344,0,0,0-3.28-.857,3.607,3.607,0,0,0-1.8.364,1.033,1.033,0,0,0-.6.922.95.95,0,0,0,.643.922,11.431,11.431,0,0,0,2.036.493,15.61,15.61,0,0,1,2.251.493,3.446,3.446,0,0,1,1.5.943,2.6,2.6,0,0,1,.643,1.886,2.986,2.986,0,0,1-1.393,2.572A6.568,6.568,0,0,1,696.469,47.714Zm20.622.064a8.584,8.584,0,0,1-4.116-.986,7.516,7.516,0,0,1-2.872-2.765,7.7,7.7,0,0,1-1.029-3.966,7.578,7.578,0,0,1,1.05-3.966A7.361,7.361,0,0,1,713,33.352a8.438,8.438,0,0,1,4.116-1.007,8.565,8.565,0,0,1,3.365.643,6.869,6.869,0,0,1,2.572,1.865l-1.8,1.693a5.251,5.251,0,0,0-4.008-1.758,5.551,5.551,0,0,0-2.765.686,4.789,4.789,0,0,0-1.908,1.865,5.745,5.745,0,0,0,0,5.445,4.937,4.937,0,0,0,1.908,1.886,5.693,5.693,0,0,0,2.765.665,5.223,5.223,0,0,0,4.008-1.779l1.8,1.715a6.83,6.83,0,0,1-2.594,1.865A8.566,8.566,0,0,1,717.09,47.779Zm13.1-.064a6.5,6.5,0,0,1-3.13-.75,5.573,5.573,0,0,1-2.186-2.079,6.024,6.024,0,0,1-.772-3.044,5.907,5.907,0,0,1,.772-3.022,5.573,5.573,0,0,1,2.186-2.079,6.947,6.947,0,0,1,6.281,0,5.414,5.414,0,0,1,2.165,2.079,5.78,5.78,0,0,1,.793,3.022,5.894,5.894,0,0,1-.793,3.044,5.414,5.414,0,0,1-2.165,2.079A6.538,6.538,0,0,1,730.187,47.714Zm0-2.294a3.274,3.274,0,0,0,2.444-.986,3.969,3.969,0,0,0,0-5.187,3.521,3.521,0,0,0-4.887,0,4.038,4.038,0,0,0,0,5.187A3.274,3.274,0,0,0,730.187,45.421ZM742.4,47.714a10.25,10.25,0,0,1-2.722-.364,6.856,6.856,0,0,1-2.122-.922l1.029-2.036a6.863,6.863,0,0,0,1.843.836,8.076,8.076,0,0,0,2.144.3q2.4,0,2.4-1.265a.847.847,0,0,0-.622-.836,10.255,10.255,0,0,0-1.951-.45,16.319,16.319,0,0,1-2.315-.493,3.671,3.671,0,0,1-1.543-.965,2.792,2.792,0,0,1-.643-1.951,3.029,3.029,0,0,1,1.35-2.594,6.2,6.2,0,0,1,3.687-.986,10.217,10.217,0,0,1,2.358.279,6.414,6.414,0,0,1,1.929.707l-1.029,2.036a6.345,6.345,0,0,0-3.28-.857,3.607,3.607,0,0,0-1.8.364,1.033,1.033,0,0,0-.6.922.95.95,0,0,0,.643.922,11.429,11.429,0,0,0,2.036.493,15.61,15.61,0,0,1,2.251.493,3.446,3.446,0,0,1,1.5.943,2.6,2.6,0,0,1,.643,1.886,2.986,2.986,0,0,1-1.393,2.572A6.568,6.568,0,0,1,742.4,47.714Zm14.375-.772a3.153,3.153,0,0,1-1.158.579,5.054,5.054,0,0,1-1.415.193,4.044,4.044,0,0,1-2.915-.986,3.8,3.8,0,0,1-1.029-2.872V38.347h-1.886V36.2h1.886V33.588h2.679V36.2H756v2.144h-3.065v5.445a1.85,1.85,0,0,0,.407,1.286,1.55,1.55,0,0,0,1.179.429,2.355,2.355,0,0,0,1.5-.472Z" transform="translate(-14.218 -0.796)" fill="#2b2b2b"/>
      <path id="Path_767" data-name="Path 767" d="M1006.07,32.559h2.787v15h-2.787Zm13.085,3.43a4.784,4.784,0,0,1,3.469,1.265A5.006,5.006,0,0,1,1023.93,41v6.559h-2.679V41.348a3.19,3.19,0,0,0-.7-2.251,2.615,2.615,0,0,0-2.017-.772,3.085,3.085,0,0,0-2.338.9,3.493,3.493,0,0,0-.857,2.551v5.788h-2.679V36.118h2.553V37.6a4.134,4.134,0,0,1,1.666-1.2A6.043,6.043,0,0,1,1019.155,35.989Zm13.534,11.725a6.717,6.717,0,0,1-3.2-.75,5.576,5.576,0,0,1-2.212-2.079,5.92,5.92,0,0,1-.789-3.044,5.805,5.805,0,0,1,.789-3.022,5.588,5.588,0,0,1,2.192-2.079,6.769,6.769,0,0,1,3.215-.75,6.07,6.07,0,0,1,2.952.686,4.438,4.438,0,0,1,1.929,1.972l-2.056,1.2a3.188,3.188,0,0,0-1.237-1.179,3.246,3.246,0,0,0-1.608-.407,3.392,3.392,0,0,0-2.494.986,3.479,3.479,0,0,0-.984,2.594,3.579,3.579,0,0,0,.965,2.615,3.446,3.446,0,0,0,2.514.965,3.2,3.2,0,0,0,2.845-1.586l2.056,1.2a4.658,4.658,0,0,1-1.949,1.993A6.046,6.046,0,0,1,1032.689,47.714Zm9.753-9.925q1.154-1.8,4.073-1.8V38.54a3.474,3.474,0,0,0-.624-.064,3.219,3.219,0,0,0-2.445.922,3.6,3.6,0,0,0-.877,2.615v5.552h-2.679V36.118h2.553Zm17,4.116c0,.186-.019.45-.049.793h-8.974a3.179,3.179,0,0,0,1.218,2.015,4.546,4.546,0,0,0,5.593-.514l1.442,1.651a4.856,4.856,0,0,1-1.958,1.393,7.71,7.71,0,0,1-5.973-.279,5.442,5.442,0,0,1-2.231-2.079,6,6,0,0,1-.77-3.044,5.93,5.93,0,0,1,.75-3,5.406,5.406,0,0,1,2.114-2.1,6.2,6.2,0,0,1,3.05-.75,5.91,5.91,0,0,1,2.981.75,5.061,5.061,0,0,1,2.056,2.079A6.206,6.206,0,0,1,1059.444,41.905Zm-5.787-3.773a3.268,3.268,0,0,0-2.192.772,3.22,3.22,0,0,0-1.072,2.015h6.5a3.133,3.133,0,0,0-3.235-2.787Zm12.423-2.144a5.51,5.51,0,0,1,3.858,1.222,4.637,4.637,0,0,1,1.345,3.644v6.709h-2.523V46.171a3.218,3.218,0,0,1-1.423,1.158,6.24,6.24,0,0,1-4.433-.043,3.682,3.682,0,0,1-1.5-1.222,3.216,3.216,0,0,1-.516-1.779,3.008,3.008,0,0,1,1.14-2.465,5.692,5.692,0,0,1,3.625-.943h2.952V40.7a2.325,2.325,0,0,0-.731-1.843,3.049,3.049,0,0,0-2.114-.643,6.247,6.247,0,0,0-1.91.3,4.7,4.7,0,0,0-1.569.836l-1.052-1.951a6.538,6.538,0,0,1,2.173-1.05A9.6,9.6,0,0,1,1066.08,35.989Zm-.37,9.775a3.484,3.484,0,0,0,1.783-.45,2.55,2.55,0,0,0,1.111-1.329V42.655h-2.767q-2.309,0-2.309,1.522a1.377,1.377,0,0,0,.575,1.158A2.67,2.67,0,0,0,1065.709,45.764Zm12.549,1.951a10.243,10.243,0,0,1-2.719-.364,6.828,6.828,0,0,1-2.124-.922l1.023-2.036a6.85,6.85,0,0,0,1.851.836,8.025,8.025,0,0,0,2.143.3q2.4,0,2.4-1.265a.843.843,0,0,0-.624-.836,10.285,10.285,0,0,0-1.949-.45,16.447,16.447,0,0,1-2.319-.493,3.7,3.7,0,0,1-1.54-.965,2.793,2.793,0,0,1-.643-1.951,3.019,3.019,0,0,1,1.354-2.594,6.192,6.192,0,0,1,3.683-.986,10.219,10.219,0,0,1,2.358.279,6.354,6.354,0,0,1,1.929.707l-1.033,2.036a6.3,6.3,0,0,0-3.274-.857,3.621,3.621,0,0,0-1.8.364,1.039,1.039,0,0,0-.6.922.95.95,0,0,0,.643.922,11.748,11.748,0,0,0,2.036.493,15.55,15.55,0,0,1,2.251.493,3.368,3.368,0,0,1,1.5.943,2.6,2.6,0,0,1,.643,1.886,2.97,2.97,0,0,1-1.393,2.572A6.555,6.555,0,0,1,1078.259,47.714Zm18.259-5.809c0,.186-.019.45-.049.793h-8.983a3.191,3.191,0,0,0,1.228,2.015,4.129,4.129,0,0,0,2.484.729,4.179,4.179,0,0,0,3.108-1.243l1.432,1.651a4.758,4.758,0,0,1-1.949,1.393,7.734,7.734,0,0,1-5.982-.279,5.477,5.477,0,0,1-2.221-2.079,6.354,6.354,0,0,1-.029-6.045,5.5,5.5,0,0,1,2.124-2.1,6.2,6.2,0,0,1,3.05-.75,5.849,5.849,0,0,1,2.972.75,5.083,5.083,0,0,1,2.066,2.079A6.206,6.206,0,0,1,1096.518,41.905Zm-5.788-3.773a3.268,3.268,0,0,0-2.192.772,3.175,3.175,0,0,0-1.072,2.015h6.5a3.133,3.133,0,0,0-3.235-2.787Zm25-2.015-5.359,12.368a5.679,5.679,0,0,1-1.822,2.615,4.31,4.31,0,0,1-2.592.772,5.311,5.311,0,0,1-1.7-.279,3.8,3.8,0,0,1-1.374-.772l1.072-1.972a2.89,2.89,0,0,0,1.968.793,1.779,1.779,0,0,0,1.159-.364,3.042,3.042,0,0,0,.857-1.222l.195-.45-5-11.489h2.787l3.6,8.467,3.625-8.467Zm6.5,11.6a6.528,6.528,0,0,1-3.128-.75,5.563,5.563,0,0,1-2.182-2.079,6.005,6.005,0,0,1-.77-3.044,5.889,5.889,0,0,1,.77-3.022,5.563,5.563,0,0,1,2.182-2.079,6.956,6.956,0,0,1,6.285,0,5.448,5.448,0,0,1,2.163,2.079,5.806,5.806,0,0,1,.789,3.022,5.92,5.92,0,0,1-.789,3.044,5.447,5.447,0,0,1-2.163,2.079A6.535,6.535,0,0,1,1122.231,47.714Zm0-2.294a3.266,3.266,0,0,0,2.446-.986,3.969,3.969,0,0,0,0-5.187,3.514,3.514,0,0,0-4.881,0,4.031,4.031,0,0,0,0,5.187A3.259,3.259,0,0,0,1122.231,45.421Zm19.759-9.3V47.564h-2.553V46.107a4.365,4.365,0,0,1-1.608,1.2,5.279,5.279,0,0,1-2.075.407,4.5,4.5,0,0,1-4.93-5.059V36.118h2.679v6.173a3.39,3.39,0,0,0,.682,2.315,2.61,2.61,0,0,0,2,.75,2.983,2.983,0,0,0,2.27-.879,3.57,3.57,0,0,0,.857-2.572V36.118Zm6.061,1.672c.77-1.2,2.124-1.8,4.073-1.8V38.54a3.471,3.471,0,0,0-.624-.064,3.219,3.219,0,0,0-2.446.922,3.6,3.6,0,0,0-.877,2.615v5.552H1145.5V36.118h2.553Zm17.626,9.925a6.717,6.717,0,0,1-3.2-.75,5.576,5.576,0,0,1-2.212-2.079,5.92,5.92,0,0,1-.789-3.044,5.805,5.805,0,0,1,.789-3.022,5.588,5.588,0,0,1,2.192-2.079,6.769,6.769,0,0,1,3.215-.75,6.07,6.07,0,0,1,2.952.686,4.438,4.438,0,0,1,1.929,1.972l-2.056,1.2a3.188,3.188,0,0,0-1.237-1.179,3.246,3.246,0,0,0-1.608-.407,3.392,3.392,0,0,0-2.494.986,3.479,3.479,0,0,0-.984,2.594,3.579,3.579,0,0,0,.964,2.615,3.447,3.447,0,0,0,2.514.965,3.2,3.2,0,0,0,2.845-1.586l2.056,1.2a4.658,4.658,0,0,1-1.949,1.993A6.046,6.046,0,0,1,1165.676,47.714Zm11.575-11.725a5.51,5.51,0,0,1,3.858,1.222,4.637,4.637,0,0,1,1.345,3.644v6.709h-2.524V46.171a3.188,3.188,0,0,1-1.413,1.158,5.587,5.587,0,0,1-2.192.386,5.5,5.5,0,0,1-2.251-.429,3.682,3.682,0,0,1-1.5-1.222,3.216,3.216,0,0,1-.516-1.779,3.008,3.008,0,0,1,1.14-2.465,5.692,5.692,0,0,1,3.625-.943h2.952V40.7a2.32,2.32,0,0,0-.721-1.843,3.076,3.076,0,0,0-2.124-.643,6.293,6.293,0,0,0-1.91.3,4.7,4.7,0,0,0-1.569.836l-1.042-1.951a6.4,6.4,0,0,1,2.163-1.05A9.6,9.6,0,0,1,1177.251,35.989Zm-.37,9.775a3.484,3.484,0,0,0,1.783-.45,2.55,2.55,0,0,0,1.111-1.329V42.655h-2.757c-1.549,0-2.319.507-2.319,1.522a1.377,1.377,0,0,0,.575,1.158A2.67,2.67,0,0,0,1176.881,45.764Zm15.365-9.775a5.983,5.983,0,0,1,2.972.729,5.289,5.289,0,0,1,2.085,2.058,6.161,6.161,0,0,1,.75,3.065,6.283,6.283,0,0,1-.75,3.087,5.289,5.289,0,0,1-2.085,2.058,5.983,5.983,0,0,1-2.972.729,4.637,4.637,0,0,1-3.673-1.543v5.552h-2.679V36.118h2.553v1.5a4.193,4.193,0,0,1,1.627-1.222A5.663,5.663,0,0,1,1192.247,35.989Zm-.3,9.432a3.186,3.186,0,0,0,2.416-.986,3.969,3.969,0,0,0,0-5.187,3.186,3.186,0,0,0-2.416-.986,3.354,3.354,0,0,0-1.734.45,3.115,3.115,0,0,0-1.228,1.243,4.193,4.193,0,0,0,0,3.773,3.266,3.266,0,0,0,1.228,1.265A3.486,3.486,0,0,0,1191.944,45.421Zm12.871-9.432a5.51,5.51,0,0,1,3.858,1.222,4.608,4.608,0,0,1,1.354,3.644v6.709h-2.533V46.171a3.136,3.136,0,0,1-1.413,1.158,6.24,6.24,0,0,1-4.433-.043,3.62,3.62,0,0,1-1.5-1.222,3.217,3.217,0,0,1-.516-1.779,3.008,3.008,0,0,1,1.14-2.465,5.679,5.679,0,0,1,3.615-.943h2.962V40.7a2.325,2.325,0,0,0-.731-1.843,3.06,3.06,0,0,0-2.124-.643,6.184,6.184,0,0,0-1.9.3,4.7,4.7,0,0,0-1.569.836l-1.052-1.951a6.581,6.581,0,0,1,2.163-1.05A9.7,9.7,0,0,1,1204.816,35.989Zm-.36,9.775a3.483,3.483,0,0,0,1.783-.45,2.55,2.55,0,0,0,1.111-1.329V42.655h-2.767q-2.309,0-2.309,1.522a1.353,1.353,0,0,0,.575,1.158A2.669,2.669,0,0,0,1204.455,45.764Zm14.371,1.951a6.717,6.717,0,0,1-3.2-.75,5.577,5.577,0,0,1-2.212-2.079,5.92,5.92,0,0,1-.789-3.044,5.806,5.806,0,0,1,.789-3.022,5.589,5.589,0,0,1,2.192-2.079,6.713,6.713,0,0,1,3.215-.75,6.07,6.07,0,0,1,2.952.686,4.436,4.436,0,0,1,1.929,1.972l-2.056,1.2a3.148,3.148,0,0,0-1.247-1.179,3.194,3.194,0,0,0-1.608-.407,3.385,3.385,0,0,0-2.485.986,3.479,3.479,0,0,0-.984,2.594,3.579,3.579,0,0,0,.965,2.615,3.439,3.439,0,0,0,2.5.965,3.226,3.226,0,0,0,2.855-1.586l2.056,1.2a4.656,4.656,0,0,1-1.949,1.993A6.046,6.046,0,0,1,1218.827,47.714Zm7.2-11.6h2.679V47.564h-2.679Zm1.354-1.886a1.762,1.762,0,0,1-1.228-.45,1.525,1.525,0,0,1-.487-1.158,1.459,1.459,0,0,1,.487-1.136,1.715,1.715,0,0,1,1.228-.472,1.754,1.754,0,0,1,1.218.45,1.38,1.38,0,0,1,.5,1.093,1.627,1.627,0,0,1-.5,1.2A1.645,1.645,0,0,1,1227.381,34.231ZM1239.1,46.943a3.132,3.132,0,0,1-1.159.579,5.032,5.032,0,0,1-1.413.193,4.035,4.035,0,0,1-2.913-.986,3.812,3.812,0,0,1-1.033-2.872V38.347h-1.88V36.2h1.88V33.588h2.679V36.2h3.069v2.144h-3.069v5.445a1.846,1.846,0,0,0,.409,1.286,1.549,1.549,0,0,0,1.179.429,2.344,2.344,0,0,0,1.5-.472Zm12.715-10.825-5.359,12.368a5.678,5.678,0,0,1-1.822,2.615,4.31,4.31,0,0,1-2.592.772,5.312,5.312,0,0,1-1.7-.279,3.8,3.8,0,0,1-1.374-.772l1.072-1.972a2.89,2.89,0,0,0,1.968.793,1.78,1.78,0,0,0,1.16-.364,3.044,3.044,0,0,0,.857-1.222l.195-.45-5-11.489h2.787l3.605,8.467,3.625-8.467Z" transform="translate(-25.818 -0.796)" fill="#2b2b2b"/>
      <path id="Path_768" data-name="Path 768" d="M102.855,265.9v4.566H110.1v2.358h-7.245v5.745h-2.787v-15h10.954V265.9ZM115.8,268.79q1.158-1.8,4.073-1.8v2.551a3.4,3.4,0,0,0-.622-.064,3.213,3.213,0,0,0-2.444.922,3.6,3.6,0,0,0-.879,2.615v5.552H113.25V267.118H115.8Zm17,4.116c0,.186-.014.45-.043.793h-8.981A3.175,3.175,0,0,0,125,275.713a4.549,4.549,0,0,0,5.595-.514l1.436,1.651a4.837,4.837,0,0,1-1.951,1.393,7.73,7.73,0,0,1-5.98-.279,5.5,5.5,0,0,1-2.229-2.079,6.383,6.383,0,0,1-.021-6.045,5.449,5.449,0,0,1,2.122-2.1,6.166,6.166,0,0,1,3.044-.75,5.88,5.88,0,0,1,2.98.75,5.055,5.055,0,0,1,2.058,2.079A6.164,6.164,0,0,1,132.8,272.905Zm-5.788-3.773a3.245,3.245,0,0,0-2.186.772,3.179,3.179,0,0,0-1.072,2.015h6.495a3.153,3.153,0,0,0-1.05-2.015A3.193,3.193,0,0,0,127.014,269.133Zm19.122,3.773q0,.279-.043.793h-8.981a3.167,3.167,0,0,0,1.222,2.015,4.127,4.127,0,0,0,2.487.729,4.17,4.17,0,0,0,3.108-1.243l1.436,1.651a4.837,4.837,0,0,1-1.951,1.393,7.73,7.73,0,0,1-5.98-.279,5.5,5.5,0,0,1-2.229-2.079,6.383,6.383,0,0,1-.021-6.045,5.449,5.449,0,0,1,2.122-2.1,6.163,6.163,0,0,1,3.044-.75,5.883,5.883,0,0,1,2.98.75,5.067,5.067,0,0,1,2.058,2.079A6.174,6.174,0,0,1,146.137,272.905Zm-5.788-3.773a3.245,3.245,0,0,0-2.186.772,3.179,3.179,0,0,0-1.072,2.015h6.495a3.158,3.158,0,0,0-1.05-2.015A3.193,3.193,0,0,0,140.349,269.133Zm19.573-6.474v15.905h-2.572v-1.479a4.143,4.143,0,0,1-1.651,1.222,5.455,5.455,0,0,1-2.144.407,6.087,6.087,0,0,1-2.98-.729,5.276,5.276,0,0,1-2.058-2.058,6.242,6.242,0,0,1-.75-3.087,6.12,6.12,0,0,1,.75-3.065,5.276,5.276,0,0,1,2.058-2.058,6.087,6.087,0,0,1,2.98-.729,5.445,5.445,0,0,1,2.079.386,4.187,4.187,0,0,1,1.608,1.158v-5.873Zm-6.045,13.762a3.517,3.517,0,0,0,1.736-.429,3.254,3.254,0,0,0,1.222-1.265,4.177,4.177,0,0,0,0-3.773,3.1,3.1,0,0,0-1.222-1.243,3.573,3.573,0,0,0-3.473,0,3.1,3.1,0,0,0-1.222,1.243,4.177,4.177,0,0,0,0,3.773,3.254,3.254,0,0,0,1.222,1.265A3.517,3.517,0,0,0,153.877,276.421Zm14.694,2.294a6.5,6.5,0,0,1-3.13-.75,5.573,5.573,0,0,1-2.186-2.079,6.024,6.024,0,0,1-.772-3.044,5.906,5.906,0,0,1,.772-3.022,5.572,5.572,0,0,1,2.186-2.079,6.947,6.947,0,0,1,6.281,0,5.42,5.42,0,0,1,2.165,2.079,5.779,5.779,0,0,1,.793,3.022,5.893,5.893,0,0,1-.793,3.044,5.42,5.42,0,0,1-2.165,2.079A6.542,6.542,0,0,1,168.571,278.714Zm0-2.294a3.272,3.272,0,0,0,2.444-.986,3.969,3.969,0,0,0,0-5.187,3.521,3.521,0,0,0-4.887,0,4.038,4.038,0,0,0,0,5.187A3.272,3.272,0,0,0,168.571,276.421Zm23.119-9.432a4.637,4.637,0,0,1,3.43,1.265A5.046,5.046,0,0,1,196.384,272v6.559H193.7v-6.216a3.31,3.31,0,0,0-.665-2.251,2.382,2.382,0,0,0-1.908-.772,2.777,2.777,0,0,0-2.165.9,3.586,3.586,0,0,0-.815,2.529v5.809h-2.679v-6.216a3.31,3.31,0,0,0-.665-2.251,2.382,2.382,0,0,0-1.908-.772,2.837,2.837,0,0,0-2.186.879,3.684,3.684,0,0,0-.793,2.551v5.809h-2.679V267.118h2.551v1.458A4.169,4.169,0,0,1,181.4,267.4a5.451,5.451,0,0,1,2.144-.407,5.021,5.021,0,0,1,2.272.493A3.63,3.63,0,0,1,187.4,268.9a4.672,4.672,0,0,1,1.822-1.393A5.809,5.809,0,0,1,191.69,266.989Zm19.187,11.725a6.5,6.5,0,0,1-3.13-.75,5.573,5.573,0,0,1-2.186-2.079,6.024,6.024,0,0,1-.772-3.044,5.906,5.906,0,0,1,.772-3.022,5.573,5.573,0,0,1,2.186-2.079,6.947,6.947,0,0,1,6.281,0,5.42,5.42,0,0,1,2.165,2.079,5.779,5.779,0,0,1,.793,3.022,5.893,5.893,0,0,1-.793,3.044,5.42,5.42,0,0,1-2.165,2.079A6.542,6.542,0,0,1,210.877,278.714Zm0-2.294a3.272,3.272,0,0,0,2.444-.986,3.969,3.969,0,0,0,0-5.187,3.521,3.521,0,0,0-4.887,0,4.038,4.038,0,0,0,0,5.187A3.272,3.272,0,0,0,210.877,276.421ZM224.2,264.674q-1.694,0-1.693,1.843v.686h3.151v2.144h-3.065v9.217h-2.679v-9.217h-1.886V267.2h1.886v-.729a3.864,3.864,0,0,1,1.072-2.894,4.087,4.087,0,0,1,3.022-1.072,4.137,4.137,0,0,1,2.422.622l-.75,2.015A2.561,2.561,0,0,0,224.2,264.674Zm16.387,14.1a8.581,8.581,0,0,1-4.116-.986,7.512,7.512,0,0,1-2.872-2.765,7.7,7.7,0,0,1-1.029-3.966,7.578,7.578,0,0,1,1.05-3.966,7.36,7.36,0,0,1,2.872-2.744,8.441,8.441,0,0,1,4.116-1.007,8.566,8.566,0,0,1,3.365.643,6.87,6.87,0,0,1,2.572,1.865l-1.8,1.693a5.251,5.251,0,0,0-4.008-1.758,5.554,5.554,0,0,0-2.765.686,4.793,4.793,0,0,0-1.908,1.865,5.745,5.745,0,0,0,0,5.445,4.937,4.937,0,0,0,1.908,1.886,5.69,5.69,0,0,0,2.765.665,5.224,5.224,0,0,0,4.008-1.779l1.8,1.715a6.831,6.831,0,0,1-2.594,1.865A8.566,8.566,0,0,1,240.587,278.779Zm14.866-11.79a4.782,4.782,0,0,1,3.473,1.265A4.987,4.987,0,0,1,260.234,272v6.559h-2.679v-6.216a3.172,3.172,0,0,0-.707-2.251,2.6,2.6,0,0,0-2.015-.772,3.074,3.074,0,0,0-2.336.9,3.509,3.509,0,0,0-.857,2.551v5.788h-2.679V262.659h2.679v5.788a4.266,4.266,0,0,1,1.629-1.072A5.956,5.956,0,0,1,255.453,266.989Zm13.428,11.725a6.5,6.5,0,0,1-3.13-.75,5.572,5.572,0,0,1-2.186-2.079,6.024,6.024,0,0,1-.772-3.044,5.906,5.906,0,0,1,.772-3.022,5.572,5.572,0,0,1,2.186-2.079,6.947,6.947,0,0,1,6.281,0,5.42,5.42,0,0,1,2.165,2.079,5.779,5.779,0,0,1,.793,3.022,5.893,5.893,0,0,1-.793,3.044,5.42,5.42,0,0,1-2.165,2.079A6.542,6.542,0,0,1,268.882,278.714Zm0-2.294a3.272,3.272,0,0,0,2.444-.986,3.969,3.969,0,0,0,0-5.187,3.521,3.521,0,0,0-4.887,0,4.038,4.038,0,0,0,0,5.187A3.272,3.272,0,0,0,268.882,276.421Zm8.672-9.3h2.679v11.447h-2.679Zm1.35-1.886a1.743,1.743,0,0,1-1.222-.45,1.538,1.538,0,0,1-.493-1.158,1.471,1.471,0,0,1,.493-1.136,1.7,1.7,0,0,1,1.222-.472,1.747,1.747,0,0,1,1.222.45,1.385,1.385,0,0,1,.493,1.093,1.634,1.634,0,0,1-.493,1.2A1.653,1.653,0,0,1,278.9,265.231ZM289,278.714a6.716,6.716,0,0,1-3.194-.75,5.534,5.534,0,0,1-2.208-2.079,5.9,5.9,0,0,1-.793-3.044,5.788,5.788,0,0,1,.793-3.022,5.572,5.572,0,0,1,2.186-2.079,6.761,6.761,0,0,1,3.215-.75,6.113,6.113,0,0,1,2.958.686,4.436,4.436,0,0,1,1.929,1.972l-2.058,1.2a3.155,3.155,0,0,0-1.243-1.179,3.233,3.233,0,0,0-1.608-.407,3.371,3.371,0,0,0-2.486.986,3.465,3.465,0,0,0-.986,2.594,3.579,3.579,0,0,0,.965,2.615,3.439,3.439,0,0,0,2.508.965,3.379,3.379,0,0,0,1.608-.386,3.322,3.322,0,0,0,1.243-1.2l2.058,1.2a4.683,4.683,0,0,1-1.951,1.993A6.067,6.067,0,0,1,289,278.714Zm17.8-5.809q0,.279-.043.793h-8.981A3.167,3.167,0,0,0,299,275.713a4.127,4.127,0,0,0,2.487.729,4.172,4.172,0,0,0,3.108-1.243l1.436,1.651a4.843,4.843,0,0,1-1.951,1.393,7.73,7.73,0,0,1-5.98-.279,5.492,5.492,0,0,1-2.229-2.079,6.383,6.383,0,0,1-.021-6.045,5.449,5.449,0,0,1,2.122-2.1,6.163,6.163,0,0,1,3.044-.75,5.883,5.883,0,0,1,2.979.75,5.067,5.067,0,0,1,2.058,2.079A6.174,6.174,0,0,1,306.8,272.905Zm-5.788-3.773a3.245,3.245,0,0,0-2.186.772,3.175,3.175,0,0,0-1.072,2.015h6.495a3.162,3.162,0,0,0-1.05-2.015A3.2,3.2,0,0,0,301.011,269.133Z" transform="translate(-2.568 -6.724)" fill="#2b2b2b"/>
      <path id="Path_769" data-name="Path 769" d="M565.322,286.228v2.336H554.068v-15h10.953V275.9h-8.167v3.9H564.1v2.294h-7.245v4.137Zm9.344-9.239a4.782,4.782,0,0,1,3.472,1.265A4.987,4.987,0,0,1,579.446,282v6.559h-2.679v-6.216a3.172,3.172,0,0,0-.707-2.251,2.6,2.6,0,0,0-2.015-.772,3.074,3.074,0,0,0-2.336.9,3.509,3.509,0,0,0-.857,2.551v5.788h-2.679V277.118h2.551V278.6a4.193,4.193,0,0,1,1.672-1.2A6.015,6.015,0,0,1,574.666,276.989Zm14.674,0a4.786,4.786,0,0,1,3.473,1.265A4.991,4.991,0,0,1,594.12,282v6.559h-2.679v-6.216a3.172,3.172,0,0,0-.707-2.251,2.6,2.6,0,0,0-2.015-.772,3.072,3.072,0,0,0-2.336.9,3.505,3.505,0,0,0-.857,2.551v5.788h-2.679V272.659h2.679v5.788a4.258,4.258,0,0,1,1.629-1.072A5.948,5.948,0,0,1,589.34,276.989Zm12.551,0a5.507,5.507,0,0,1,3.858,1.222,4.626,4.626,0,0,1,1.35,3.644v6.709h-2.529v-1.393a3.176,3.176,0,0,1-1.415,1.158,6.25,6.25,0,0,1-4.437-.043,3.663,3.663,0,0,1-1.5-1.222,3.2,3.2,0,0,1-.514-1.779,3.013,3.013,0,0,1,1.136-2.465,5.7,5.7,0,0,1,3.623-.943h2.958V281.7a2.328,2.328,0,0,0-.729-1.843,3.064,3.064,0,0,0-2.122-.643,6.27,6.27,0,0,0-1.908.3,4.668,4.668,0,0,0-1.565.836l-1.05-1.951a6.507,6.507,0,0,1,2.165-1.05A9.648,9.648,0,0,1,601.891,276.989Zm-.364,9.775a3.465,3.465,0,0,0,1.779-.45,2.544,2.544,0,0,0,1.115-1.329v-1.329h-2.765q-2.315,0-2.315,1.522a1.365,1.365,0,0,0,.579,1.158A2.656,2.656,0,0,0,601.527,286.764Zm15.508-9.775a4.786,4.786,0,0,1,3.473,1.265A4.991,4.991,0,0,1,621.815,282v6.559h-2.679v-6.216a3.172,3.172,0,0,0-.707-2.251,2.6,2.6,0,0,0-2.015-.772,3.072,3.072,0,0,0-2.336.9,3.505,3.505,0,0,0-.857,2.551v5.788H610.54V277.118h2.551V278.6a4.18,4.18,0,0,1,1.672-1.2A6.007,6.007,0,0,1,617.035,276.989Zm13.536,11.725a6.713,6.713,0,0,1-3.194-.75,5.527,5.527,0,0,1-2.208-2.079,5.893,5.893,0,0,1-.793-3.044,5.778,5.778,0,0,1,.793-3.022,5.559,5.559,0,0,1,2.186-2.079,6.761,6.761,0,0,1,3.215-.75,6.118,6.118,0,0,1,2.958.686,4.436,4.436,0,0,1,1.929,1.972l-2.058,1.2a3.167,3.167,0,0,0-1.243-1.179,3.238,3.238,0,0,0-1.608-.407,3.368,3.368,0,0,0-2.487.986,3.461,3.461,0,0,0-.986,2.594,3.579,3.579,0,0,0,.965,2.615,3.436,3.436,0,0,0,2.508.965,3.384,3.384,0,0,0,1.608-.386,3.335,3.335,0,0,0,1.243-1.2l2.058,1.2a4.689,4.689,0,0,1-1.951,1.993A6.07,6.07,0,0,1,630.57,288.714Zm17.8-5.809q0,.279-.043.793h-8.981a3.167,3.167,0,0,0,1.222,2.015,4.127,4.127,0,0,0,2.487.729,4.17,4.17,0,0,0,3.108-1.243l1.436,1.651a4.837,4.837,0,0,1-1.951,1.393,7.73,7.73,0,0,1-5.98-.279,5.5,5.5,0,0,1-2.229-2.079,6.383,6.383,0,0,1-.021-6.045,5.45,5.45,0,0,1,2.122-2.1,6.163,6.163,0,0,1,3.044-.75,5.883,5.883,0,0,1,2.98.75,5.067,5.067,0,0,1,2.058,2.079A6.174,6.174,0,0,1,648.366,282.905Zm-5.788-3.773a3.245,3.245,0,0,0-2.186.772,3.179,3.179,0,0,0-1.072,2.015h6.495a3.158,3.158,0,0,0-1.05-2.015A3.193,3.193,0,0,0,642.579,279.133Zm19.573-6.474v15.905h-2.572v-1.479a4.143,4.143,0,0,1-1.651,1.222,5.454,5.454,0,0,1-2.144.407,6.087,6.087,0,0,1-2.979-.729,5.275,5.275,0,0,1-2.058-2.058,6.242,6.242,0,0,1-.75-3.087,6.12,6.12,0,0,1,.75-3.065,5.276,5.276,0,0,1,2.058-2.058,6.087,6.087,0,0,1,2.979-.729,5.445,5.445,0,0,1,2.079.386,4.187,4.187,0,0,1,1.608,1.158v-5.873Zm-6.045,13.762a3.517,3.517,0,0,0,1.736-.429,3.254,3.254,0,0,0,1.222-1.265,4.177,4.177,0,0,0,0-3.773,3.1,3.1,0,0,0-1.222-1.243,3.574,3.574,0,0,0-3.472,0,3.1,3.1,0,0,0-1.222,1.243,4.177,4.177,0,0,0,0,3.773,3.254,3.254,0,0,0,1.222,1.265A3.517,3.517,0,0,0,656.107,286.421Zm26.556-9.3v11.447h-2.551v-1.458a4.363,4.363,0,0,1-1.608,1.2,5.283,5.283,0,0,1-2.079.407,5.04,5.04,0,0,1-3.623-1.265,5.092,5.092,0,0,1-1.308-3.794v-6.538h2.679v6.173a3.4,3.4,0,0,0,.686,2.315,2.609,2.609,0,0,0,1.993.75,2.988,2.988,0,0,0,2.272-.879,3.584,3.584,0,0,0,.857-2.572v-5.788Zm7.045,11.6a10.257,10.257,0,0,1-2.722-.364,6.836,6.836,0,0,1-2.122-.922l1.029-2.036a6.849,6.849,0,0,0,1.843.836,8.087,8.087,0,0,0,2.144.3q2.4,0,2.4-1.265a.846.846,0,0,0-.622-.836,10.3,10.3,0,0,0-1.951-.45,16.322,16.322,0,0,1-2.315-.493,3.664,3.664,0,0,1-1.543-.965,2.792,2.792,0,0,1-.643-1.951,3.029,3.029,0,0,1,1.351-2.594,6.191,6.191,0,0,1,3.687-.986,10.208,10.208,0,0,1,2.358.279,6.434,6.434,0,0,1,1.929.707l-1.029,2.036a6.347,6.347,0,0,0-3.28-.857,3.61,3.61,0,0,0-1.8.364,1.034,1.034,0,0,0-.6.922.95.95,0,0,0,.643.922,11.385,11.385,0,0,0,2.036.493,15.662,15.662,0,0,1,2.251.493,3.451,3.451,0,0,1,1.5.943,2.6,2.6,0,0,1,.643,1.886,2.986,2.986,0,0,1-1.393,2.572A6.573,6.573,0,0,1,689.708,288.714Zm18.255-5.809q0,.279-.043.793h-8.981a3.167,3.167,0,0,0,1.222,2.015,4.127,4.127,0,0,0,2.487.729,4.17,4.17,0,0,0,3.108-1.243l1.436,1.651a4.837,4.837,0,0,1-1.951,1.393,7.73,7.73,0,0,1-5.98-.279,5.5,5.5,0,0,1-2.229-2.079,6.383,6.383,0,0,1-.021-6.045,5.45,5.45,0,0,1,2.122-2.1,6.163,6.163,0,0,1,3.044-.75,5.882,5.882,0,0,1,2.979.75,5.066,5.066,0,0,1,2.058,2.079A6.173,6.173,0,0,1,707.963,282.905Zm-5.788-3.773a3.245,3.245,0,0,0-2.186.772,3.179,3.179,0,0,0-1.072,2.015h6.495a3.158,3.158,0,0,0-1.05-2.015A3.193,3.193,0,0,0,702.175,279.133Zm10.913-.343q1.158-1.8,4.073-1.8v2.551a3.41,3.41,0,0,0-.622-.064,3.213,3.213,0,0,0-2.444.922,3.592,3.592,0,0,0-.879,2.615v5.552h-2.679V277.118h2.551Zm23.135,4.116q0,.279-.043.793H727.2a3.167,3.167,0,0,0,1.222,2.015,4.127,4.127,0,0,0,2.487.729,4.171,4.171,0,0,0,3.108-1.243l1.436,1.651a4.837,4.837,0,0,1-1.951,1.393,7.73,7.73,0,0,1-5.981-.279,5.5,5.5,0,0,1-2.229-2.079,6.383,6.383,0,0,1-.021-6.045,5.449,5.449,0,0,1,2.122-2.1,6.163,6.163,0,0,1,3.044-.75,5.883,5.883,0,0,1,2.98.75,5.067,5.067,0,0,1,2.058,2.079A6.174,6.174,0,0,1,736.222,282.905Zm-5.788-3.773a3.245,3.245,0,0,0-2.186.772,3.179,3.179,0,0,0-1.072,2.015h6.495a3.158,3.158,0,0,0-1.05-2.015A3.193,3.193,0,0,0,730.435,279.133Zm15.335,9.432-2.937-3.966-2.958,3.966h-2.958l4.459-5.809-4.266-5.638h2.979l2.808,3.751,2.808-3.751H748.6l-4.287,5.595,4.48,5.852Zm11.344-11.575a6.01,6.01,0,0,1,2.98.729,5.234,5.234,0,0,1,2.079,2.058,6.12,6.12,0,0,1,.75,3.065,6.241,6.241,0,0,1-.75,3.087,5.234,5.234,0,0,1-2.079,2.058,6.01,6.01,0,0,1-2.98.729,4.621,4.621,0,0,1-3.665-1.543v5.552h-2.679V277.118h2.551v1.5a4.171,4.171,0,0,1,1.629-1.222A5.615,5.615,0,0,1,757.114,276.989Zm-.3,9.432a3.2,3.2,0,0,0,2.422-.986,3.969,3.969,0,0,0,0-5.187,3.2,3.2,0,0,0-2.422-.986,3.382,3.382,0,0,0-1.736.45,3.1,3.1,0,0,0-1.222,1.243,4.177,4.177,0,0,0,0,3.773,3.254,3.254,0,0,0,1.222,1.265A3.517,3.517,0,0,0,756.814,286.421Zm19.412-3.515q0,.279-.043.793H767.2a3.167,3.167,0,0,0,1.222,2.015,4.127,4.127,0,0,0,2.487.729,4.172,4.172,0,0,0,3.108-1.243l1.436,1.651a4.843,4.843,0,0,1-1.951,1.393,7.73,7.73,0,0,1-5.981-.279,5.492,5.492,0,0,1-2.229-2.079,6.383,6.383,0,0,1-.021-6.045,5.449,5.449,0,0,1,2.122-2.1,6.163,6.163,0,0,1,3.044-.75,5.883,5.883,0,0,1,2.98.75,5.068,5.068,0,0,1,2.058,2.079A6.174,6.174,0,0,1,776.226,282.905Zm-5.788-3.773a3.245,3.245,0,0,0-2.186.772,3.174,3.174,0,0,0-1.072,2.015h6.495a3.163,3.163,0,0,0-1.05-2.015A3.2,3.2,0,0,0,770.438,279.133Zm10.912-.343q1.158-1.8,4.073-1.8v2.551a3.4,3.4,0,0,0-.622-.064,3.213,3.213,0,0,0-2.444.922,3.6,3.6,0,0,0-.879,2.615v5.552H778.8V277.118h2.551Zm6.346-1.672h2.679v11.447H787.7Zm1.35-1.886a1.743,1.743,0,0,1-1.222-.45,1.542,1.542,0,0,1-.493-1.158,1.474,1.474,0,0,1,.493-1.136,1.7,1.7,0,0,1,1.222-.472,1.743,1.743,0,0,1,1.222.45,1.384,1.384,0,0,1,.493,1.093,1.634,1.634,0,0,1-.493,1.2A1.653,1.653,0,0,1,789.046,275.231Zm15.606,7.674c0,.186-.014.45-.043.793h-8.981a3.175,3.175,0,0,0,1.222,2.015,4.549,4.549,0,0,0,5.595-.514l1.436,1.651a4.837,4.837,0,0,1-1.951,1.393,7.73,7.73,0,0,1-5.98-.279,5.5,5.5,0,0,1-2.229-2.079,6.383,6.383,0,0,1-.021-6.045,5.45,5.45,0,0,1,2.122-2.1,6.166,6.166,0,0,1,3.044-.75,5.88,5.88,0,0,1,2.979.75,5.055,5.055,0,0,1,2.058,2.079A6.164,6.164,0,0,1,804.652,282.905Zm-5.788-3.773a3.245,3.245,0,0,0-2.186.772,3.179,3.179,0,0,0-1.072,2.015H802.1a3.153,3.153,0,0,0-1.05-2.015A3.193,3.193,0,0,0,798.865,279.133Zm14.857-2.144a4.786,4.786,0,0,1,3.473,1.265A4.988,4.988,0,0,1,818.5,282v6.559h-2.679v-6.216a3.172,3.172,0,0,0-.707-2.251,2.6,2.6,0,0,0-2.015-.772,3.074,3.074,0,0,0-2.336.9,3.505,3.505,0,0,0-.857,2.551v5.788h-2.679V277.118h2.551V278.6a4.193,4.193,0,0,1,1.672-1.2A6.011,6.011,0,0,1,813.721,276.989Zm13.536,11.725a6.713,6.713,0,0,1-3.194-.75,5.527,5.527,0,0,1-2.208-2.079,5.893,5.893,0,0,1-.793-3.044,5.778,5.778,0,0,1,.793-3.022,5.56,5.56,0,0,1,2.186-2.079,6.761,6.761,0,0,1,3.215-.75,6.119,6.119,0,0,1,2.958.686,4.436,4.436,0,0,1,1.929,1.972l-2.058,1.2a3.167,3.167,0,0,0-1.243-1.179,3.238,3.238,0,0,0-1.608-.407,3.368,3.368,0,0,0-2.487.986,3.461,3.461,0,0,0-.986,2.594,3.578,3.578,0,0,0,.965,2.615,3.436,3.436,0,0,0,2.508.965,3.384,3.384,0,0,0,1.608-.386,3.336,3.336,0,0,0,1.243-1.2l2.058,1.2a4.689,4.689,0,0,1-1.951,1.993A6.07,6.07,0,0,1,827.257,288.714Zm17.8-5.809q0,.279-.043.793h-8.981a3.167,3.167,0,0,0,1.222,2.015,4.127,4.127,0,0,0,2.487.729,4.17,4.17,0,0,0,3.108-1.243l1.436,1.651a4.837,4.837,0,0,1-1.951,1.393,7.73,7.73,0,0,1-5.981-.279,5.5,5.5,0,0,1-2.229-2.079,6.383,6.383,0,0,1-.021-6.045,5.449,5.449,0,0,1,2.122-2.1,6.163,6.163,0,0,1,3.044-.75,5.883,5.883,0,0,1,2.98.75,5.068,5.068,0,0,1,2.058,2.079A6.174,6.174,0,0,1,845.053,282.905Zm-5.788-3.773a3.245,3.245,0,0,0-2.186.772,3.179,3.179,0,0,0-1.072,2.015H842.5a3.158,3.158,0,0,0-1.05-2.015A3.193,3.193,0,0,0,839.266,279.133Z" transform="translate(-14.218 -6.98)" fill="#2b2b2b"/>
      <path id="Path_770" data-name="Path 770" d="M106.985,520.779a8.581,8.581,0,0,1-4.116-.986A7.518,7.518,0,0,1,100,517.027a7.7,7.7,0,0,1-1.029-3.966,7.581,7.581,0,0,1,1.05-3.966,7.367,7.367,0,0,1,2.872-2.744,8.441,8.441,0,0,1,4.116-1.007,8.562,8.562,0,0,1,3.365.643,6.869,6.869,0,0,1,2.572,1.865l-1.8,1.693a5.25,5.25,0,0,0-4.008-1.758,5.553,5.553,0,0,0-2.765.686,4.793,4.793,0,0,0-1.908,1.865,5.745,5.745,0,0,0,0,5.445,4.937,4.937,0,0,0,1.908,1.886,5.689,5.689,0,0,0,2.765.664,5.224,5.224,0,0,0,4.008-1.779l1.8,1.715a6.831,6.831,0,0,1-2.594,1.865A8.562,8.562,0,0,1,106.985,520.779Zm13.1-.064a6.5,6.5,0,0,1-3.13-.75,5.559,5.559,0,0,1-2.186-2.079,6.024,6.024,0,0,1-.772-3.044,5.906,5.906,0,0,1,.772-3.022,5.56,5.56,0,0,1,2.186-2.079,6.947,6.947,0,0,1,6.281,0,5.42,5.42,0,0,1,2.165,2.079,5.788,5.788,0,0,1,.793,3.022,5.9,5.9,0,0,1-.793,3.044,5.42,5.42,0,0,1-2.165,2.079A6.546,6.546,0,0,1,120.083,520.714Zm0-2.294a3.273,3.273,0,0,0,2.444-.986,3.969,3.969,0,0,0,0-5.187,3.521,3.521,0,0,0-4.887,0,4.038,4.038,0,0,0,0,5.187A3.273,3.273,0,0,0,120.083,518.421Zm19.075-9.3-4.909,11.446h-2.765l-4.909-11.446h2.787l3.558,8.488,3.665-8.488Zm1.675,0h2.679v11.446h-2.679Zm1.35-1.886a1.743,1.743,0,0,1-1.222-.45,1.542,1.542,0,0,1-.493-1.158,1.474,1.474,0,0,1,.493-1.136,1.7,1.7,0,0,1,1.222-.472,1.743,1.743,0,0,1,1.222.45,1.384,1.384,0,0,1,.493,1.093,1.634,1.634,0,0,1-.493,1.2A1.653,1.653,0,0,1,142.183,507.231Zm16.056-2.572v15.905h-2.572v-1.479a4.13,4.13,0,0,1-1.651,1.222,5.451,5.451,0,0,1-2.144.407,6.092,6.092,0,0,1-2.98-.729,5.289,5.289,0,0,1-2.058-2.058,6.252,6.252,0,0,1-.75-3.087,6.13,6.13,0,0,1,.75-3.065,5.289,5.289,0,0,1,2.058-2.058,6.092,6.092,0,0,1,2.98-.729,5.438,5.438,0,0,1,2.079.386,4.172,4.172,0,0,1,1.608,1.158v-5.873Zm-6.045,13.762a3.517,3.517,0,0,0,1.736-.429,3.253,3.253,0,0,0,1.222-1.265,4.177,4.177,0,0,0,0-3.773,3.1,3.1,0,0,0-1.222-1.243,3.574,3.574,0,0,0-3.473,0,3.1,3.1,0,0,0-1.222,1.243,4.177,4.177,0,0,0,0,3.773,3.253,3.253,0,0,0,1.222,1.265A3.517,3.517,0,0,0,152.194,518.421Zm20.383,2.358a11.562,11.562,0,0,1-3.365-.493,7,7,0,0,1-2.551-1.308l.965-2.165a7.791,7.791,0,0,0,2.251,1.2,8.5,8.5,0,0,0,2.7.45,4.588,4.588,0,0,0,2.486-.536,1.62,1.62,0,0,0,.836-1.415,1.326,1.326,0,0,0-.472-1.05,3.047,3.047,0,0,0-1.158-.665q-.707-.235-1.929-.536a23.064,23.064,0,0,1-2.787-.815,4.716,4.716,0,0,1-1.822-1.265,3.506,3.506,0,0,1-.75-2.358,4,4,0,0,1,.664-2.251,4.619,4.619,0,0,1,2.036-1.629,8.318,8.318,0,0,1,3.344-.6,10.758,10.758,0,0,1,2.7.343,7.477,7.477,0,0,1,2.294.986l-.879,2.165a8.668,8.668,0,0,0-2.058-.879,7.716,7.716,0,0,0-2.079-.3,4.4,4.4,0,0,0-2.465.557,1.724,1.724,0,0,0-.793,1.479,1.352,1.352,0,0,0,.45,1.05,3.432,3.432,0,0,0,1.179.643q.707.235,1.929.536a19.252,19.252,0,0,1,2.744.815A4.523,4.523,0,0,1,177.872,514a3.333,3.333,0,0,1,.772,2.315,3.91,3.91,0,0,1-.686,2.251,4.53,4.53,0,0,1-2.036,1.608A8.325,8.325,0,0,1,172.577,520.779Zm12.945-11.789a5.51,5.51,0,0,1,3.858,1.222,4.626,4.626,0,0,1,1.35,3.644v6.709H188.2v-1.393a3.187,3.187,0,0,1-1.415,1.158,6.25,6.25,0,0,1-4.437-.043,3.657,3.657,0,0,1-1.5-1.222,3.2,3.2,0,0,1-.514-1.779,3.011,3.011,0,0,1,1.136-2.465,5.7,5.7,0,0,1,3.623-.943h2.958V513.7a2.331,2.331,0,0,0-.729-1.843,3.064,3.064,0,0,0-2.122-.643,6.265,6.265,0,0,0-1.908.3,4.659,4.659,0,0,0-1.565.836l-1.05-1.951a6.5,6.5,0,0,1,2.165-1.05A9.644,9.644,0,0,1,185.522,508.989Zm-.364,9.775a3.466,3.466,0,0,0,1.779-.45,2.548,2.548,0,0,0,1.115-1.329v-1.329h-2.765q-2.315,0-2.315,1.522a1.365,1.365,0,0,0,.579,1.157A2.655,2.655,0,0,0,185.158,518.764Zm13.663-12.09q-1.694,0-1.693,1.843v.686h3.151v2.144h-3.065v9.217h-2.679v-9.217h-1.886V509.2h1.886v-.729a3.868,3.868,0,0,1,1.072-2.894,4.087,4.087,0,0,1,3.022-1.072,4.135,4.135,0,0,1,2.422.622l-.75,2.015A2.557,2.557,0,0,0,198.821,506.674Zm13.854,8.231c0,.186-.014.45-.043.793h-8.981a3.175,3.175,0,0,0,1.222,2.015,4.129,4.129,0,0,0,2.487.729,4.17,4.17,0,0,0,3.108-1.243l1.436,1.651a4.837,4.837,0,0,1-1.951,1.393,7.729,7.729,0,0,1-5.98-.279,5.5,5.5,0,0,1-2.229-2.079,6.383,6.383,0,0,1-.021-6.045,5.449,5.449,0,0,1,2.122-2.1,6.166,6.166,0,0,1,3.044-.75,5.881,5.881,0,0,1,2.98.75,5.056,5.056,0,0,1,2.058,2.079A6.164,6.164,0,0,1,212.675,514.905Zm-5.788-3.773a3.245,3.245,0,0,0-2.186.772,3.179,3.179,0,0,0-1.072,2.015h6.495a3.153,3.153,0,0,0-1.05-2.015A3.193,3.193,0,0,0,206.888,511.133Z" transform="translate(-2.54 -12.934)" fill="#2b2b2b"/>
      <path id="Path_771" data-name="Path 771" d="M1016.7,280.762a3.891,3.891,0,0,1,1.968,1.372,3.734,3.734,0,0,1,.731,2.358,3.489,3.489,0,0,1-1.5,3.022,7.58,7.58,0,0,1-4.375,1.05h-7.454v-15h7.025a6.887,6.887,0,0,1,4.1,1.05,3.315,3.315,0,0,1,1.432,2.851,3.777,3.777,0,0,1-.516,1.972A3.48,3.48,0,0,1,1016.7,280.762Zm-7.843-5.016v4.137h3.946a3.989,3.989,0,0,0,2.222-.514,1.74,1.74,0,0,0,.8-1.543,1.707,1.707,0,0,0-.8-1.543,3.86,3.86,0,0,0-2.222-.536Zm4.5,10.632c2.153,0,3.235-.722,3.235-2.165s-1.082-2.165-3.235-2.165h-4.5v4.33Zm19.837-9.26v11.447h-2.543v-1.458a4.362,4.362,0,0,1-1.608,1.2,5.322,5.322,0,0,1-2.085.407,5.045,5.045,0,0,1-3.625-1.265,5.112,5.112,0,0,1-1.306-3.794v-6.538h2.679v6.173a3.391,3.391,0,0,0,.692,2.315,2.589,2.589,0,0,0,1.988.75,2.985,2.985,0,0,0,2.27-.879,3.571,3.571,0,0,0,.857-2.572v-5.788Zm7.045,11.6a10.255,10.255,0,0,1-2.719-.364,6.932,6.932,0,0,1-2.124-.922l1.033-2.036a6.919,6.919,0,0,0,1.841.836,8.092,8.092,0,0,0,2.144.3q2.4,0,2.4-1.265a.845.845,0,0,0-.614-.836,10.288,10.288,0,0,0-1.958-.45,16.277,16.277,0,0,1-2.309-.493,3.731,3.731,0,0,1-1.549-.965,2.792,2.792,0,0,1-.643-1.951,3.042,3.042,0,0,1,1.354-2.594,6.19,6.19,0,0,1,3.683-.986,10.139,10.139,0,0,1,2.358.279,6.354,6.354,0,0,1,1.929.707l-1.023,2.036a6.356,6.356,0,0,0-3.284-.857,3.649,3.649,0,0,0-1.8.364,1.029,1.029,0,0,0-.594.922.95.95,0,0,0,.643.922,11.275,11.275,0,0,0,2.036.493,15.539,15.539,0,0,1,2.251.493,3.481,3.481,0,0,1,1.5.943,2.6,2.6,0,0,1,.643,1.886,2.992,2.992,0,0,1-1.393,2.572A6.568,6.568,0,0,1,1040.24,288.714Zm7.5-11.6h2.679v11.447h-2.679Zm1.345-1.886a1.737,1.737,0,0,1-1.218-.45,1.535,1.535,0,0,1-.5-1.158,1.468,1.468,0,0,1,.5-1.136,1.691,1.691,0,0,1,1.218-.472,1.761,1.761,0,0,1,1.228.45,1.4,1.4,0,0,1,.487,1.093,1.64,1.64,0,0,1-1.715,1.672Zm11.341,1.758a4.81,4.81,0,0,1,3.479,1.265,5.006,5.006,0,0,1,1.306,3.751v6.559h-2.679v-6.216a3.146,3.146,0,0,0-.711-2.251,2.587,2.587,0,0,0-2.017-.772,3.049,3.049,0,0,0-2.329.9,3.493,3.493,0,0,0-.857,2.551v5.788h-2.679V277.118h2.543V278.6a4.234,4.234,0,0,1,1.676-1.2A6.022,6.022,0,0,1,1060.428,276.989Zm19.048,5.916c0,.186-.02.45-.049.793h-8.974a3.178,3.178,0,0,0,1.218,2.015,4.546,4.546,0,0,0,5.593-.514l1.442,1.651a4.855,4.855,0,0,1-1.958,1.393,7.711,7.711,0,0,1-5.973-.279,5.443,5.443,0,0,1-2.231-2.079,6,6,0,0,1-.77-3.044,5.929,5.929,0,0,1,.75-3,5.4,5.4,0,0,1,2.114-2.1,6.2,6.2,0,0,1,3.05-.75,5.914,5.914,0,0,1,2.982.75,5.063,5.063,0,0,1,2.056,2.079A6.2,6.2,0,0,1,1079.477,282.905Zm-5.788-3.773a3.268,3.268,0,0,0-2.192.772,3.22,3.22,0,0,0-1.072,2.015h6.5a3.133,3.133,0,0,0-3.235-2.787Zm11.9,9.582a10.255,10.255,0,0,1-2.718-.364,6.828,6.828,0,0,1-2.124-.922l1.023-2.036a6.85,6.85,0,0,0,1.851.836,8.037,8.037,0,0,0,2.143.3q2.4,0,2.4-1.265a.842.842,0,0,0-.623-.836,10.336,10.336,0,0,0-1.949-.45,16.451,16.451,0,0,1-2.319-.493,3.639,3.639,0,0,1-1.539-.965,2.792,2.792,0,0,1-.643-1.951,3.019,3.019,0,0,1,1.354-2.594,6.171,6.171,0,0,1,3.683-.986,10.2,10.2,0,0,1,2.358.279,6.354,6.354,0,0,1,1.929.707l-1.033,2.036a6.321,6.321,0,0,0-3.274-.857,3.623,3.623,0,0,0-1.8.364,1.039,1.039,0,0,0-.6.922.95.95,0,0,0,.643.922,11.723,11.723,0,0,0,2.036.493,15.545,15.545,0,0,1,2.251.493,3.368,3.368,0,0,1,1.5.943,2.6,2.6,0,0,1,.643,1.886,2.97,2.97,0,0,1-1.393,2.572A6.554,6.554,0,0,1,1085.586,288.714Zm11.029,0a10.256,10.256,0,0,1-2.718-.364,6.828,6.828,0,0,1-2.124-.922l1.033-2.036a6.781,6.781,0,0,0,1.842.836,8.092,8.092,0,0,0,2.144.3q2.4,0,2.4-1.265a.842.842,0,0,0-.624-.836,10.143,10.143,0,0,0-1.949-.45,15.977,15.977,0,0,1-2.309-.493,3.731,3.731,0,0,1-1.549-.965,2.791,2.791,0,0,1-.643-1.951,3.019,3.019,0,0,1,1.354-2.594,6.191,6.191,0,0,1,3.683-.986,10.14,10.14,0,0,1,2.358.279,6.354,6.354,0,0,1,1.929.707l-1.023,2.036a6.356,6.356,0,0,0-3.284-.857,3.623,3.623,0,0,0-1.8.364,1.029,1.029,0,0,0-.594.922.95.95,0,0,0,.643.922,11.282,11.282,0,0,0,2.036.493,15.537,15.537,0,0,1,2.251.493,3.481,3.481,0,0,1,1.5.943,2.6,2.6,0,0,1,.643,1.886,2.992,2.992,0,0,1-1.393,2.572A6.589,6.589,0,0,1,1096.615,288.714Zm13.68-15.155h2.787v15H1110.3Zm13.085,3.43a4.77,4.77,0,0,1,3.469,1.265,5.006,5.006,0,0,1,1.306,3.751v6.559h-2.679v-6.216a3.189,3.189,0,0,0-.7-2.251,2.616,2.616,0,0,0-2.017-.772,3.085,3.085,0,0,0-2.338.9,3.492,3.492,0,0,0-.857,2.551v5.788h-2.679V277.118h2.553V278.6a4.132,4.132,0,0,1,1.666-1.2A6.037,6.037,0,0,1,1123.38,276.989Zm11.712,11.725a10.256,10.256,0,0,1-2.719-.364,6.829,6.829,0,0,1-2.124-.922l1.023-2.036a6.849,6.849,0,0,0,1.851.836,8.038,8.038,0,0,0,2.144.3q2.4,0,2.4-1.265a.842.842,0,0,0-.624-.836,10.334,10.334,0,0,0-1.949-.45,16.455,16.455,0,0,1-2.319-.493,3.7,3.7,0,0,1-1.539-.965,2.792,2.792,0,0,1-.643-1.951,3.019,3.019,0,0,1,1.354-2.594,6.19,6.19,0,0,1,3.683-.986,10.2,10.2,0,0,1,2.358.279,6.352,6.352,0,0,1,1.929.707l-1.033,2.036a6.3,6.3,0,0,0-3.274-.857,3.623,3.623,0,0,0-1.8.364,1.039,1.039,0,0,0-.6.922.95.95,0,0,0,.643.922,11.726,11.726,0,0,0,2.036.493,15.541,15.541,0,0,1,2.251.493,3.369,3.369,0,0,1,1.5.943,2.6,2.6,0,0,1,.643,1.886,2.97,2.97,0,0,1-1.393,2.572A6.555,6.555,0,0,1,1135.092,288.714Zm7.493-11.6h2.679v11.447h-2.679Zm1.354-1.886a1.761,1.761,0,0,1-1.228-.45,1.561,1.561,0,0,1-.487-1.158,1.492,1.492,0,0,1,.487-1.136,1.853,1.853,0,0,1,2.445-.021,1.378,1.378,0,0,1,.5,1.093,1.626,1.626,0,0,1-.5,1.2A1.644,1.644,0,0,1,1143.939,275.231Zm16.2,1.886v9.71q0,6.045-6.167,6.045a11.291,11.291,0,0,1-3.137-.429,6.5,6.5,0,0,1-2.436-1.2l1.2-2.015a5.611,5.611,0,0,0,1.88.986,7.423,7.423,0,0,0,2.338.386,3.841,3.841,0,0,0,2.767-.857,3.509,3.509,0,0,0,.877-2.615v-.6a4.426,4.426,0,0,1-1.666,1.136,5.942,5.942,0,0,1-2.173.386,6.349,6.349,0,0,1-2.952-.686,5.4,5.4,0,0,1-2.085-1.972,5.592,5.592,0,0,1-.75-2.894,5.48,5.48,0,0,1,.75-2.872,5.246,5.246,0,0,1,2.085-1.951,6.349,6.349,0,0,1,2.952-.686,5.955,5.955,0,0,1,2.251.407,4.128,4.128,0,0,1,1.715,1.243v-1.522Zm-6.109,8.66a3.5,3.5,0,0,0,2.484-.9,3.1,3.1,0,0,0,.994-2.379,3.006,3.006,0,0,0-.994-2.336,3.5,3.5,0,0,0-2.484-.9,3.594,3.594,0,0,0-2.524.9,3.05,3.05,0,0,0-.964,2.336,3.146,3.146,0,0,0,.964,2.379A3.594,3.594,0,0,0,1154.033,285.778Zm16.125-8.789a4.793,4.793,0,0,1,3.478,1.265,5.006,5.006,0,0,1,1.306,3.751v6.559h-2.679v-6.216a3.146,3.146,0,0,0-.711-2.251,2.579,2.579,0,0,0-2.007-.772,3.056,3.056,0,0,0-2.338.9,3.493,3.493,0,0,0-.857,2.551v5.788h-2.679V272.659h2.679v5.788a4.221,4.221,0,0,1,1.627-1.072A5.921,5.921,0,0,1,1170.158,276.989Zm15.063,10.954a3.132,3.132,0,0,1-1.159.579,5.029,5.029,0,0,1-1.413.193,4.033,4.033,0,0,1-2.913-.986,3.775,3.775,0,0,1-1.033-2.872v-5.509h-1.88V277.2h1.88v-2.615h2.679V277.2h3.069v2.144h-3.069v5.445a1.846,1.846,0,0,0,.409,1.286,1.549,1.549,0,0,0,1.179.429,2.344,2.344,0,0,0,1.5-.472Zm5.739.772a10.255,10.255,0,0,1-2.718-.364,6.829,6.829,0,0,1-2.124-.922l1.033-2.036a6.777,6.777,0,0,0,1.841.836,8.092,8.092,0,0,0,2.144.3q2.4,0,2.4-1.265a.842.842,0,0,0-.624-.836,10.141,10.141,0,0,0-1.949-.45,15.983,15.983,0,0,1-2.309-.493,3.731,3.731,0,0,1-1.549-.965,2.793,2.793,0,0,1-.643-1.951,3.019,3.019,0,0,1,1.354-2.594,6.191,6.191,0,0,1,3.683-.986,10.141,10.141,0,0,1,2.358.279,6.355,6.355,0,0,1,1.929.707l-1.023,2.036a6.356,6.356,0,0,0-3.284-.857,3.623,3.623,0,0,0-1.8.364,1.029,1.029,0,0,0-.594.922.95.95,0,0,0,.643.922,11.272,11.272,0,0,0,2.036.493,15.541,15.541,0,0,1,2.251.493,3.48,3.48,0,0,1,1.5.943,2.6,2.6,0,0,1,.643,1.886,2.992,2.992,0,0,1-1.393,2.572A6.588,6.588,0,0,1,1190.96,288.714Z" transform="translate(-25.818 -6.98)" fill="#2b2b2b"/>
      <path id="Path_772" data-name="Path 772" d="M563.885,520.564l-3.065-4.394a5.6,5.6,0,0,1-.579.021h-3.387v4.373h-2.787v-15h6.173a8.231,8.231,0,0,1,3.387.643,4.936,4.936,0,0,1,2.229,1.843,5.158,5.158,0,0,1,.772,2.851,5.035,5.035,0,0,1-.836,2.915,4.849,4.849,0,0,1-2.358,1.822l3.451,4.93Zm-.064-9.667a2.69,2.69,0,0,0-.943-2.208,4.279,4.279,0,0,0-2.765-.772h-3.258v5.98h3.258a4.279,4.279,0,0,0,2.765-.772A2.754,2.754,0,0,0,563.821,510.9Zm16.429,4.008q0,.279-.043.793h-8.981a3.167,3.167,0,0,0,1.222,2.015,4.126,4.126,0,0,0,2.487.729,4.172,4.172,0,0,0,3.108-1.243l1.436,1.651a4.843,4.843,0,0,1-1.951,1.393,7.729,7.729,0,0,1-5.98-.279,5.492,5.492,0,0,1-2.229-2.079,6.383,6.383,0,0,1-.021-6.045,5.45,5.45,0,0,1,2.122-2.1,6.163,6.163,0,0,1,3.044-.75,5.883,5.883,0,0,1,2.979.75,5.067,5.067,0,0,1,2.058,2.079A6.173,6.173,0,0,1,580.25,514.905Zm-5.788-3.773a3.245,3.245,0,0,0-2.186.772,3.175,3.175,0,0,0-1.072,2.015H577.7a3.163,3.163,0,0,0-1.05-2.015A3.2,3.2,0,0,0,574.463,511.133Zm12.42-2.144a5.507,5.507,0,0,1,3.858,1.222,4.626,4.626,0,0,1,1.35,3.644v6.709h-2.529v-1.393a3.176,3.176,0,0,1-1.415,1.158,6.25,6.25,0,0,1-4.437-.043,3.664,3.664,0,0,1-1.5-1.222,3.2,3.2,0,0,1-.514-1.779,3.013,3.013,0,0,1,1.136-2.465,5.7,5.7,0,0,1,3.623-.943h2.958V513.7a2.327,2.327,0,0,0-.729-1.843,3.064,3.064,0,0,0-2.122-.643,6.265,6.265,0,0,0-1.908.3,4.659,4.659,0,0,0-1.565.836l-1.05-1.951a6.508,6.508,0,0,1,2.165-1.05A9.644,9.644,0,0,1,586.883,508.989Zm-.364,9.775a3.466,3.466,0,0,0,1.779-.45,2.543,2.543,0,0,0,1.115-1.329v-1.329h-2.765q-2.315,0-2.315,1.522a1.365,1.365,0,0,0,.579,1.157A2.655,2.655,0,0,0,586.518,518.764Zm9.012-14.1h2.679v15.905H595.53Zm19,15.283a3.154,3.154,0,0,1-1.158.579,5.054,5.054,0,0,1-1.415.193,4.043,4.043,0,0,1-2.915-.986,3.8,3.8,0,0,1-1.029-2.872v-5.509h-1.886V509.2h1.886v-2.615h2.679V509.2h3.065v2.144h-3.065v5.445a1.85,1.85,0,0,0,.407,1.286,1.55,1.55,0,0,0,1.179.429,2.353,2.353,0,0,0,1.5-.472Zm2.2-10.825h2.679v11.446h-2.679Zm1.35-1.886a1.743,1.743,0,0,1-1.222-.45,1.542,1.542,0,0,1-.493-1.158,1.474,1.474,0,0,1,.493-1.136,1.7,1.7,0,0,1,1.222-.472,1.743,1.743,0,0,1,1.222.45,1.385,1.385,0,0,1,.493,1.093,1.635,1.635,0,0,1-.493,1.2A1.653,1.653,0,0,1,618.086,507.231Zm19.293,1.758a4.634,4.634,0,0,1,3.43,1.265A5.043,5.043,0,0,1,642.073,514v6.559h-2.679v-6.216a3.3,3.3,0,0,0-.664-2.251,2.379,2.379,0,0,0-1.908-.772,2.779,2.779,0,0,0-2.165.9,3.59,3.59,0,0,0-.815,2.529v5.809h-2.679v-6.216a3.3,3.3,0,0,0-.664-2.251,2.379,2.379,0,0,0-1.908-.772,2.84,2.84,0,0,0-2.186.879,3.688,3.688,0,0,0-.793,2.551v5.809h-2.679V509.118h2.551v1.458a4.17,4.17,0,0,1,1.608-1.179,5.455,5.455,0,0,1,2.144-.407,5.018,5.018,0,0,1,2.272.493,3.625,3.625,0,0,1,1.586,1.415,4.679,4.679,0,0,1,1.822-1.393A5.813,5.813,0,0,1,637.379,508.989Zm18.984,5.916q0,.279-.043.793h-8.981a3.167,3.167,0,0,0,1.222,2.015,4.126,4.126,0,0,0,2.487.729,4.171,4.171,0,0,0,3.108-1.243l1.436,1.651a4.837,4.837,0,0,1-1.951,1.393,7.729,7.729,0,0,1-5.981-.279,5.5,5.5,0,0,1-2.229-2.079,6.383,6.383,0,0,1-.021-6.045,5.449,5.449,0,0,1,2.122-2.1,6.163,6.163,0,0,1,3.044-.75,5.883,5.883,0,0,1,2.98.75,5.067,5.067,0,0,1,2.058,2.079A6.174,6.174,0,0,1,656.363,514.905Zm-5.788-3.773a3.245,3.245,0,0,0-2.186.772,3.179,3.179,0,0,0-1.072,2.015h6.495a3.158,3.158,0,0,0-1.05-2.015A3.193,3.193,0,0,0,650.575,511.133Zm16.837-.343q1.158-1.8,4.073-1.8v2.551a3.41,3.41,0,0,0-.622-.064,3.213,3.213,0,0,0-2.444.922,3.592,3.592,0,0,0-.879,2.615v5.552h-2.679V509.118h2.551Zm17,4.116q0,.279-.043.793h-8.981a3.167,3.167,0,0,0,1.222,2.015,4.126,4.126,0,0,0,2.487.729,4.17,4.17,0,0,0,3.108-1.243l1.436,1.651a4.837,4.837,0,0,1-1.951,1.393,7.729,7.729,0,0,1-5.98-.279,5.5,5.5,0,0,1-2.229-2.079,6.383,6.383,0,0,1-.021-6.045,5.449,5.449,0,0,1,2.122-2.1,6.163,6.163,0,0,1,3.044-.75,5.883,5.883,0,0,1,2.979.75,5.067,5.067,0,0,1,2.058,2.079A6.173,6.173,0,0,1,684.413,514.905Zm-5.788-3.773a3.245,3.245,0,0,0-2.186.772,3.179,3.179,0,0,0-1.072,2.015h6.495a3.158,3.158,0,0,0-1.05-2.015A3.193,3.193,0,0,0,678.625,511.133Zm14.707-2.144a6.012,6.012,0,0,1,2.979.729,5.247,5.247,0,0,1,2.079,2.058,6.13,6.13,0,0,1,.75,3.065,6.252,6.252,0,0,1-.75,3.087,5.247,5.247,0,0,1-2.079,2.058,6.012,6.012,0,0,1-2.979.729,4.621,4.621,0,0,1-3.665-1.543v5.552h-2.679v-15.6h2.551v1.5a4.163,4.163,0,0,1,1.629-1.222A5.608,5.608,0,0,1,693.332,508.989Zm-.3,9.432a3.2,3.2,0,0,0,2.422-.986,3.969,3.969,0,0,0,0-5.187,3.2,3.2,0,0,0-2.422-.986,3.382,3.382,0,0,0-1.736.45,3.1,3.1,0,0,0-1.222,1.243,4.177,4.177,0,0,0,0,3.773,3.253,3.253,0,0,0,1.222,1.265A3.517,3.517,0,0,0,693.032,518.421Zm13.795,2.294a6.5,6.5,0,0,1-3.13-.75,5.559,5.559,0,0,1-2.186-2.079,6.024,6.024,0,0,1-.772-3.044,5.906,5.906,0,0,1,.772-3.022,5.56,5.56,0,0,1,2.186-2.079,6.947,6.947,0,0,1,6.281,0,5.421,5.421,0,0,1,2.165,2.079,5.788,5.788,0,0,1,.793,3.022,5.9,5.9,0,0,1-.793,3.044,5.421,5.421,0,0,1-2.165,2.079A6.546,6.546,0,0,1,706.827,520.714Zm0-2.294a3.272,3.272,0,0,0,2.444-.986,3.969,3.969,0,0,0,0-5.187,3.521,3.521,0,0,0-4.887,0,4.038,4.038,0,0,0,0,5.187A3.273,3.273,0,0,0,706.827,518.421Zm11.221-7.631q1.158-1.8,4.073-1.8v2.551a3.392,3.392,0,0,0-.622-.064,3.216,3.216,0,0,0-2.444.922,3.6,3.6,0,0,0-.879,2.615v5.552H715.5V509.118h2.551Zm13.646,9.153a3.154,3.154,0,0,1-1.157.579,5.055,5.055,0,0,1-1.415.193,4.043,4.043,0,0,1-2.915-.986,3.8,3.8,0,0,1-1.029-2.872v-5.509h-1.886V509.2h1.886v-2.615h2.679V509.2h3.065v2.144h-3.065v5.445a1.851,1.851,0,0,0,.407,1.286,1.551,1.551,0,0,0,1.179.429,2.353,2.353,0,0,0,1.5-.472Zm5.741.772a10.264,10.264,0,0,1-2.722-.364,6.859,6.859,0,0,1-2.122-.922l1.029-2.036a6.862,6.862,0,0,0,1.843.836,8.086,8.086,0,0,0,2.144.3q2.4,0,2.4-1.265a.846.846,0,0,0-.622-.836,10.306,10.306,0,0,0-1.951-.45,16.314,16.314,0,0,1-2.315-.493,3.676,3.676,0,0,1-1.543-.965,2.792,2.792,0,0,1-.643-1.951,3.029,3.029,0,0,1,1.351-2.594,6.193,6.193,0,0,1,3.687-.986,10.2,10.2,0,0,1,2.358.279,6.414,6.414,0,0,1,1.929.707l-1.029,2.036a6.342,6.342,0,0,0-3.28-.857,3.61,3.61,0,0,0-1.8.364,1.034,1.034,0,0,0-.6.922.95.95,0,0,0,.643.922,11.4,11.4,0,0,0,2.036.493,15.614,15.614,0,0,1,2.251.493,3.445,3.445,0,0,1,1.5.943,2.6,2.6,0,0,1,.643,1.886,2.986,2.986,0,0,1-1.393,2.572A6.569,6.569,0,0,1,737.435,520.714Z" transform="translate(-14.218 -12.934)" fill="#2b2b2b"/>
      <path id="Path_773" data-name="Path 773" d="M1007.07,505.572h2.787v12.647h7.843v2.358h-10.63Zm23.228,9.346c0,.186-.01.45-.039.793h-8.983a3.178,3.178,0,0,0,1.218,2.015,4.546,4.546,0,0,0,5.593-.514l1.442,1.651a4.891,4.891,0,0,1-1.949,1.393,7.734,7.734,0,0,1-5.982-.279,5.5,5.5,0,0,1-2.231-2.079,6.39,6.39,0,0,1-.019-6.045,5.429,5.429,0,0,1,2.124-2.1,6.135,6.135,0,0,1,3.04-.75,5.914,5.914,0,0,1,2.982.75,5.062,5.062,0,0,1,2.056,2.079A6.2,6.2,0,0,1,1030.3,514.918Zm-5.788-3.773a3.225,3.225,0,0,0-2.182.772,3.175,3.175,0,0,0-1.072,2.015h6.489a3.089,3.089,0,0,0-1.052-2.015A3.172,3.172,0,0,0,1024.511,511.146Zm11.9,9.582a10.257,10.257,0,0,1-2.719-.364,6.831,6.831,0,0,1-2.124-.922l1.033-2.036a6.648,6.648,0,0,0,1.842.836,8.092,8.092,0,0,0,2.144.3q2.4,0,2.4-1.265a.842.842,0,0,0-.624-.836,10.148,10.148,0,0,0-1.949-.45,15.967,15.967,0,0,1-2.309-.493,3.672,3.672,0,0,1-1.549-.965,2.792,2.792,0,0,1-.643-1.951,3.019,3.019,0,0,1,1.354-2.594,6.191,6.191,0,0,1,3.683-.986,10.14,10.14,0,0,1,2.358.279,6.356,6.356,0,0,1,1.929.707l-1.023,2.036a6.356,6.356,0,0,0-3.284-.857,3.623,3.623,0,0,0-1.8.364,1.029,1.029,0,0,0-.594.922.95.95,0,0,0,.643.922,11.269,11.269,0,0,0,2.036.493,16.172,16.172,0,0,1,2.251.493,3.479,3.479,0,0,1,1.5.943,2.6,2.6,0,0,1,.643,1.886,2.992,2.992,0,0,1-1.393,2.572A6.61,6.61,0,0,1,1036.407,520.727Zm11.029,0a10.258,10.258,0,0,1-2.719-.364,6.829,6.829,0,0,1-2.124-.922l1.033-2.036a6.918,6.918,0,0,0,1.841.836,8.092,8.092,0,0,0,2.144.3q2.4,0,2.4-1.265a.845.845,0,0,0-.614-.836,10.288,10.288,0,0,0-1.958-.45,16.272,16.272,0,0,1-2.309-.493,3.732,3.732,0,0,1-1.549-.965,2.792,2.792,0,0,1-.643-1.951,3.042,3.042,0,0,1,1.354-2.594,6.19,6.19,0,0,1,3.683-.986,10.138,10.138,0,0,1,2.358.279,6.354,6.354,0,0,1,1.929.707l-1.023,2.036a6.356,6.356,0,0,0-3.284-.857,3.649,3.649,0,0,0-1.8.364,1.029,1.029,0,0,0-.594.922.95.95,0,0,0,.643.922,11.272,11.272,0,0,0,2.036.493,15.551,15.551,0,0,1,2.251.493,3.48,3.48,0,0,1,1.5.943,2.6,2.6,0,0,1,.643,1.886,2.992,2.992,0,0,1-1.393,2.572A6.589,6.589,0,0,1,1047.437,520.727Zm18.327.064a11.6,11.6,0,0,1-3.361-.493,7.053,7.053,0,0,1-2.553-1.308l.965-2.165a7.792,7.792,0,0,0,2.251,1.2,8.53,8.53,0,0,0,2.7.45,4.609,4.609,0,0,0,2.494-.536,1.617,1.617,0,0,0,.828-1.415,1.329,1.329,0,0,0-.468-1.05,3.025,3.025,0,0,0-1.159-.665q-.7-.235-1.929-.536a23.667,23.667,0,0,1-2.787-.815,4.724,4.724,0,0,1-1.822-1.265,3.526,3.526,0,0,1-.75-2.358,4.032,4.032,0,0,1,.663-2.251,4.646,4.646,0,0,1,2.036-1.629,8.364,8.364,0,0,1,3.352-.6,10.733,10.733,0,0,1,2.7.343,7.443,7.443,0,0,1,2.29.986l-.877,2.165a8.622,8.622,0,0,0-2.056-.879,7.73,7.73,0,0,0-2.085-.3,4.428,4.428,0,0,0-2.465.557,1.727,1.727,0,0,0-.789,1.479,1.344,1.344,0,0,0,.448,1.05,3.545,3.545,0,0,0,1.179.643q.716.235,1.929.536a18.949,18.949,0,0,1,2.748.815,4.517,4.517,0,0,1,1.822,1.265,3.323,3.323,0,0,1,.77,2.315,3.9,3.9,0,0,1-.682,2.251,4.546,4.546,0,0,1-2.036,1.608A8.364,8.364,0,0,1,1065.764,520.792Zm15.453-.836a3.089,3.089,0,0,1-1.15.579,5.1,5.1,0,0,1-1.422.193,4.049,4.049,0,0,1-2.913-.986,3.807,3.807,0,0,1-1.023-2.872V511.36h-1.89v-2.144h1.89V506.6h2.679v2.615h3.059v2.144h-3.059V516.8a1.892,1.892,0,0,0,.4,1.286,1.564,1.564,0,0,0,1.179.429,2.344,2.344,0,0,0,1.5-.472ZM1087.794,509a5.477,5.477,0,0,1,3.858,1.222,4.608,4.608,0,0,1,1.354,3.644v6.709h-2.533v-1.393a3.14,3.14,0,0,1-1.413,1.158,6.239,6.239,0,0,1-4.433-.043,3.683,3.683,0,0,1-1.5-1.222,3.217,3.217,0,0,1-.516-1.779,3.008,3.008,0,0,1,1.14-2.465,5.681,5.681,0,0,1,3.615-.943h2.962v-.171a2.326,2.326,0,0,0-.731-1.843,3.06,3.06,0,0,0-2.124-.643,6.194,6.194,0,0,0-1.9.3,4.687,4.687,0,0,0-1.569.836l-1.052-1.951a6.582,6.582,0,0,1,2.163-1.05A9.71,9.71,0,0,1,1087.794,509Zm-.36,9.775a3.483,3.483,0,0,0,1.783-.45,2.549,2.549,0,0,0,1.111-1.329v-1.329h-2.767q-2.309,0-2.309,1.522a1.352,1.352,0,0,0,.575,1.157A2.671,2.671,0,0,0,1087.433,518.777Zm13.66-12.09c-1.12,0-1.686.615-1.686,1.843v.686h3.147v2.144h-3.069v9.217h-2.679V511.36h-1.881v-2.144h1.881v-.729a3.88,3.88,0,0,1,1.072-2.894,4.9,4.9,0,0,1,5.447-.45l-.75,2.015A2.549,2.549,0,0,0,1101.094,506.687Zm7.921,0q-1.7,0-1.7,1.843v.686h3.147v2.144h-3.059v9.217h-2.679V511.36h-1.89v-2.144h1.89v-.729a3.842,3.842,0,0,1,1.072-2.894,4.071,4.071,0,0,1,3.021-1.072,4.125,4.125,0,0,1,2.416.622l-.75,2.015A2.542,2.542,0,0,0,1109.015,506.687Z" transform="translate(-25.843 -12.947)" fill="#2b2b2b"/>
      <g id="Group_21" data-name="Group 21" transform="translate(3.897)" clip-path="url(#clip-path)">
        <path id="Path_774" data-name="Path 774" d="M19.4,52.614H6.25V39.461H19.4Zm17.538-19.73H23.788v19.73H36.942ZM54.48,24.115H41.326v28.5H54.48ZM54.48,0,41.326,2.677l3.762,3.744L30.071,21.182,23.492,14.6,6.3,31.693,9.394,34.8l14.09-14.009,6.557,6.561L48.192,9.517l3.654,3.639L54.48,0Z" transform="translate(-4.058)" fill="#2b2b2b"/>
      </g>
      <path id="Path_775" data-name="Path 775" d="M485.133,8.547a25.4,25.4,0,0,1,3.995-.321c13.723,0,24.846,10.528,24.846,23.517a22.377,22.377,0,0,1-3.751,12.38,27.172,27.172,0,0,0,.991-7.154C511.213,22.5,499.85,10.528,485.133,8.547Zm34.362,23.2A27.13,27.13,0,0,1,518.5,38.9a22.369,22.369,0,0,0,3.752-12.38C522.255,13.528,511.132,3,497.409,3a25.4,25.4,0,0,0-3.995.321C508.132,5.3,519.495,17.275,519.495,31.743ZM480.846,18.678c10.653,0,19.324,8.2,19.324,18.291S491.5,55.26,480.846,55.26s-19.324-8.2-19.324-18.291S470.192,18.678,480.846,18.678Zm0-5.226C467.122,13.452,456,23.98,456,36.969s11.122,23.517,24.846,23.517,24.846-10.528,24.846-23.517S494.568,13.452,480.846,13.452Zm9.431,28.053c0-4.669-5.135-5.971-9.072-7.721-2.385-1.173-2.09-3.985,1.334-4.173a15.416,15.416,0,0,1,5.621,1.011l.833-3.585a22.412,22.412,0,0,0-5.618-.92V23.9h-2.3v2.323c-4.475.583-6.868,3.24-6.868,6.206,0,5.31,6.55,6.12,8.69,7.063,2.929,1.238,2.382,3.81-.259,4.377-2.292.491-5.226-.366-7.421-1.176l-1.044,3.58a16.6,16.6,0,0,0,6.9,1.581v2.177h2.3V47.742C487.187,47.235,490.284,45.244,490.276,41.505Z" transform="translate(-11.702 -0.077)" fill="#2b2b2b"/>
      <path id="Path_776" data-name="Path 776" d="M963.666,30.22V7H940.444l7.133,7.133L917.222,44.486V11.222h19V7H913V57.666h50.666V34.444h-4.222v19H926.177l30.356-30.355Z" transform="translate(-23.429 -0.18)" fill="#2b2b2b"/>
      <g id="Group_22" data-name="Group 22" transform="translate(0 222.149)" clip-path="url(#clip-path-2)">
        <path id="Path_777" data-name="Path 777" d="M44.034,282.751a2.85,2.85,0,0,0,2.652.347,2.777,2.777,0,0,0,1.734-2.012c2.081-9.782,7.131-34.541,9.025-43.44a1.872,1.872,0,0,0-.623-1.816,1.92,1.92,0,0,0-1.909-.335C44.87,239.213,13.94,250.817,1.3,255.5a1.97,1.97,0,0,0,.122,3.744c5.67,1.7,13.112,4.055,13.112,4.055s3.478,10.5,5.291,15.845a2.1,2.1,0,0,0,1.444,1.38,2.076,2.076,0,0,0,1.943-.5l7.416-7S39.181,279.294,44.034,282.751ZM17.663,261.968l4.022,13.265.893-8.4,24.4-22a.664.664,0,0,0,.079-.9.681.681,0,0,0-.9-.154Z" transform="translate(0 -228.189)" fill="#2b2b2b" fill-rule="evenodd"/>
      </g>
      <path id="Path_778" data-name="Path 778" d="M477.776,254.231a4.685,4.685,0,0,1,7.211,2.477,4.689,4.689,0,0,0-7.221,5.151A4.693,4.693,0,0,1,477.776,254.231Zm7.836,26.746a51.249,51.249,0,0,1,15.993,8.046l13.831-9.866c-3.586-5.03-2.6-8.549-6.164-13.548-1.8-2.519-3.026-3.2-4.57-3.2a10.2,10.2,0,0,0-1.793.208l1.256,1.759a.982.982,0,0,1-1.6,1.139l-1.12-1.57a1.676,1.676,0,0,0-1.476-.7,14.329,14.329,0,0,0-2.826.588l1.523,2.135a.982.982,0,0,1-1.6,1.139l-1.319-1.85a1.657,1.657,0,0,0-1.452-.693,13.7,13.7,0,0,0-2.937.67l1.61,2.259a.982.982,0,0,1-1.6,1.14l-6.533-9.146c-2.023-2.843-6.469.173-4.371,3.118l9.646,13.524a14.048,14.048,0,0,0-4.042-.731C482.4,275.4,480.99,279.427,485.611,280.977Zm-6.724-6.813H463.429v-34.67h44.576v18.613c3.365,1.375,5.921,5.067,7.429,8.351V239.495a4.954,4.954,0,0,0-4.953-4.953h-49.53A4.954,4.954,0,0,0,456,239.495v34.67a4.955,4.955,0,0,0,4.953,4.954h16.9A6.808,6.808,0,0,1,478.887,274.164Z" transform="translate(-11.702 -6.019)" fill="#2b2b2b"/>
      <g id="Group_23" data-name="Group 23" transform="translate(886.648 227.995)" clip-path="url(#clip-path-3)">
        <path id="Path_779" data-name="Path 779" d="M964.563,241l-13.641,2.776,3.9,3.884-12.166,12.181-6.822-6.825-16.678,16.464,3.206,3.224,13.463-13.264,6.8,6.8,15.416-15.373,3.79,3.774ZM926.619,255.73l-7.461-7.363,3.206-3.224,7.5,7.386Zm35.216,7.473,2.728,13.643-13.641-2.776,3.9-3.883-4.842-4.849,3.208-3.2,4.856,4.84Zm2.728,18.6v4.547H910V236.333h4.547V281.8Z" transform="translate(-910 -234.06)" fill="#2b2b2b"/>
      </g>
      <path id="Path_780" data-name="Path 780" d="M23.6,499.53a4.563,4.563,0,0,1-2.733.911,2.066,2.066,0,0,1-1.457-3.516,4.524,4.524,0,0,1,2.576-1.287,2.3,2.3,0,1,0-2.61-2.607,4.578,4.578,0,0,1-1.287,2.575,2.065,2.065,0,0,1-3.519-1.46,4.566,4.566,0,0,1,.909-2.732,2.3,2.3,0,1,0-3.685,0,4.57,4.57,0,0,1,.909,2.732A2.064,2.064,0,0,1,9.187,495.6,4.515,4.515,0,0,1,7.9,493.027a2.3,2.3,0,1,0-2.61,2.608,4.574,4.574,0,0,1,2.576,1.286,2.063,2.063,0,0,1-1.457,3.517,4.54,4.54,0,0,1-2.733-.912,2.3,2.3,0,1,0,0,3.695,4.558,4.558,0,0,1,2.733-.912,2.063,2.063,0,0,1,1.457,3.517,4.536,4.536,0,0,1-2.576,1.287,2.3,2.3,0,1,0,2.61,2.607,4.58,4.58,0,0,1,1.287-2.576,2.065,2.065,0,0,1,3.519,1.46,4.569,4.569,0,0,1-.909,2.733,2.3,2.3,0,1,0,3.685,0,4.5,4.5,0,0,1-.909-2.716,2.068,2.068,0,0,1,3.519-1.471,4.532,4.532,0,0,1,1.287,2.578,2.3,2.3,0,1,0,2.605-2.607,4.543,4.543,0,0,1-2.562-1.277,2.064,2.064,0,0,1,1.448-3.526,4.539,4.539,0,0,1,2.733.911,2.3,2.3,0,1,0,0-3.694Zm-12.195,4.883a1.125,1.125,0,1,1,1.125-1.125A1.125,1.125,0,0,1,11.408,504.413Zm1.432-3.572a1.766,1.766,0,1,1,1.766-1.765A1.763,1.763,0,0,1,12.841,500.841Zm3.328,3.374a1.5,1.5,0,1,1,1.494-1.494A1.493,1.493,0,0,1,16.169,504.215ZM54.563,471.82v26.224c0,10.464-7.282,13.2-20.461,21.518-3-1.894-5.675-3.49-8.046-4.963a6.518,6.518,0,0,0,2.321-3.924c1.662,1.037,3.556,2.187,5.727,3.526,12.079-7.46,15.914-9.242,15.914-16.157V476.276A27.018,27.018,0,0,1,34.1,470.784a27.018,27.018,0,0,1-15.914,5.492v8.653a6.8,6.8,0,0,0-4.549-1.741V471.82c7.993,0,12.8-.3,20.461-6.82C41.766,471.515,46.569,471.82,54.563,471.82Zm-9.094,26.224c0,3.651-.944,4.4-11.367,10.822V476.235A30.137,30.137,0,0,0,45.469,480.4Z" transform="translate(0 -11.933)" fill="#2b2b2b"/>
      <path id="Path_781" data-name="Path 781" d="M474.722,502.333h21.111v2.111H474.722Zm16.5-6.333h-16.5v2.111h19.1A13.8,13.8,0,0,1,491.222,496Zm-16.5-4.222h13.722a13.768,13.768,0,0,1-.673-2.111H474.722Zm27.444,8.391v5.421c0,8.671-12.666,5.187-12.666,5.187s3.2,12.666-5.569,12.666H468.389V481.222h20.055A13.719,13.719,0,0,1,491.222,477H464.167v50.666h21.51c6.677,0,20.711-15.248,20.711-20.3v-8.2A13.679,13.679,0,0,1,502.166,500.169ZM510.61,486.5a9.5,9.5,0,1,1-9.5-9.5A9.5,9.5,0,0,1,510.61,486.5Zm-4.551-1.862-1.469-1.469-4.467,4.579-2.094-1.987-1.469,1.471,3.563,3.456Z" transform="translate(-11.911 -12.241)" fill="#2b2b2b"/>
      <path id="Path_782" data-name="Path 782" d="M959.431,501.519a8.952,8.952,0,1,0,8.952,8.951A8.953,8.953,0,0,0,959.431,501.519Zm3.837,10.231H955.6v-2.558h7.673Zm-33.252-15.09c0,4.327-1.958,7.417-3.084,9.974h-3.574c.581-2.558,5-8.734,2.612-12.742-1.407-2.361-5.811-2.363-7.21-.038-1.3,2.15-.614,6.182,1.821,10.78a6.124,6.124,0,0,1,.414,5.619c-1.039,2.274-3.332,3.369-5.923,4.123-5.142,1.5-4.668.14-4.668,5.046H907l0-1.58c0-3.228.253-5.087,4.067-5.967,4.4-1.016,8.488-1.906,6.509-5.65-6.038-11.4-1.6-17.494,4.773-17.494C926.663,488.731,930.016,491.518,930.016,496.66Zm14.556,3.567c1.553,2.932,1.144,5.156.527,6.5-1.689,3.7-6.323,4.764-11.228,5.895-3.2.742-3,1.5-3,6.8h-3.4l-.008-2.11c0-4.3.338-6.782,5.419-7.956,5.865-1.355,11.323-2.542,8.681-7.535-8.049-15.195-2.136-23.321,6.363-23.321,8.092,0,13.65,7.363,7.777,20.461h-3.793c2.965-5.946,3.653-11.065,1.811-14.151-2.307-3.88-9.251-3.859-11.54-.057C940.216,488.01,941.091,493.649,944.571,500.227Z" transform="translate(-23.275 -12.279)" fill="#2b2b2b"/>
    </g>
  </g>
</svg>
