<svg xmlns="http://www.w3.org/2000/svg" xmlns:xlink="http://www.w3.org/1999/xlink" width="586.272" height="641" viewBox="0 0 586.272 641">
  <defs>
    <clipPath id="clip-path">
      <path id="Rectangle_729" data-name="Rectangle 729" d="M0,10.841,579.976,0V574.108L0,640.684Z" fill="#ffcb0c"/>
    </clipPath>
    <clipPath id="clip-path-2">
      <rect id="Rectangle_11" data-name="Rectangle 11" width="429" height="511.4" fill="#fff"/>
    </clipPath>
  </defs>
  <g id="Group_128" data-name="Group 128" transform="translate(-1193.728 -3891)">
    <g id="Rectangle_bg" transform="translate(1193.728 3891)">
      <path id="Rectangle_725" data-name="Rectangle 725" d="M0,66.539,552,0V271.5L0,338.04Z" transform="translate(34.272 302.96)" fill="#ffcb0c"/>
    </g>
    <g id="Group_25" data-name="Group 25" transform="translate(1229 3997.8)" clip-path="url(#clip-path-2)">
      <path id="Path_783" data-name="Path 783" d="M197.487,66.2c-24-18.3-56.2-9.3-61.9,9a117.339,117.339,0,0,0-4.8,29.3h-.1c-.8,1.8-1.6,3.6-2.3,5.4-.8,1.8-1.5,3.5-2.4,5.2-.2.4-.5.8-.7,1.2a6.757,6.757,0,0,0-.8,1.5,3.353,3.353,0,0,0,1.1,3.3,4.173,4.173,0,0,0,3.2.9,13.322,13.322,0,0,0,1.9-.5c.2,7.3.7,14.5,1.2,21.3a26.016,26.016,0,0,0,1.6,8.3c4.3,10,19.3,15.4,29.2,16.8a41.579,41.579,0,0,0,34.7-11.2c1.3-1.3,2.5-2.6,3.7-4,8.7-10.9,11.2-46.1,11.2-46.1C211.887,91.2,208.587,74.7,197.487,66.2Z" transform="translate(92.313 0)" fill="#fcc8b2"/>
      <path id="Path_784" data-name="Path 784" d="M199,104c0,2.8,1.1,5.1,2.5,5.1s2.5-2.3,2.5-5.1-1.1-5.1-2.5-5.1S199,101.2,199,104Z" transform="translate(26 0)" fill="#293033"/>
      <path id="Path_785" data-name="Path 785" d="M302.3,234.3s7.2-15.7,19-26.6c0,0-.6,10.1-1.9,17.3S302.3,234.3,302.3,234.3Z" transform="translate(-194.6 0)" fill="#3c8770"/>
      <path id="Path_786" data-name="Path 786" d="M187.957,139.818a7.1,7.1,0,0,0,5.5,1.4,12.611,12.611,0,0,0,5.2-1.9,14.894,14.894,0,0,0,4.2-4.1,16.39,16.39,0,0,0,2.4-5.6,2.106,2.106,0,0,0-1.1-2.5,1.443,1.443,0,0,0-1.8.6l-.1.2a22.11,22.11,0,0,1-2.7,3.7,9.663,9.663,0,0,1-3.3,2.4,9.834,9.834,0,0,1-3.8,1.1,12.916,12.916,0,0,0-4.1,1l-.4.2a2.107,2.107,0,0,0-.8,2.6A3.631,3.631,0,0,0,187.957,139.818Z" transform="translate(36.656 0)" fill="#fff"/>
      <path id="Path_787" data-name="Path 787" d="M207.469,94.8a5.558,5.558,0,0,0-1.1-4,11.789,11.789,0,0,0-2.9-3,11.08,11.08,0,0,0-7.8-1.9,1.2,1.2,0,0,0-1,1.3,1.319,1.319,0,0,0,.9,1h.2a21.682,21.682,0,0,1,3,.8,7.58,7.58,0,0,1,2.5,1.6,14.164,14.164,0,0,1,2,2.2,11.094,11.094,0,0,0,2,2.4l.3.2a1.091,1.091,0,0,0,1.7-.2C207.369,95.3,207.469,95.1,207.469,94.8Z" transform="translate(26.831 0)" fill="#293033"/>
      <path id="Path_788" data-name="Path 788" d="M308.209,263.2s-3.2-22.1,4-36.2c7.3-14.1,11.2,22.8,11.2,22.8S316.909,268.3,308.209,263.2Z" transform="translate(-201.909 0)" fill="#f0ae1e"/>
      <path id="Path_789" data-name="Path 789" d="M156.248,70.5s3.7,6.5,7,7.8,1.4,20.3,4.7,23.7,4.4,13.1,4.4,13.1,22.4-20.7,26.4-20.6C202.648,94.6,160.048,70.1,156.248,70.5Z" transform="translate(73.752 0)" fill="#f9af94"/>
      <path id="Path_790" data-name="Path 790" d="M346.322,188.1s2.1,12.6-.7,16,10.1,13.2,10.1,13.2l-10.6,33.3-18-24.8s-22.8-9.9-27.8-20C294.322,195.8,335.222,181.7,346.322,188.1Z" transform="translate(-225.622 0)" fill="#fcc8b2"/>
      <path id="Path_791" data-name="Path 791" d="M350.571,199.7s-2.5,6.2-9.4,6.2-18.7,2.6-19.3,0-6.5-4.9-4.1-7.5,3.1-2.9,3.1-2.9Z" transform="translate(-238.771 0)" fill="#f9af94"/>
      <path id="Path_792" data-name="Path 792" d="M367.693,199.9l-22.9,3.2a3.153,3.153,0,0,1-3.3-1.7l-26.7-53.2c-1.1-2.1.8-6.7,3.2-6.7l23.2,2a2.988,2.988,0,0,1,2.8,1.7l27.4,48.6C372.393,195.7,369.893,199.6,367.693,199.9Z" transform="translate(-257.093 0)" fill="#172b32"/>
      <path id="Path_793" data-name="Path 793" d="M367.66,199.9l-22.9,3.2a3.153,3.153,0,0,1-3.3-1.7l-26.7-53.2c-1.2-3.6,1.6-6.9,4-6.9l22.4,2.2a2.988,2.988,0,0,1,2.8,1.7l27.4,48.6C372.36,195.7,369.86,199.6,367.66,199.9Z" transform="translate(-257.06 0)" fill="#444a54"/>
      <path id="Path_794" data-name="Path 794" d="M367.122,196.5l-22.5,3.1a3.09,3.09,0,0,1-3.2-1.7l-26.8-53.3a2.392,2.392,0,0,1,2.1-3.5h24.3a3.092,3.092,0,0,1,2.8,1.7l25.7,49.2A3.115,3.115,0,0,1,367.122,196.5Z" transform="translate(-255.222 0)" fill="#575e70"/>
      <path id="Path_795" data-name="Path 795" d="M317.2,147.3l27.8-.5,22.1,42.5-26.8,3.4Z" transform="translate(-255.3 0)" fill="#ffcc0c"/>
      <path id="Path_796" data-name="Path 796" d="M320.8,195.3a1.62,1.62,0,0,0,1.7,1l10.4-1.3a1.724,1.724,0,0,0,1.3-2.4,1.682,1.682,0,0,0-1.7-.9L322.1,193A1.612,1.612,0,0,0,320.8,195.3Z" transform="translate(-226 0)" fill="#444a54"/>
      <path id="Path_797" data-name="Path 797" d="M343.819,187.1l-16.9,1.7a1.545,1.545,0,0,1-1.6-.9l-3.3-6.4a1.321,1.321,0,0,1,1.1-1.9l17.5-1.4a1.8,1.8,0,0,1,1.6.9l2.9,5.5A1.672,1.672,0,0,1,343.819,187.1Z" transform="translate(-238.219 0)" fill="#63ab45"/>
      <path id="Path_798" data-name="Path 798" d="M319.6,165.6s-11.9-3.5-11.9-1.1,5.3,11.7,7.6,12.2.6,3.1,2.2,5.4,8.9,13.3,8.9,13.3,9.5-7.5,4.4-15.9C325.8,171.2,321.9,170.1,319.6,165.6Z" transform="translate(-210.995 0)" fill="#fcc8b2"/>
      <path id="Path_799" data-name="Path 799" d="M309.1,66.2a24.294,24.294,0,0,0-30.2,16.3c-3.9,12.8,10.8,48.3,10.8,48.3s31.8-21.5,35.7-34.3A24.512,24.512,0,0,0,309.1,66.2Z" transform="translate(-175.596 0)" fill="#ffcb0c"/>
      <path id="Path_800" data-name="Path 800" d="M311.556,103.8a1.768,1.768,0,0,1-.7,2.5,1.877,1.877,0,0,1-2.5-.8l-5-10.3a4.33,4.33,0,0,1-1.6-.9l3.5-1.9,1.2,2.3Zm-12.8-13.6,4.3-2.3-2.3-4.3c-1.9-3.5-3.7-6.9-4.8-9a.891.891,0,0,0-.8-.5c-.2-.1-.7.1-.8.7-.9,2.2-.4,6.6,3.7,14.3C298.256,89.3,298.456,89.8,298.756,90.2Zm9-7.3.5-.3Zm12.6,2.9c-.2-.4-.8-.8-1.1-.5l-6.8,3.7c-.3.2-.8-.1-1-.5s-.2-1,.2-1.1l6.8-3.7a1,1,0,0,0,.2-1.2c-.2-.4-.8-.8-1.1-.5l-6.8,3.7c-.3.2-.8-.1-1-.5s-.2-1,.2-1.1l6.8-3.7a1,1,0,0,0,.2-1.2c-.2-.4-.8-.8-1.1-.5l-7.4,4c-2.4,1.3-2.2,2.8-1.5,4.3l-19.1,10.2a1.771,1.771,0,0,0-.8,2.5,1.907,1.907,0,0,0,2.5.7l18.9-10.4c.8,1.4,2,2.4,4.4,1.1l7.4-4A1.033,1.033,0,0,0,320.356,85.8Z" transform="translate(-178.356 0)" fill="#fff"/>
      <path id="Path_801" data-name="Path 801" d="M346.6,196.4c.3-.3-2.8-5.2-2.8-5.2v-4.5s12.9-12.4,16.8-9.7c3.9,2.8-1.6,9.5-1.6,9.5s-7,3.1-7.1,3.9C351.7,191.2,346.6,196.4,346.6,196.4Z" transform="translate(-276.802 0)" fill="#fcc8b2"/>
      <path id="Path_802" data-name="Path 802" d="M358.854,185.8s-6.4-8.6-3.5-13.9c2.8-5.3,5.4-9.3,8-6s-.6,10-.6,10l2.5,4.7Z" transform="translate(-290.854 0)" fill="#fcc8b2"/>
      <path id="Path_803" data-name="Path 803" d="M355.244,186.6s3.9-3.2,5.1-.8-1.2,8.4-4.1,9.6c-2.8,1.2-3.2,4.5-3.2,4.5l-6.2,5.9s-7.6-11.3-4.7-14.2C344.944,188.8,355.244,186.6,355.244,186.6Z" transform="translate(-273.144 0)" fill="#fcc8b2"/>
      <path id="Path_804" data-name="Path 804" d="M355.244,175.9s-1,5.4,0,6.8l2.5-2.1Z" transform="translate(-283.544 0)" fill="#f9af94"/>
      <path id="Path_805" data-name="Path 805" d="M351.7,186.8c-1.9.2-4,.5-4.7,1a19.671,19.671,0,0,0-3,3l10.8-4.2a14.571,14.571,0,0,0,2.9-5.4C357.2,182.8,351.7,186.8,351.7,186.8Z" transform="translate(-272.7 0)" fill="#f9af94"/>
      <path id="Path_806" data-name="Path 806" d="M320.881,167.4s4.8,5.9,7.9,6.4c3.1.6,2.4,6.8,2.4,6.8s-.8,2.3.1,3.5c.8,1.2-2.7-2.5-2.3-5.9a1.664,1.664,0,0,0-1.3-1.5C326.381,176.4,322.381,171.5,320.881,167.4Z" transform="translate(-223.281 0)" fill="#f9af94"/>
      <path id="Path_807" data-name="Path 807" d="M303.5,201.8s11.9,14.7,21.7,17.5,12.2-.2,14.2,4.8c2,4.9,18.3,7.9,18.3,7.9l-5.9,18.7-18-24.8C333.7,225.8,309.3,216.1,303.5,201.8Z" transform="translate(-232.2 0)" fill="#f9af94"/>
      <path id="Path_808" data-name="Path 808" d="M357.8,182.6a15.239,15.239,0,0,1-2-3.8,12.169,12.169,0,0,1-.8-4.3v-.6a1.269,1.269,0,0,1,.1-.6c.1-.4.2-.8.3-1.1a11.918,11.918,0,0,1,.8-2,20.622,20.622,0,0,1,2.3-3.7c.5-.6,1-1.1,1.5-1.6.2-.1.3-.3.5-.4l.2-.1a.1.1,0,0,0,.1-.1c.1,0,.2-.1.3-.1a1.907,1.907,0,0,1,1.3-.2,2.106,2.106,0,0,1,1.3.5,7.637,7.637,0,0,1,.9.9c.1.2.2.3.3.5l.3.5a3.581,3.581,0,0,1,.4,1.1,5.16,5.16,0,0,1,.2,1.1v1.1a8.506,8.506,0,0,1-.4,2.2,11.917,11.917,0,0,1-.8,2,9.3,9.3,0,0,1-1.1,1.9,11.764,11.764,0,0,0,.7-2,14.619,14.619,0,0,0,.5-2,15.029,15.029,0,0,0,.2-2,3.751,3.751,0,0,0-.1-1,3.179,3.179,0,0,0-.3-.9c-.1-.3-.3-.6-.4-.9l-.2-.4-.3-.4a1.7,1.7,0,0,0-1.3-.8,1.345,1.345,0,0,0-.8.2.349.349,0,0,0-.2.1h-.1l-.3.3a9.338,9.338,0,0,0-1.3,1.5,17.908,17.908,0,0,0-2.2,3.4c-.3.6-.6,1.2-.9,1.9a3.178,3.178,0,0,0-.3.9c0,.2-.1.3-.1.5s-.1.3-.1.5v2a3.553,3.553,0,0,0,.2,1,3.553,3.553,0,0,1,.2,1C356.8,180.1,357.3,181.3,357.8,182.6Z" transform="translate(-291.8 0)" fill="#293033"/>
      <path id="Path_809" data-name="Path 809" d="M345.6,193a19.222,19.222,0,0,0-1.3-1.7c0-.8-.1-1.5-.1-2.2,0-.8-.1-1.5-.1-2.2v-.2l.1-.1c.6-.6,1.3-1.3,2-1.9s1.4-1.3,2.1-1.8a36.792,36.792,0,0,1,4.4-3.4l.6-.4.6-.3,1.2-.6a27.176,27.176,0,0,1,2.5-1.1,3.529,3.529,0,0,1,1.4-.3,3.3,3.3,0,0,1,1.4,0,2.389,2.389,0,0,1,1.3.7,2.925,2.925,0,0,1,.7,1.2,2.189,2.189,0,0,0-.9-1,2.567,2.567,0,0,0-1.2-.5,4.618,4.618,0,0,0-2.5.6,14.146,14.146,0,0,0-2.4,1.3l-1.2.7-.6.3-.6.4c-.7.5-1.4,1.1-2.2,1.6-.7.6-1.4,1.1-2.1,1.7l-2.1,1.7-2.1,1.8.1-.3a15.482,15.482,0,0,1-.1,2.2c0,.8-.1,1.5-.1,2.2v-.1A10.381,10.381,0,0,1,345.6,193Z" transform="translate(-277.5 0)" fill="#293033"/>
      <path id="Path_810" data-name="Path 810" d="M343.189,198.3a6.591,6.591,0,0,1-1.1-2.4,4.95,4.95,0,0,1,0-2.7,4.064,4.064,0,0,1,1.6-2.3,4.728,4.728,0,0,1,1.2-.7l1.2-.6c.8-.3,1.6-.7,2.4-1l2.4-.9c1.6-.6,3.2-1.1,4.9-1.6h-.1a7.459,7.459,0,0,1,1.2-.7,5.024,5.024,0,0,1,1.3-.5,2.953,2.953,0,0,1,1.3-.2,1.5,1.5,0,0,1,1.2.5,1.676,1.676,0,0,0-1.2-.3,2.843,2.843,0,0,0-1.2.4,10.9,10.9,0,0,0-1.1.6,7.005,7.005,0,0,0-1,.8h-.1c-1.6.6-3.2,1.2-4.7,1.8l-2.4.9a24.428,24.428,0,0,0-2.4,1l-1.2.5a3.329,3.329,0,0,0-1,.6,4.888,4.888,0,0,0-1.4,1.8,4.825,4.825,0,0,0-.2,2.4A4.358,4.358,0,0,0,343.189,198.3Z" transform="translate(-273.589 0)" fill="#293033"/>
      <path id="Path_811" data-name="Path 811" d="M312.7,170.4a21.165,21.165,0,0,1-1.1-2.1c-.3-.7-.7-1.4-1-2.2a7.6,7.6,0,0,1-.4-1.1v-.3a.6.6,0,0,1,.1-.4,2.651,2.651,0,0,1,.5-.6,2.842,2.842,0,0,1,1.2-.4h1.2a35.445,35.445,0,0,1,4.7.7c1.6.3,3.1.8,4.6,1.2h.2l.1.2a12.9,12.9,0,0,0,.9,1.6l1.2,1.5,1.4,1.4,1.4,1.4c.9,1,1.7,1.9,2.6,3a22.737,22.737,0,0,1,2.2,3.2,24.841,24.841,0,0,0-2.5-3c-.9-.9-1.8-1.9-2.7-2.9l-2.8-2.8a17.382,17.382,0,0,1-1.3-1.5,9.91,9.91,0,0,1-1.1-1.7l.2.2c-1.5-.4-3-.9-4.6-1.2a36.912,36.912,0,0,0-4.6-.8h-1.2a1.493,1.493,0,0,0-1,.3c-.1.1-.3.2-.3.3-.1.1,0,.3,0,.5a4.508,4.508,0,0,0,.3,1.1A44.771,44.771,0,0,0,312.7,170.4Z" transform="translate(-213.7 0)" fill="#293033"/>
      <path id="Path_812" data-name="Path 812" d="M307.2,209.4a34.67,34.67,0,0,0,2.9-2.5,10.545,10.545,0,0,0,2.2-3c.5-1.2,1-2.4,1.4-3.6a8.1,8.1,0,0,0,.3-3.8,6.472,6.472,0,0,1,.2,3.9,23.153,23.153,0,0,1-1.3,3.7,6.19,6.19,0,0,1-1.1,1.7,18.478,18.478,0,0,1-1.4,1.4A11.43,11.43,0,0,1,307.2,209.4Z" transform="translate(-192.595 0)" fill="#293033"/>
      <path id="Path_813" data-name="Path 813" d="M309.6,217.6c-10.4-8-10.8-12.3-10.8-12.5h.6s.4,4.2,10.5,12Z" transform="translate(-179.7 0)" fill="#293033"/>
      <path id="Path_814" data-name="Path 814" d="M90.7,156.7l7.6.7-5.6,4.3Z" transform="translate(240 0)" fill="#3c8770"/>
      <path id="Path_815" data-name="Path 815" d="M322.686,203.2s-34.8,36.3-37.7,51.4c-3,15.1-75.4-47-75.4-47s-3,51.7-18.6,53.9c-15.7,2.1,83.4,64.1,83.4,64.1Z" transform="translate(-82.986 0)" fill="#56a434"/>
      <path id="Path_816" data-name="Path 816" d="M184.4,185.9s-13.6,16.4-19.4,36.7c-5.7,20.3-11.7,45-11.7,45l39-36.1,9.6-39.5Z" transform="translate(73.8 0)" fill="#fff"/>
      <path id="Path_817" data-name="Path 817" d="M156.312,93.1l2.6,7.3s-.1-11.6,6.7-11.9S160.812,78.9,156.312,93.1Z" transform="translate(104.988 0)" fill="#f9af94"/>
      <path id="Path_818" data-name="Path 818" d="M163.779,267.5s17.6-68.5,30.6-78.9c13-10.5,5.2-19.4,5.2-19.4s-15.9,17.4-24.4,19.7c-8.5,2.2-2.6,31.7-2.6,31.7Z" transform="translate(63.321 0)" fill="#293033"/>
      <path id="Path_819" data-name="Path 819" d="M161.563,138.8l9.3,22.9s-44.5,45.8-63.9,39.5-6.4-27.7-6.4-27.7S139.663,111.1,161.563,138.8Z" transform="translate(161.837 0)" fill="#fcc8b2"/>
      <path id="Path_820" data-name="Path 820" d="M157.272,121.4c-.1-.1-.1-.1-.2-.1a8.356,8.356,0,0,0,1.2-3.1,14.644,14.644,0,0,0-.9-5.9c-1.6-4.3-4.9-9.6-9.2-15.5a6.755,6.755,0,0,0-3.9-2.9,7.393,7.393,0,0,0-4.4.2c-2.9,1-6,3.5-8.7,6.5a62.278,62.278,0,0,0-7.2,9.7,41,41,0,0,0-3.7,7.1l.5.1-.5-.1a2.544,2.544,0,0,0-.2.7c-.1-.2-.3-.6-.5-1.1-.2-.6-.4-1.4-.6-2.2-.3-1.1-.6-2.4-.9-3.8-.7-3.1-1.6-6.9-2.7-10.5a19.92,19.92,0,0,1-.3-8.1c.2-1.3.4-2.6.6-3.8a.6.6,0,0,1,.1-.4c.2-1.4.4-2.8.6-4.1.2-2.6.1-5-1.1-6.9s-3.5-3-7.2-3.1a17.739,17.739,0,0,1-9.7-4,31.608,31.608,0,0,1-6.9-7.9,26.783,26.783,0,0,1-1.9-3.8,9.387,9.387,0,0,1-.6-2.8,5.639,5.639,0,0,1,.1-.7c.1-.1.2-.2.3-.2a2.252,2.252,0,0,1,.7.1,6.872,6.872,0,0,1,1.3.6c2.2,1.4,3.9,2.1,5.3,2s2.3-1.1,3-2.6a31.956,31.956,0,0,0,1.6-5.9c.1-.3.1-.6.2-.9.5-2.2,1-4.8,1.7-7.7a9.66,9.66,0,0,1,4.8-6.5c2.4-1.4,5.6-2.1,9.8-2.8,1.6-.3,3.3-.5,5.2-.8a177.025,177.025,0,0,0,30.9-6.9c7.9-2.6,12.7-3.5,16.1-3.2a7.905,7.905,0,0,1,4,1.3,12.992,12.992,0,0,1,3,2.8c.7.9,1.4,1.9,2.2,3,3.3,4.8,7.9,11.4,19.9,17.8a62.246,62.246,0,0,1,8.1,5.1,11.274,11.274,0,0,1,3.4,3.9c1,2.3,0,4.3-1.7,7.1a2.092,2.092,0,0,1-.4.6,29.038,29.038,0,0,0-4.3,10.3c-.9,4.8-.5,11,2.9,19.4,6.7,16.5,6.2,26.3,3.3,32.7a24.161,24.161,0,0,1-5.7,7.7c-1,1-2,1.8-3,2.7-.1.1-.2.1-.2.2-1,.9-2,1.8-2.9,2.7-1.5,1.5-3.4,1.3-6,.4-1.2-.5-2.4-1.1-3.8-1.7a.349.349,0,0,1-.2-.1,33.024,33.024,0,0,0-4.3-1.9c-2.9-1.1-6-1.6-8.8,0-2.6,1.5-4.9,4.7-6.6,10.6-1.6-3.4-3.1-6.9-4.5-10.2-1-2.4-2-4.7-2.9-6.6a28.72,28.72,0,0,0-3-5.5A9.352,9.352,0,0,1,157.272,121.4Z" transform="translate(127.628 0)" fill="#293033" stroke="#000" stroke-width="1"/>
      <path id="Path_821" data-name="Path 821" d="M85.286,202.5s-37.1,37-49.4,136.6c-4.4,14.8-7.6,33.6-8.6,58.5-3.9,97.4-28.1,63.7-14.4,113.8h244.6s44.5-239.9-24.2-303.7c0,0-33.4-28.8-32.3-41.4s-11.4-8.9-11.4-8.9l-5.6,4.5s-68.7,40.2-68.6,47.4,2.1,21.2-1.5,27.4-19.3,3.1-32.4,30.5a46.823,46.823,0,0,1-3,5.4l8.7-49.3C87.186,223.4,85.486,210.2,85.286,202.5Z" transform="translate(148.614 0)" fill="#56a434"/>
      <path id="Path_822" data-name="Path 822" d="M203,495.8l-2.2-.6c.1-.3,8.6-33.3,14.4-48.3,2.4-6,1.5-14.2.6-22.8-1.3-12.1-2.6-25.8,5.1-36.1,6.2-8.3,8.4-24.9,10.5-40.9,2.1-16.1,4.1-31.4,10.2-37.5,11.4-11.4,14.6-42,14.6-42.3l2.3.2c-.1,1.3-3.3,31.7-15.3,43.7-5.6,5.6-7.5,20.4-9.6,36.1-2.1,16.3-4.3,33.1-10.9,42-7.2,9.6-5.9,22.2-4.6,34.5.9,8.9,1.8,17.3-.8,23.8C211.6,462.6,203.1,495.4,203,495.8Z" transform="translate(-30.3 0)" fill="#293033"/>
      <path id="Path_823" data-name="Path 823" d="M164.4,282.7s-1.2,63.5-17.8,74.3c-16.7,10.8-2,75.6-6.9,91.4-4.9,15.7-27.8,47.2-27.8,47.2l40.8-.3,10.7-53.1s-3.2-30,6.4-53a219.57,219.57,0,0,0,.9-50.1C168.2,311.6,164.4,282.7,164.4,282.7Z" transform="translate(145.404 0)" fill="#56a434"/>
      <path id="Path_824" data-name="Path 824" d="M112.678,495.7l-2.2-.5,10.7-53.2c-.3-2.6-3.4-29.3,5.5-50.5,9.1-21.5-5.3-114.6-5.5-115.5l2.3-.3c.6,3.8,14.7,94.6,5.3,116.7-9.1,21.5-5.4,49.2-5.3,49.5v.4Z" transform="translate(186.522 0)" fill="#293033"/>
      <path id="Path_825" data-name="Path 825" d="M0,181.3s50.7,80.3,59,166.3C67.4,433.5,43,511,43,511H89.8l17.7-196.2-37-97.5L26,157.3Z" transform="translate(321.5 0)" fill="#64ab45"/>
      <path id="Path_826" data-name="Path 826" d="M112.737,345.7s-25.4,48.9-103.8,8.2c0,0,1.3,21.5-.8,29.8s78.7,38.7,102.1,10.5C110.237,394.2,112.837,358.8,112.737,345.7Z" transform="translate(308.163 0)" fill="#293033"/>
      <path id="Path_827" data-name="Path 827" d="M24.581,496.3l-1.6-1.6-.1.1c.2-.4,6-10.1,13.4-121.1,4-59.6-4.2-99.5-11.8-122.6-8.2-25-17.5-36-17.5-36.1l1.7-1.5c.4.5,9.6,11.4,17.9,36.7a257.732,257.732,0,0,1,10.6,49.6c2.7,22.6,3.1,47.5,1.4,74C30.981,486.8,25.181,495.7,24.581,496.3Z" transform="translate(382.419 0)" fill="#293033"/>
      <path id="Path_828" data-name="Path 828" d="M282.249,31.232l6.538,5.925a21.989,21.989,0,0,1,31.1-1.329l5.925-6.538A30.937,30.937,0,0,0,282.249,31.232Z" transform="translate(-179.063 0)" fill="#293033"/>
      <path id="Path_829" data-name="Path 829" d="M295.007,42.1l2.516,2.358a8.612,8.612,0,0,1,12.153-.55l2.358-2.516A12.028,12.028,0,0,0,295.007,42.1Z" transform="translate(-178.041 0)" fill="#293033"/>
      <path id="Path_830" data-name="Path 830" d="M270.35,19.332l6.538,5.925a39.631,39.631,0,0,1,55.991-2.42L338.8,16.3A48.618,48.618,0,0,0,270.35,19.332Z" transform="translate(-180.154 0)" fill="#293033"/>
      <path id="Path_831" data-name="Path 831" d="M321.9,256a3.6,3.6,0,0,1-1.2.8,3.4,3.4,0,0,1-1.4.2,13.506,13.506,0,0,1-2.8-.4,49.278,49.278,0,0,1-5.4-1.9,87.151,87.151,0,0,1-10-5.4c-3.3-2-6.4-4-9.6-6.2q-4.65-3.15-9.3-6.6c-3.1-2.2-6.1-4.5-9.1-6.8s-6-4.6-9-7-5.9-4.8-8.8-7.2-5.8-4.9-8.7-7.3l1.3-.5c-.4,5.1-.9,10.1-1.7,15.1-.7,5-1.7,10-2.8,14.9-.6,2.5-1.3,4.9-2.1,7.3a61.547,61.547,0,0,1-2.8,7.1,24.424,24.424,0,0,1-4.2,6.4,13.306,13.306,0,0,1-3,2.3,6.355,6.355,0,0,1-1.8.6,6.153,6.153,0,0,1-1.9.2,6.279,6.279,0,0,0,1.9-.3,8.65,8.65,0,0,0,1.7-.7,10.8,10.8,0,0,0,2.8-2.4,29.6,29.6,0,0,0,3.9-6.4,59.789,59.789,0,0,0,2.5-7.1c.7-2.4,1.3-4.9,1.9-7.3a149.377,149.377,0,0,0,2.5-14.9c.6-5,1.2-10,1.5-15.1l.2-1.4,1.2,1c5.8,4.9,11.6,9.7,17.5,14.4,3,2.4,5.9,4.7,8.9,7l9,6.9c6,4.6,12.2,9,18.5,13.1a96.075,96.075,0,0,0,9.8,5.7,33.275,33.275,0,0,0,5.2,2.1,8.676,8.676,0,0,0,2.8.5,3.4,3.4,0,0,0,1.4-.2A1.069,1.069,0,0,0,321.9,256Z" transform="translate(-120.5 0)" fill="#293033"/>
      <path id="Path_832" data-name="Path 832" d="M252.4,254.7c-2.6,9.8-5.1,19.7-7.6,29.6l-1.8,7.4-.9,3.7-.9,3.7c-.6,2.5-1.2,4.9-1.7,7.4l-1.7,7.5c-1.1,5-2.2,10-3.2,14.9l-.8,3.7-.4,1.9-.3,1.9c-.5,2.5-.9,5-1.4,7.5-1.8,10-3.4,20.1-4.7,30.2.6-10.2,1.8-20.3,3.4-30.4.8-5,1.7-10.1,2.7-15.1l1.5-7.5,1.6-7.5,1.7-7.5c.3-1.3.6-2.5.9-3.7l.9-3.7.9-3.7.9-3.7.9-3.7c.3-1.2.7-2.5,1-3.7q1.95-7.35,4.2-14.7C249.3,264.3,250.8,259.5,252.4,254.7Z" transform="translate(-50.4 0)" fill="#293033"/>
      <path id="Path_833" data-name="Path 833" d="M9.8,368.9S9.2,395.8,8.2,406c0,0,23.1,1.2,33.8-11.7l2.5-48.5C44.6,345.7,34.7,364.1,9.8,368.9Z" transform="translate(376.301 0)" fill="#15191a"/>
      <path id="Path_834" data-name="Path 834" d="M79.8,220.9s75.4-27.6,85-55.1c0,0,2-11.5-11.4-8.5,0,0-6.7,4.9-12.8,8.4-6.2,3.5-59.8,34-61.4,41.2C79.1,207,79.9,216.6,79.8,220.9Z" transform="translate(184.897 0)" fill="#293033"/>
      <path id="Path_835" data-name="Path 835" d="M84.8,183.5,74.7,165.8l12.8-10.2L99,156.7l4.5,9.2S89.8,186.1,84.8,183.5Z" transform="translate(250.8 0)" fill="#15191a"/>
      <path id="Path_836" data-name="Path 836" d="M373.1,81h48.7a6.445,6.445,0,0,1,6.4,6.4v45.5a.634.634,0,0,1-.5.6.778.778,0,0,1-.8-.2l-11-11H373a6.445,6.445,0,0,1-6.4-6.4V87.4A6.466,6.466,0,0,1,373.1,81Z" transform="translate(-365.8 0)" fill="#fafcfc" fill-rule="evenodd"/>
      <path id="Path_837" data-name="Path 837" d="M427.4,134.3a1.606,1.606,0,0,1-1.1-.5l-10.7-10.7H373a7.341,7.341,0,0,1-7.3-7.3V87.4a7.341,7.341,0,0,1,7.3-7.3h48.7a7.341,7.341,0,0,1,7.3,7.3v45.4a1.5,1.5,0,0,1-1,1.4A1.268,1.268,0,0,1,427.4,134.3ZM373,81.8a5.591,5.591,0,0,0-5.6,5.6v28.5a5.591,5.591,0,0,0,5.6,5.6h43.3l11,11V87.4a5.591,5.591,0,0,0-5.6-5.6Z" transform="translate(-365.7 0)" fill="#28364c"/>
      <path id="Path_838" data-name="Path 838" d="M406.4,101.1a3.006,3.006,0,1,1,3,3.2A2.943,2.943,0,0,1,406.4,101.1Z" transform="translate(-389.8 0)" fill="#28364c"/>
      <path id="Path_839" data-name="Path 839" d="M395.9,101.2a3,3,0,0,1,3-3.2,2.943,2.943,0,0,1,3,3.2,3,3,0,0,1-3,3.2A3.055,3.055,0,0,1,395.9,101.2Z" transform="translate(-368.8 0)" fill="#28364c"/>
      <path id="Path_840" data-name="Path 840" d="M385.4,101.2a3,3,0,0,1,3-3.2,2.943,2.943,0,0,1,3,3.2,3,3,0,0,1-3,3.2A3.055,3.055,0,0,1,385.4,101.2Z" transform="translate(-347.8 0)" fill="#28364c"/>
    </g>
  </g>
</svg>
