<svg id="Group_31" data-name="Group 31" xmlns="http://www.w3.org/2000/svg" width="1128" height="645" viewBox="0 0 1128 645">
  <path id="Path_841" data-name="Path 841" d="M1086.21,375.693c-.04,2.291-.08,4.543-.23,6.8-.08,2.252-.2,4.427-.39,6.64-.66,9.59-1.83,18.909-3.34,27.761-.47,2.641-.93,5.242-1.44,7.8-.08.621-.23,1.2-.31,1.786l-.08.31c-.31,1.592-.66,3.106-.97,4.7-.62,2.757-1.24,5.475-1.9,8.154-.16.505-.27.971-.39,1.476-1.78,6.988-3.69,13.55-5.67,19.685-.31,1.01-.66,2.058-.97,3.067-.89,2.718-1.79,5.242-2.64,7.766-.66,1.825-1.32,3.533-1.9,5.2-3.38,9.008-6.72,16.5-9.36,22.209-2.49,5.242-4.55,9.668-5.63,11.92-.47.971-.74,1.553-.74,1.553s-516,.078-800.8.155H65.908a.038.038,0,0,0-.039-.038c-.66-.505-1.243-.971-1.864-1.476h-.039c-.272-.233-.544-.427-.777-.66L49.635,495.864a64.346,64.346,0,0,1-7.263-13.434,74.087,74.087,0,0,1-5.321-28.15c0-.466,0-.971.039-1.475,0-.893.039-1.825.039-2.718.039-.777.078-1.592.155-2.369.233-2.873.544-5.785,1.01-8.658,0-.078.039-.194.039-.272.078-.466.194-.971.233-1.476a15.288,15.288,0,0,1,.388-1.824c.427-2.136.932-4.271,1.476-6.485a13.028,13.028,0,0,1,.388-1.553c.194-.621.311-1.2.544-1.825.5-1.9,1.165-3.8,1.825-5.785,1.243-3.727,2.757-7.455,4.428-11.221a4.446,4.446,0,0,1,.388-.893q2.33-5.067,5.01-10.134c2.757-5.125,5.864-10.173,9.243-15.22.738-1.087,1.476-2.136,2.253-3.145a192.085,192.085,0,0,1,12.428-15.764A240.011,240.011,0,0,1,94.764,345.02c1.437-1.359,2.874-2.64,4.311-3.961a9.988,9.988,0,0,0,.971-.893c.854-.7,1.67-1.436,2.524-2.135,3.535-3.067,6.991-5.941,10.37-8.736,1.709-1.4,3.379-2.757,5.088-4.077,3.3-2.64,6.524-5.242,9.593-7.766,9.437-7.765,17.826-15.065,24.428-23.3a73.917,73.917,0,0,0,6.137-8.736,66.409,66.409,0,0,0,7.534-18.327c.389-1.708.738-3.494,1.01-5.319a84.532,84.532,0,0,0,1.126-16.152,121.628,121.628,0,0,0-1.126-14.871c-.155-1.126-.311-2.291-.5-3.494a214.591,214.591,0,0,0-4.466-21.433c-.544-2.175-1.165-4.427-1.825-6.717-1.127-3.961-2.02-7.882-2.719-11.687a111.25,111.25,0,0,1-1.825-21.433,96.533,96.533,0,0,1,1.825-18.249v-.078a110.158,110.158,0,0,1,4.311-16.191c22.293-63.4,98.143-100.873,118.3-109.221,28.7-11.959,62.723-18.676,98.065-21.122,2.874-.194,5.787-.388,8.661-.5C394.707.194,402.941,0,411.135,0c3.34,0,6.641.039,9.943.078,5.553.155,11.03.311,16.583.66,5.127.272,10.176.621,15.263,1.01a505.947,505.947,0,0,1,60.626,8.736,330.779,330.779,0,0,1,47.227,13.434l.038.039A266.293,266.293,0,0,1,640.122,69.5c4.7,3.922,9.166,7.882,13.36,11.8.544.5,1.165,1.087,1.709,1.631,1.32,1.2,2.563,2.407,3.806,3.689.544.544,1.165,1.126,1.709,1.67,3.689,3.689,7.224,7.338,10.564,10.949,1.67,1.825,3.34,3.611,4.971,5.4,8.855,9.784,16.661,18.909,24.118,26.752.932,1.009,1.864,1.941,2.8,2.912,12.817,13.046,24.662,21.86,39.188,22.83,9.126.622,19.768-.932,31.73-3.261,1.2-.233,2.369-.466,3.573-.738,18.37-3.689,39.809-8.891,63.577-11.066,30.721-2.834,65.48-.621,103,16.424,1.2.544,2.369,1.126,3.573,1.67q8.214,3.96,16.622,8.891c1.165.66,2.33,1.359,3.495,2.058,5.671,3.495,11.458,7.339,17.283,11.648a2.9,2.9,0,0,1,.427.311c2.525,1.825,5.01,3.766,7.535,5.785,2.913,2.33,5.9,4.737,8.894,7.3,7.18,6.173,14.49,12.968,21.79,20.5,5.32,5.435,10.25,10.949,14.72,16.5,3.1,3.8,6.06,7.688,8.74,11.532.5.7.97,1.4,1.47,2.1a231.282,231.282,0,0,1,12.58,20.656c.43.854.9,1.708,1.36,2.562a210.884,210.884,0,0,1,12.16,28.81c.27.854.54,1.631.85,2.408,1.4,4.309,2.61,8.658,3.73,12.968,1.48,5.9,2.72,11.765,3.69,17.628A240.036,240.036,0,0,1,1086.21,375.693Z" fill="#e9f7fe"/>
  <path id="Path_842" data-name="Path 842" d="M1089.63,512.676H1.243A1.227,1.227,0,0,1,0,511.433v-.427a1.226,1.226,0,0,1,1.243-1.242H1089.67a1.223,1.223,0,0,1,1.24,1.242v.427A1.284,1.284,0,0,1,1089.63,512.676Z" fill="#2e3652"/>
  <path id="Path_843" data-name="Path 843" d="M826.62,280.528V312.6H804.133V231.76H739.274v68.492H691.193V283.129h-6.8v17.123h-3.612V283.129h-6.8v17.123h-15.3l-16.234,25.121v67.56h-6.369V272.063H590.876v45.661l-41.285-.233V228.81H489.626v72.568L469,328.557V446.01H445.429V346.146H415.8V330.731h-6.137v15.415H406.4V330.731h-6.136v15.415h-13.71l-14.642,22.6V509.764H877.342V280.528ZM393.775,370.957H383.444V360.628h10.331Zm16.7,0H400.144V360.628h10.331Zm13.632,0H413.776V360.628h10.331Zm16.7,0H430.476V360.628h10.331Zm-47.032,22.131H383.444V382.76h10.331Zm16.7,0H400.144V382.76h10.331Zm13.632,0H413.776V382.76h10.331Zm16.7,0H430.476V382.76h10.331Zm-47.032,21.821H383.444V404.581h10.331Zm16.7,0H400.144V404.581h10.331Zm13.632,0H413.776V404.581h10.331Zm16.7,0H430.476V404.581h10.331Zm54.994-80.14H485.47V324.441H495.8Zm16.739,0H502.209V324.441H512.54Zm13.593,0H515.8V324.441h10.33Zm16.7,0H532.5V324.441h10.331Zm27.924,0H560.427V324.441h10.331Zm16.7,0H577.127V324.441h10.331Zm13.593,0H590.72V324.441h10.331Zm16.739,0H607.459V324.441H617.79ZM495.8,354.261H485.47V343.933H495.8Zm16.739,0H502.209V343.933H512.54Zm13.593,0H515.8V343.933h10.33Zm16.7,0H532.5V343.933h10.331Zm-35.3-39.216H497.2V304.717H507.53Zm0-21.122H497.2V283.6H507.53Zm0-21.122H497.2V262.473H507.53Zm0-21.122H497.2V241.351H507.53Zm16.7,63.366H513.9V304.717h10.33Zm0-21.122H513.9V283.6h10.33Zm0-21.122H513.9V262.473h10.33Zm0-21.122H513.9V241.351h10.33Zm16.739,63.366h-10.33V304.717h10.33Zm0-21.122h-10.33V283.6h10.33Zm0-21.122h-10.33V262.473h10.33Zm0-21.122h-10.33V241.351h10.33Zm77.015,62.939h-10.33V304.29h10.33Zm0-21.122h-10.33V283.168h10.33Zm140.942,29.159H748.595V312.327h10.331Zm0-21.122H748.595V291.2h10.331Zm0-21.122H748.595V270.083h10.331Zm0-21.122H748.595V248.961h10.331Zm16.7,63.366H765.3V312.327h10.33Zm0-21.122H765.3V291.2h10.33Zm0-21.122H765.3V270.083h10.33Zm0-21.122H765.3V248.961h10.33Zm16.739,63.366h-10.33V312.327h10.33Zm0-21.122h-10.33V291.2h10.33Zm0-21.122h-10.33V270.083h10.33Zm0-21.122h-10.33V248.961h10.33Z" fill="#c0e3f3"/>
  <path id="Path_844" data-name="Path 844" d="M688.086,540.438c-.038,5.281,39.848,9.746,89.055,9.979s89.133-3.883,89.133-9.163c.039-5.281-39.848-9.746-89.055-9.979S688.086,535.158,688.086,540.438Z" fill="#e2e2e2"/>
  <path id="Path_845" data-name="Path 845" d="M726.3,524.015c-.039,5.28,39.848,9.745,89.055,9.978s89.132-3.883,89.132-9.163c.039-5.281-39.847-9.746-89.054-9.979C766.266,514.657,726.341,518.734,726.3,524.015Z" fill="#e2e2e2"/>
  <path id="Path_846" data-name="Path 846" d="M780.908,508.6c-.039,5.28,77.637,9.9,173.488,10.367,95.854.427,173.564-3.495,173.6-8.775s-77.64-9.9-173.488-10.367C858.661,499.4,780.947,503.319,780.908,508.6Z" fill="#e2e2e2"/>
  <path id="Path_847" data-name="Path 847" d="M520.968,181.479A13.108,13.108,0,0,0,507.841,194.6c0,7.261,13.127,23.335,13.127,23.335s13.127-16.113,13.127-23.335A13.133,13.133,0,0,0,520.968,181.479Zm0,19.1a6.135,6.135,0,1,1,6.136-6.135A6.148,6.148,0,0,1,520.968,200.582Z" fill="#64ab45"/>
  <path id="Path_848" data-name="Path 848" d="M430.166,532.168c1.4-1.088,2.1-2.136,2.058-3.145-.349-5.359-21.982-8.7-55.887-9.63-10.564-1.669-21.672-3.028-33.206-4-52.936-4.465-99.153.311-120.125,10.988C158.419,533.1,111.93,543.078,112.474,551c.544,8.115,50.178,11.609,117.406,9.124,22.138,11.61,61.713,21.433,107.347,25.277,71.306,6.018,130.456-4.737,132.087-24.073C470.168,551.154,455.022,540.71,430.166,532.168Z" fill="#e2e2e2" opacity="0.25"/>
  <path id="Path_849" data-name="Path 849" d="M186.731,531.313c0,13.163,7.651,21.976,18.293,22.171,1.126.038,14.564,0,14.564,0L354.82,534.536c7.846-.893,17.011-8.464,17.011-20.307V156.28c0-8.736-4.194-17.783-15.651-19.724L218.151,117.181h-13.71c-11.185-.117-17.749,10.25-17.749,18.326V531.313Z" fill="#444a54"/>
  <path id="Path_850" data-name="Path 850" d="M200.519,531.313c0,14.561,9.36,23.84,21.788,21.938l146.3-18.715c7.845-.893,17.011-8.464,17.011-20.307V156.28c0-8.736-4.195-17.783-15.652-19.724L220.986,117.414c-12.855-1.98-20.506,9.4-20.506,18.093V531.313Z" fill="#575e70"/>
  <path id="Path_851" data-name="Path 851" d="M212.014,495.282c0,13.667,8.778,22.326,20.429,20.578l128.669-15.453c7.34-.815,15.962-7.921,15.962-19.025V179.732c0-8.193-3.922-16.657-14.68-18.482L231.2,144.244c-12.078-1.864-19.224,8.813-19.224,16.967V495.282Z" fill="#c5e0ef"/>
  <path id="Path_852" data-name="Path 852" d="M387.289,180.354l-1.67,11.415c-.971,6.562,2.8,12.192,8.35,12.541,5.437.349,10.564-4.582,11.5-10.988l1.631-11.144Z" fill="#519141"/>
  <path id="Path_853" data-name="Path 853" d="M366.472,178.451l-1.709,11.726c-.971,6.756,2.991,12.5,8.816,12.852,5.748.349,11.108-4.7,12.04-11.26l1.67-11.415Z" fill="#c8c8c8"/>
  <path id="Path_854" data-name="Path 854" d="M344.606,176.432l-1.748,12.036c-1.009,6.911,3.224,12.852,9.36,13.24,6.059.389,11.652-4.775,12.661-11.531l1.709-11.726Z" fill="#519141"/>
  <path id="Path_855" data-name="Path 855" d="M321.459,174.3l-1.787,12.347c-1.048,7.1,3.457,13.2,9.9,13.628,6.369.389,12.273-4.892,13.282-11.8l1.748-12.037Z" fill="#c8c8c8"/>
  <path id="Path_856" data-name="Path 856" d="M297.3,172.083l-1.864,12.7c-1.049,7.3,3.689,13.589,10.525,14.016,6.719.427,12.933-5.008,13.981-12.114l1.787-12.347Z" fill="#519141"/>
  <path id="Path_857" data-name="Path 857" d="M449.934,227.878c-2.33,5.048-6.758,8.62-11.652,11.1-5.592,2.834-11.728,4.193-17.748,5.863a76.262,76.262,0,0,0-10.758,3.689.993.993,0,0,0-.35,1.32.959.959,0,0,0,1.321.349c6.175-2.795,12.933-4.038,19.38-5.979,5.631-1.709,11.146-4.038,15.651-7.882a21.986,21.986,0,0,0,5.748-7.455.993.993,0,0,0-.349-1.32A.825.825,0,0,0,449.934,227.878Z" fill="#fff"/>
  <path id="Path_858" data-name="Path 858" d="M271.436,169.715l-1.9,13.085c-1.087,7.532,3.962,13.978,11.185,14.443,7.108.428,13.671-5.125,14.72-12.424l1.864-12.7Z" fill="#c8c8c8"/>
  <path id="Path_859" data-name="Path 859" d="M242.347,168.472s-.932,6.329-1.554,10.794c-.66,4.426-.971,13.939,11.418,16.113,12.273,2.174-8.194-28.189-8.194-28.189Z" fill="#64ab45"/>
  <path id="Path_860" data-name="Path 860" d="M244.017,167.19l-1.942,13.474A12.82,12.82,0,0,0,254,195.573,15.051,15.051,0,0,0,269.533,182.8l1.9-13.085Z" fill="#519141"/>
  <path id="Path_861" data-name="Path 861" d="M371.249,161.483l35.925,20.811-19.885-1.825-35.226-21.51Z" fill="#64ab45"/>
  <path id="Path_862" data-name="Path 862" d="M331.091,156.241l35.381,22.287-21.827-1.98-35.031-23.1Z" fill="#64ab45"/>
  <path id="Path_863" data-name="Path 863" d="M352.063,158.959l35.226,21.51-20.817-1.941-35.381-22.287Z" fill="#fff"/>
  <path id="Path_864" data-name="Path 864" d="M449.817,207.92c-4.738,5.9-11.224,9.979-18.1,12.969-7.651,3.339-15.846,5.2-23.885,7.338a136.776,136.776,0,0,0-14.215,4.388.981.981,0,0,0-.66,1.2.965.965,0,0,0,1.2.66c8.389-3.183,17.166-5.008,25.788-7.455,7.574-2.135,15.069-4.853,21.672-9.2a41.919,41.919,0,0,0,9.593-8.542.975.975,0,0,0-1.4-1.359Z" fill="#fff"/>
  <path id="Path_865" data-name="Path 865" d="M287.748,150.611l33.944,23.84-24.39-2.213-30.565-24.344Z" fill="#64ab45"/>
  <path id="Path_866" data-name="Path 866" d="M309.614,153.446l35.031,23.1-22.953-2.1-33.944-23.84Z" fill="#fff"/>
  <path id="Path_867" data-name="Path 867" d="M216.131,141.293l26.993,3.494,28.312,25.044-27.38-2.524Z" fill="#64ab45"/>
  <path id="Path_868" data-name="Path 868" d="M266.737,147.893,297.3,172.238l-25.866-2.407-28.312-25.044Z" fill="#fff"/>
  <path id="Path_869" data-name="Path 869" d="M216.131,141.293l27.925,26.014-.389,2.641L215.782,143.7Z" fill="#519141"/>
  <path id="Path_870" data-name="Path 870" d="M302.351,534.964c4.762,0,8.622-4.851,8.622-10.833s-3.86-10.833-8.622-10.833-8.622,4.85-8.622,10.833S297.589,534.964,302.351,534.964Z" fill="#fff"/>
  <path id="Path_871" data-name="Path 871" d="M360.608,207.066c1.165.117,2.369.233,3.534.428v.077A35.32,35.32,0,0,0,360.608,207.066Z" fill="#64ab45"/>
  <path id="Path_872" data-name="Path 872" d="M369.812,209.241a6.848,6.848,0,0,1,2.719,2.33l-.272.155a7.1,7.1,0,0,0-2.6-2.291Z" fill="#64ab45"/>
  <path id="Path_873" data-name="Path 873" d="M372.647,217.4a15.535,15.535,0,0,1-1.825,3.106l-.388-.272a18.1,18.1,0,0,0,1.825-2.99Z" fill="#64ab45"/>
  <path id="Path_874" data-name="Path 874" d="M366.9,224.966c-.854.816-1.747,1.631-2.641,2.407l-.427-.5c.893-.738,1.787-1.515,2.641-2.33Z" fill="#64ab45"/>
  <path id="Path_875" data-name="Path 875" d="M359.637,231.062l-2.913,2.1-.466-.66,2.913-2.02Z" fill="#64ab45"/>
  <path id="Path_876" data-name="Path 876" d="M351.791,236.42l-3.029,1.9-.466-.776,3.029-1.825Z" fill="#64ab45"/>
  <path id="Path_877" data-name="Path 877" d="M343.635,241.312l-3.107,1.747-.505-.893,3.146-1.708Z" fill="#64ab45"/>
  <path id="Path_878" data-name="Path 878" d="M335.286,245.816l-3.185,1.631-.505-1.009,3.185-1.592Z" fill="#64ab45"/>
  <path id="Path_879" data-name="Path 879" d="M326.78,250.009l-3.223,1.515-.505-1.126,3.223-1.437Z" fill="#64ab45"/>
  <path id="Path_880" data-name="Path 880" d="M318.119,253.93l-3.262,1.437-.505-1.2,3.262-1.4Z" fill="#64ab45"/>
  <path id="Path_881" data-name="Path 881" d="M309.381,257.619l-3.3,1.321-.5-1.282,3.3-1.281Z" fill="#64ab45"/>
  <path id="Path_882" data-name="Path 882" d="M300.526,261.036l-3.34,1.243-.466-1.32,3.34-1.2Z" fill="#64ab45"/>
  <path id="Path_883" data-name="Path 883" d="M291.593,264.221l-3.379,1.164-.427-1.359,3.34-1.126Z" fill="#64ab45"/>
  <path id="Path_884" data-name="Path 884" d="M282.583,267.171l-3.418,1.088-.427-1.4,3.417-1.049Z" fill="#64ab45"/>
  <path id="Path_885" data-name="Path 885" d="M273.495,269.928l-3.418.971-.389-1.437,3.379-.932Z" fill="#64ab45"/>
  <path id="Path_886" data-name="Path 886" d="M264.329,272.413l-3.457.854-.349-1.436,3.457-.854Z" fill="#64ab45"/>
  <path id="Path_887" data-name="Path 887" d="M255.086,274.626l-3.457.777-.311-1.4,3.457-.776Z" fill="#64ab45"/>
  <path id="Path_888" data-name="Path 888" d="M245.8,276.606l-3.5.7-.233-1.437,3.457-.66Z" fill="#64ab45"/>
  <path id="Path_889" data-name="Path 889" d="M236.483,278.315l-3.534.582-.2-1.4,3.5-.582Z" fill="#64ab45"/>
  <path id="Path_890" data-name="Path 890" d="M227.084,279.712l-3.534.466-.155-1.359,3.495-.465Z" fill="#64ab45"/>
  <path id="Path_891" data-name="Path 891" d="M217.646,280.839l-3.534.349-.116-1.32,3.534-.349Z" fill="#64ab45"/>
  <path id="Path_892" data-name="Path 892" d="M208.209,281.654l-3.573.194-.078-1.281,3.573-.233Z" fill="#64ab45"/>
  <path id="Path_893" data-name="Path 893" d="M198.732,282.119l-3.573.039-.038-1.2,3.573-.116Z" fill="#64ab45"/>
  <path id="Path_894" data-name="Path 894" d="M189.217,282.159l-3.573-.078.039-1.126,3.534.039Z" fill="#64ab45"/>
  <path id="Path_895" data-name="Path 895" d="M179.741,281.77l-3.573-.31.116-1.01,3.5.233Z" fill="#64ab45"/>
  <path id="Path_896" data-name="Path 896" d="M170.265,280.8l-3.535-.544.156-.932,3.534.505Z" fill="#64ab45"/>
  <path id="Path_897" data-name="Path 897" d="M160.9,279.091c-1.165-.272-2.33-.582-3.456-.893l.233-.815c1.126.31,2.291.582,3.418.854Z" fill="#64ab45"/>
  <path id="Path_898" data-name="Path 898" d="M151.817,276.257c-1.088-.466-2.214-.932-3.263-1.476l.35-.66a33.838,33.838,0,0,0,3.223,1.437Z" fill="#64ab45"/>
  <path id="Path_899" data-name="Path 899" d="M143.622,271.4a10.668,10.668,0,0,1-2.253-2.835l.544-.31a10.954,10.954,0,0,0,2.175,2.64Z" fill="#64ab45"/>
  <path id="Path_900" data-name="Path 900" d="M140.709,262.629a10.208,10.208,0,0,1,1.67-3.223l.35.272a11.635,11.635,0,0,0-1.554,3.106Z" fill="#64ab45"/>
  <path id="Path_901" data-name="Path 901" d="M146.573,255.212c.932-.738,1.9-1.4,2.913-2.058l.155.233c-.971.66-1.941,1.32-2.874,2.058Z" fill="#64ab45"/>
  <path id="Path_902" data-name="Path 902" d="M154.652,250.243c1.048-.544,2.136-1.01,3.223-1.514l.039.116c-1.087.505-2.136,1.01-3.184,1.553Z" fill="#64ab45"/>
  <path id="Path_903" data-name="Path 903" d="M432.884,39.293l39.692-1.01-46.022-7.727Z" fill="#febc12"/>
  <path id="Path_904" data-name="Path 904" d="M432.884,39.293,430.36,52.455l41.09-14.327Z" fill="#f26453"/>
  <path id="Path_905" data-name="Path 905" d="M432.884,39.293,430.36,52.455l41.09-14.327Z" fill="#eaa921"/>
  <path id="Path_906" data-name="Path 906" d="M434.71,42.011l-4.35,10.445,42.216-14.172Z" fill="#f26453"/>
  <path id="Path_907" data-name="Path 907" d="M434.71,42.011l-4.35,10.445,42.216-14.172Z" fill="#ffc33e"/>
  <path id="Path_908" data-name="Path 908" d="M444.03,54.086l-9.321-12.075,37.867-3.727Z" fill="#febc12"/>
  <path id="Path_909" data-name="Path 909" d="M430.825,386.06l4.855,22.6a18.608,18.608,0,0,1-14.292,22.132l-196.946,42.4A18.612,18.612,0,0,1,202.3,458.9l-4.777-22.171Z" fill="#f4984f"/>
  <path id="Path_910" data-name="Path 910" d="M430.36,386.448l4.854,22.6a18.606,18.606,0,0,1-14.292,22.131l-24.234,5.2s13.826-9.4,13.826-21.51c0-10.328-2.952-23.413-2.952-23.413Z" fill="#f58f4a"/>
  <path id="Path_911" data-name="Path 911" d="M441.739,359.153A15.7,15.7,0,0,1,429.7,377.79L192.635,428.848a15.688,15.688,0,1,1-6.6-30.674l237.026-51.058A15.72,15.72,0,0,1,441.739,359.153Z" fill="#ce4642"/>
  <path id="Path_912" data-name="Path 912" d="M430.554,382.256,193.411,433.314a3.844,3.844,0,0,1-4.544-2.913l-.388-1.786a3.842,3.842,0,0,1,2.913-4.542l237.142-51.058a3.843,3.843,0,0,1,4.544,2.912l.389,1.786A3.824,3.824,0,0,1,430.554,382.256Z" fill="#9854a1"/>
  <path id="Path_913" data-name="Path 913" d="M433.311,386.565,196.169,437.623a3.684,3.684,0,0,1-4.467-2.6l-.349-1.631a3.693,3.693,0,0,1,2.99-4.232L431.486,378.1a3.683,3.683,0,0,1,4.466,2.6l.35,1.631A3.644,3.644,0,0,1,433.311,386.565Z" fill="#a265aa"/>
  <path id="Path_914" data-name="Path 914" d="M432.107,338.225a58.976,58.976,0,0,0-10.292.038l-14.8,2.912q-14.739,2.855-29.4,5.863-15.962,3.263-31.963,6.329c-11.729,2.252-23.342,4.892-35.071,7.106-1.631.31-3.223.621-4.854.931-.661.117-1.36.272-2.02.389-1.631.31-3.223.621-4.855.932-11.69,2.329-23.5,4.193-35.187,6.484-10.68,2.1-21.321,4.115-32.041,6.057-9.825,1.786-19.651,3.65-29.477,5.513-4.933.932-9.865,1.9-14.8,2.835a65.212,65.212,0,0,0-9.555,3.8c-8.7,4.077-19.185,10.367-14.175,13.473,5.67,3.494,10.835-5.475,14.409-2.174,4.388,2.912,8.35-1.631,12.078-3.417,2.991-1.437,10.37-1.437,13.127.66,2.486,1.9,3.457,5.591,4.855,8.27.815,1.553,1.942,3.145,3.573,3.727a8.389,8.389,0,0,0,3.418.233c5.67-.349,11.379,1.786,16.894,1.088.388-.039.854-.156,1.01-.544.155-.349-.039-.738-.117-1.126-.272-1.514,1.67-2.524,3.185-2.33,4.078.466,6.6,2.485,10.836.816a18.843,18.843,0,0,0,5.709-3.65,20.644,20.644,0,0,1,2.6-2.291c2.214-1.32,5.243-1.281,7.69-1.864,2.524-.582,5.2-.737,7.806-1.242,4.272-.815,7.185-4.388,11.185-5.746,2.6-.894,6.02-.855,7.651,1.63,1.826,2.718,3.884,4.194,7.418,4.155a21.728,21.728,0,0,0,8.467-2.33,11.45,11.45,0,0,1,3.379-1.087c2.058-.155,4,.893,6.02,1.2a7.991,7.991,0,0,0,5.631-1.2c2.02-1.32,2.874-1.786,5.476-1.747,1.554,0,2.913-3.534,3.379-4.621.855-2.058,1.049-3.882,3.806-2.951a20.189,20.189,0,0,1,2.758,1.359,14.133,14.133,0,0,0,14.02-.737c2.991-1.981,5.36-4.737,9.01-5.436,4.117-.816,8.894-.621,11.807,2.446a3.3,3.3,0,0,0,1.049.893,2.488,2.488,0,0,0,1.592-.039c4-1.009,6.952-3.494,10.37-5.63,2.1-1.32,4.505-2.135,4.971,1.126.31,2.252,10.525-4.659,11.535-5.2,2.485-1.4,6.252-1.164,8.233-3.222,1.243-1.282,1.359-3.145,1.321-4.815-.039-1.864.738-3.611,1.165-5.4.272-1.165.155-2.873.7-3.922,1.165-2.213,4.7-2.213,6.68-1.048.777.466,1.4,1.126,2.1,1.631,2.447,1.825,5.9,1.825,8.777.738,2.874-1.049,5.282-3.029,7.651-5.009,3.263-2.757,6.409-3.417,10.254-4.931,2.718-1.049,5.592-3.339,2.1-5.669C444.652,338.5,437.273,338.535,432.107,338.225Z" fill="#64bc46"/>
  <path id="Path_915" data-name="Path 915" d="M402.591,341.1a53.679,53.679,0,0,0-8.2,0c-3.923.777-7.845,1.553-11.768,2.291q-11.709,2.271-23.38,4.659-12.7,2.622-25.439,5.048c-9.321,1.786-18.564,3.883-27.885,5.669-1.282.233-2.564.5-3.845.737-.544.117-1.088.195-1.631.311-1.282.233-2.564.505-3.845.738-9.321,1.863-18.681,3.339-28,5.125q-12.7,2.5-25.478,4.815c-7.806,1.4-15.612,2.912-23.458,4.387-3.922.738-7.845,1.514-11.767,2.252a53.751,53.751,0,0,0-7.613,3.029c-6.913,3.261-15.263,8.27-11.262,10.716,4.505,2.757,8.621-4.349,11.457-1.747,3.5,2.29,6.641-1.282,9.593-2.718,2.369-1.165,8.233-1.165,10.447.543,1.981,1.515,2.757,4.465,3.884,6.562a5.615,5.615,0,0,0,2.874,2.951,7.044,7.044,0,0,0,2.718.194c4.505-.272,9.049,1.437,13.438.893a.962.962,0,0,0,.816-.427c.116-.272-.039-.582-.078-.893-.194-1.2,1.32-2.019,2.524-1.864,3.224.35,5.243,1.981,8.622.622a15.018,15.018,0,0,0,4.544-2.874,13.655,13.655,0,0,1,2.1-1.825c1.747-1.048,4.155-1.048,6.1-1.475,2.02-.466,4.117-.582,6.175-.971,3.379-.621,5.709-3.494,8.894-4.581,2.1-.7,4.777-.66,6.1,1.281a6.361,6.361,0,0,0,5.9,3.3,17.858,17.858,0,0,0,6.719-1.825,8.326,8.326,0,0,1,2.68-.854c1.631-.116,3.184.738,4.777.971a6.6,6.6,0,0,0,4.505-.932,6.312,6.312,0,0,1,4.35-1.4c1.242,0,2.33-2.834,2.679-3.688.7-1.631.855-3.106,3.03-2.369a19.013,19.013,0,0,1,2.175,1.087,11.313,11.313,0,0,0,11.146-.582c2.369-1.553,4.272-3.766,7.185-4.349,3.262-.66,7.068-.466,9.4,1.942a2.447,2.447,0,0,0,.854.7,2.4,2.4,0,0,0,1.282,0c3.184-.777,5.515-2.757,8.233-4.466,1.67-1.048,3.573-1.708,3.962.893.233,1.787,8.389-3.688,9.166-4.154,1.98-1.126,4.971-.932,6.563-2.563a5.207,5.207,0,0,0,1.049-3.844,16.142,16.142,0,0,1,.932-4.271c.233-.931.116-2.29.582-3.145.932-1.747,3.729-1.747,5.321-.815a17.706,17.706,0,0,1,1.67,1.32,7.527,7.527,0,0,0,6.991.583,21.524,21.524,0,0,0,6.059-3.961c2.6-2.174,5.087-2.718,8.155-3.921,2.137-.855,4.467-2.641,1.671-4.5C412.533,341.331,406.669,341.331,402.591,341.1Z" fill="#519141"/>
  <path id="Path_916" data-name="Path 916" d="M175.507,379.11c14.642-.039,96.589,9.629,133.524,18.4,45.983-31.217,111.658-60.105,114.415-60.105-29.322-7.067-123.154,7.882-123.154,7.882C284.33,349.213,192.518,376.275,175.507,379.11Z" fill="#f9c350"/>
  <path id="Path_917" data-name="Path 917" d="M306.507,387.962l-69.364-24.927,139.66-9.163Z" fill="#f8b131"/>
  <path id="Path_918" data-name="Path 918" d="M427.408,332.634c-.971-6.989-4.661-14.794-6.719-18.909-20.778-41.118-74.879-58.125-118.066-56.067a149.134,149.134,0,0,0-16.584,1.708,11.157,11.157,0,0,1-1.126.156c-1.165.194-2.331.466-3.5.7s-2.33.427-3.495.66a8.907,8.907,0,0,0-1.088.31c-33.322,7.61-64.47,26.675-85.132,54.087-9.049,12-16.117,25.82-18.758,40.691-1.631,9.318-4.311,38.788,12.35,35.566,0,0,233.065-45.04,234.308-45.273C426.825,344.825,428.3,339.079,427.408,332.634Z" fill="#f4984f"/>
  <path id="Path_919" data-name="Path 919" d="M427.679,332.362c-.932-6.834-4.544-14.483-6.6-18.521-20.351-40.225-76.238-58.241-118.493-56.222-5.438.272-24.662,3.262-25.827,3.533-.35.078,77.17,6.562,106.143,40.886,22.254,26.363,17.166,47.835,17.166,47.835,10.137-1.941,19.729-3.766,19.924-3.8C427.136,344.709,428.573,338.691,427.679,332.362Z" fill="#f58f4a"/>
  <path id="Path_920" data-name="Path 920" d="M256.212,346.107s-3.845-.427-5.632-5.086A6.509,6.509,0,0,1,256.212,346.107Z" fill="#fff"/>
  <path id="Path_921" data-name="Path 921" d="M309.3,319.277s-3.845-.427-5.632-5.087A6.513,6.513,0,0,1,309.3,319.277Z" fill="#fff"/>
  <path id="Path_922" data-name="Path 922" d="M295.826,282.7s-.427,3.65-5.321,5.32A6.177,6.177,0,0,1,295.826,282.7Z" fill="#fff"/>
  <path id="Path_923" data-name="Path 923" d="M342.354,310.773s-.428,3.65-5.321,5.32A6.166,6.166,0,0,1,342.354,310.773Z" fill="#fff"/>
  <path id="Path_924" data-name="Path 924" d="M249.415,323s.7-3.728,5.515-4.854A5.871,5.871,0,0,1,249.415,323Z" fill="#fff"/>
  <path id="Path_925" data-name="Path 925" d="M387.4,313.414s-1.942-3.184.932-7.3A5.932,5.932,0,0,1,387.4,313.414Z" fill="#fff"/>
  <path id="Path_926" data-name="Path 926" d="M199.237,354.028s.427-3.65,5.321-5.281A6.175,6.175,0,0,1,199.237,354.028Z" fill="#fff"/>
  <path id="Path_927" data-name="Path 927" d="M315.556,285.3s.427-3.65,5.32-5.28A6.182,6.182,0,0,1,315.556,285.3Z" fill="#fff"/>
  <path id="Path_928" data-name="Path 928" d="M293.884,341.837s2.486-2.718,7.418-1.165A6.136,6.136,0,0,1,293.884,341.837Z" fill="#fff"/>
  <path id="Path_929" data-name="Path 929" d="M345.033,287.827s2.8,2.563,1.243,7.261A5.951,5.951,0,0,1,345.033,287.827Z" fill="#fff"/>
  <path id="Path_930" data-name="Path 930" d="M370.161,288.759s2.8,2.562,1.243,7.261A5.975,5.975,0,0,1,370.161,288.759Z" fill="#fff"/>
  <path id="Path_931" data-name="Path 931" d="M270.349,303.552s2.679-2.641,7.651-1.126A6.827,6.827,0,0,1,270.349,303.552Z" fill="#fff"/>
  <path id="Path_932" data-name="Path 932" d="M395.756,114.929l-3.768,7.959A22,22,0,0,1,402.4,152.242l7.962,3.766A30.831,30.831,0,0,0,395.756,114.929Z" fill="#c0e3f3"/>
  <path id="Path_933" data-name="Path 933" d="M389.464,131.236l-1.476,3.107a8.6,8.6,0,0,1,4.078,11.492l3.107,1.476A12.052,12.052,0,0,0,389.464,131.236Z" fill="#c0e3f3"/>
  <path id="Path_934" data-name="Path 934" d="M403.329,99.01l-3.767,7.959a39.621,39.621,0,0,1,18.758,52.806l7.962,3.766A48.437,48.437,0,0,0,403.329,99.01Z" fill="#c0e3f3"/>
  <path id="Path_935" data-name="Path 935" d="M108.046,645c32.561,0,58.956-2.834,58.956-6.329s-26.4-6.329-58.956-6.329-58.955,2.833-58.955,6.329S75.486,645,108.046,645Z" fill="#293033" opacity="0.25"/>
  <path id="Path_936" data-name="Path 936" d="M212.869,400.582l12.506-4.621c3.224-.971,4.505-1.592,4.272-2.174-.311-.777-.155-.5-6.253.427,0,0,8.739-1.4,6.6-2.563a10.314,10.314,0,0,0-3.263-.039c2.214-.465,3.107-1.125,3.069-1.708-.117-.971-5.282-.427-7.729-.078a44.779,44.779,0,0,0,6.641-1.281c1.126-.543-.233-1.165-1.515-1.4-1.437-.233-9.942-.427-12.428-.621a1.456,1.456,0,0,1-1.514-1.631c.932-3.455-.194-6.639-.894-7.377s-1.941,0-1.747,1.126a13.355,13.355,0,0,1-.272,3.611,8.42,8.42,0,0,1-.971,2.718,28.152,28.152,0,0,1-1.515,2.446l-8.272,2.485,3.612,13.434Z" fill="#fcc8b1"/>
  <path id="Path_937" data-name="Path 937" d="M220.637,394.564a15.393,15.393,0,0,0,4.233-.466,14.686,14.686,0,0,0,4.117-1.01,15.3,15.3,0,0,0-4.233.466A15.715,15.715,0,0,0,220.637,394.564Z" fill="#293033"/>
  <path id="Path_938" data-name="Path 938" d="M219.977,392.2a18.824,18.824,0,0,0,4.5-.233,18.424,18.424,0,0,0,4.466-.776,18.824,18.824,0,0,0-4.505.233A18.469,18.469,0,0,0,219.977,392.2Z" fill="#293033"/>
  <path id="Path_939" data-name="Path 939" d="M219.782,389.943a16.8,16.8,0,0,0,4.272-.156,16.563,16.563,0,0,0,4.234-.7,16.72,16.72,0,0,0-4.272.155A16.111,16.111,0,0,0,219.782,389.943Z" fill="#293033"/>
  <path id="Path_940" data-name="Path 940" d="M206.267,387.963l1.592-.466s4,12.5,3.069,13.667" fill="#f79c80"/>
  <path id="Path_941" data-name="Path 941" d="M143.894,348.786a18.282,18.282,0,0,1,13.127,12.7c3.223,10.794,11.768,31.644,11.768,31.644l36.9-6.212,4.777,15.026L173.139,414.4a17.378,17.378,0,0,1-20.7-10.522l-11.962-31.139Z" fill="#fff"/>
  <path id="Path_942" data-name="Path 942" d="M210.655,379.965a11.794,11.794,0,0,1-.116,2.019,2.256,2.256,0,0,0-.078.505c-.039.155-.077.349-.116.5a9.335,9.335,0,0,1-.311.971,16.506,16.506,0,0,1-.816,1.9,10.1,10.1,0,0,1-1.087,1.747l-.039.039-.078.039c-.543.155-1.048.349-1.592.5l.155-.349c.777,2.174,1.554,4.387,2.292,6.6.349,1.088.738,2.214,1.087,3.34s.7,2.213,1.01,3.339c-.466-1.087-.893-2.175-1.32-3.262s-.855-2.174-1.243-3.261c-.816-2.175-1.593-4.388-2.369-6.6l-.078-.272.272-.077c.544-.156,1.087-.311,1.592-.466l-.116.077a12.368,12.368,0,0,0,1.087-1.669,15.181,15.181,0,0,0,.893-1.786,10.858,10.858,0,0,0,.622-1.9A9.555,9.555,0,0,0,210.655,379.965Z" fill="#293033"/>
  <path id="Path_943" data-name="Path 943" d="M205.024,384.391,200.13,385.4l6.836,19.491,4.971-.776Z" fill="#d93230"/>
  <path id="Path_944" data-name="Path 944" d="M171.468,410.017c4.622-1.087,38.527-11.338,38.527-11.338l1.9,5.436-4.971.776-.544-1.591-33.245,11.1a16.931,16.931,0,0,1-12.117-1.2,18.176,18.176,0,0,1-8.544-9.358c-2.563-6.639-4.777-11.609-4.777-11.609s-1.126-11.066-.622-12.27c.466-1.2,1.36-16.618,1.321-20-.078-3.378,1.709,21.394,4.311,27.839C155.273,394.214,160.167,412.657,171.468,410.017Z" fill="#293033" opacity="0.2"/>
  <path id="Path_945" data-name="Path 945" d="M200.48,387.808c-2.874.621-5.709,1.164-8.583,1.708s-5.748,1.048-8.622,1.553-5.748.971-8.661,1.437c-2.874.466-5.786.893-8.66,1.281,2.874-.621,5.709-1.165,8.583-1.708s5.748-1.049,8.622-1.553,5.748-.971,8.66-1.437C194.693,388.623,197.567,388.2,200.48,387.808Z" fill="#293033"/>
  <path id="Path_946" data-name="Path 946" d="M73.986,605.279l-.893,12.58,12.7,4.116.932-15.686Z" fill="#fbc8af"/>
  <path id="Path_947" data-name="Path 947" d="M135.039,605.279,134.3,622.4l13.942-4.31-.466-11.8Z" fill="#fbc8af"/>
  <path id="Path_948" data-name="Path 948" d="M105.4,531.78c0,28.033-14.447,77.887-14.447,77.887l-18.875-.893,7.806-79.091,3.5-17.977h32.74Z" fill="#0d385a"/>
  <path id="Path_949" data-name="Path 949" d="M105.4,531.78l-25.477-2.1,3.457-17.977h32.74Z" fill="#293033" opacity="0.25"/>
  <path id="Path_950" data-name="Path 950" d="M134.728,611.8l13.243-.621-.039-1.282-13.049-1.126Z" fill="#f79c80"/>
  <path id="Path_951" data-name="Path 951" d="M157.447,508.482l-8.466,101.495-17.516-.233s-5.981-77.577-6.952-91.555Z" fill="#0d385a"/>
  <path id="Path_952" data-name="Path 952" d="M125.407,530.148l30.448-2.795,1.593-18.871-32.9,9.707Z" fill="#293033" opacity="0.25"/>
  <path id="Path_953" data-name="Path 953" d="M105.367,441.234a30.5,30.5,0,0,1-3.108,7.1,15.926,15.926,0,0,1-5.2,5.475,7.871,7.871,0,0,1-.777.427,9.77,9.77,0,0,1-2.33.815q.233-.814.466-1.514a8.841,8.841,0,0,0,1.282-.505c.388-.194.777-.427,1.165-.66a15.168,15.168,0,0,0,4.233-4.659,30.611,30.611,0,0,0,3.03-6.795.687.687,0,0,1,.854-.466A.606.606,0,0,1,105.367,441.234Z" fill="#605059"/>
  <path id="Path_954" data-name="Path 954" d="M154.263,611.881s1.592,7.726,2.214,10.25,9.9,4.116,14.292,7.416c4.35,3.3.311,9.008.311,9.008l-18.6,1.669-10.563-3.572s-7.923.66-10.448-.737c-2.524-1.437.544-16.424,2.835-16.851,2.292-.466,11.3-1.748,13.477-4.854C149.952,611.143,154.263,611.881,154.263,611.881Z" fill="#952634"/>
  <path id="Path_955" data-name="Path 955" d="M157.37,621.976l-5.9,2.523.427.855,6.214-2.485Z" fill="#fff"/>
  <path id="Path_956" data-name="Path 956" d="M158.729,623.45l-5.243,2.8.622.349,5.942-2.368Z" fill="#fff"/>
  <path id="Path_957" data-name="Path 957" d="M143.466,633.818c1.359-.272,7.535,2.175,10.059,3.068,1.825.66,13.283-1.2,19.147-2.214a6.388,6.388,0,0,1-.583,3.767l-19.884,2.019-10.331-3.8s-7.923.66-10.448-.738c-.7-.388-.971-1.747-.932-3.572C135.7,632.5,142.573,634.012,143.466,633.818Z" fill="#fff"/>
  <path id="Path_958" data-name="Path 958" d="M154.263,611.88a9.867,9.867,0,0,0-2.835-.155,6.223,6.223,0,0,0-1.437.272,5.148,5.148,0,0,0-1.321.621,3.717,3.717,0,0,0-1.048,1.01l-.117.155-.077.155-.078.155-.078.117c-.039.039-.039.078-.077.116l-.078.117-.078.116-.116.117a3.885,3.885,0,0,1-1.01.7,10.906,10.906,0,0,1-1.165.582,44.015,44.015,0,0,1-5.127,1.747c-1.747.505-3.534.971-5.359,1.437a44.234,44.234,0,0,0,5.553-.777c.933-.194,1.826-.427,2.719-.66.893-.271,1.787-.582,2.641-.931.427-.2.855-.389,1.282-.622a5,5,0,0,0,1.165-.854l.116-.116.117-.156.116-.155c.039-.039.078-.116.117-.155l.078-.156c.038-.038.038-.077.077-.116l.078-.117.078-.116a3.234,3.234,0,0,1,.776-.854,5.379,5.379,0,0,1,2.369-.971A5.957,5.957,0,0,1,154.263,611.88Z" fill="#1a222a"/>
  <path id="Path_959" data-name="Path 959" d="M135.854,636.846h-1.243a9.188,9.188,0,0,0,2.331-6.717,11.888,11.888,0,0,0-4.35-8.464c.077-.427.427-.816.505-1.165a12.742,12.742,0,0,1,4.854,9.59A10.693,10.693,0,0,1,135.854,636.846Z" fill="#fff"/>
  <path id="Path_960" data-name="Path 960" d="M65.908,611.881s-1.592,7.726-2.214,10.25-9.9,4.116-14.292,7.416c-4.35,3.3-.311,9.008-.311,9.008l18.6,1.669,10.564-3.572s7.923.66,10.447-.737c2.524-1.437-.544-16.424-2.835-16.851-2.291-.466-11.3-1.748-13.477-4.854C70.218,611.143,65.908,611.881,65.908,611.881Z" fill="#952634"/>
  <path id="Path_961" data-name="Path 961" d="M62.8,621.976l5.9,2.523-.427.855-6.214-2.485Z" fill="#fff"/>
  <path id="Path_962" data-name="Path 962" d="M61.441,623.45l5.243,2.8-.621.349-5.942-2.368Z" fill="#fff"/>
  <path id="Path_963" data-name="Path 963" d="M76.7,633.818c-1.359-.272-7.535,2.175-10.059,3.068-1.825.66-13.282-1.2-19.147-2.214a6.392,6.392,0,0,0,.583,3.767l19.885,2.019,10.331-3.8s7.923.66,10.447-.738c.7-.388.971-1.747.932-3.572C84.472,632.5,77.6,634.012,76.7,633.818Z" fill="#fff"/>
  <path id="Path_964" data-name="Path 964" d="M65.908,611.88a9.868,9.868,0,0,1,2.835-.155A6.224,6.224,0,0,1,70.18,612a5.133,5.133,0,0,1,1.32.621,3.715,3.715,0,0,1,1.049,1.01l.116.155.078.155.078.155.078.117c.039.039.039.078.078.116l.078.117.078.116.117.117a3.875,3.875,0,0,0,1.01.7,10.834,10.834,0,0,0,1.165.582,44.042,44.042,0,0,0,5.127,1.747c1.748.505,3.534.971,5.36,1.437a44.252,44.252,0,0,1-5.554-.777c-.932-.194-1.825-.427-2.719-.66-.893-.271-1.787-.582-2.641-.931-.427-.2-.854-.389-1.282-.622a4.984,4.984,0,0,1-1.165-.854l-.117-.116-.117-.156-.117-.155c-.039-.039-.078-.116-.117-.155l-.078-.156c-.039-.038-.039-.077-.078-.116l-.078-.117-.078-.116a3.226,3.226,0,0,0-.777-.854,5.374,5.374,0,0,0-2.369-.971A5.954,5.954,0,0,0,65.908,611.88Z" fill="#1a222a"/>
  <path id="Path_965" data-name="Path 965" d="M84.317,636.846H85.56a9.187,9.187,0,0,1-2.33-6.717,11.887,11.887,0,0,1,4.35-8.464c-.078-.427-.427-.816-.5-1.165a12.742,12.742,0,0,0-4.855,9.59A10.694,10.694,0,0,0,84.317,636.846Z" fill="#fff"/>
  <path id="Path_966" data-name="Path 966" d="M88.511,408.619c.117,1.358.272,2.756.466,4.115s.544,3.339,1.01,5.708c1.9,9.668,3.379,19.918,4.583,26.985a29.673,29.673,0,0,1,.66,5.28c11.379,0,36.935,1.942,60.9-5.9.7-.583-.776-3.184-.155-3.8-2.8-9.63-5.088-27.3-6.408-34.829-.233-1.4-.466-2.756-.66-4.115-.2-1.282-.389-2.563-.544-3.8-.155-1.126-.272-2.214-.388-3.3a5.762,5.762,0,0,1-.078-.815c-.155-1.437-.272-2.834-.389-4.155-.116-1.436-.194-2.795-.271-4.154-.894-18.171,2.175-27.218,1.165-31.567-1.088-4.659-4.505-5.863-8.389-6.872-1.476-.389-2.991-.738-4.5-1.2a10.858,10.858,0,0,1-1.2-.427c-.233-.078-.427-.194-.661-.272-1.9-.854-4.349-1.514-5.825-3.494l-15.574-.078a20.711,20.711,0,0,1-3.612,2.369c-.233.116-.427.233-.7.349a27.755,27.755,0,0,1-6.1,2.252c-.582.155-1.2.272-1.864.388a9.413,9.413,0,0,0-2.369.738c-5.709,2.524-8.855,9.94-9.2,21.044-.194,6.329-.466,12.309-.544,18.055a10.549,10.549,0,0,1-.039,1.126A183.794,183.794,0,0,0,88.511,408.619Z" fill="#fff"/>
  <path id="Path_967" data-name="Path 967" d="M112.824,365.015a.489.489,0,0,1-.233-.039.292.292,0,0,1-.194-.077c-.078-.039-.117-.078-.195-.117a.3.3,0,0,1-.155-.155l-.155-.155c-.039-.078-.078-.117-.117-.194s-.039-.156-.077-.2c0-.077-.039-.155-.039-.233a.493.493,0,0,1,.039-.233.3.3,0,0,1,.077-.194c.039-.077.078-.116.117-.194a.3.3,0,0,1,.155-.155l.155-.155c.078-.039.117-.078.195-.117s.155-.039.194-.078a.811.811,0,0,1,.427,0,.3.3,0,0,1,.194.078c.078.039.117.078.194.117a.3.3,0,0,1,.156.155l.155.155c.039.078.078.117.117.194s.038.156.077.194c0,.078.039.156.039.233a.489.489,0,0,1-.039.233.3.3,0,0,1-.077.2c-.039.077-.078.116-.117.194a.308.308,0,0,1-.155.155l-.156.155c-.077.039-.116.078-.194.117s-.155.039-.194.077A.291.291,0,0,1,112.824,365.015Z" fill="#28364c"/>
  <path id="Path_968" data-name="Path 968" d="M118.921,423.217a1.111,1.111,0,1,1,1.2,1.009h-.078A1.078,1.078,0,0,1,118.921,423.217Zm-1.437-14.832a1.133,1.133,0,1,1,1.243,1.009h-.117A1.107,1.107,0,0,1,117.484,408.385Zm-1.748-14.793a1.115,1.115,0,1,1,1.243.97h-.155A1.119,1.119,0,0,1,115.736,393.592Zm-1.9-14.794a1.115,1.115,0,1,1,1.243.971h-.155A1.091,1.091,0,0,1,113.833,378.8Z" fill="#28364c"/>
  <path id="Path_969" data-name="Path 969" d="M133.874,364.161a.489.489,0,0,1-.233-.039.3.3,0,0,1-.2-.078c-.077-.039-.116-.077-.194-.116a.308.308,0,0,1-.155-.155,1.158,1.158,0,0,1-.311-.777.491.491,0,0,1,.039-.233.3.3,0,0,1,.078-.194c.038-.078.077-.117.116-.194a.3.3,0,0,1,.156-.156l.155-.155c.078-.039.116-.078.194-.116s.155-.039.194-.078a.79.79,0,0,1,.427,0,.3.3,0,0,1,.195.078c.077.038.116.077.194.116a.3.3,0,0,1,.155.155l.156.156c.038.077.077.116.116.194s.039.155.078.194c0,.078.039.155.039.233a1.087,1.087,0,0,1-.311.777A1.386,1.386,0,0,1,133.874,364.161Z" fill="#28364c"/>
  <path id="Path_970" data-name="Path 970" d="M139.932,422.4a1.111,1.111,0,1,1,1.2,1.01h-.077A1.107,1.107,0,0,1,139.932,422.4Zm-1.437-14.832a1.133,1.133,0,1,1,1.243,1.01h-.116A1.171,1.171,0,0,1,138.495,407.569Zm-1.747-14.832a1.115,1.115,0,1,1,1.242.971h-.155A1.084,1.084,0,0,1,136.748,392.737Zm-1.9-14.754a1.115,1.115,0,1,1,1.242.971h-.155A1.122,1.122,0,0,1,134.845,377.983Z" fill="#28364c"/>
  <path id="Path_971" data-name="Path 971" d="M132.514,449.038a.432.432,0,0,1-.427-.428c-3.5-49.815-9.981-101.222-10.059-101.727a.45.45,0,1,1,.893-.117c.078.505,6.564,51.951,10.059,101.767A.481.481,0,0,1,132.514,449.038Z" fill="#28364c"/>
  <path id="Path_972" data-name="Path 972" d="M148.4,357.25c.078,2.019.078,4.038.078,6.1,0,2.019,0,4.077-.078,6.1-.039,2.019-.155,4.077-.272,6.1a53.58,53.58,0,0,1-.7,6.057v-.039c.078,2.174.194,4.349.35,6.484.116,2.174.271,4.31.466,6.484.116,1.087.194,2.136.349,3.223s.311,2.135.466,3.223l.971,6.445L151,413.86c.155,1.087.35,2.136.5,3.223l.544,3.223.5,3.222.5,3.223c.35,2.135.7,4.271,1.01,6.445-.427-2.135-.815-4.271-1.2-6.406l-.582-3.184-.583-3.184-.582-3.184c-.195-1.048-.389-2.135-.544-3.222q-.525-3.2-1.049-6.407l-.5-3.223-.505-3.222c-.155-1.087-.31-2.136-.466-3.223s-.271-2.174-.349-3.261c-.35-4.349-.583-8.659-.738-13.008V381.6c.388-1.98.582-4,.777-6.018q.232-3.03.349-6.058c.078-2.019.156-4.038.194-6.1.039-1.01.039-2.019.039-3.029C148.36,359.269,148.4,358.26,148.4,357.25Z" fill="#293033"/>
  <path id="Path_973" data-name="Path 973" d="M133.019,305.688s2.214,7.377.35,10.134l-1.632.815-2.6-9.862Z" fill="#293033"/>
  <path id="Path_974" data-name="Path 974" d="M108.59,320.287c.855-3.572-4.35-8.076-4.35-8.076-.815,3.417-2.175,2.679-2.6,4.271-.544,1.864.971,3.3,2.563,4.271-.271,2.252-.932,2.873-.815,5.125.388,8,7.457,6.6,7.457,6.6A15.224,15.224,0,0,0,108.59,320.287Z" fill="#293033"/>
  <path id="Path_975" data-name="Path 975" d="M126.573,338.186l.155,4.115a11.336,11.336,0,0,1-1.4,1.088c-6.991,4.581-14.914-.389-14.914-.389l-.583-14.288,14.759,8.348Z" fill="#fbc8af"/>
  <path id="Path_976" data-name="Path 976" d="M126.572,338.07l.194,4.232a11.421,11.421,0,0,1-1.4,1.087c-6.175-2.174-10.874-8.348-10.874-8.348l10.136,2.019Z" fill="#f79c80"/>
  <path id="Path_977" data-name="Path 977" d="M133.835,329.294s.35,8.5-8.505,8.853c-8.817.349-15.108-6.29-15.419-6.6l-.155-1.786-.894-9.28-.466-4.97s-1.514-8.891,6.914-10.871c6.175-1.437,12.039-.66,15.107,2.446a1.851,1.851,0,0,1,.272.311,7.626,7.626,0,0,1,1.864,4.076l.661,8.892.155,2.174Z" fill="#fbc8af"/>
  <path id="Path_978" data-name="Path 978" d="M130.417,307.124c-3.068-3.106-8.932-3.883-15.108-2.446l-8,3.883s-2.68,2.446-3.3,4.775c-.661,2.369-3.224,1.631-1.748,4.233s1.553,4.115.388,5.63,1.9,2.1,1.9,2.1-1.4-4.814,4.311-4.814a.462.462,0,0,1,.078.116,1.254,1.254,0,0,0,.466.466c.155.155.35.311.544.505a7.008,7.008,0,0,1,1.514,4.31c1.9-1.864,1.321-4.815,1.321-4.815a1.313,1.313,0,0,0-.039-.388c-.544-2.1-.233-2.446.583-5.553.039-.116.039-.233.077-.31a8.831,8.831,0,0,0,.078-3.5c-.272-1.514,2.253-3.145,4.544-2.523,3.379.893,6.214,1.436,9.282-.078,2.136-1.048,1.981-1.67,3.418-1.243A1.42,1.42,0,0,0,130.417,307.124Z" fill="#293033"/>
  <path id="Path_979" data-name="Path 979" d="M110.765,322.15s-3.612-4.427-5.942-.738c-1.942,3.029,2.292,10.6,6.253,7.8Z" fill="#fbc8af"/>
  <path id="Path_980" data-name="Path 980" d="M121.445,318.539c.039.854-.31,1.553-.815,1.592-.466.039-.893-.66-.932-1.514s.31-1.553.815-1.592S121.407,317.685,121.445,318.539Z" fill="#1a222a"/>
  <path id="Path_981" data-name="Path 981" d="M129.99,318.151c.039.854-.311,1.553-.816,1.592-.466.039-.893-.66-.932-1.514s.311-1.553.816-1.592C129.563,316.637,129.99,317.336,129.99,318.151Z" fill="#1a222a"/>
  <path id="Path_982" data-name="Path 982" d="M125.407,322.694a.35.35,0,1,1,0-.7,2.488,2.488,0,0,0,2.058-1.049c-1.514-2.834-3.029-5.668-3.029-5.707a.347.347,0,0,1,.621-.311c0,.039,1.593,2.99,3.146,5.863a.425.425,0,0,1,0,.311A3.291,3.291,0,0,1,125.407,322.694Z" fill="#1a222a"/>
  <path id="Path_983" data-name="Path 983" d="M122.649,315.7s-.077-.039-.271-.117a3.29,3.29,0,0,0-.7-.272,9.745,9.745,0,0,0-2.136-.466,10.362,10.362,0,0,0-2.213.039,2.651,2.651,0,0,0-.738.156,1.194,1.194,0,0,0-.272.077.888.888,0,0,1,.155-.194,3.706,3.706,0,0,1,.544-.505,4.178,4.178,0,0,1,5.165.466,2.954,2.954,0,0,1,.389.583A.6.6,0,0,1,122.649,315.7Z" fill="#1a222a"/>
  <path id="Path_984" data-name="Path 984" d="M119.542,325.878l.234.116c.155.078.388.156.66.272.543.194,1.281.427,2.058.621a12.5,12.5,0,0,0,2.175.35,5.781,5.781,0,0,0,.738.039h.272a.439.439,0,0,1-.156.077,2.424,2.424,0,0,1-.582.194,6.515,6.515,0,0,1-2.719-.077,5.688,5.688,0,0,1-2.33-1.049,2.542,2.542,0,0,1-.35-.388Z" fill="#1a222a"/>
  <path id="Path_985" data-name="Path 985" d="M130.961,313.8a.389.389,0,0,1-.156-.039c-.116-.039-.271-.039-.427-.078a3.7,3.7,0,0,0-1.281.078,3.894,3.894,0,0,0-1.243.427,1.7,1.7,0,0,0-.389.233.24.24,0,0,1-.155.077.386.386,0,0,1,.039-.155,1.353,1.353,0,0,1,.194-.427,2.111,2.111,0,0,1,1.4-.893,2.132,2.132,0,0,1,1.593.35,3.144,3.144,0,0,1,.349.31C130.961,313.764,130.961,313.8,130.961,313.8Z" fill="#1a222a"/>
  <path id="Path_986" data-name="Path 986" d="M128.475,286.273c-4.078-1.669-8.583-4.076-13.01-4.775-4.428-.738-8.35,2.058-10.292,4.232s-6.641,6.833-8.545,8.542-4.971,4.892-1.165,9.435,7.768,4.814,7.768,4.814l1.786.505-.971,4.349a31.024,31.024,0,0,1,29.672-5.63l-.932-2.757s3.923-1.087,4.7-3.65.466-6.95-1.4-9.551C134.184,289.108,129.6,286.739,128.475,286.273Z" fill="#fff"/>
  <path id="Path_987" data-name="Path 987" d="M110.455,303.125l-4.816,2.33-1.593,7.882s5.01-3.961,7.613-4.815Z" fill="#293033" opacity="0.2"/>
  <path id="Path_988" data-name="Path 988" d="M105.367,306.618a7.311,7.311,0,0,0-.544-.505,9.189,9.189,0,0,1,0-13.2c1.553-1.514,3.573-2.407,5.321-3.688,1.747-1.243,3.379-3.068,3.379-5.242a2.887,2.887,0,0,0-.583-1.864,1.667,1.667,0,0,0-1.787-.543s-5.165,1.941-7.845,5.746-5.4,5.125-7.5,7.649a6.515,6.515,0,0,0-1.942,5.863,11.156,11.156,0,0,0,3.651,5.125c2.641,1.9,2.912,1.942,4.894,2.407s2.486.622,2.486.622Z" fill="#293033" opacity="0.2"/>
  <path id="Path_989" data-name="Path 989" d="M104.008,313.337a20.972,20.972,0,0,1,3.068-2.485,27.144,27.144,0,0,1,7.107-3.378,25.283,25.283,0,0,1,3.845-.932,26.95,26.95,0,0,1,3.923-.427l.505-.039h1.514l1.01.039.5.039.5.039a37.622,37.622,0,0,1,7.767,1.514l-.271.272L132.32,304.8l-.582-1.592-.583-1.592.156.116c-.505-.116-1.049-.233-1.593-.349-.543-.078-1.087-.194-1.631-.233a31.654,31.654,0,0,0-3.3-.272,31.088,31.088,0,0,0-3.3.039c-1.088.078-2.214.155-3.3.311a32.017,32.017,0,0,0-3.263.621l-.815.194c-.117.039-.272.078-.389.117l-.388.116c-.544.155-1.049.311-1.592.505a31.221,31.221,0,0,0-6.02,2.757l.039-.078-.855,3.921C104.59,310.7,104.319,312.017,104.008,313.337Zm0,0c.272-1.282.5-2.6.738-3.922l.738-4c0-.039.038-.039.038-.078l.738-.427a4.408,4.408,0,0,1,.738-.388l.738-.388.194-.078.195-.078.388-.194c1.01-.466,2.058-.893,3.068-1.281.544-.194,1.049-.349,1.593-.505l.388-.116c.116-.039.272-.078.388-.117l.816-.194c.272-.078.544-.116.815-.194l.389-.078c.155-.038.272-.038.427-.077.272-.039.544-.117.816-.156l.815-.116c1.088-.155,2.214-.272,3.34-.35a32.08,32.08,0,0,1,3.34-.038c1.127.038,2.214.116,3.34.233a30.739,30.739,0,0,1,3.3.582c.077,0,.116.078.155.116l.582,1.592.583,1.592,1.165,3.184a.2.2,0,0,1-.116.272H133.6a36.99,36.99,0,0,0-7.69-1.553l-.505-.039-.5-.039-.97-.039h-1.981a32.139,32.139,0,0,0-3.884.35,25.8,25.8,0,0,0-3.806.893,32.528,32.528,0,0,0-3.69,1.4,29.51,29.51,0,0,0-3.456,1.863A25.28,25.28,0,0,0,104.008,313.337Z" fill="#263238"/>
  <path id="Path_990" data-name="Path 990" d="M132.593,304.95a4.74,4.74,0,0,0,1.243-.427c.388-.194.777-.388,1.165-.621a10.947,10.947,0,0,0,1.087-.777,3.543,3.543,0,0,0,.894-.971,6.853,6.853,0,0,0,.466-1.242,7.473,7.473,0,0,0,.233-1.281,15.127,15.127,0,0,0,0-2.641,11.863,11.863,0,0,0-.505-2.6,10.122,10.122,0,0,0-1.088-2.369,11.956,11.956,0,0,0-3.767-3.611,29.877,29.877,0,0,0-4.738-2.329c-.816-.35-1.631-.66-2.486-.971l-2.485-.971-2.486-.97c-.815-.311-1.67-.66-2.485-.971a11.629,11.629,0,0,0-2.525-.7,7.338,7.338,0,0,0-2.6,0,11.49,11.49,0,0,0-2.486.777,13.121,13.121,0,0,0-2.252,1.32,22.538,22.538,0,0,0-3.845,3.611c-1.2,1.32-2.33,2.679-3.612,3.96l-.466.466a5.963,5.963,0,0,1-.5.466c-.35.311-.66.582-1.01.854-.7.583-1.359,1.126-1.981,1.747a10.078,10.078,0,0,0-1.631,2.02,6.075,6.075,0,0,0-.816,2.446c0,.116-.039.233,0,.31v.311c.039.233.039.427.078.66a4.619,4.619,0,0,0,.388,1.242A8.439,8.439,0,0,0,95,302.853a7.322,7.322,0,0,0,.777,1.049,10.541,10.541,0,0,0,.893.97c.311.311.621.621.971.932a10.355,10.355,0,0,0,2.136,1.553,11.39,11.39,0,0,0,2.486.971,20.586,20.586,0,0,0,2.6.505,21.007,21.007,0,0,1-2.641-.466,10.448,10.448,0,0,1-2.524-.932,10.656,10.656,0,0,1-2.214-1.514c-.35-.311-.66-.622-.971-.932s-.621-.621-.932-.971c-.272-.349-.544-.7-.816-1.087a7.056,7.056,0,0,1-.621-1.2,5.376,5.376,0,0,1-.388-1.281,4.329,4.329,0,0,1-.078-.66v-.7a4.986,4.986,0,0,1,.272-1.32,12.07,12.07,0,0,1,.544-1.243,12.674,12.674,0,0,1,1.67-2.135c.621-.621,1.321-1.2,1.981-1.786.35-.272.66-.583,1.01-.854l.466-.466.466-.466c1.243-1.243,2.369-2.6,3.573-3.961.583-.66,1.2-1.32,1.864-1.941a22.127,22.127,0,0,1,2.059-1.747,11.712,11.712,0,0,1,2.33-1.359,9.714,9.714,0,0,1,2.6-.816,8.008,8.008,0,0,1,2.719,0,15.409,15.409,0,0,1,2.6.738c.854.311,1.67.66,2.485.971l2.486.971,2.486.97c.815.35,1.67.66,2.485,1.01s1.631.7,2.447,1.087a17.071,17.071,0,0,1,2.33,1.32,12.582,12.582,0,0,1,3.845,3.727,8.582,8.582,0,0,1,1.088,2.447,15.057,15.057,0,0,1,.466,2.64,12.436,12.436,0,0,1-.039,2.679,5.349,5.349,0,0,1-.272,1.32,4.95,4.95,0,0,1-.505,1.243,3.708,3.708,0,0,1-.932.97,8.933,8.933,0,0,1-1.088.738,6.818,6.818,0,0,1-1.2.582A2.9,2.9,0,0,1,132.593,304.95Z" fill="#263238"/>
  <path id="Path_991" data-name="Path 991" d="M124.863,300.679a5.6,5.6,0,0,1,.661-.7c.233-.194.427-.427.66-.621l.7-.582c.233-.194.466-.389.738-.583a5.93,5.93,0,0,1-.427.855,3.673,3.673,0,0,1-.622.7,5.451,5.451,0,0,1-.777.544A2.375,2.375,0,0,1,124.863,300.679Z" fill="#263238"/>
  <path id="Path_992" data-name="Path 992" d="M109.251,303.513a3.906,3.906,0,0,1-1.437-.466,5.3,5.3,0,0,1-2.175-2.1,4.5,4.5,0,0,1-.5-1.436,9.059,9.059,0,0,0,.854,1.164,8.437,8.437,0,0,0,.971,1.049c.35.31.7.621,1.088.932A5.2,5.2,0,0,0,109.251,303.513Z" fill="#263238"/>
  <path id="Path_993" data-name="Path 993" d="M110.61,284.643a4.653,4.653,0,0,0-2.369.893,9.925,9.925,0,0,0-1.825,1.786c-.544.66-1.088,1.359-1.709,1.98a11,11,0,0,1-1.01.893,4.22,4.22,0,0,1-1.165.622,9.07,9.07,0,0,0,1.864-1.786c.544-.661,1.049-1.4,1.592-2.058a8.053,8.053,0,0,1,2.02-1.786,3.789,3.789,0,0,1,1.243-.505A3.214,3.214,0,0,1,110.61,284.643Z" fill="#263238"/>
  <path id="Path_994" data-name="Path 994" d="M98.958,378.023S95,412.113,96.783,423.412a204.125,204.125,0,0,1,2.175,21.316H94.453l-3.767-22.52s-1.67-8.7-1.942-11.376-1.049-11.3-.816-11.726c.233-.388,11.069-21.86,11.069-21.86Z" fill="#293033" opacity="0.2"/>
  <path id="Path_995" data-name="Path 995" d="M95.075,448.611l.583.7L76.316,514.19s50.1,14.483,88.161-.737l-8.466-72.491C155.972,440.962,139.233,448.883,95.075,448.611Z" fill="#23587c"/>
  <path id="Path_996" data-name="Path 996" d="M91.346,476.218a.233.233,0,0,1-.155-.039.522.522,0,0,1-.35-.7c6.408-20.112,8.234-27.645,8.389-28.072a.566.566,0,0,1,1.088.311c-.117.427-1.942,7.959-8.389,28.111A.731.731,0,0,1,91.346,476.218Z" fill="#0c395a"/>
  <path id="Path_997" data-name="Path 997" d="M157.642,468.762a.234.234,0,0,1-.156.039.537.537,0,0,1-.621-.466c-2.8-20.928-4.389-28.538-4.427-28.965a.571.571,0,1,1,1.126-.194c.078.427,1.631,8.037,4.466,29A.763.763,0,0,1,157.642,468.762Z" fill="#0c395a"/>
  <path id="Path_998" data-name="Path 998" d="M94.492,444.574s40.857,1.98,60.431-7.688c0,0,1.515,2.912,1.127,5.125,0,0-17.128,10.483-60.432,7.261A3.939,3.939,0,0,1,94.492,444.574Z"/>
  <path id="Path_999" data-name="Path 999" d="M100.046,347.349h0C92.084,349.368,88.628,357.4,88.628,357.4l-1.437,2.718-1.4,2.679c-.932,1.787-1.825,3.611-2.719,5.4l-2.68,5.436-2.641,5.475c-1.748,3.65-3.418,7.338-5.088,11.066-1.631,3.727-3.262,7.493-4.777,11.376-.777,1.941-1.515,3.922-2.214,5.98-.349,1.048-.7,2.1-1.01,3.222-.155.583-.311,1.165-.466,1.786-.078.311-.155.66-.233.971l-.116.505-.039.271v.078l-.039.155-.039.2-.039.233-.039.194-.039.31v1.476c.039.349.039.582.078.854.078.466.116.854.194,1.2.117.7.272,1.281.388,1.863.272,1.126.544,2.175.854,3.184.583,2.058,1.165,4,1.786,5.941,1.243,3.882,2.486,7.726,3.806,11.531l1.981,5.708c.66,1.9,1.359,3.766,2.058,5.708a7.2,7.2,0,0,0,13.71-4.388v-.039l-1.592-5.707-1.553-5.747c-1.049-3.805-2.1-7.649-3.029-11.415-.466-1.9-.932-3.766-1.359-5.591-.194-.893-.388-1.825-.544-2.64a2.671,2.671,0,0,1-.078-.505v-.039c.117-.349.233-.7.35-1.087.272-.777.544-1.592.893-2.446.66-1.67,1.4-3.417,2.136-5.164,1.554-3.5,3.185-7.028,4.894-10.522,1.709-3.534,3.457-7.067,5.243-10.561l2.68-5.281,2.719-5.28,2.719-5.281,1.864-3.572Zm-19.807,68.88a2.11,2.11,0,0,0-.039-.311v.194Z" fill="#fff"/>
  <path id="Path_1000" data-name="Path 1000" d="M94.841,452.105h0a12.747,12.747,0,0,1,3.651-.116c2.292.271,4.195,1.786,5.321,2.329s-.427,1.9-2.369,1.514a16.2,16.2,0,0,0-4.272-.233,14.615,14.615,0,0,1,3.806.971c.582.311,1.476.7,2.33,1.087a10.554,10.554,0,0,1,1.126.66c.583.389,1.01.816.971,1.282-.038.737-1.2.66-2.563.427-.544-.078-1.126-.194-1.67-.272-.233-.039-.466-.078-.66-.116-1.942-.233-2.835-.661-4.466-.505a11.144,11.144,0,0,1,2.874,1.2c.155.117.349.233.544.389.349.271.777.543,1.2.854a6.966,6.966,0,0,1,1.631,1.436c.544.738-1.553,1.359-3.456.622a10.493,10.493,0,0,1-1.748-.893,5.825,5.825,0,0,0-1.4-.7c-.039,0-.117-.039-.155-.039a1.741,1.741,0,0,0-.777,0s.466.349,1.01.777c.039.038.078.038.078.077.349.272.7.583,1.01.854a6.14,6.14,0,0,1,1.359,2.6c.117.543.078.971-.272,1.165s-1.049-.156-1.825-.622c-1.165-.7-2.563-1.747-3.573-1.9a75.664,75.664,0,0,1-8.777-1.825c-3.34-.854-5.748-4.31-6.292-5.863a5.663,5.663,0,0,0-.311-.777l8.894-7.61s.854-.31,1.9-.621a12.612,12.612,0,0,1,3.224-.582,2.987,2.987,0,0,1,1.049.155c.427.117.738.466,1.126.5l2.175.932Z" fill="#fbc8af"/>
  <path id="Path_1001" data-name="Path 1001" d="M91.929,445.077l-2.8-4.154-15.5,13.628L76.2,458.9Z" fill="#d93230"/>
  <path id="Path_1002" data-name="Path 1002" d="M81.559,422.4l-.388-1.437-.35-1.436-.349-1.437c-.039-.233-.117-.466-.155-.738-.039-.116-.039-.232-.078-.349v-.311c0-.038,0-.038.039-.077l.039-.039h.155c.039,0,.039,0,.039.039l-.194.039.932-2.563c.311-.854.66-1.708.971-2.563l1.01-2.523.5-1.282.5-1.281c.7-1.67,1.4-3.339,2.175-5.009l.311-.621.311-.621c.117-.194.194-.427.311-.621l.35-.622c.233-.388.466-.776.66-1.164.233-.389.427-.777.66-1.2l.621-1.2.621-1.2,1.243-2.408,2.486-4.853c1.67-3.223,3.3-6.484,4.971-9.707-1.515,3.3-3.068,6.6-4.622,9.862-.777,1.631-1.592,3.262-2.408,4.892s-1.631,3.262-2.486,4.854c-.194.388-.427.815-.66,1.2s-.466.816-.66,1.2l-.311.583c-.117.194-.194.388-.311.582l-.311.621-.311.621-.272.622-.272.621-.272.621-.272.621c-.388.816-.738,1.67-1.087,2.485-1.437,3.339-2.8,6.717-4.156,10.1l-.194.039.039.039h.117v.233c0,.117.039.233.039.349l.117.7.311,1.437.311,1.437Z" fill="#293033"/>
  <path id="Path_1003" data-name="Path 1003" d="M98.958,378.022s-19.3,29.393-20.933,32.615c-1.592,3.223-7.146,1.631-7.3,4.388-.155,2.718,14.1,29.664,14.1,29.664s1.243-.388,4.078,2.99l2.991-2.641-2.8-4.154L86.88,442.67s-5.476-19.647-5.826-22.132a29.458,29.458,0,0,1-.738-3.844c.117-.31,5.476-13.861,6.874-16.385C88.666,397.786,98.958,378.022,98.958,378.022Z" fill="#293033" opacity="0.2"/>
  <path id="Path_1004" data-name="Path 1004" d="M76.2,458.9c1.282-1.2,2.563-2.369,3.845-3.573l1.942-1.747,1.942-1.747,1.942-1.747,1.942-1.748c1.32-1.164,2.6-2.329,3.923-3.455l-.039.349-1.4-2.1-1.4-2.1.35.039c-.777.66-1.554,1.32-2.33,2.019l-2.33,1.98-2.33,1.98c-.777.66-1.592,1.32-2.369,1.942.738-.7,1.476-1.4,2.253-2.1.738-.7,1.515-1.4,2.253-2.058.738-.7,1.515-1.4,2.291-2.058.777-.7,1.515-1.359,2.291-2.058l.194-.194.155.233,1.4,2.058,1.4,2.058.117.194-.155.155c-1.32,1.165-2.6,2.291-3.923,3.456L86.181,450.4,84.2,452.106l-1.981,1.708-1.981,1.709C78.88,456.648,77.559,457.775,76.2,458.9Z" fill="#293033"/>
  <path id="Path_1005" data-name="Path 1005" d="M100.046,347.35a10.818,10.818,0,0,0-1.592.5l-.388.156-.388.194c-.272.116-.5.272-.738.388s-.466.272-.738.427l-.7.466-.35.233-.311.272-.311.272a1.041,1.041,0,0,0-.311.271l-.621.544a2.337,2.337,0,0,0-.311.311l-.311.31-.311.311a1.047,1.047,0,0,0-.272.311l-.544.621a4.226,4.226,0,0,0-.5.66l-.5.66-.932,1.4v-.039L88.9,357.6l-1.01,1.941c-.66,1.321-1.359,2.6-2.058,3.922-.7,1.281-1.4,2.6-2.1,3.883s-1.4,2.562-2.136,3.844c.621-1.321,1.243-2.68,1.9-4s1.282-2.64,1.942-3.96,1.32-2.64,1.981-3.922l1.01-1.98,1.01-1.941c.311-.466.621-.932.971-1.4l.544-.66c.194-.233.35-.466.544-.66.388-.427.738-.854,1.165-1.243l.311-.31a1.938,1.938,0,0,1,.311-.272l.66-.544a17.394,17.394,0,0,1,2.874-1.863c.272-.117.5-.233.777-.35l.388-.155.388-.155A5.026,5.026,0,0,1,100.046,347.35Z" fill="#293033"/>
  <path id="Path_1006" data-name="Path 1006" d="M87.812,449.038s5.593.621,5.632,1.864-.35,3.028,2.524,3.261-1.825.66,0,2.407c1.825,1.787,7.379.971,8.583,2.641s-7.263-1.282-8.428-.078l11.613,3.3,1.786-10.289-17.554-5.863-2.991,1.4Z" fill="#f79c80"/>
  <path id="Path_1007" data-name="Path 1007" d="M93.288,465.113c.583.272,1.165.582,1.748.854a9.807,9.807,0,0,1,.854.5c.272.155.544.349.816.5a2.081,2.081,0,0,0,.427.195.892.892,0,0,0,.427.116.485.485,0,0,0,.35-.039c.039-.039.078-.039.078-.116,0-.039.039-.039.039-.078l.039-.116a2.337,2.337,0,0,0-.039-.893c-.039-.078-.039-.156-.078-.233l-.078-.233a.557.557,0,0,1-.078-.233.822.822,0,0,0-.117-.194A6.2,6.2,0,0,0,96.59,463.6a11.335,11.335,0,0,0-1.437-1.281l-.388-.272c-.117-.077-.272-.194-.388-.271l-.815-.544-.816-.544c-.155-.077-.272-.194-.427-.271a.848.848,0,0,1-.194-.117c-.039-.039-.078-.039-.117-.077a.039.039,0,0,1-.039-.039h-.039c.039,0,.039,0,.078.039.039,0,.078.038.117.038l.233.117a4.049,4.049,0,0,1,.427.233c.311.155.583.31.854.466a19.554,19.554,0,0,1,1.709,1.009,8.033,8.033,0,0,1,1.553,1.282A5.427,5.427,0,0,1,98.065,465l.117.233a.556.556,0,0,1,.078.233l.078.233c.039.078.039.155.078.233a2.392,2.392,0,0,1,.039,1.048.783.783,0,0,1-.349.544.521.521,0,0,1-.311.078.851.851,0,0,1-.311-.039,2.567,2.567,0,0,1-.932-.427c-.272-.156-.544-.35-.816-.544s-.544-.388-.816-.543Z" fill="#293033"/>
  <path id="Path_1008" data-name="Path 1008" d="M93.133,458.318c.893.156,1.748.35,2.641.583.233.039.427.116.66.155.233.078.427.117.66.194.427.156.854.311,1.282.505A4.983,4.983,0,0,1,99,460.1a1.647,1.647,0,0,1,.272.2c.078.077.194.116.272.194.35.271.738.543,1.087.815s.7.583,1.049.854a6.108,6.108,0,0,1,.466.505,1.175,1.175,0,0,1,.194.272.293.293,0,0,1,.078.155.233.233,0,0,1,.039.155.391.391,0,0,0-.156-.271c-.077-.078-.155-.156-.233-.233a6.386,6.386,0,0,0-.543-.427c-.35-.272-.738-.505-1.088-.777l-1.126-.738c-.078-.077-.194-.116-.272-.194s-.194-.116-.272-.194c-.194-.116-.388-.194-.583-.311-.388-.194-.816-.349-1.2-.5-.194-.078-.427-.156-.621-.233-.233-.078-.427-.117-.621-.194C94.842,458.94,93.987,458.629,93.133,458.318Z" fill="#293033"/>
  <path id="Path_1009" data-name="Path 1009" d="M94.376,455.134c.971.077,1.9.194,2.874.31l.7.117a4.613,4.613,0,0,1,.7.155c.466.078.932.233,1.4.35l.7.233.155.077.156.078.31.155c.427.194.855.427,1.282.621.427.233.854.466,1.243.7a6.05,6.05,0,0,1,.621.427,3.43,3.43,0,0,1,.544.505.821.821,0,0,1,.155.233l.117.233a.574.574,0,0,1,.039.272.55.55,0,0,1-.078.233.491.491,0,0,0,.039-.233.55.55,0,0,0-.078-.233.882.882,0,0,0-.116-.194c-.039-.078-.117-.117-.156-.155a6.454,6.454,0,0,0-.544-.428c-.194-.116-.427-.233-.621-.349-.427-.233-.854-.427-1.282-.621s-.854-.389-1.32-.583l-.311-.155-.155-.078-.155-.077a2.6,2.6,0,0,1-.311-.117l-.35-.116c-.893-.272-1.825-.505-2.757-.7C96.24,455.561,95.308,455.367,94.376,455.134Z" fill="#293033"/>
  <path id="Path_1010" data-name="Path 1010" d="M93.016,452.26c.311-.038.583-.116.893-.155s.582-.078.893-.116a11.8,11.8,0,0,1,2.6-.272,3.752,3.752,0,0,1,.66.039l.311.038c.117,0,.233.039.311.039.233.039.427.078.66.117.117.039.233.039.311.077a1.2,1.2,0,0,0,.311.078l.311.117.155.077.155.078.311.155c.078.039.194.117.272.155.388.233.738.428,1.126.661s.738.465,1.088.7l.272.156.155.077a.546.546,0,0,0,.155.117.845.845,0,0,1,.195.311.415.415,0,0,1-.039.31.422.422,0,0,0,0-.31,1.009,1.009,0,0,0-.195-.233c-.038-.039-.077-.039-.155-.078-.039-.039-.116-.039-.155-.078l-.311-.155c-.194-.078-.388-.194-.582-.272s-.389-.194-.583-.272l-1.165-.582c-.078-.039-.194-.117-.272-.155l-.272-.117-.155-.078-.156-.038-.31-.117a10.71,10.71,0,0,0-2.486-.388H96.045c-.194,0-.427.039-.621.039a3.471,3.471,0,0,0-.621.077c-.311,0-.621.039-.893.039A6.556,6.556,0,0,0,93.016,452.26Z" fill="#293033"/>
  <path id="Path_1011" data-name="Path 1011" d="M73.6,610.949l12.739,1.824.194-3.3-12.816-.582Z" fill="#f79c80"/>
  <path id="Path_1012" data-name="Path 1012" d="M148.981,609.977h-4.389l-4.388-.039-4.389-.038-4.389-.039h-.155v-.155l-.855-10.678L129.6,588.35l-.816-10.677-.776-10.678-1.515-21.316q-.758-10.658-1.4-21.355.932,10.659,1.786,21.316.874,10.659,1.67,21.317l.816,10.677.777,10.678.776,10.677.738,10.678-.155-.156,4.389.078,4.388.117,4.389.116Z" fill="#0d385a"/>
  <path id="Path_1013" data-name="Path 1013" d="M72.122,608.813l4.7.156,4.7.194,4.7.194,4.7.194-.155.117c.932-3.184,1.825-6.368,2.641-9.552s1.631-6.406,2.408-9.629c1.515-6.446,2.913-12.891,4.156-19.375.622-3.262,1.2-6.484,1.748-9.746l.194-1.2.194-1.243c.117-.815.272-1.631.389-2.446.233-1.631.505-3.261.7-4.892.893-6.562,1.592-13.124,2.019-19.725v-.077l3.185-5.863,1.592-2.912,1.593-2.912-1.554,2.951-1.553,2.951-3.107,5.9v-.039l-.156,2.485-.077,1.243-.078,1.242-.194,2.485-.233,2.485c-.078.816-.156,1.631-.233,2.485-.078.816-.156,1.631-.272,2.485-.194,1.631-.389,3.3-.583,4.931-.854,6.562-1.9,13.085-3.146,19.608l-.466,2.446-.5,2.446c-.155.816-.35,1.631-.5,2.446l-.272,1.2-.272,1.2q-1.048,4.833-2.214,9.668c-.777,3.222-1.592,6.406-2.486,9.629-.854,3.184-1.787,6.368-2.757,9.552l-.039.116h-.117l-4.7-.233-4.7-.272-4.7-.272Z" fill="#1a222a"/>
  <path id="Path_1014" data-name="Path 1014" d="M76.277,514.19c1.825.466,3.612.855,5.437,1.243s3.651.738,5.476,1.048,3.69.621,5.515.932c.932.155,1.825.272,2.757.427l1.4.194c.466.078.932.117,1.4.194a203.77,203.77,0,0,0,22.254,1.709c1.865.039,3.729.039,5.593.039,1.864-.039,3.728-.078,5.593-.2s3.728-.233,5.553-.388c1.865-.155,3.69-.388,5.554-.621,1.826-.272,3.69-.544,5.515-.893s3.651-.738,5.437-1.2,3.573-.97,5.36-1.514c1.748-.582,3.5-1.2,5.243-1.9l-.155.272-1.787-15.647-1.786-15.648-.894-7.8-.427-3.922-.427-3.921c-.583-5.2-1.165-10.445-1.709-15.648.66,5.2,1.282,10.406,1.942,15.609l.466,3.922.466,3.921.932,7.8,1.864,15.647,1.865,15.647.038.195-.194.077c-1.747.7-3.495,1.32-5.282,1.9s-3.573,1.087-5.4,1.553-3.651.854-5.476,1.2-3.69.621-5.515.893a143.339,143.339,0,0,1-22.332,1.126c-3.728-.078-7.457-.311-11.185-.622s-7.418-.737-11.108-1.242c-.466-.078-.932-.117-1.4-.194s-.932-.117-1.4-.194c-.932-.156-1.825-.272-2.757-.428-1.825-.31-3.69-.621-5.515-1.009C83.54,515.938,79.889,515.122,76.277,514.19Z" fill="#1a222a"/>
  <path id="Path_1015" data-name="Path 1015" d="M110.26,339.2s-8.7,2.213-10.215,8.115c0,0,16.778,2.64,21.672,1.281l-.389-3.572C121.29,345.058,112.163,342.767,110.26,339.2Z" fill="#d63431"/>
  <path id="Path_1016" data-name="Path 1016" d="M126.649,340.089a6.982,6.982,0,0,1,6.563,5.242s-6.874,4.659-11.767,3.3l-.195-3.572A11.516,11.516,0,0,0,126.649,340.089Z" fill="#d63431"/>
  <path id="Path_1017" data-name="Path 1017" d="M118.3,344.4a3.257,3.257,0,0,0-2.369,3.106,3.666,3.666,0,0,0,5.865,2.99s1.165,1.32,3.417.078,1.593-5.475-1.514-6.407A7.67,7.67,0,0,0,118.3,344.4Z" fill="#d63431"/>
  <path id="Path_1018" data-name="Path 1018" d="M118.843,348.863s-6.137-.855-9.011,3.183a26,26,0,0,1-5.864,6.057s13.243,1.864,15.768-8.5Z" fill="#d63431"/>
  <path id="Path_1019" data-name="Path 1019" d="M125.212,347.892s6.136-.854,9.01,3.184a25.992,25.992,0,0,0,5.865,6.057s-13.244,1.864-15.768-8.5Z" fill="#d63431"/>
  <path id="Path_1020" data-name="Path 1020" d="M100.045,347.349s6.8-5.475,12.234-3.533,5.088,3.65,6.486,2.174c1.437-1.437,3.573,2.873.816,4.155-2.758,1.242,2.563.388,2.408-3.223s4-.854,4-.854,1.243-4.892,1.981-4.815c.738.039-1.36-1.165-1.36-1.165a11,11,0,0,1-3.534,3.922,7.9,7.9,0,0,0-4.5.233s-6.641-2.174-8.35-5.048C110.26,339.2,101.521,341.292,100.045,347.349Z" fill="#1a222a" opacity="0.2"/>
  <path id="Path_1021" data-name="Path 1021" d="M116.863,350.3s-6.8,6.329-10.059,6.95S114.571,357.212,116.863,350.3Z" fill="#1a222a" opacity="0.2"/>
  <path id="Path_1022" data-name="Path 1022" d="M127.271,350.3s5.826,6.212,10.02,5.863S130.533,358.882,127.271,350.3Z" fill="#1a222a" opacity="0.2"/>
  <path id="Path_1023" data-name="Path 1023" d="M126.028,346.068s2.8,2.407-.816,4.5c0,0,6.292-2.912,1.865-7.8Z" fill="#1a222a" opacity="0.2"/>
  <path id="Path_1024" data-name="Path 1024" d="M93.56,351.077s6.447,15.1,4.389,28.926l-9.826,19.336s-.971,11.222-.233,14.677,6.525,32.149,6.525,32.149,46.139,2.213,60.82-8.115l-3.029-15.569-3.418-21.511s-1.32-9.513-1.4-13.085c-.039-3.611-.311-9.59.116-10.522.428-.971,2.447-23.879-2.213-27.994,0,0-2.525-4.194-5.981-2.874,0,0-2.331-.543-2.214,5.281s.66,15.026.66,15.026-26.953,3.145-28.779.738-6.019-19.919-8.893-20.152C97.172,347.117,94.1,349.1,93.56,351.077Z" fill="#0d385a"/>
  <path id="Path_1025" data-name="Path 1025" d="M117.057,377.558l18.02-1.126s3.69,14.638-3.806,15.764S119.037,387.264,117.057,377.558Z" fill="#23587c"/>
  <path id="Path_1026" data-name="Path 1026" d="M153.642,406.29a10.33,10.33,0,0,0,.854,1.281,14.729,14.729,0,0,0,.971,1.2c.35.388.7.776,1.049,1.126a14.234,14.234,0,0,0,1.165,1.009,17.909,17.909,0,0,0,5.32,2.951,19.589,19.589,0,0,0,2.991.7c.5.078,1.01.155,1.515.194s1.009.039,1.514.039,1.01-.039,1.515-.078a10.172,10.172,0,0,0,1.515-.233,25.493,25.493,0,0,0,2.951-.776c1.942-.622,3.884-1.4,5.826-2.1.971-.349,1.942-.7,2.952-1.01l2.951-.97c1.981-.621,3.923-1.243,5.9-1.864l2.951-.932,1.476-.466,1.476-.466-1.476.544-1.476.505L192.673,408c-1.941.7-3.883,1.359-5.864,2.019l-2.913,1.01c-.971.349-1.942.66-2.913,1.048l-2.874,1.087c-.971.35-1.942.738-2.913,1.048a28.718,28.718,0,0,1-3.029.777,16.541,16.541,0,0,1-3.107.311c-.505,0-1.048-.039-1.553-.078s-1.049-.117-1.554-.194a19.149,19.149,0,0,1-3.029-.777A16.915,16.915,0,0,1,153.642,406.29Z" fill="#293033"/>
  <path id="Path_1027" data-name="Path 1027" d="M187.43,199.689a24.669,24.669,0,0,1-2.99-1.941l.039-.078A20.968,20.968,0,0,0,187.43,199.689Z" fill="#64ab45"/>
  <path id="Path_1028" data-name="Path 1028" d="M180.09,193.749a26.072,26.072,0,0,1-2.175-2.835l.233-.155c.66.97,1.359,1.941,2.1,2.834Z" fill="#64ab45"/>
  <path id="Path_1029" data-name="Path 1029" d="M175,185.75a34.243,34.243,0,0,1-1.32-3.3l.388-.116a33.932,33.932,0,0,0,1.282,3.3Z" fill="#64ab45"/>
  <path id="Path_1030" data-name="Path 1030" d="M172.089,176.7c-.233-1.165-.427-2.33-.582-3.534l.544-.077c.116,1.165.31,2.329.5,3.494Z" fill="#64ab45"/>
  <path id="Path_1031" data-name="Path 1031" d="M171.08,167.268l.038-3.572.7.039-.078,3.533Z" fill="#64ab45"/>
  <path id="Path_1032" data-name="Path 1032" d="M171.7,157.755l.583-3.494.776.155-.621,3.456Z" fill="#64ab45"/>
  <path id="Path_1033" data-name="Path 1033" d="M173.643,148.475l1.049-3.416.854.271-1.087,3.378Z" fill="#64ab45"/>
  <path id="Path_1034" data-name="Path 1034" d="M176.75,139.468l1.437-3.262.893.388-1.437,3.223Z" fill="#64ab45"/>
  <path id="Path_1035" data-name="Path 1035" d="M180.828,130.886l1.747-3.145.932.583-1.786,3.028Z" fill="#64ab45"/>
  <path id="Path_1036" data-name="Path 1036" d="M185.722,122.733l2.058-2.951.932.7-2.019,2.873Z" fill="#64ab45"/>
  <path id="Path_1037" data-name="Path 1037" d="M191.353,115.045l2.291-2.757.933.815-2.253,2.718Z" fill="#64ab45"/>
  <path id="Path_1038" data-name="Path 1038" d="M197.6,107.862l2.486-2.562.893.893-2.446,2.562Z" fill="#64ab45"/>
  <path id="Path_1039" data-name="Path 1039" d="M204.364,101.184l2.641-2.408.893,1.009-2.641,2.368Z" fill="#64ab45"/>
  <path id="Path_1040" data-name="Path 1040" d="M211.587,94.971l2.8-2.213.854,1.087-2.8,2.174Z" fill="#64ab45"/>
  <path id="Path_1041" data-name="Path 1041" d="M219.161,89.225l2.912-2.058.816,1.2-2.913,1.98Z" fill="#64ab45"/>
  <path id="Path_1042" data-name="Path 1042" d="M227.044,83.906l3.03-1.864.738,1.243-2.991,1.864Z" fill="#64ab45"/>
  <path id="Path_1043" data-name="Path 1043" d="M235.239,79.052l3.107-1.708.7,1.281-3.107,1.708Z" fill="#64ab45"/>
  <path id="Path_1044" data-name="Path 1044" d="M243.628,74.587l3.185-1.553.622,1.32-3.185,1.553Z" fill="#64ab45"/>
  <path id="Path_1045" data-name="Path 1045" d="M252.211,70.51l3.263-1.4.582,1.359-3.262,1.4Z" fill="#64ab45"/>
  <path id="Path_1046" data-name="Path 1046" d="M260.95,66.821l3.3-1.281L264.8,66.9l-3.3,1.281Z" fill="#64ab45"/>
  <path id="Path_1047" data-name="Path 1047" d="M269.844,63.482l3.34-1.2.466,1.359-3.34,1.2Z" fill="#64ab45"/>
  <path id="Path_1048" data-name="Path 1048" d="M278.815,60.415l3.418-1.048.388,1.359-3.378,1.087Z" fill="#64ab45"/>
  <path id="Path_1049" data-name="Path 1049" d="M287.9,57.7l3.457-.971.349,1.359-3.417.971Z" fill="#64ab45"/>
  <path id="Path_1050" data-name="Path 1050" d="M297.069,55.252l3.456-.854.35,1.32-3.457.854Z" fill="#64ab45"/>
  <path id="Path_1051" data-name="Path 1051" d="M306.312,53.077l3.5-.738.272,1.281-3.457.777Z" fill="#64ab45"/>
  <path id="Path_1052" data-name="Path 1052" d="M315.633,51.175l3.5-.66.194,1.243-3.457.66Z" fill="#64ab45"/>
  <path id="Path_1053" data-name="Path 1053" d="M324.955,49.5l3.5-.582.194,1.2-3.5.582Z" fill="#64ab45"/>
  <path id="Path_1054" data-name="Path 1054" d="M334.314,48.068l3.534-.5L338,48.689l-3.5.5Z" fill="#64ab45"/>
  <path id="Path_1055" data-name="Path 1055" d="M343.713,46.826l3.534-.388.117,1.009-3.5.427Z" fill="#64ab45"/>
  <path id="Path_1056" data-name="Path 1056" d="M353.15,45.815l3.535-.311.116.932-3.534.35Z" fill="#64ab45"/>
  <path id="Path_1057" data-name="Path 1057" d="M362.588,45l3.573-.272.039.854-3.534.272Z" fill="#64ab45"/>
  <path id="Path_1058" data-name="Path 1058" d="M372.064,44.341l3.535-.194.039.738-3.535.233Z" fill="#64ab45"/>
  <path id="Path_1059" data-name="Path 1059" d="M381.541,43.874l3.534-.116.039.621-3.573.194Z" fill="#64ab45"/>
  <path id="Path_1060" data-name="Path 1060" d="M390.979,43.6l3.573-.078v.466l-3.535.117Z" fill="#64ab45"/>
  <path id="Path_1061" data-name="Path 1061" d="M400.455,43.486h3.573V43.8l-3.535.039Z" fill="#64ab45"/>
  <path id="Path_1062" data-name="Path 1062" d="M409.931,43.486l3.573.078v.155h-3.573Z" fill="#64ab45"/>
  <path id="Path_1063" data-name="Path 1063" d="M419.408,43.681l1.32.039h-1.32Z" fill="#64ab45"/>
  <path id="Path_1064" data-name="Path 1064" d="M948.687,99.864A26.118,26.118,0,0,0,922.549,126c0,14.444,26.138,46.554,26.138,46.554s26.137-32.11,26.137-46.554A26.118,26.118,0,0,0,948.687,99.864Zm0,38.09a12.23,12.23,0,1,1,12.233-12.231A12.231,12.231,0,0,1,948.687,137.954Z" fill="#febc12"/>
  <path id="Path_1065" data-name="Path 1065" d="M789.3,506.58s-16.234-36.342-4.816-135.779c0,0,6.952-8,6.642-22.869-.311-14.832-1.166-57.543-.544-74.937s259.861.116,259.861.116,3.11,45.079,5.24,69.773,6.41,61.386,6.65,67.016-.63,28.033-.04,40.846c.62,12.813,9.71,57.077-9.56,57.387C1033.55,508.483,807.512,512.094,789.3,506.58Z" fill="#cc9665"/>
  <path id="Path_1066" data-name="Path 1066" d="M794.229,354.338s-3.068,91.943,13.671,112.25-4.738,25.082-6.952,33.9-1.825,10.251-1.825,10.251H775.005L780.714,360.2Z" fill="#b76e47"/>
  <path id="Path_1067" data-name="Path 1067" d="M794.229,354.338l1.36-61.309-11.613,6.717-2.369,79.4,8.738,1.088Z" fill="#b76e47"/>
  <path id="Path_1068" data-name="Path 1068" d="M790.346,298.775s37.245-6.523,48.624-2.795,43.382,3.727,44,2.174,102.61-2.407,108.4-1.825c5.787.621,60.7-.194,61.131,5.708L1050.71,282l-260.364,5.591Z" fill="#b76e47"/>
  <path id="Path_1069" data-name="Path 1069" d="M781.724,290.389s13.01-.854,20.7,1.32c7.729,2.175,57.558,1.087,57.558,1.087s149.638-10.017,157.488-5.668c7.84,4.309,36.74,4.154,36.74,4.154s3.18-12.347-2.76-18.21c-5.94-5.824,9.87-60.609-3.38-63.25-13.28-2.64-78.411,1.4-78.411,1.4s-50.023,2.524-94.919.971c-44.857-1.553-77.015-1.9-77.015-1.9s-13.593.971-13.4,10.95c.155,9.978,4.505,48.184,3.068,54.785S780.753,286.118,781.724,290.389Z" fill="#cc9665"/>
  <g id="Group_30" data-name="Group 30" opacity="0.46">
    <g id="Group_26" data-name="Group 26" opacity="0.46">
      <path id="Path_1070" data-name="Path 1070" d="M940.569,490.35c9.088-11.881,22.41-19.918,36-25.665A135.55,135.55,0,0,1,1048.5,455.6c1.79.272,2.52-2.446.74-2.718a138.052,138.052,0,0,0-48.59,1.4A128.166,128.166,0,0,0,956.8,471.868a75.3,75.3,0,0,0-18.72,17.046C937.035,490.389,939.482,491.787,940.569,490.35Z" fill="#fff" opacity="0.46"/>
    </g>
    <g id="Group_27" data-name="Group 27" opacity="0.46">
      <path id="Path_1071" data-name="Path 1071" d="M939.171,477.188c11.186-14.754,23.381-29.974,40.78-37.546,1.67-.737.233-3.145-1.437-2.446-17.827,7.8-30.332,23.452-41.789,38.556C935.637,477.188,938.084,478.586,939.171,477.188Z" fill="#fff" opacity="0.46"/>
    </g>
    <g id="Group_28" data-name="Group 28" opacity="0.46">
      <path id="Path_1072" data-name="Path 1072" d="M852.758,241.467a38.052,38.052,0,0,0-36.391,7.027,1.421,1.421,0,0,0,1.825,2.175,35.3,35.3,0,0,1,33.634-6.523A1.42,1.42,0,0,0,852.758,241.467Z" fill="#fff" opacity="0.46"/>
    </g>
    <g id="Group_29" data-name="Group 29" opacity="0.46">
      <path id="Path_1073" data-name="Path 1073" d="M803.667,249.426c3.029-8.309,10.758-14.094,18.681-17.394a76.877,76.877,0,0,1,26.021-5.514,68.579,68.579,0,0,1,14.914,1.049c1.786.31,2.485-2.408.7-2.718a75.9,75.9,0,0,0-28.391.349c-9.126,1.786-18.409,4.892-25.632,10.949a29.993,29.993,0,0,0-9.05,12.542C800.288,250.4,803.046,251.1,803.667,249.426Z" fill="#fff" opacity="0.46"/>
    </g>
  </g>
  <path id="Path_1074" data-name="Path 1074" d="M764.519,408.969s19.962-29.392,61.441-30.829,60.159,26.6,60.159,26.6L880.6,450.32l-107.153,5.553Z" fill="#8d1f1f"/>
  <path id="Path_1075" data-name="Path 1075" d="M859.593,423.529l16.157,2.291,13.01-105.96L872.6,317.569Z" fill="#d86d27"/>
  <path id="Path_1076" data-name="Path 1076" d="M861.186,423.762l16.156,2.291,12.972-105.96-16.157-2.252Z" fill="#d39d44"/>
  <path id="Path_1077" data-name="Path 1077" d="M825.144,432.731l15.963-3.766L821.727,324.52l-16,3.766Z" fill="#e27826"/>
  <path id="Path_1078" data-name="Path 1078" d="M826.776,432.071l15.962-3.766-19.38-104.446-16,3.767Z" fill="#e8b14b"/>
  <path id="Path_1079" data-name="Path 1079" d="M770.461,432.614l16.156,2.252,13.011-105.921-16.157-2.291Z" fill="#e27826"/>
  <path id="Path_1080" data-name="Path 1080" d="M772.092,432.848l16.118,2.29,13.011-105.96-16.157-2.29Z" fill="#e8b14b"/>
  <path id="Path_1081" data-name="Path 1081" d="M842.738,438.167l15.923,3.727,20.7-104.484-15.924-3.727Z" fill="#e27826"/>
  <path id="Path_1082" data-name="Path 1082" d="M799.162,440.069l16-3.572L796.871,331.818l-16,3.572Z" fill="#f68920"/>
  <path id="Path_1083" data-name="Path 1083" d="M800.793,439.6l16-3.572L798.5,331.354l-16,3.572Z" fill="#f9c350"/>
  <path id="Path_1084" data-name="Path 1084" d="M799.745,433.042l16,3.223,18.1-105.067-16-3.222Z" fill="#f68920"/>
  <path id="Path_1085" data-name="Path 1085" d="M800.6,433.2l16,3.222,18.1-105.066-16-3.223Z" fill="#f9c350"/>
  <path id="Path_1086" data-name="Path 1086" d="M844.33,438.438l15.924,3.728,20.7-104.524-15.923-3.727Z" fill="#e8b14b"/>
  <path id="Path_1087" data-name="Path 1087" d="M837.533,316.05l-4.341,106.728,16.3.663,4.341-106.729Z" fill="#f68920"/>
  <path id="Path_1088" data-name="Path 1088" d="M839.119,316.194l-4.342,106.729,16.3.662,4.341-106.728Z" fill="#f9c350"/>
  <path id="Path_1089" data-name="Path 1089" d="M776.675,442.282,792.288,437,764.752,334.886,749.139,340.2Z" fill="#f68920"/>
  <path id="Path_1090" data-name="Path 1090" d="M777.374,442.05l15.613-5.32L765.451,334.653l-15.613,5.281Z" fill="#f9c350"/>
  <path id="Path_1091" data-name="Path 1091" d="M864.526,414.288l15.923,4.271,34.061-100.1-15.924-4.31Z" fill="#f68920"/>
  <path id="Path_1092" data-name="Path 1092" d="M865.885,414.521l15.923,4.31,34.022-100.1-15.923-4.31Z" fill="#f9c350"/>
  <path id="Path_1093" data-name="Path 1093" d="M886.119,404.736,871.71,524.053c-21.671,10.056-38.992,9.2-41.983,8.969-2.02.31-10.6,1.359-22.875-.7A102.519,102.519,0,0,1,787.239,527l-.738-3.844-3.923-20.385-18.02-93.806,27.652,2.717.311.039s9.321,17.434,34.992,16.851c25.633-1.2,30.993-19.142,30.993-19.142l7.612-1.281,19.147-3.223Z" fill="#64ab45"/>
  <path id="Path_1094" data-name="Path 1094" d="M871.439,524.907c-21.672,10.056-38.993,9.2-41.984,8.969-2.019.31-10.6,1.359-22.875-.7a102.524,102.524,0,0,1-19.613-5.32l-.738-3.843-3.923-20.385-18.02-93.807,27.652,2.718.311.039s9.321,17.433,34.992,16.851Z" fill="#4d9342"/>
  <path id="Path_1095" data-name="Path 1095" d="M688.63,417.394v3.3a2.685,2.685,0,0,1-2.68,2.679l-28.818-.039a2.685,2.685,0,0,1-2.679-2.679v-3.261Z" fill="#f9a66f"/>
  <path id="Path_1096" data-name="Path 1096" d="M690.96,413.976a2.253,2.253,0,0,1-2.252,2.252l-34.682-.039a2.251,2.251,0,1,1,0-4.5l34.682.038A2.254,2.254,0,0,1,690.96,413.976Z" fill="#e75437"/>
  <path id="Path_1097" data-name="Path 1097" d="M688.979,417.549l-34.72-.039a.531.531,0,0,1-.544-.543V416.7a.531.531,0,0,1,.544-.544l34.72.039a.531.531,0,0,1,.544.544v.272A.555.555,0,0,1,688.979,417.549Z" fill="#a265aa"/>
  <path id="Path_1098" data-name="Path 1098" d="M690.261,410.754a8.073,8.073,0,0,0-1.437-.311c-.738,0-1.437-.039-2.175-.039-1.437-.039-2.874-.039-4.272-.077-1.554,0-3.107-.039-4.661-.078-1.708-.039-3.417-.039-5.126-.078h-1.709c-1.709-.039-3.418-.116-5.127-.155l-4.66-.117c-1.437-.038-2.874-.077-4.272-.116-.738,0-1.437-.039-2.175-.039a9.092,9.092,0,0,0-1.437.233c-1.321.311-2.991.854-2.408,1.476.7.66,1.67-.428,2.1.116.505.544,1.2.039,1.787-.116a2.4,2.4,0,0,1,1.825.5,3.758,3.758,0,0,1,.427,1.32.966.966,0,0,0,.389.622,2.213,2.213,0,0,0,.466.155c.815.116,1.553.582,2.33.66a.231.231,0,0,0,.155-.039c.039-.039,0-.116,0-.155,0-.233.311-.311.505-.233.544.194.855.543,1.476.427a1.961,1.961,0,0,0,.893-.349,2.259,2.259,0,0,1,.428-.233,3.64,3.64,0,0,1,1.126-.039,11.2,11.2,0,0,1,1.126.077c.622,0,1.126-.388,1.748-.465a.941.941,0,0,1,1.01.465,1.187,1.187,0,0,0,.932.816,3.314,3.314,0,0,0,1.242-.078,1.129,1.129,0,0,1,.505-.039,3.035,3.035,0,0,1,.816.35,1,1,0,0,0,.816,0,1.166,1.166,0,0,1,.815-.078c.233.039.505-.388.622-.543.194-.272.271-.505.621-.311.116.078.233.194.35.272a1.932,1.932,0,0,0,1.98.31,3.74,3.74,0,0,1,1.437-.5,1.873,1.873,0,0,1,1.593.7c.038.039.077.117.116.156a.491.491,0,0,0,.233.039,4.893,4.893,0,0,0,1.631-.466c.35-.117.7-.156.66.31-.038.311,1.632-.349,1.787-.388.388-.116.893.039,1.243-.194a1.233,1.233,0,0,0,.349-.621,3.025,3.025,0,0,1,.311-.738,3.384,3.384,0,0,1,.233-.544c.233-.271.738-.155.971.039a2.149,2.149,0,0,1,.233.311,1.475,1.475,0,0,0,1.2.388,4.568,4.568,0,0,0,1.2-.466,5.6,5.6,0,0,1,1.592-.388c.428-.078.894-.311.466-.738A5.076,5.076,0,0,0,690.261,410.754Z" fill="#64bc46"/>
  <path id="Path_1099" data-name="Path 1099" d="M653.132,408.7a151.739,151.739,0,0,1,18.138,6.6,94.769,94.769,0,0,1,17.826-4.931c-3.884-1.864-17.477-2.64-17.477-2.64C669.25,407.8,655.618,408.813,653.132,408.7Z" fill="#f9c350"/>
  <path id="Path_1100" data-name="Path 1100" d="M689.756,409.822a9.719,9.719,0,0,0-.349-2.834c-1.67-6.368-8.7-10.406-14.8-11.415-.777-.117-1.593-.233-2.369-.272H670.92a21.343,21.343,0,0,0-13.554,4.97,13.529,13.529,0,0,0-3.845,5.125c-.505,1.242-1.787,5.28.66,5.358,0,0,33.944.738,34.138.738C689.329,411.492,689.717,410.754,689.756,409.822Z" fill="#f9a66f"/>
  <path id="Path_1101" data-name="Path 1101" d="M664.706,404.114a.906.906,0,0,1-.544-.776A.844.844,0,0,1,664.706,404.114Z" fill="#fff"/>
  <path id="Path_1102" data-name="Path 1102" d="M671.929,402.251a.9.9,0,0,1-.543-.776A.794.794,0,0,1,671.929,402.251Z" fill="#fff"/>
  <path id="Path_1103" data-name="Path 1103" d="M671.23,397.4a.9.9,0,0,1-.776.505A.738.738,0,0,1,671.23,397.4Z" fill="#fff"/>
  <path id="Path_1104" data-name="Path 1104" d="M676.2,402.057a.9.9,0,0,1-.777.5A.782.782,0,0,1,676.2,402.057Z" fill="#fff"/>
  <path id="Path_1105" data-name="Path 1105" d="M664.473,401.086a.933.933,0,0,1,.815-.466A.711.711,0,0,1,664.473,401.086Z" fill="#fff"/>
  <path id="Path_1106" data-name="Path 1106" d="M681.678,403.571a.824.824,0,0,1,.311-.854A.734.734,0,0,1,681.678,403.571Z" fill="#fff"/>
  <path id="Path_1107" data-name="Path 1107" d="M657.482,403.571a.9.9,0,0,1,.777-.505C658.3,403.066,658.142,403.61,657.482,403.571Z" fill="#fff"/>
  <path id="Path_1108" data-name="Path 1108" d="M673.6,398.213a.9.9,0,0,1,.776-.505A.737.737,0,0,1,673.6,398.213Z" fill="#fff"/>
  <path id="Path_1109" data-name="Path 1109" d="M669.444,404.581a.884.884,0,0,1,.932.039A.7.7,0,0,1,669.444,404.581Z" fill="#fff"/>
  <path id="Path_1110" data-name="Path 1110" d="M677.134,399.339a.884.884,0,0,1-.039.932A.772.772,0,0,1,677.134,399.339Z" fill="#fff"/>
  <path id="Path_1111" data-name="Path 1111" d="M680.2,400.115a.885.885,0,0,1-.039.932A.771.771,0,0,1,680.2,400.115Z" fill="#fff"/>
  <path id="Path_1112" data-name="Path 1112" d="M667.541,399.261a.9.9,0,0,1,.971.078A.835.835,0,0,1,667.541,399.261Z" fill="#fff"/>
  <path id="Path_1113" data-name="Path 1113" d="M731.662,453.231c-1.4,1.437-2.835,2.834-4.427,4.31-.233.233-.467.427-.738.66-.583.505-1.243,1.048-1.942,1.592a2.706,2.706,0,0,0-.389.31,3.915,3.915,0,0,1-.427.311l-.427.311-.505.349a21.757,21.757,0,0,1-2.291,1.281,18,18,0,0,1-10.254,1.554,23.39,23.39,0,0,1-4.388-1.088,24.221,24.221,0,0,1-3.651-1.669,37.937,37.937,0,0,1-5.864-4.038,51.655,51.655,0,0,1-4.7-4.465,86.2,86.2,0,0,1-7.651-9.474,40.1,40.1,0,0,1-6.02-13.512c3.612.505,7.535.66,9.787-3.262,2.214,2.757,5.01,4.893,7.38,7.416a81.6,81.6,0,0,0,7.3,6.989,32.675,32.675,0,0,0,3.729,2.757,17.224,17.224,0,0,0,3.495,1.864,6.16,6.16,0,0,0,2.408.543.881.881,0,0,0,.388-.116c.039-.039.039-.078.078-.155,0-.039.039-.078.078-.117a.038.038,0,0,1,.038-.039l.117-.116.272-.272c.427-.388.932-.893,1.476-1.437,1.048-1.126,2.175-2.407,3.3-3.727l.582-.7q1.4-1.631,2.8-3.378Z" fill="#fbc8af"/>
  <path id="Path_1114" data-name="Path 1114" d="M685.678,431.72a8.76,8.76,0,0,0,1.825-1.242,4.505,4.505,0,0,0-.31-7.028,7.813,7.813,0,0,0-2.641-.932.234.234,0,0,1-.156-.039c-.194-.039-.388-.039-.582-.078-4.117-.465-8.778,1.864-8.778,1.864s-7.922-.582-11.3-.854-8.234.194-7.224,1.4,8.971,2.213,13.127,4.737S685.678,431.72,685.678,431.72Z" fill="#fbc8af"/>
  <path id="Path_1115" data-name="Path 1115" d="M700.747,424.964H647.112a2.353,2.353,0,0,1-2.369-2.368V422.4a2.354,2.354,0,0,1,2.369-2.369h53.635a2.354,2.354,0,0,1,2.369,2.369v.194A2.378,2.378,0,0,1,700.747,424.964Z" fill="#fff"/>
  <path id="Path_1116" data-name="Path 1116" d="M717.564,436.729s.311.971.854,2.563c1.515,4.465,4.816,13.628,8.079,18.87a16.005,16.005,0,0,0,1.98,2.679l12.079-17.511c.116-.311,6.719-17.783-2.913-28.111-.194-.233-.427-.427-.621-.621a40.151,40.151,0,0,0-7.729,7.649C726.069,426.634,717.564,436.729,717.564,436.729Z" fill="#f99b1c"/>
  <path id="Path_1117" data-name="Path 1117" d="M715.233,451.329a22.8,22.8,0,0,0-2.408-5.125.5.5,0,0,0-.7-.117.545.545,0,0,0-.116.738c.039.039.039.078.078.117a10.309,10.309,0,0,1-1.2,3.688.505.505,0,0,0,.155.7.142.142,0,0,0,.116.039.459.459,0,0,0,.583-.233,11.231,11.231,0,0,0,1.126-2.835,28.2,28.2,0,0,1,1.36,3.34.494.494,0,0,0,.31.31.428.428,0,0,0,.311,0A.47.47,0,0,0,715.233,451.329Z" fill="#f79c80"/>
  <path id="Path_1118" data-name="Path 1118" d="M678.843,403.027s3.961-1.359,1.126-3.727-9.282-7.339-1.631-8.736c7.69-1.4.7-5.824-3.612-5.941,0,0,4.311,1.048,2.758,2.834s-7.069,2.408-7.146,6.213C670.3,397.475,681.523,400.465,678.843,403.027Z" fill="#fff"/>
  <path id="Path_1119" data-name="Path 1119" d="M665.91,398.407s2.525-.854.738-2.369-5.9-4.659-1.01-5.552.427-3.689-2.291-3.766c0,0,2.718.66,1.747,1.786s-4.505,1.514-4.544,3.96C660.473,394.873,667.619,396.776,665.91,398.407Z" fill="#fff"/>
  <path id="Path_1120" data-name="Path 1120" d="M657.365,424.965s19.963,3.378,23.264,2.524,25.011,19.025,27.808,19.258a8.432,8.432,0,0,1,4.427,1.553l6.8-3.067,6.835,12.929s-6.369-12.269-8.078-18.87l-5.864,6.407s-1.476,1.592-9.166-4.116L688.979,427.8s.233-1.98-.466-2.834Z" fill="#f79c80"/>
  <path id="Path_1121" data-name="Path 1121" d="M688.513,424.965a3.427,3.427,0,0,1,.311.66c.078.233.116.466.194.7a4.284,4.284,0,0,1,.078.738v.7l-.039-.077,4.622,4.465,2.33,2.213,2.33,2.213c.777.738,1.554,1.437,2.369,2.175.389.349.777.737,1.2,1.087.389.349.816.7,1.2,1.048.816.7,1.631,1.4,2.447,2.058.427.349.854.66,1.282.971l.349.233a1.611,1.611,0,0,0,.35.194c.116.077.233.116.349.194l.35.155a6.982,6.982,0,0,1-1.437-.7c-.466-.272-.894-.582-1.36-.893-.427-.31-.854-.621-1.281-.97l-.622-.505-.621-.505c-.816-.7-1.631-1.359-2.447-2.1-.815-.7-1.592-1.436-2.369-2.174l-2.33-2.213-1.165-1.126-1.127-1.126c-1.514-1.514-3.029-3.029-4.505-4.621l-.039-.038v-.039c0-.117.039-.233.039-.35v-.349a4.2,4.2,0,0,0-.039-.7q-.057-.35-.116-.7A4.584,4.584,0,0,1,688.513,424.965Z" fill="#293133"/>
  <path id="Path_1122" data-name="Path 1122" d="M726.5,458.2l-.66-1.32-.622-1.321c-.427-.893-.854-1.747-1.243-2.64-.815-1.747-1.631-3.533-2.408-5.28q-.582-1.34-1.165-2.679c-.388-.893-.777-1.786-1.126-2.68s-.738-1.786-1.049-2.717l-.233-.7-.233-.7a8.757,8.757,0,0,1-.388-1.437l-.039-.116.078-.078c.971-1.2,1.942-2.407,2.951-3.611.971-1.2,1.981-2.407,2.952-3.611l1.476-1.786,1.476-1.786c1.01-1.2,1.98-2.368,2.99-3.572-.932,1.242-1.9,2.446-2.874,3.689l-1.437,1.824-1.437,1.825c-.971,1.2-1.942,2.446-2.913,3.65s-1.941,2.407-2.912,3.65l.038-.194a25.01,25.01,0,0,0,.855,2.756c.349.893.7,1.825,1.049,2.718q1.105,2.679,2.213,5.359c.389.893.777,1.786,1.127,2.679l1.165,2.679Z" fill="#293133"/>
  <path id="Path_1123" data-name="Path 1123" d="M755.275,405.629s-25.633.7-26.6,31.45l6.875,1.437s-1.476,33.857-8.584,49.233c0,0,30.876,28.111,71.073-5.048l6.37-43.72s2.291-22.791-6.875-28.344C788.4,405.085,770.111,405.163,755.275,405.629Z" fill="#f99b1c"/>
  <path id="Path_1124" data-name="Path 1124" d="M771.548,411.958s-23.924-4.116-32.041,3.106A125.616,125.616,0,0,1,727.2,425l4.272-5.359s10.215-12.968,22.332-13.861S771.548,411.958,771.548,411.958Z" fill="#de7326"/>
  <path id="Path_1125" data-name="Path 1125" d="M771.548,411.958s13.205,6.639,15.458,34.012c0,0,9.864,18.987-3.107,29.781s-13.322,19.608-49.052,17.239c0,0,19.185,11.26,39.692,3.184S806,469.694,806,469.694l-1.825-27.373s3.146-26.442-6.641-31.683c-9.826-5.281-27.808-5.514-28.9-5.747S771.548,411.958,771.548,411.958Z" fill="#de7326" opacity="0.25"/>
  <path id="Path_1126" data-name="Path 1126" d="M747.313,404.736c2.447.35,4.933.621,7.418.893a120.791,120.791,0,0,0,30.177-.155c.777-.117,1.554-.272,2.292-.388a92.8,92.8,0,0,1-3.5-9.164c-.466-1.475-.893-2.989-1.32-4.5a1.127,1.127,0,0,1-.078-.349c-.621-2.369-1.2-4.776-1.825-7.183a5.517,5.517,0,0,1-.194-.777,53.181,53.181,0,0,0-3.224-9.046,20.8,20.8,0,0,0-4.233-6.019,16.274,16.274,0,0,0-14.681-4.426,7.508,7.508,0,0,0-1.243.349c-.077.039-.194.078-.272.117-.038.039-.116.039-.155.078-.233.116-.505.194-.738.31-3.845,1.825-6.758,5.747-8.622,9.94-3.961,8.891-5.2,19.569-5.476,29.353C743.468,404.154,745.41,404.464,747.313,404.736Z" fill="#293133"/>
  <path id="Path_1127" data-name="Path 1127" d="M771.549,392.894V412H754.072v-19.1S769.335,390.6,771.549,392.894Z" fill="#fbc8af"/>
  <path id="Path_1128" data-name="Path 1128" d="M771.548,411.958s-.544,3.028-9.4,3.028-8.078-3.028-8.078-3.028S769.412,409.007,771.548,411.958Z" fill="#fbc8af"/>
  <path id="Path_1129" data-name="Path 1129" d="M754.071,411.958l14.564-17.744-14.564,3.106Z" fill="#f79c80"/>
  <path id="Path_1130" data-name="Path 1130" d="M766.577,389.477a5.077,5.077,0,1,0,3.961-5.708A4.911,4.911,0,0,0,766.577,389.477Z" fill="#fbc8af"/>
  <path id="Path_1131" data-name="Path 1131" d="M747.974,377.207c-.311,3.145-1.088,6.252-1.282,9.435v.35a14.794,14.794,0,0,0,1.2,6.445,10.885,10.885,0,0,0,10.952,6.64,13.336,13.336,0,0,0,10.758-7.533,21.4,21.4,0,0,0,1.36-3.727c.233-.932.427-1.864.582-2.835.156-1.048.311-2.1.389-3.145.194-2.174.854-4.542,0-6.6a2.171,2.171,0,0,0-.35-.66,2.149,2.149,0,0,0-.233-.311,12.693,12.693,0,0,0-2.447-2.33c-3.728-2.912-9.67-6.794-14.6-5.358a7.943,7.943,0,0,0-3.262,1.942C749.022,371.5,748.246,374.451,747.974,377.207Z" fill="#fbc8af"/>
  <path id="Path_1132" data-name="Path 1132" d="M747.857,375.655a20.041,20.041,0,0,1,.932-2.951,15.883,15.883,0,0,1,.894-1.825,6.815,6.815,0,0,1,2.136-2.329,12.549,12.549,0,0,1,2.913-1.4,13,13,0,0,1,6.33-.544,15.26,15.26,0,0,1,10.1,6.679,7.907,7.907,0,0,1,1.165,2.368,10.3,10.3,0,0,1,.272,2.679,17.949,17.949,0,0,1-.233,2.873c-.117.738-.35,1.4-.427,2.175-.039.466-.855,5.435-.933,5.435-.427-.155-.854-.349-1.281-.543A25.6,25.6,0,0,1,763,383.731a30.384,30.384,0,0,1-5.554-6.834c-.427-.737-.815-1.475-1.2-2.251a21.455,21.455,0,0,1-2.6,3.028,8.6,8.6,0,0,1-4.893,2.718,5.291,5.291,0,0,1-1.36,0c-.388-.078-.427-.272-.349-.7.194-1.009.427-2.058.621-3.067A7.289,7.289,0,0,1,747.857,375.655Z" fill="#f79c80"/>
  <path id="Path_1133" data-name="Path 1133" d="M746.5,372.47a14.241,14.241,0,0,1,2.718-4.62c1.67-1.825,4.661-3.689,7.108-2.213.349.233.7.388,1.087.078a2.733,2.733,0,0,1,2.33-.389c4.816.854,10.215,3.262,13.2,7.183,2.68,3.456,3.457,7.882,3.768,12.037.077,1.2.155,2.368.155,3.572.039,1.32-.194,2.524-1.864,1.98a29.98,29.98,0,0,1-8.739-4.97,28.937,28.937,0,0,1-6.1-6.406,20.5,20.5,0,0,1-3.457-8.154,20.008,20.008,0,0,1-2.485,4.892,15.188,15.188,0,0,1-4.467,4.155,12.313,12.313,0,0,1-2.835,1.242,1.62,1.62,0,0,1-.621.039,1.212,1.212,0,0,1-.816-.349,1.781,1.781,0,0,1-.272-1.592c.078-.7.078-1.4.194-2.1a20.594,20.594,0,0,1,1.049-4.31C746.5,372.509,746.5,372.509,746.5,372.47Z" fill="#293133"/>
  <path id="Path_1134" data-name="Path 1134" d="M751.391,382.682a.258.258,0,0,1-.194-.155,1.753,1.753,0,0,0-1.2-.777,2.487,2.487,0,0,0-1.515.35.287.287,0,0,1-.271-.505,2.946,2.946,0,0,1,1.864-.427,2.2,2.2,0,0,1,1.631,1.048.277.277,0,0,1-.117.389A.214.214,0,0,1,751.391,382.682Z" fill="#293133"/>
  <path id="Path_1135" data-name="Path 1135" d="M761.528,382.954a.287.287,0,0,1-.233-.077,2.35,2.35,0,0,0-3.185,0,.275.275,0,1,1-.388-.389,2.867,2.867,0,0,1,3.923,0,.261.261,0,0,1,0,.389C761.645,382.916,761.606,382.954,761.528,382.954Z" fill="#293133"/>
  <path id="Path_1136" data-name="Path 1136" d="M757.217,392.855a.247.247,0,0,1,.233,0,1.7,1.7,0,0,0,1.437-.039,2.465,2.465,0,0,0,1.049-1.126.287.287,0,0,1,.505.272,3.223,3.223,0,0,1-1.282,1.4,2.141,2.141,0,0,1-1.942.039.27.27,0,0,1-.117-.388C757.1,392.933,757.139,392.894,757.217,392.855Z" fill="#293133"/>
  <path id="Path_1137" data-name="Path 1137" d="M749.8,383.654c.35,0,.661.544.661,1.165s-.311,1.126-.661,1.087c-.349,0-.66-.543-.66-1.164S749.451,383.616,749.8,383.654Z" fill="#293133"/>
  <path id="Path_1138" data-name="Path 1138" d="M748.983,383.576c-.077.5.272.815.855.543.116-.039,0-.194-.039-.194-.116,0-.272.039-.388.039-.233,0-.272-.194-.311-.388C749.1,383.576,748.983,383.5,748.983,383.576Z" fill="#293133"/>
  <path id="Path_1139" data-name="Path 1139" d="M759.236,383.653c.35,0,.66.544.66,1.165s-.31,1.126-.66,1.087c-.35,0-.66-.543-.66-1.164S758.886,383.615,759.236,383.653Z" fill="#293133"/>
  <path id="Path_1140" data-name="Path 1140" d="M758.421,383.576c-.078.5.272.815.854.543.117-.039,0-.194-.039-.194-.116,0-.271.039-.388.039-.233,0-.272-.194-.311-.388C758.576,383.576,758.46,383.5,758.421,383.576Z" fill="#293133"/>
  <path id="Path_1141" data-name="Path 1141" d="M752.828,389.438a.272.272,0,1,0,0-.543,1.951,1.951,0,0,1-1.67-.777c1.088-2.291,2.214-4.582,2.214-4.62a.287.287,0,1,0-.505-.272c0,.039-1.165,2.407-2.291,4.737a.247.247,0,0,0,0,.233A2.5,2.5,0,0,0,752.828,389.438Z" fill="#293133"/>
  <path id="Path_1142" data-name="Path 1142" d="M701.485,533.682a5.771,5.771,0,0,0-4.777,5.553c-.194,4.853,11.69,10.211,18.875,8.231s7.884-1.98,7.884-1.98S710.884,532.013,701.485,533.682Z" fill="#231f20"/>
  <path id="Path_1143" data-name="Path 1143" d="M726.5,541.875s-.661,4.271-4.117,3.533c-3.5-.738-9.748,3.378-13.438-2.64s11.651-8.542,11.651-8.542Z" fill="#fbc8af"/>
  <path id="Path_1144" data-name="Path 1144" d="M795.705,546.495s24.312,1.9,24.506-6.329-20.894-9.823-20.894-9.823Z" fill="#231f20"/>
  <path id="Path_1145" data-name="Path 1145" d="M713.059,536.4l8.272,8.93a7.48,7.48,0,0,0,2.175.155c.66-.155,2.563-.272,3.029-3.611C726.962,538.5,719,532.478,713.059,536.4Z" fill="#f79c80"/>
  <path id="Path_1146" data-name="Path 1146" d="M785.063,545.291s21.284,4.31,23.187-3.262-11.613-4.076-11.613-4.076Z" fill="#fbc8af"/>
  <path id="Path_1147" data-name="Path 1147" d="M785.879,545.447s6.059.97,8.816,1.009,11.3-9.047,11.3-9.047S788.637,542.845,785.879,545.447Z" fill="#f79c80"/>
  <path id="Path_1148" data-name="Path 1148" d="M787.006,445.971s14.409.311,17.166-3.65l2.291,34.363s-24.157,21.005-32.623,19.374c0,0,2.33-7.377,11.845-13.861C795.162,475.752,792.715,458.9,787.006,445.971Z" fill="#f79c80"/>
  <path id="Path_1149" data-name="Path 1149" d="M795.705,445.505s6.564,39.021-21.865,50.592c0,0,3.767-8.27,9.981-12.5,6.175-4.233,12.079-14.91,3.185-37.624A52.989,52.989,0,0,0,795.705,445.505Z" fill="#fbc8af"/>
  <path id="Path_1150" data-name="Path 1150" d="M726.962,487.749s-35.575-34.712-53.052-9.125,27.885,59.8,36.935,58.358,7.651-3.611,12.505,2.873,57.674,8.659,63.849,5.048c6.214-3.611,60.626-18.094,58.684-46.05s-15.5-39.176-39.381-22.17C782.539,493.728,759.159,509.88,726.962,487.749Z" fill="#0d385a"/>
  <path id="Path_1151" data-name="Path 1151" d="M806.463,476.722s25.827-1.864,24.04,19.491-34.254,56.649-103.968,45.661c0,0,28.9,8.814,60.665,3.068,0,0,39.847-13.629,52.2-28.694,0,0,15.108-12.191,1.049-38.749,0,0-3.34-11.493-19.885-7.96C820.561,469.5,814.891,470.7,806.463,476.722Z" fill="#293033" opacity="0.25"/>
  <path id="Path_1152" data-name="Path 1152" d="M697.019,530.925s40.313-.388,40.663-15.88-9.36-26.325-9.36-26.325,22.292,15.88,46.178,7.493-54.878,39.566-54.878,39.566-1.049-.855-4.466.349c0,0-4.311,1.514-6.719.7A51.908,51.908,0,0,1,697.019,530.925Z" fill="#293033" opacity="0.25"/>
  <path id="Path_1153" data-name="Path 1153" d="M787.161,414.016a16.179,16.179,0,0,0-1.709,3.727,23.328,23.328,0,0,0-.893,3.96,40.888,40.888,0,0,0-.233,8.154,71.486,71.486,0,0,0,1.048,8.115,75.917,75.917,0,0,0,1.9,7.921l-.311-.233c1.476,0,2.951-.078,4.427-.194s2.952-.272,4.428-.466a31.5,31.5,0,0,0,4.311-.932,11.394,11.394,0,0,0,2.019-.777,6.086,6.086,0,0,0,1.748-1.2l.544-.544.039.777.543,8.581c.194,2.873.35,5.746.505,8.58.156,2.874.35,5.747.466,8.581.156,2.874.311,5.747.427,8.62-.271-2.873-.466-5.708-.7-8.581s-.427-5.707-.66-8.581c-.194-2.873-.427-5.707-.621-8.581l-.583-8.58.583.194a7.161,7.161,0,0,1-1.9,1.359,14.314,14.314,0,0,1-2.136.815,33.257,33.257,0,0,1-4.428.971c-1.476.233-2.99.349-4.466.466s-2.991.155-4.505.155h-.233l-.078-.233a70.841,70.841,0,0,1-1.864-8.037,72.379,72.379,0,0,1-.932-8.193,38.867,38.867,0,0,1,.427-8.231,24.13,24.13,0,0,1,1.01-4A18.517,18.517,0,0,1,787.161,414.016Z" fill="#293133"/>
  <path id="Path_1154" data-name="Path 1154" d="M739.857,420.5c-.505,2.834-.971,5.63-1.4,8.464-.466,2.835-.893,5.63-1.359,8.465-.893,5.668-1.787,11.3-2.6,16.967l-1.359,8.465c-.466,2.834-.894,5.668-1.4,8.464s-1.048,5.63-1.786,8.425c-.388,1.4-.816,2.757-1.282,4.116-.505,1.359-1.087,2.64-1.709,3.922.583-1.32,1.088-2.64,1.554-4,.427-1.359.815-2.718,1.126-4.116.66-2.8,1.126-5.591,1.593-8.426.893-5.63,1.747-11.3,2.6-16.967.893-5.63,1.786-11.3,2.8-16.929.505-2.834,1.01-5.63,1.553-8.425C738.691,426.091,739.235,423.257,739.857,420.5Z" fill="#293133"/>
  <path id="Path_1155" data-name="Path 1155" d="M780.636,406.018a38.04,38.04,0,0,1,6.952.776,34.4,34.4,0,0,1,6.719,2.058,18.411,18.411,0,0,1,3.107,1.67,16.964,16.964,0,0,1,2.757,2.252,8.447,8.447,0,0,1,.583.66c.194.233.349.466.544.7l.466.738c.155.272.272.544.388.777a10.313,10.313,0,0,1,.855,3.378,10.77,10.77,0,0,0-3.263-5.9,19.3,19.3,0,0,0-5.748-3.65,32.029,32.029,0,0,0-3.223-1.2c-1.088-.35-2.214-.66-3.34-.971A65.292,65.292,0,0,0,780.636,406.018Z" fill="#293133"/>
  <path id="Path_1156" data-name="Path 1156" d="M787.005,445.971a51.728,51.728,0,0,1,2.408,6.329q.525,1.631.932,3.261c.272,1.087.544,2.213.738,3.3a35.921,35.921,0,0,1,.738,6.756,19.665,19.665,0,0,1-.932,6.718,19.094,19.094,0,0,0,.427-3.34,31.95,31.95,0,0,0-.038-3.339,54.485,54.485,0,0,0-.894-6.639c-.427-2.213-.932-4.388-1.514-6.562-.272-1.087-.583-2.174-.894-3.262C787.666,448.145,787.355,447.058,787.005,445.971Z" fill="#293133"/>
  <path id="Path_1157" data-name="Path 1157" d="M719.661,535.779l8.117-5.4,8.117-5.359,16.273-10.677C757.606,510.813,763,507.2,768.4,503.63c2.68-1.786,5.4-3.611,8.04-5.475,1.32-.932,2.68-1.864,3.961-2.834.661-.466,1.282-.971,1.942-1.476.311-.272.622-.505.932-.776a4.3,4.3,0,0,0,.427-.428,1.47,1.47,0,0,0,.35-.5,2.188,2.188,0,0,1-.311.5,2.218,2.218,0,0,1-.427.428c-.272.271-.582.543-.893.815-.622.544-1.243,1.048-1.864,1.553-1.282,1.01-2.564,1.98-3.884,2.951-2.6,1.9-5.282,3.8-7.923,5.63-5.321,3.688-10.758,7.3-16.156,10.872q-8.157,5.3-16.351,10.561l-8.234,5.164C725.215,532.362,722.457,534.109,719.661,535.779Z" fill="#fff"/>
  <path id="Path_1158" data-name="Path 1158" d="M670.1,488.72a23.232,23.232,0,0,1,1.165-4.854,28.757,28.757,0,0,1,2.02-4.62,21.423,21.423,0,0,1,6.641-7.571,20.2,20.2,0,0,1,4.622-2.213l1.242-.35,1.243-.233c.427-.077.855-.116,1.282-.155s.854-.078,1.282-.078a25.384,25.384,0,0,1,9.787,1.864,33.339,33.339,0,0,0-9.749-1.048,18.275,18.275,0,0,0-9.049,3.067,19.039,19.039,0,0,0-3.651,3.184,26.319,26.319,0,0,0-2.912,3.921A34.955,34.955,0,0,0,670.1,488.72Z" fill="#fff"/>
  <path id="Path_1159" data-name="Path 1159" d="M752.984,387.031a4.555,4.555,0,1,1,5.437,3.455A4.508,4.508,0,0,1,752.984,387.031Zm.66-.117a3.9,3.9,0,1,0,2.951-4.659A3.908,3.908,0,0,0,753.644,386.914Z" fill="#fff"/>
  <path id="Path_1160" data-name="Path 1160" d="M761.722,385.671h.156a8.655,8.655,0,0,1,5.437.505.4.4,0,0,0,.505-.117c.116-.155.039-.349-.156-.466a9.642,9.642,0,0,0-6.019-.582.31.31,0,0,0-.233.427C761.412,385.554,761.567,385.632,761.722,385.671Z" fill="#fff"/>
  <path id="Path_1161" data-name="Path 1161" d="M742.808,386.681a4.556,4.556,0,1,1,5.437,3.456A4.567,4.567,0,0,1,742.808,386.681Zm.66-.155a3.9,3.9,0,1,0,2.952-4.66A3.91,3.91,0,0,0,743.468,386.526Z" fill="#fff"/>
  <path id="Path_1162" data-name="Path 1162" d="M753.489,385.167a.208.208,0,0,0,.155-.116.316.316,0,0,0-.039-.466,2.1,2.1,0,0,0-2.33-.156.34.34,0,0,0,.35.583,1.461,1.461,0,0,1,1.553.078A.3.3,0,0,0,753.489,385.167Z" fill="#fff"/>
  <path id="Path_1163" data-name="Path 1163" d="M349.345,493.417c12.505-16.385,30.875-27.451,49.673-35.372a186.23,186.23,0,0,1,99.191-12.5c2.447.349,3.495-3.378,1.049-3.727a191.362,191.362,0,0,0-66.995,1.9c-21.244,4.426-42.255,12.386-60.431,24.267a102.586,102.586,0,0,0-25.789,23.491C344.49,493.456,347.869,495.4,349.345,493.417Z" fill="#fff"/>
  <path id="Path_1164" data-name="Path 1164" d="M347.441,475.246c15.419-20.307,32.236-41.312,56.2-51.757,2.292-1.01.311-4.349-1.941-3.339-24.585,10.755-41.79,32.343-57.6,53.155C342.548,475.246,345.927,477.187,347.441,475.246Z" fill="#fff"/>
  <path id="Path_1165" data-name="Path 1165" d="M232.171,252.61A52.577,52.577,0,0,0,257.027,208c0-2.485-3.884-2.485-3.884,0a48.612,48.612,0,0,1-22.914,41.273C228.093,250.552,230.035,253.891,232.171,252.61Z" fill="#fff"/>
  <path id="Path_1166" data-name="Path 1166" d="M302.817,209.318c-1.165,12.153-9.438,22.559-18.875,29.7a104.139,104.139,0,0,1-32.818,16.385,94.424,94.424,0,0,1-20.234,3.766c-2.486.194-2.486,4.077,0,3.883a103.276,103.276,0,0,0,37.75-10.367c11.535-5.552,22.836-12.93,30.371-23.529a41.3,41.3,0,0,0,7.729-19.88C306.934,206.833,303.05,206.833,302.817,209.318Z" fill="#fff"/>
</svg>
