<svg xmlns="http://www.w3.org/2000/svg" width="42.81" height="51.372" viewBox="0 0 42.81 51.372">
  <path id="Path_551" data-name="Path 551" d="M10.247,35.588c-.353-1.07.081-1.971,1.4-2.451l6.954-2.472-.287,2.2a21.065,21.065,0,0,0-.191,3.367c-.535.167-2.344.726-4.163,1.182A2.984,2.984,0,0,1,10.247,35.588Zm3.735,4.1c-.987.357-1.31,1.027-1.047,1.828a2.221,2.221,0,0,0,2.77,1.359c1.3-.323,3.014-.848,3.641-1.042a16.269,16.269,0,0,1-1.025-3.551ZM14.4,17.124h5.657l.274-2.14H14.4ZM48.643,4.281V23.545a4.283,4.283,0,0,1-4.281,4.281H40.1l.032.043a23.129,23.129,0,0,1-.475,3.119c-.965,4.589-3.5,10.964-1.777,18.019a122.141,122.141,0,0,0-12.826,2.365c-.584-8.695-4.85-10.58-3.861-18.13,1.16-8.855,1.807-13.83,2.56-19.81a2.928,2.928,0,0,1,2.862-2.8,2.7,2.7,0,0,1,2.68,2.924c.045,7.07.231,14.112.694,15.825.312,1.156,2.327,1.366,2.327-1.1l0-4.743H43.292a1.071,1.071,0,0,0,1.07-1.07v-9.63H32.444A5.833,5.833,0,0,0,26.62,7.425h0a6.074,6.074,0,0,0-6.006,5.418h-10.5v9.632a1.071,1.071,0,0,0,1.07,1.07h8.042l-.559,4.281H10.114a4.283,4.283,0,0,1-4.281-4.281V4.281A4.283,4.283,0,0,1,10.114,0H44.362A4.283,4.283,0,0,1,48.643,4.281Zm-4.281,1.07a1.071,1.071,0,0,0-1.07-1.07H11.185a1.071,1.071,0,0,0-1.07,1.07v1.07H44.362ZM14.4,21.4H19.5l.276-2.141H14.4Zm25.686-6.421H33.66v2.14h6.421Z" transform="translate(-5.833)" fill="#2b2b2b"/>
</svg>
