<svg xmlns="http://www.w3.org/2000/svg" width="51.007" height="51.007" viewBox="0 0 51.007 51.007">
  <path id="Path_550" data-name="Path 550" d="M28.485,51.007H0V4.251H6.376c2.616,0,4.635-2.3,6.376-4.251h17C31.5,1.947,33.52,4.251,36.13,4.251h6.376V23.7a16.09,16.09,0,0,0-3.188-.319l-1.063.034V8.5h-8.5L25.5,12.752H17.221L12.752,8.5h-8.5V46.756H25.219A16,16,0,0,0,28.485,51.007ZM39.318,27.629A11.689,11.689,0,1,1,27.629,39.318,11.695,11.695,0,0,1,39.318,27.629Zm0,4.251a7.438,7.438,0,1,1-7.438,7.438A7.443,7.443,0,0,1,39.318,31.879Zm5.313,8.5H38.255V34H40.38v4.251h4.251Zm-32.2-8.612L10.2,29.677,8.5,31.426,12.463,35.2l6.665-6.784L17.4,26.7ZM25.5,34H21.253V31.879H25.5Zm4.251-4.251h-8.5V27.629h8.5ZM12.431,21.2,10.2,19.11,8.5,20.86l3.961,3.774,6.665-6.784L17.4,16.133Zm17.323,2.178h-8.5V21.253h8.5Zm0-4.251h-8.5V17h8.5ZM19.127,6.376a2.125,2.125,0,1,0,2.125-2.125A2.127,2.127,0,0,0,19.127,6.376Z" fill="#2b2b2b" fill-rule="evenodd"/>
</svg>
