<svg xmlns="http://www.w3.org/2000/svg" width="50.621" height="50.621" viewBox="0 0 50.621 50.621"><defs><style>.a{fill:#2b2b2b;}</style></defs><path class="a" d="M23.2,16.874H21.092V12.655H23.2v2.109H27.42v2.109H25.311v2.109H23.2ZM27.42,42.184V40.075H25.311v2.109ZM25.311,10.546V8.437H21.092v2.109H23.2v2.109h2.109ZM42.184,8.437V21.092H40.075V18.983H31.638V8.437Zm-2.109,8.437V10.546H33.748v6.328ZM10.546,21.092H8.437V23.2h4.218V21.092Zm0,6.328h2.109v2.109h2.109V23.2H12.655v2.109H8.437v4.218h2.109Zm10.546,2.109v4.218H23.2V29.529ZM29.529,8.437H27.42v6.328h2.109Zm0,10.546V16.874H27.42v2.109Zm6.328-4.218h2.109V12.655H35.857ZM14.765,12.655H12.655v2.109h2.109Zm4.218-4.218V18.983H8.437V8.437Zm-2.109,2.109H10.546v6.328h6.328ZM35.857,21.092V23.2H33.748V21.092H29.529V23.2H27.42V21.092H21.092V18.983H18.983v2.109H16.874V23.2h2.109V27.42h2.109V25.311H23.2v4.218h2.109V25.311h6.328V27.42H27.42v2.109h4.218v2.109h2.109V25.311h2.109V27.42h2.109v4.218h2.109V29.529h2.109V27.42H40.075V25.311H37.966V23.2h2.109V21.092Zm-23.2,16.874h2.109V35.857H12.655ZM8.437,31.638H18.983V42.184H8.437Zm2.109,8.437h6.328V33.748H10.546Zm25.311-6.328V31.638H33.748v2.109Zm0,2.109H33.748v2.109H31.638V35.857H29.529V33.748h2.109V31.638H27.42V29.529H25.311v4.218H23.2v2.109H21.092v6.328H23.2V40.075h2.109V37.966h4.218v4.218h2.109V40.075h2.109v2.109h4.218V40.075h2.109V37.966H35.857ZM16.874,29.529h2.109V27.42H16.874Zm21.092,4.218v2.109h2.109v2.109h2.109V31.638H40.075v2.109Zm4.218,8.437V40.075H40.075v2.109Zm0-16.874V23.2H40.075v2.109ZM37.966,4.218H46.4v8.437h4.218V0H37.966ZM4.218,12.655V4.218h8.437V0H0V12.655ZM12.655,46.4H4.218V37.966H0V50.621H12.655ZM46.4,37.966V46.4H37.966v4.218H50.621V37.966Z"/></svg>