<svg xmlns="http://www.w3.org/2000/svg" xmlns:xlink="http://www.w3.org/1999/xlink" width="213" height="64.847" viewBox="0 0 213 64.847">
  <defs>
    <style>
      .cls-1 {
        fill: #ffcb0c;
      }

      .cls-2 {
        fill: #787878;
        font-size: 12px;
        font-family: SegoeUI-Light, Segoe UI;
        font-weight: 300;
      }

      .cls-3, .cls-7 {
        fill: #2b2b2b;
      }

      .cls-3 {
        font-size: 22px;
        font-family: SegoeUI, Segoe UI;
      }

      .cls-4 {
        clip-path: url(#clip-path);
      }

      .cls-5 {
        fill: #ffd641;
      }

      .cls-6 {
        fill: #fff;
      }
    </style>
    <clipPath id="clip-path">
      <rect id="Rectangle_86" data-name="Rectangle 86" class="cls-1" width="64.847" height="64.847" rx="4.457"/>
    </clipPath>
  </defs>
  <g id="Group_131" data-name="Group 131" transform="translate(-31 -26.577)">
    <g id="Group_130" data-name="Group 130">
      <g id="Group_128" data-name="Group 128">
        <g id="Group_127" data-name="Group 127">
          <text id="Restaurant_Admin" data-name="Restaurant Admin" class="cls-2" transform="translate(109 79)"><tspan x="0" y="0">Restaurant Admin</tspan></text>
          <g id="Group_129" data-name="Group 129">
            <text id="Express_Menu" data-name="Express Menu" class="cls-3" transform="translate(109 57)"><tspan x="0" y="0">Express Menu</tspan></text>
          </g>
          <g id="Group_83" data-name="Group 83" transform="translate(31 26.577)">
            <rect id="Rectangle_85" data-name="Rectangle 85" class="cls-1" width="64.847" height="64.847" rx="4.457"/>
            <g id="Group_82" data-name="Group 82" class="cls-4">
              <g id="Mask_Group_1" data-name="Mask Group 1" transform="translate(30.944 17.851)">
                <path id="Path_126" data-name="Path 126" class="cls-5" d="M776.038,615.316l27.73,23.809v37.36l-39.15-27.292,12.786-15.66Z" transform="translate(-764.618 -615.316)"/>
              </g>
            </g>
          </g>
        </g>
        <path id="Path_125" data-name="Path 125" class="cls-6" d="M769.754,609.214a22.726,22.726,0,0,0-6.979,44.154l5.636,9.641a1.546,1.546,0,0,0,2.146.55,1.575,1.575,0,0,0,.538-.55l5.639-9.635a22.368,22.368,0,0,0,10.713-7.868,22.988,22.988,0,0,0-4.346-31.723A21.837,21.837,0,0,0,769.754,609.214Z" transform="translate(-713.545 -575.145)"/>
      </g>
      <path id="Path_1167" data-name="Path 1167" class="cls-7" d="M785.6,633.914h-.912a14.064,14.064,0,0,0-13.431-13.433v-1.806h.9a.6.6,0,0,0,0-1.2h-2.988a.6.6,0,0,0,0,1.2h.9v1.82a14.072,14.072,0,0,0-8.031,2.945h-2.555a.6.6,0,1,0,0,1.2h2.745l.193-.039a.51.51,0,0,0,.117-.061c.022-.01.042-.02.063-.032a12.7,12.7,0,0,1,8.06-2.838,12.862,12.862,0,0,1,12.837,12.253H757.818a13,13,0,0,1,.3-2.244.38.38,0,0,0,0-.065c.005-.022.01-.044.014-.066a.487.487,0,0,0-.01-.054.52.52,0,0,0-.024-.114.582.582,0,0,0-.041-.107.685.685,0,0,0-.063-.093.6.6,0,0,0-.078-.083.547.547,0,0,0-.092-.061.594.594,0,0,0-.11-.051l-.049-.022a.379.379,0,0,1-.131-.014h-7.782a.6.6,0,1,0,0,1.2h7.057a14.2,14.2,0,0,0-.185,1.777h-.913a.6.6,0,1,0,0,1.2H785.6a.6.6,0,1,0,0-1.2Z" transform="translate(-712.461 -569.384)"/>
    </g>
    <path id="Path_1168" data-name="Path 1168" d="M751.691,624.394h5.317a.6.6,0,1,0,0-1.2h-5.317a.6.6,0,0,0,0,1.2Z" transform="translate(-711.109 -565.393)"/>
  </g>
</svg>
