<svg xmlns="http://www.w3.org/2000/svg" xmlns:xlink="http://www.w3.org/1999/xlink" width="332.563" height="56.923" viewBox="0 0 332.563 56.923"><defs><style>.a{fill:#2b2b2b;}.b{clip-path:url(#a);}</style><clipPath id="a"><rect class="a" width="52.614" height="52.614"/></clipPath></defs><g transform="translate(-20.897 -10.14)"><path class="a" d="M111.322,51.228v2.336H100.068v-15h10.954V40.9h-8.167v3.9H110.1v2.294h-7.245v4.137Zm9.928,2.336L118.312,49.6l-2.958,3.966H112.4l4.459-5.809-4.266-5.638h2.98l2.808,3.751,2.808-3.751h2.894l-4.287,5.595,4.48,5.852Zm11.345-11.575a6.016,6.016,0,0,1,2.98.729,5.243,5.243,0,0,1,2.079,2.058,6.131,6.131,0,0,1,.75,3.065,6.252,6.252,0,0,1-.75,3.087,5.243,5.243,0,0,1-2.079,2.058,6.016,6.016,0,0,1-2.98.729,4.621,4.621,0,0,1-3.665-1.543v5.552h-2.679V42.118H128.8v1.5a4.158,4.158,0,0,1,1.629-1.222A5.613,5.613,0,0,1,132.594,41.989Zm-.3,9.432a3.2,3.2,0,0,0,2.422-.986,3.969,3.969,0,0,0,0-5.187,3.2,3.2,0,0,0-2.422-.986,3.382,3.382,0,0,0-1.736.45,3.1,3.1,0,0,0-1.222,1.243,4.177,4.177,0,0,0,0,3.773,3.252,3.252,0,0,0,1.222,1.265A3.515,3.515,0,0,0,132.294,51.421Zm12.876-9.432a5.507,5.507,0,0,1,3.858,1.222,4.626,4.626,0,0,1,1.35,3.644v6.709H147.85V52.171a3.173,3.173,0,0,1-1.415,1.158A6.25,6.25,0,0,1,142,53.285a3.663,3.663,0,0,1-1.5-1.222,3.2,3.2,0,0,1-.514-1.779,3.013,3.013,0,0,1,1.136-2.465,5.7,5.7,0,0,1,3.623-.943H147.7V46.7a2.327,2.327,0,0,0-.729-1.843,3.064,3.064,0,0,0-2.122-.643,6.262,6.262,0,0,0-1.908.3,4.679,4.679,0,0,0-1.565.836l-1.05-1.951a6.507,6.507,0,0,1,2.165-1.05A9.637,9.637,0,0,1,145.17,41.989Zm-.364,9.775a3.464,3.464,0,0,0,1.779-.45,2.544,2.544,0,0,0,1.115-1.329V48.655h-2.765q-2.315,0-2.315,1.522a1.366,1.366,0,0,0,.579,1.158A2.654,2.654,0,0,0,144.806,51.764Zm15.508-9.775a4.784,4.784,0,0,1,3.473,1.265A4.991,4.991,0,0,1,165.093,47v6.559h-2.679V47.348a3.173,3.173,0,0,0-.707-2.251,2.6,2.6,0,0,0-2.015-.772,3.072,3.072,0,0,0-2.336.9,3.505,3.505,0,0,0-.857,2.551v5.788h-2.679V42.118h2.551V43.6a4.18,4.18,0,0,1,1.672-1.2A6.013,6.013,0,0,1,160.313,41.989Zm19.495-4.33V53.564h-2.572V52.085a4.138,4.138,0,0,1-1.651,1.222,5.46,5.46,0,0,1-2.144.407,6.09,6.09,0,0,1-2.98-.729,5.272,5.272,0,0,1-2.058-2.058,6.242,6.242,0,0,1-.75-3.087,6.121,6.121,0,0,1,.75-3.065,5.272,5.272,0,0,1,2.058-2.058,6.09,6.09,0,0,1,2.98-.729,5.445,5.445,0,0,1,2.079.386,4.187,4.187,0,0,1,1.608,1.158V37.659Zm-6.045,13.762a3.514,3.514,0,0,0,1.736-.429,3.252,3.252,0,0,0,1.222-1.265,4.177,4.177,0,0,0,0-3.773,3.1,3.1,0,0,0-1.222-1.243,3.574,3.574,0,0,0-3.473,0,3.1,3.1,0,0,0-1.222,1.243,4.177,4.177,0,0,0,0,3.773,3.252,3.252,0,0,0,1.222,1.265A3.514,3.514,0,0,0,173.763,51.421Zm26.191-9.3L194.6,54.486a5.672,5.672,0,0,1-1.822,2.615,4.319,4.319,0,0,1-2.594.772,5.325,5.325,0,0,1-1.693-.279,3.746,3.746,0,0,1-1.372-.772l1.072-1.972a2.951,2.951,0,0,0,.9.579,2.87,2.87,0,0,0,1.072.214,1.781,1.781,0,0,0,1.158-.364,3.149,3.149,0,0,0,.857-1.222l.193-.45-4.994-11.489h2.787l3.6,8.467,3.623-8.467Zm6.506,11.6a6.494,6.494,0,0,1-3.13-.75,5.56,5.56,0,0,1-2.186-2.079,6.025,6.025,0,0,1-.772-3.044,5.908,5.908,0,0,1,.772-3.022,5.56,5.56,0,0,1,2.186-2.079,6.947,6.947,0,0,1,6.281,0,5.42,5.42,0,0,1,2.165,2.079,5.789,5.789,0,0,1,.793,3.022,5.9,5.9,0,0,1-.793,3.044,5.42,5.42,0,0,1-2.165,2.079A6.544,6.544,0,0,1,206.46,53.714Zm0-2.294a3.274,3.274,0,0,0,2.444-.986,3.969,3.969,0,0,0,0-5.187,3.521,3.521,0,0,0-4.887,0,4.038,4.038,0,0,0,0,5.187A3.274,3.274,0,0,0,206.46,51.421Zm19.753-9.3V53.564h-2.551V52.107a4.366,4.366,0,0,1-1.608,1.2,5.288,5.288,0,0,1-2.079.407,5.041,5.041,0,0,1-3.623-1.265,5.1,5.1,0,0,1-1.308-3.794V42.118h2.679v6.173a3.4,3.4,0,0,0,.686,2.315,2.607,2.607,0,0,0,1.993.75,2.987,2.987,0,0,0,2.272-.879,3.584,3.584,0,0,0,.857-2.572V42.118Zm6.059,1.672q1.158-1.8,4.073-1.8V44.54a3.4,3.4,0,0,0-.622-.064,3.214,3.214,0,0,0-2.444.922,3.6,3.6,0,0,0-.879,2.615v5.552h-2.679V42.118h2.551Zm18.719-1.8a6.013,6.013,0,0,1,2.98.729,5.231,5.231,0,0,1,2.079,2.058,6.121,6.121,0,0,1,.75,3.065,6.241,6.241,0,0,1-.75,3.087,5.231,5.231,0,0,1-2.079,2.058,6.013,6.013,0,0,1-2.98.729,5.62,5.62,0,0,1-2.165-.407,4.165,4.165,0,0,1-1.629-1.222v1.479h-2.551V37.659h2.679v5.852a4.534,4.534,0,0,1,1.608-1.136A5.388,5.388,0,0,1,250.991,41.989Zm-.3,9.432a3.2,3.2,0,0,0,2.422-.986,3.969,3.969,0,0,0,0-5.187,3.2,3.2,0,0,0-2.422-.986,3.382,3.382,0,0,0-1.736.45,3.1,3.1,0,0,0-1.222,1.243,4.177,4.177,0,0,0,0,3.773,3.252,3.252,0,0,0,1.222,1.265A3.514,3.514,0,0,0,250.691,51.421Zm19.732-9.3V53.564h-2.551V52.107a4.366,4.366,0,0,1-1.608,1.2,5.288,5.288,0,0,1-2.079.407,5.041,5.041,0,0,1-3.623-1.265,5.1,5.1,0,0,1-1.308-3.794V42.118h2.679v6.173a3.4,3.4,0,0,0,.686,2.315,2.607,2.607,0,0,0,1.993.75,2.987,2.987,0,0,0,2.272-.879,3.584,3.584,0,0,0,.857-2.572V42.118Zm7.045,11.6a10.25,10.25,0,0,1-2.722-.364,6.856,6.856,0,0,1-2.122-.922l1.029-2.036a6.864,6.864,0,0,0,1.843.836,8.075,8.075,0,0,0,2.144.3q2.4,0,2.4-1.265a.847.847,0,0,0-.622-.836,10.259,10.259,0,0,0-1.951-.45,16.318,16.318,0,0,1-2.315-.493,3.67,3.67,0,0,1-1.543-.965,2.792,2.792,0,0,1-.643-1.951,3.029,3.029,0,0,1,1.35-2.594A6.2,6.2,0,0,1,278,41.989a10.218,10.218,0,0,1,2.358.279,6.415,6.415,0,0,1,1.929.707l-1.029,2.036a6.345,6.345,0,0,0-3.28-.857,3.607,3.607,0,0,0-1.8.364,1.033,1.033,0,0,0-.6.922.95.95,0,0,0,.643.922,11.431,11.431,0,0,0,2.036.493,15.61,15.61,0,0,1,2.251.493,3.446,3.446,0,0,1,1.5.943,2.6,2.6,0,0,1,.643,1.886,2.986,2.986,0,0,1-1.393,2.572A6.568,6.568,0,0,1,277.469,53.714Zm7.495-11.6h2.679V53.564h-2.679Zm1.35-1.886a1.747,1.747,0,0,1-1.222-.45,1.541,1.541,0,0,1-.493-1.158,1.474,1.474,0,0,1,.493-1.136,1.7,1.7,0,0,1,1.222-.472,1.743,1.743,0,0,1,1.222.45,1.382,1.382,0,0,1,.493,1.093,1.631,1.631,0,0,1-.493,1.2A1.651,1.651,0,0,1,286.314,40.231Zm11.341,1.758a4.784,4.784,0,0,1,3.473,1.265A4.991,4.991,0,0,1,302.435,47v6.559h-2.679V47.348a3.173,3.173,0,0,0-.707-2.251,2.6,2.6,0,0,0-2.015-.772,3.072,3.072,0,0,0-2.336.9,3.505,3.505,0,0,0-.857,2.551v5.788H291.16V42.118h2.551V43.6a4.18,4.18,0,0,1,1.672-1.2A6.013,6.013,0,0,1,297.655,41.989ZM316.7,47.905q0,.279-.043.793h-8.981a3.167,3.167,0,0,0,1.222,2.015,4.129,4.129,0,0,0,2.487.729,4.173,4.173,0,0,0,3.108-1.243l1.436,1.651a4.843,4.843,0,0,1-1.951,1.393,7.73,7.73,0,0,1-5.98-.279,5.492,5.492,0,0,1-2.229-2.079,6.383,6.383,0,0,1-.021-6.045,5.451,5.451,0,0,1,2.122-2.1,6.16,6.16,0,0,1,3.044-.75,5.88,5.88,0,0,1,2.98.75,5.065,5.065,0,0,1,2.058,2.079A6.175,6.175,0,0,1,316.7,47.905Zm-5.788-3.773a3.245,3.245,0,0,0-2.186.772,3.174,3.174,0,0,0-1.072,2.015h6.495A3.163,3.163,0,0,0,313.1,44.9,3.2,3.2,0,0,0,310.912,44.133Zm11.9,9.582a10.255,10.255,0,0,1-2.722-.364,6.856,6.856,0,0,1-2.122-.922l1.029-2.036a6.863,6.863,0,0,0,1.843.836,8.081,8.081,0,0,0,2.144.3q2.4,0,2.4-1.265a.845.845,0,0,0-.622-.836,10.239,10.239,0,0,0-1.951-.45,16.318,16.318,0,0,1-2.315-.493,3.67,3.67,0,0,1-1.543-.965,2.792,2.792,0,0,1-.643-1.951,3.029,3.029,0,0,1,1.35-2.594,6.2,6.2,0,0,1,3.687-.986,10.212,10.212,0,0,1,2.358.279,6.414,6.414,0,0,1,1.929.707L326.6,45.011a6.344,6.344,0,0,0-3.28-.857,3.612,3.612,0,0,0-1.8.364,1.035,1.035,0,0,0-.6.922.95.95,0,0,0,.643.922,11.453,11.453,0,0,0,2.036.493,15.61,15.61,0,0,1,2.251.493,3.44,3.44,0,0,1,1.5.943A2.6,2.6,0,0,1,328,50.177,2.983,2.983,0,0,1,326.6,52.75,6.568,6.568,0,0,1,322.81,53.714Zm11.031,0a10.255,10.255,0,0,1-2.722-.364A6.856,6.856,0,0,1,329,52.428l1.029-2.036a6.864,6.864,0,0,0,1.843.836,8.081,8.081,0,0,0,2.144.3q2.4,0,2.4-1.265a.845.845,0,0,0-.622-.836,10.239,10.239,0,0,0-1.951-.45,16.318,16.318,0,0,1-2.315-.493,3.67,3.67,0,0,1-1.543-.965,2.792,2.792,0,0,1-.643-1.951,3.029,3.029,0,0,1,1.35-2.594,6.2,6.2,0,0,1,3.687-.986,10.212,10.212,0,0,1,2.358.279,6.415,6.415,0,0,1,1.929.707l-1.029,2.036a6.344,6.344,0,0,0-3.28-.857,3.612,3.612,0,0,0-1.8.364,1.035,1.035,0,0,0-.6.922.95.95,0,0,0,.643.922,11.453,11.453,0,0,0,2.036.493,15.61,15.61,0,0,1,2.251.493,3.44,3.44,0,0,1,1.5.943,2.6,2.6,0,0,1,.643,1.886,2.983,2.983,0,0,1-1.393,2.572A6.568,6.568,0,0,1,333.841,53.714Z" transform="translate(14.432 9.19)"/><g class="b" transform="translate(20.897 10.14)"><path class="a" d="M19.4,52.614H6.25V39.461H19.4Zm17.538-19.73H23.788v19.73H36.942ZM54.48,24.115H41.326v28.5H54.48ZM54.48,0,41.326,2.677l3.762,3.744L30.071,21.182,23.492,14.6,6.3,31.693,9.394,34.8l14.09-14.009,6.557,6.561L48.192,9.517l3.654,3.639L54.48,0Z" transform="translate(-4.058)"/></g></g></svg>