<svg xmlns="http://www.w3.org/2000/svg" width="298.255" height="57.486" viewBox="0 0 298.255 57.486"><defs><style>.a{fill:#2b2b2b;}</style></defs><g transform="translate(-468.015 -17.751)"><path class="a" d="M554.068,32.559h2.787V45.206H564.7v2.358H554.068Zm17.615,15.155a6.494,6.494,0,0,1-3.13-.75,5.56,5.56,0,0,1-2.186-2.079,6.025,6.025,0,0,1-.772-3.044,5.908,5.908,0,0,1,.772-3.022,5.56,5.56,0,0,1,2.186-2.079,6.947,6.947,0,0,1,6.281,0A5.421,5.421,0,0,1,577,38.819a5.789,5.789,0,0,1,.793,3.022A5.9,5.9,0,0,1,577,44.885a5.421,5.421,0,0,1-2.165,2.079A6.543,6.543,0,0,1,571.683,47.714Zm0-2.294a3.274,3.274,0,0,0,2.444-.986,3.969,3.969,0,0,0,0-5.187,3.521,3.521,0,0,0-4.887,0,4.038,4.038,0,0,0,0,5.187A3.274,3.274,0,0,0,571.683,45.421Zm26.213-9.3-4.223,11.447H591.1l-2.958-7.888-3,7.888h-2.572l-4.2-11.447H580.9l3.022,8.446,3.151-8.446h2.251l3.087,8.488,3.108-8.488Zm18.656,3.644a3.937,3.937,0,0,1,1.972,1.372,3.745,3.745,0,0,1,.729,2.358,3.5,3.5,0,0,1-1.5,3.022,7.6,7.6,0,0,1-4.373,1.05h-7.46v-15h7.031a6.852,6.852,0,0,1,4.094,1.05,3.314,3.314,0,0,1,1.436,2.851,3.758,3.758,0,0,1-.514,1.972A3.522,3.522,0,0,1,616.551,39.762Zm-7.845-5.016v4.137h3.944a4.02,4.02,0,0,0,2.229-.514,1.751,1.751,0,0,0,.793-1.543,1.718,1.718,0,0,0-.793-1.543,3.892,3.892,0,0,0-2.229-.536Zm4.5,10.632q3.236,0,3.237-2.165t-3.237-2.165h-4.5v4.33Zm19.843-9.26V47.564H630.5V46.107a4.366,4.366,0,0,1-1.608,1.2,5.288,5.288,0,0,1-2.079.407,5.039,5.039,0,0,1-3.623-1.265,5.093,5.093,0,0,1-1.307-3.794V36.118h2.679v6.173a3.4,3.4,0,0,0,.686,2.315,2.608,2.608,0,0,0,1.994.75,2.987,2.987,0,0,0,2.272-.879,3.584,3.584,0,0,0,.857-2.572V36.118Zm7.045,11.6a10.244,10.244,0,0,1-2.722-.364,6.835,6.835,0,0,1-2.122-.922l1.029-2.036a6.85,6.85,0,0,0,1.843.836,8.075,8.075,0,0,0,2.144.3q2.4,0,2.4-1.265a.847.847,0,0,0-.622-.836,10.257,10.257,0,0,0-1.951-.45,16.316,16.316,0,0,1-2.315-.493,3.658,3.658,0,0,1-1.543-.965,2.792,2.792,0,0,1-.643-1.951,3.029,3.029,0,0,1,1.35-2.594,6.193,6.193,0,0,1,3.687-.986,10.223,10.223,0,0,1,2.358.279,6.434,6.434,0,0,1,1.929.707l-1.029,2.036a6.349,6.349,0,0,0-3.28-.857,3.607,3.607,0,0,0-1.8.364,1.033,1.033,0,0,0-.6.922.95.95,0,0,0,.643.922,11.408,11.408,0,0,0,2.036.493,15.672,15.672,0,0,1,2.251.493,3.452,3.452,0,0,1,1.5.943,2.6,2.6,0,0,1,.643,1.886,2.986,2.986,0,0,1-1.393,2.572A6.572,6.572,0,0,1,640.1,47.714Zm7.495-11.6h2.679V47.564h-2.679Zm1.35-1.886a1.743,1.743,0,0,1-1.222-.45,1.541,1.541,0,0,1-.493-1.158,1.473,1.473,0,0,1,.493-1.136,1.7,1.7,0,0,1,1.222-.472,1.743,1.743,0,0,1,1.222.45,1.385,1.385,0,0,1,.493,1.093,1.635,1.635,0,0,1-.493,1.2A1.654,1.654,0,0,1,648.941,34.231Zm11.34,1.758a4.781,4.781,0,0,1,3.473,1.265A4.987,4.987,0,0,1,665.062,41v6.559h-2.679V41.348a3.173,3.173,0,0,0-.707-2.251,2.6,2.6,0,0,0-2.015-.772,3.074,3.074,0,0,0-2.336.9,3.51,3.51,0,0,0-.857,2.551v5.788h-2.679V36.118h2.551V37.6a4.193,4.193,0,0,1,1.672-1.2A6.02,6.02,0,0,1,660.282,35.989Zm19.044,5.916c0,.186-.014.45-.043.793H670.3a3.176,3.176,0,0,0,1.222,2.015,4.549,4.549,0,0,0,5.595-.514l1.436,1.651a4.837,4.837,0,0,1-1.951,1.393,7.73,7.73,0,0,1-5.981-.279,5.5,5.5,0,0,1-2.229-2.079,6.383,6.383,0,0,1-.021-6.045,5.452,5.452,0,0,1,2.122-2.1,6.162,6.162,0,0,1,3.044-.75,5.878,5.878,0,0,1,2.98.75,5.054,5.054,0,0,1,2.058,2.079A6.165,6.165,0,0,1,679.326,41.905Zm-5.788-3.773a3.245,3.245,0,0,0-2.186.772,3.179,3.179,0,0,0-1.072,2.015h6.495a3.154,3.154,0,0,0-1.05-2.015A3.193,3.193,0,0,0,673.538,38.133Zm11.9,9.582a10.249,10.249,0,0,1-2.722-.364,6.857,6.857,0,0,1-2.122-.922l1.029-2.036a6.863,6.863,0,0,0,1.843.836,8.075,8.075,0,0,0,2.144.3q2.4,0,2.4-1.265a.847.847,0,0,0-.622-.836,10.259,10.259,0,0,0-1.951-.45,16.319,16.319,0,0,1-2.315-.493,3.67,3.67,0,0,1-1.543-.965,2.792,2.792,0,0,1-.643-1.951,3.029,3.029,0,0,1,1.351-2.594,6.2,6.2,0,0,1,3.687-.986,10.218,10.218,0,0,1,2.358.279,6.414,6.414,0,0,1,1.929.707l-1.029,2.036a6.345,6.345,0,0,0-3.28-.857,3.607,3.607,0,0,0-1.8.364,1.033,1.033,0,0,0-.6.922.95.95,0,0,0,.643.922,11.431,11.431,0,0,0,2.036.493,15.609,15.609,0,0,1,2.251.493,3.445,3.445,0,0,1,1.5.943,2.6,2.6,0,0,1,.643,1.886,2.986,2.986,0,0,1-1.393,2.572A6.569,6.569,0,0,1,685.437,47.714Zm11.031,0a10.25,10.25,0,0,1-2.722-.364,6.856,6.856,0,0,1-2.122-.922l1.029-2.036a6.863,6.863,0,0,0,1.844.836,8.075,8.075,0,0,0,2.144.3q2.4,0,2.4-1.265a.847.847,0,0,0-.622-.836,10.259,10.259,0,0,0-1.951-.45,16.316,16.316,0,0,1-2.315-.493,3.67,3.67,0,0,1-1.543-.965,2.792,2.792,0,0,1-.643-1.951,3.029,3.029,0,0,1,1.35-2.594A6.2,6.2,0,0,1,697,35.989a10.219,10.219,0,0,1,2.358.279,6.414,6.414,0,0,1,1.929.707l-1.029,2.036a6.344,6.344,0,0,0-3.28-.857,3.607,3.607,0,0,0-1.8.364,1.033,1.033,0,0,0-.6.922.95.95,0,0,0,.643.922,11.431,11.431,0,0,0,2.036.493,15.61,15.61,0,0,1,2.251.493,3.446,3.446,0,0,1,1.5.943,2.6,2.6,0,0,1,.643,1.886,2.986,2.986,0,0,1-1.393,2.572A6.568,6.568,0,0,1,696.469,47.714Zm20.622.064a8.584,8.584,0,0,1-4.116-.986,7.516,7.516,0,0,1-2.872-2.765,7.7,7.7,0,0,1-1.029-3.966,7.578,7.578,0,0,1,1.05-3.966A7.361,7.361,0,0,1,713,33.352a8.438,8.438,0,0,1,4.116-1.007,8.565,8.565,0,0,1,3.365.643,6.869,6.869,0,0,1,2.572,1.865l-1.8,1.693a5.251,5.251,0,0,0-4.008-1.758,5.551,5.551,0,0,0-2.765.686,4.789,4.789,0,0,0-1.908,1.865,5.745,5.745,0,0,0,0,5.445,4.937,4.937,0,0,0,1.908,1.886,5.693,5.693,0,0,0,2.765.665,5.223,5.223,0,0,0,4.008-1.779l1.8,1.715a6.83,6.83,0,0,1-2.594,1.865A8.566,8.566,0,0,1,717.09,47.779Zm13.1-.064a6.5,6.5,0,0,1-3.13-.75,5.573,5.573,0,0,1-2.186-2.079,6.024,6.024,0,0,1-.772-3.044,5.907,5.907,0,0,1,.772-3.022,5.573,5.573,0,0,1,2.186-2.079,6.947,6.947,0,0,1,6.281,0,5.414,5.414,0,0,1,2.165,2.079,5.78,5.78,0,0,1,.793,3.022,5.894,5.894,0,0,1-.793,3.044,5.414,5.414,0,0,1-2.165,2.079A6.538,6.538,0,0,1,730.187,47.714Zm0-2.294a3.274,3.274,0,0,0,2.444-.986,3.969,3.969,0,0,0,0-5.187,3.521,3.521,0,0,0-4.887,0,4.038,4.038,0,0,0,0,5.187A3.274,3.274,0,0,0,730.187,45.421ZM742.4,47.714a10.25,10.25,0,0,1-2.722-.364,6.856,6.856,0,0,1-2.122-.922l1.029-2.036a6.863,6.863,0,0,0,1.843.836,8.076,8.076,0,0,0,2.144.3q2.4,0,2.4-1.265a.847.847,0,0,0-.622-.836,10.255,10.255,0,0,0-1.951-.45,16.319,16.319,0,0,1-2.315-.493,3.671,3.671,0,0,1-1.543-.965,2.792,2.792,0,0,1-.643-1.951,3.029,3.029,0,0,1,1.35-2.594,6.2,6.2,0,0,1,3.687-.986,10.217,10.217,0,0,1,2.358.279,6.414,6.414,0,0,1,1.929.707l-1.029,2.036a6.345,6.345,0,0,0-3.28-.857,3.607,3.607,0,0,0-1.8.364,1.033,1.033,0,0,0-.6.922.95.95,0,0,0,.643.922,11.429,11.429,0,0,0,2.036.493,15.61,15.61,0,0,1,2.251.493,3.446,3.446,0,0,1,1.5.943,2.6,2.6,0,0,1,.643,1.886,2.986,2.986,0,0,1-1.393,2.572A6.568,6.568,0,0,1,742.4,47.714Zm14.375-.772a3.153,3.153,0,0,1-1.158.579,5.054,5.054,0,0,1-1.415.193,4.044,4.044,0,0,1-2.915-.986,3.8,3.8,0,0,1-1.029-2.872V38.347h-1.886V36.2h1.886V33.588h2.679V36.2H756v2.144h-3.065v5.445a1.85,1.85,0,0,0,.407,1.286,1.55,1.55,0,0,0,1.179.429,2.355,2.355,0,0,0,1.5-.472Z" transform="translate(9.499 14.032)"/><path class="a" d="M485.133,8.547a25.4,25.4,0,0,1,3.995-.321c13.723,0,24.846,10.528,24.846,23.517a22.377,22.377,0,0,1-3.751,12.38,27.172,27.172,0,0,0,.991-7.154C511.213,22.5,499.85,10.528,485.133,8.547Zm34.362,23.2A27.13,27.13,0,0,1,518.5,38.9a22.369,22.369,0,0,0,3.752-12.38C522.255,13.528,511.132,3,497.409,3a25.4,25.4,0,0,0-3.995.321C508.132,5.3,519.495,17.275,519.495,31.743ZM480.846,18.678c10.653,0,19.324,8.2,19.324,18.291S491.5,55.26,480.846,55.26s-19.324-8.2-19.324-18.291S470.192,18.678,480.846,18.678Zm0-5.226C467.122,13.452,456,23.98,456,36.969s11.122,23.517,24.846,23.517,24.846-10.528,24.846-23.517S494.568,13.452,480.846,13.452Zm9.431,28.053c0-4.669-5.135-5.971-9.072-7.721-2.385-1.173-2.09-3.985,1.334-4.173a15.416,15.416,0,0,1,5.621,1.011l.833-3.585a22.412,22.412,0,0,0-5.618-.92V23.9h-2.3v2.323c-4.475.583-6.868,3.24-6.868,6.206,0,5.31,6.55,6.12,8.69,7.063,2.929,1.238,2.382,3.81-.259,4.377-2.292.491-5.226-.366-7.421-1.176l-1.044,3.58a16.6,16.6,0,0,0,6.9,1.581v2.177h2.3V47.742C487.187,47.235,490.284,45.244,490.276,41.505Z" transform="translate(12.015 14.751)"/></g></svg>